<svg xmlns="http://www.w3.org/2000/svg" xmlns:xlink="http://www.w3.org/1999/xlink" viewBox="0 0 811.91 425.35"><defs><style>.cls-1,.cls-10,.cls-11,.cls-12,.cls-13,.cls-14,.cls-15,.cls-16,.cls-17,.cls-18,.cls-19,.cls-20,.cls-21,.cls-22,.cls-23,.cls-24,.cls-5,.cls-6,.cls-7,.cls-8,.cls-9{fill:none;}.cls-2{clip-path:url(#clip-path);}.cls-3{fill:url(#linear-gradient);}.cls-4{clip-path:url(#clip-path-2);}.cls-10,.cls-11,.cls-12,.cls-13,.cls-14,.cls-15,.cls-16,.cls-17,.cls-18,.cls-19,.cls-20,.cls-21,.cls-22,.cls-23,.cls-24,.cls-5,.cls-6,.cls-7,.cls-9{stroke-miterlimit:10;}.cls-5{stroke-width:0.5px;stroke:url(#linear-gradient-2);}.cls-6{stroke-width:0.49px;stroke:url(#linear-gradient-3);}.cls-7{stroke-width:0.47px;stroke:url(#linear-gradient-4);}.cls-8{stroke-miterlimit:10;stroke-width:0.46px;stroke:url(#linear-gradient-5);}.cls-9{stroke-width:0.45px;stroke:url(#linear-gradient-6);}.cls-10{stroke-width:0.43px;stroke:url(#linear-gradient-7);}.cls-11{stroke-width:0.42px;stroke:url(#linear-gradient-8);}.cls-12{stroke-width:0.41px;stroke:url(#linear-gradient-9);}.cls-13{stroke-width:0.39px;stroke:url(#linear-gradient-10);}.cls-14{stroke-width:0.38px;stroke:url(#linear-gradient-11);}.cls-15{stroke-width:0.37px;stroke:url(#linear-gradient-12);}.cls-16{stroke-width:0.36px;stroke:url(#linear-gradient-13);}.cls-17{stroke-width:0.34px;stroke:url(#linear-gradient-14);}.cls-18{stroke-width:0.33px;stroke:url(#linear-gradient-15);}.cls-19{stroke-width:0.32px;stroke:url(#linear-gradient-16);}.cls-20{stroke-width:0.3px;stroke:url(#linear-gradient-17);}.cls-21{stroke-width:0.29px;stroke:url(#linear-gradient-18);}.cls-22{stroke-width:0.28px;stroke:url(#linear-gradient-19);}.cls-23{stroke-width:0.26px;stroke:url(#linear-gradient-20);}.cls-24{stroke-width:0.25px;stroke:url(#linear-gradient-21);}.cls-25{opacity:0.04;}.cls-26{fill:#fff;}</style><clipPath id="clip-path" transform="translate(223.58 2.01)"><rect class="cls-1" width="470.84" height="378.08" transform="translate(470.84 378.08) rotate(180)"/></clipPath><linearGradient id="linear-gradient" x1="199.54" y1="188.98" x2="695.93" y2="188.98" gradientUnits="userSpaceOnUse"><stop offset="0" stop-color="#015eff"/><stop offset="0.04" stop-color="#0851d2"/><stop offset="0.08" stop-color="#0e45a8"/><stop offset="0.12" stop-color="#143b83"/><stop offset="0.17" stop-color="#193264"/><stop offset="0.22" stop-color="#1c2b4b"/><stop offset="0.28" stop-color="#1f2638"/><stop offset="0.35" stop-color="#21222a"/><stop offset="0.43" stop-color="#232022"/><stop offset="0.59" stop-color="#231f20"/><stop offset="0.66" stop-color="#261f20"/><stop offset="0.72" stop-color="#311f20"/><stop offset="0.77" stop-color="#421f21"/><stop offset="0.83" stop-color="#5b1e21"/><stop offset="0.88" stop-color="#7a1e22"/><stop offset="0.92" stop-color="#a11d23"/><stop offset="0.97" stop-color="#ce1c24"/><stop offset="1" stop-color="#ed1c25"/></linearGradient><clipPath id="clip-path-2" transform="translate(223.58 2.01)"><rect class="cls-1" x="-24.3" y="-0.69" width="496.9" height="375.33"/></clipPath><linearGradient id="linear-gradient-2" x1="631.25" y1="-937.24" x2="1367.46" y2="-937.24" gradientTransform="matrix(0.91, 0.48, -0.47, 1.02, -1148.87, 509.41)" gradientUnits="userSpaceOnUse"><stop offset="0" stop-color="#231f20" stop-opacity="0"/><stop offset="0.32" stop-color="#252122" stop-opacity="0.01"/><stop offset="0.43" stop-color="#2a2728" stop-opacity="0.03"/><stop offset="0.51" stop-color="#353132" stop-opacity="0.08"/><stop offset="0.58" stop-color="#434041" stop-opacity="0.15"/><stop offset="0.63" stop-color="#565354" stop-opacity="0.23"/><stop offset="0.68" stop-color="#6e6b6c" stop-opacity="0.34"/><stop offset="0.73" stop-color="#8a8888" stop-opacity="0.47"/><stop offset="0.77" stop-color="#aaa9a9" stop-opacity="0.61"/><stop offset="0.81" stop-color="#d0cfcf" stop-opacity="0.78"/><stop offset="0.84" stop-color="#f7f7f7" stop-opacity="0.96"/><stop offset="0.85" stop-color="#fff"/></linearGradient><linearGradient id="linear-gradient-3" x1="633.96" y1="-926.59" x2="1374.87" y2="-926.59" xlink:href="#linear-gradient-2"/><linearGradient id="linear-gradient-4" x1="636.65" y1="-915.84" x2="1382.28" y2="-915.84" xlink:href="#linear-gradient-2"/><linearGradient id="linear-gradient-5" x1="639.35" y1="-905.09" x2="1389.69" y2="-905.09" xlink:href="#linear-gradient-2"/><linearGradient id="linear-gradient-6" x1="642.05" y1="-894.35" x2="1397.11" y2="-894.35" xlink:href="#linear-gradient-2"/><linearGradient id="linear-gradient-7" x1="644.75" y1="-883.61" x2="1404.52" y2="-883.61" xlink:href="#linear-gradient-2"/><linearGradient id="linear-gradient-8" x1="647.44" y1="-872.88" x2="1411.93" y2="-872.88" xlink:href="#linear-gradient-2"/><linearGradient id="linear-gradient-9" x1="650.14" y1="-862.14" x2="1419.34" y2="-862.14" xlink:href="#linear-gradient-2"/><linearGradient id="linear-gradient-10" x1="652.84" y1="-851.42" x2="1426.76" y2="-851.42" xlink:href="#linear-gradient-2"/><linearGradient id="linear-gradient-11" x1="655.53" y1="-840.69" x2="1434.17" y2="-840.69" xlink:href="#linear-gradient-2"/><linearGradient id="linear-gradient-12" x1="658.23" y1="-829.97" x2="1441.58" y2="-829.97" xlink:href="#linear-gradient-2"/><linearGradient id="linear-gradient-13" x1="660.93" y1="-819.25" x2="1448.99" y2="-819.25" xlink:href="#linear-gradient-2"/><linearGradient id="linear-gradient-14" x1="663.63" y1="-808.53" x2="1456.4" y2="-808.53" xlink:href="#linear-gradient-2"/><linearGradient id="linear-gradient-15" x1="666.33" y1="-797.82" x2="1463.82" y2="-797.82" xlink:href="#linear-gradient-2"/><linearGradient id="linear-gradient-16" x1="669.04" y1="-787.11" x2="1471.23" y2="-787.11" xlink:href="#linear-gradient-2"/><linearGradient id="linear-gradient-17" x1="671.75" y1="-776.4" x2="1478.64" y2="-776.4" xlink:href="#linear-gradient-2"/><linearGradient id="linear-gradient-18" x1="674.46" y1="-765.7" x2="1486.05" y2="-765.7" xlink:href="#linear-gradient-2"/><linearGradient id="linear-gradient-19" x1="677.17" y1="-755.03" x2="1493.47" y2="-755.03" xlink:href="#linear-gradient-2"/><linearGradient id="linear-gradient-20" x1="679.88" y1="-744.45" x2="1500.88" y2="-744.45" xlink:href="#linear-gradient-2"/><linearGradient id="linear-gradient-21" x1="682.6" y1="-734.11" x2="1508.27" y2="-734.11" xlink:href="#linear-gradient-2"/></defs><g id="Layer_2" data-name="Layer 2"><g id="Layer_1-2" data-name="Layer 1"><g class="cls-2"><rect class="cls-3" x="199.54" y="0.59" width="496.39" height="376.77"/><g class="cls-4"><path class="cls-5" d="M-206,2c42.3,23.8,88.87,45.22,137.52,46.85C-34,50,.5,39.48,34.92,43.6c68,8.13,129.63,44.93,203.28,18.69C270,51,293,23.14,324,9.88c43.85-18.77,97.84-12.22,142.45,1.28,31.19,9.43,48.29,29.37,61.86,57.71,10.06,21,18.77,44.29,35.71,61.1" transform="translate(223.58 2.01)"/><path class="cls-6" d="M-206.91,10.7C-166,31.45-118.32,53.43-69.29,56-45.48,57.23-21.85,53.29,1.06,51A157.65,157.65,0,0,1,34,50.75c65.34,7.31,126.1,43.39,196.53,22.77,2.22-.65,4.46-1.33,6.72-2.08,31.31-10.42,55-36,86.37-47.81C367.46,7.16,421,14.42,465.5,28.48c31.05,9.79,48.26,29.7,62.68,57.05,11.19,21.22,21.06,43.95,37.1,59.88" transform="translate(223.58 2.01)"/><path class="cls-7" d="M-207.83,19.37c39.5,17.68,88.3,40.22,137.72,43.67C-46,64.8-22.15,61.53.22,58.75a146.66,146.66,0,0,1,32.86-.84C97.89,64.65,159.41,102,229.56,82.52c2.22-.61,4.48-1.23,6.75-1.93,30.84-9.55,55.18-32.92,86.94-43.21,43.8-14.19,96.88-6.2,141.31,8.43,30.91,10.14,48.31,30,63.5,56.38,12.37,21.46,23.35,43.61,38.5,58.65" transform="translate(223.58 2.01)"/><path class="cls-8" d="M-208.75,28c38.1,14.62,88,37.6,137.82,42.07,24.49,2.2,48.48-.35,70.3-3.63a135.63,135.63,0,0,1,32.8-1.42c64.27,6,126.55,44.73,196.42,26.47,2.22-.58,4.49-1.14,6.77-1.8,30.37-8.68,55.33-29.81,87.53-38.6,43.72-11.93,96.38-3.19,140.73,12,30.76,10.48,48.44,30.3,64.32,55.71,13.58,21.7,25.64,43.27,39.9,57.43" transform="translate(223.58 2.01)"/><path class="cls-9" d="M-209.67,36.7C-173,48.26-121.92,71.78-71.75,77.18c24.83,2.68,49,.79,70.28-3,10.74-1.9,21.64-2.93,32.72-2C95,77.63,158,117.62,227.62,100.53c2.22-.54,4.5-1,6.8-1.65,29.88-7.84,55.45-26.73,88.1-34,43.62-9.71,95.9-.19,140.16,15.58,30.62,10.84,48.62,30.58,65.15,55,14.82,21.95,27.92,42.94,41.28,56.21" transform="translate(223.58 2.01)"/><path class="cls-10" d="M-210.59,45.37c35.31,8.5,87.47,32.55,138,38.89A220,220,0,0,0-2.31,81.94c10.68-2.18,21.54-3.41,32.64-2.57,63.2,4.82,127,45.92,196.32,30.16,2.22-.5,4.5-1,6.82-1.5,29.39-7,55.56-23.67,88.68-29.4,43.49-7.52,95.42,2.82,139.6,19.16,30.47,11.19,48.86,30.83,66,54.37,16.1,22.18,30.2,42.6,42.68,55" transform="translate(223.58 2.01)"/><path class="cls-11" d="M-211.51,54c33.91,5.44,87.19,30,138.12,37.29,25.52,3.64,50.05,3,70.23-1.66,10.62-2.47,21.45-3.89,32.57-3.14,62.66,4.21,127.21,46.57,196.27,32,2.22-.47,4.51-.86,6.85-1.36,28.88-6.2,55.64-20.63,89.25-24.79,43.34-5.37,94.93,5.83,139,22.74,30.32,11.53,49.16,31.06,66.78,53.7,17.43,22.4,32.49,42.26,44.08,53.76" transform="translate(223.58 2.01)"/><path class="cls-12" d="M-212.43,62.7c32.51,2.38,86.91,27.53,138.22,35.7,25.86,4.13,50.58,4.14,70.21-1C6.56,94.64,17.35,93,28.5,93.68c62.11,3.63,127.44,47.23,196.21,33.85,2.22-.43,4.52-.76,6.87-1.21,28.38-5.41,55.72-17.62,89.83-20.19,43.18-3.25,94.45,8.84,138.46,26.31,30.18,11.89,49.5,31.27,67.6,53,18.79,22.6,34.78,41.92,45.47,52.54" transform="translate(223.58 2.01)"/><path class="cls-13" d="M-213.35,71.37c31.11-.68,86.63,25,138.32,34.11,26.2,4.61,51.1,5.22,70.19-.35a97.61,97.61,0,0,1,32.42-4.29c61.57,3,127.67,47.89,196.16,35.7,2.21-.4,4.53-.68,6.9-1.08,27.86-4.62,55.92-12.35,90.4-15.58,42.83-4,94,11.85,137.89,29.89,30,12.23,49.88,31.44,68.42,52.36,20.18,22.78,37.07,41.59,46.87,51.32" transform="translate(223.58 2.01)"/><path class="cls-14" d="M-214.27,80c29.72-3.75,86.35,22.51,138.42,32.51,26.55,5.1,51.62,6.3,70.16.31A92.65,92.65,0,0,1,26.66,108c61,2.47,127.9,48.56,196.11,37.55,2.21-.36,4.53-.59,6.92-.93,27.34-3.87,55.88-9.34,91-11,42.77-2,93.48,14.86,137.31,33.47,29.89,12.58,50.29,31.59,69.24,51.69,21.61,22.93,39.35,41.25,48.27,50.1" transform="translate(223.58 2.01)"/><path class="cls-15" d="M-215.19,88.7c28.32-6.8,86.07,20,138.52,30.93,26.89,5.59,52.14,7.35,70.14,1a87.33,87.33,0,0,1,32.28-5.44C86.23,117,153.88,164.37,221.8,154.54c2.21-.32,4.54-.5,6.95-.78,26.81-3.13,55.91-8.77,91.56-6.38,42.63,2.85,93,17.86,136.74,37,29.75,12.94,50.73,31.72,70.06,51,23.07,23.05,41.64,40.91,49.66,48.87" transform="translate(223.58 2.01)"/><path class="cls-16" d="M-216.11,97.37c26.92-9.86,85.78,17.52,138.62,29.33,27.23,6.08,52.65,8.4,70.12,1.62a83,83,0,0,1,32.2-6c59.94,1.33,128.36,49.9,196,41.24,2.21-.28,4.55-.41,7-.64,26.29-2.41,56-5.88,92.14-1.77,42.46,4.81,92.51,20.87,136.17,40.62C485.71,215,507.3,233.56,527,252.11c24.56,23.13,43.93,40.57,51.06,47.65" transform="translate(223.58 2.01)"/><path class="cls-17" d="M-217,106c25.52-12.93,85.5,15,138.72,27.73,27.57,6.58,53.16,9.45,70.09,2.28a79.05,79.05,0,0,1,32.13-6.59c59.4.77,128.6,50.57,196,43.09,2.21-.25,4.55-.34,7-.5,25.76-1.71,56.05-3,92.71,2.83,42.3,6.74,92,23.88,135.61,44.2,29.45,13.63,51.65,31.88,71.69,49.69C553,292,573.09,309,579.33,315.19" transform="translate(223.58 2.01)"/><path class="cls-18" d="M-217.95,114.7c24.12-16,85.21,12.55,138.82,26.15,27.91,7.08,53.66,10.47,70.07,2.93A74,74,0,0,1,23,136.61c58.86.69,128.84,51.26,195.9,44.94,2.21-.21,4.56-.26,7-.35a378.38,378.38,0,0,1,93.29,7.43c42.15,8.64,91.54,26.89,135,47.77,29.31,14,52.14,31.93,72.51,49,27.63,23.19,48.51,39.9,53.85,45.21" transform="translate(223.58 2.01)"/><path class="cls-19" d="M-218.87,123.37c22.73-19.05,84.93,10.06,138.93,24.55,28.24,7.58,54.14,11.49,70,3.59a71.81,71.81,0,0,1,32-7.74c58.31-.33,129.06,51.94,195.84,46.78,2.21-.17,4.57-.05,7.05-.21,24.66-1.54,56.25,2.62,93.86,12,42,10.52,91.06,29.9,134.47,51.35,29.16,14.33,52.64,32,73.33,48.35,29.19,23.15,50.79,39.56,55.25,44" transform="translate(223.58 2.01)"/><path class="cls-20" d="M-219.79,132c21.33-22.11,84.64,7.58,139,23,28.58,8.08,54.63,12.49,70,4.24a68.75,68.75,0,0,1,31.91-8.32c57.78-.87,129.3,52.64,195.79,48.63,2.21-.13,4.57,0,7.07-.06,24.18-.72,56.38,5.39,94.45,16.63C360.37,228.5,409,249,452.36,271.06c29,14.68,53.14,31.94,74.15,47.68,30.78,23.06,53.08,39.22,56.65,42.76" transform="translate(223.58 2.01)"/><path class="cls-21" d="M-220.71,140.7c19.93-25.17,84.32,5.2,139.13,21.37,28.9,8.63,55.11,13.49,70,4.9a66,66,0,0,1,31.83-8.9c57.24-1.4,129.54,53.45,195.74,50.48,2.21-.09,4.58,0,7.1.08,23.67.94,56.51,8.16,95,21.24,41.81,14.21,90.09,35.92,133.32,58.51,28.88,15,53.65,31.93,75,47,32.39,22.92,55.37,38.88,58,41.53" transform="translate(223.58 2.01)"/><path class="cls-22" d="M-221.63,149.37c18.53-28.23,84,2.7,139.23,19.77,29.24,9.13,55.57,14.48,70,5.56a63.38,63.38,0,0,1,31.75-9.47C76,163.4,149.09,219.34,215,217.56c2.22-.06,4.6.05,7.13.22,23.16,1.56,56.68,10.9,95.6,25.84,41.75,16,89.6,38.93,132.75,62.09,28.73,15.38,54.15,31.88,75.79,46.35,34,22.74,57.66,38.54,59.44,40.31" transform="translate(223.58 2.01)"/><path class="cls-23" d="M-222.55,158c17.13-31.29,83.75.19,139.33,18.18,29.58,9.61,56,15.46,69.94,6.22a60.79,60.79,0,0,1,31.69-10.06c56.15-2.4,130,54.79,195.62,54.18a67.79,67.79,0,0,1,7.16.37c22.66,2.16,56.86,13.63,96.17,30.44,41.71,17.85,89.12,41.94,132.18,65.67,28.59,15.73,54.65,31.81,76.61,45.67,35.65,22.52,59.94,38.21,60.84,39.09" transform="translate(223.58 2.01)"/><path class="cls-24" d="M-223.47,166.7c24.15-52.71,170.76,51,209.35,23.47,56.21-40,148.42,44.71,227.18,45.39,76.91.67,375.2,187.68,375.2,187.68" transform="translate(223.58 2.01)"/></g><g class="cls-25"><path class="cls-26" d="M82.65,156.31a5.57,5.57,0,0,1,2.37,0l0-6.18a5.37,5.37,0,0,1-2.36.14Z" transform="translate(223.58 2.01)"/><path class="cls-26" d="M83,259.44l.07,17.62h2.36l-.07-17.57A5.53,5.53,0,0,1,83,259.44Z" transform="translate(223.58 2.01)"/><path class="cls-26" d="M83,247.15a5.57,5.57,0,0,1,2.37,0l0-6.67a5.38,5.38,0,0,1-2.36.2Z" transform="translate(223.58 2.01)"/><path class="cls-26" d="M82.93,229.46a5.54,5.54,0,0,1,2.36-.18l0-6.9a5.25,5.25,0,0,1-2.36.36Z" transform="translate(223.58 2.01)"/><path class="cls-26" d="M82.86,210.87a5.53,5.53,0,0,1,2.36.16l0-6.7a5.42,5.42,0,0,1-2.37.14Z" transform="translate(223.58 2.01)"/><path class="cls-26" d="M82.79,192.87a5.52,5.52,0,0,1,2.36.13l0-6.91a5.76,5.76,0,0,1-2.37-.25Z" transform="translate(223.58 2.01)"/><path class="cls-26" d="M82.72,174.89a5.43,5.43,0,0,1,2.37-.27l0-6.27a5.52,5.52,0,0,1-2.36.08Z" transform="translate(223.58 2.01)"/><path class="cls-26" d="M85,138.3l0-6H82.56l0,5.94A5.69,5.69,0,0,1,85,138.3Z" transform="translate(223.58 2.01)"/><path class="cls-26" d="M39.89,150l.46,124.85H38.43L38,150a1,1,0,0,1,1-1h0A1,1,0,0,1,39.89,150Z" transform="translate(223.58 2.01)"/><path class="cls-26" d="M43.46,150l.47,124.85H42L41.54,150a1,1,0,0,1,1-1h0A1,1,0,0,1,43.46,150Z" transform="translate(223.58 2.01)"/><path class="cls-26" d="M36.22,150l.47,124.67-1.92-.23L34.3,150a1,1,0,0,1,1-.95h0A1,1,0,0,1,36.22,150Z" transform="translate(223.58 2.01)"/><polygon class="cls-26" points="289.4 97.36 295.72 97.34 288.79 87.59 282.47 87.61 289.4 97.36"/><polygon class="cls-26" points="298.13 87.56 291.81 87.58 298.73 97.33 305.06 97.31 298.13 87.56"/><polygon class="cls-26" points="280.19 97.4 286.52 97.38 279.59 87.62 273.26 87.65 280.19 97.4"/><polygon class="cls-26" points="270.68 97.44 277 97.41 270.07 87.66 263.75 87.68 270.68 97.44"/><polygon class="cls-26" points="260.82 97.47 267.14 97.45 260.22 87.7 253.89 87.72 260.82 97.47"/><polygon class="cls-26" points="250.74 97.51 257.07 97.49 250.14 87.73 243.82 87.76 250.74 97.51"/><path class="cls-26" d="M33.85,113.43l0,11.27,20.7,0v-2H60v-2.14H54.56V120H60V117.9H54.55v-.62H60v-2.14H54.55v-1.76Zm18.44,9.47-16.62,0V115.2l16.61,0Z" transform="translate(223.58 2.01)"/><rect class="cls-26" x="80.54" y="72.38" width="11.33" height="11.16" transform="translate(231.6 165.97) rotate(-89.86)"/><rect class="cls-26" x="80.36" y="56.17" width="9.07" height="8.7" transform="matrix(0, -1, 1, 0, 247.75, 147.27)"/><rect class="cls-26" x="80.35" y="42.33" width="6.16" height="5.91" transform="translate(261.52 130.61) rotate(-89.86)"/><rect class="cls-26" x="80.33" y="29.77" width="4.63" height="4.44" transform="translate(274.03 116.56) rotate(-89.86)"/><path class="cls-26" d="M55.4,141.78l13.49.07,0-13.24-13.49-.08ZM67,140.19l-9.94-.06L57,130.19l9.93.07Z" transform="translate(223.58 2.01)"/><polygon class="cls-26" points="307.08 289.86 299.65 299.88 301.27 299.88 308.7 289.85 307.08 289.86"/><polygon class="cls-26" points="304.3 289.87 296.87 299.89 298.48 299.88 305.91 289.86 304.3 289.87"/><polygon class="cls-26" points="309.86 289.85 302.43 299.87 304.05 299.86 311.48 289.84 309.86 289.85"/><polygon class="cls-26" points="315.5 289.82 308.07 299.85 309.68 299.84 317.11 289.82 315.5 289.82"/><polygon class="cls-26" points="312.71 289.83 305.28 299.86 306.9 299.85 314.33 289.83 312.71 289.83"/><polygon class="cls-26" points="318.28 289.81 310.85 299.84 312.46 299.83 319.89 289.81 318.28 289.81"/><polygon class="cls-26" points="279.91 295.46 272.49 305.49 274.1 305.48 281.53 295.45 279.91 295.46"/><polygon class="cls-26" points="277.13 295.47 269.7 305.5 271.31 305.49 278.74 295.46 277.13 295.47"/><polygon class="cls-26" points="282.69 295.45 275.27 305.48 276.88 305.47 284.31 295.44 282.69 295.45"/><polygon class="cls-26" points="288.33 295.43 280.9 305.46 282.52 305.45 289.94 295.42 288.33 295.43"/><polygon class="cls-26" points="285.54 295.44 278.12 305.47 279.73 305.46 287.16 295.43 285.54 295.44"/><polygon class="cls-26" points="291.11 295.42 283.68 305.45 285.3 305.44 292.73 295.41 291.11 295.42"/><path class="cls-26" d="M64.26,274.38l-12.52.39L52,287.29l12.52-.39,0-1.26h0l51.54-.4c.27-1.11.86-2,.31-2.61l-53.23.42h1.33l0-1.11,51.19-.24v-2.6l-51.22.24,0-2.05,21.13-.13,0-1.65-21.16.13Zm-1,11.31-10,.31L53,276l10-.31Z" transform="translate(223.58 2.01)"/><polygon class="cls-26" points="283.8 280.64 279.66 280.77 279.74 284.91 283.88 284.78 283.8 280.64"/><polygon class="cls-26" points="268.54 292.15 268.56 288.95 262.18 288.97 262.16 292.17 268.54 292.15"/><polygon class="cls-26" points="260.33 292.17 260.34 288.97 253.96 288.99 253.94 292.19 260.33 292.17"/><polygon class="cls-26" points="262.13 296.51 268.52 296.49 268.54 293.29 262.15 293.31 262.13 296.51"/><polygon class="cls-26" points="253.93 293.33 253.92 296.53 260.3 296.51 260.32 293.31 253.93 293.33"/><polygon class="cls-26" points="245.72 293.36 245.7 296.56 252.08 296.54 252.1 293.34 245.72 293.36"/><polygon class="cls-26" points="243.38 291.65 243.4 288.95 238.1 288.97 238.08 291.67 243.38 291.65"/><polygon class="cls-26" points="231.39 291.69 236.69 291.68 236.71 288.97 231.41 288.99 231.39 291.69"/><polygon class="cls-26" points="238.08 292.5 238.05 296.66 243.35 296.65 243.38 292.49 238.08 292.5"/><polygon class="cls-26" points="231.39 292.52 231.36 296.69 236.66 296.67 236.69 292.51 231.39 292.52"/><polygon class="cls-26" points="271.34 193.29 271.35 190.74 278.56 198.23 278.55 200.78 271.34 193.29"/><polygon class="cls-26" points="271.45 187.53 271.45 184.98 278.66 192.47 278.66 195.03 271.45 187.53"/><polygon class="cls-26" points="271.23 199.13 271.23 196.58 278.44 204.07 278.44 206.63 271.23 199.13"/><polygon class="cls-26" points="276.84 155.79 276.84 153.24 284.05 160.73 284.05 163.28 276.84 155.79"/><polygon class="cls-26" points="276.95 150.04 276.95 147.48 284.16 154.97 284.16 157.53 276.95 150.04"/><polygon class="cls-26" points="276.72 161.64 276.73 159.08 283.94 166.57 283.93 169.13 276.72 161.64"/><path class="cls-26" d="M47.72,180.62v-.14l0-12.56a.36.36,0,0,1,.71,0l0,12.41,8,8.4h0a.35.35,0,0,1-.51.48Z" transform="translate(223.58 2.01)"/><path class="cls-26" d="M60,181.76a.34.34,0,0,1-.09-.24l0-11.17-8-8.4h0a.35.35,0,0,1,.51-.48l8.15,8.6.05,11.46a.36.36,0,0,1-.36.35A.36.36,0,0,1,60,181.76Z" transform="translate(223.58 2.01)"/><polyline class="cls-26" points="286.95 308.57 303.39 287.28 315.11 287.23 315.1 286.29 303 286.33 286.56 307.63"/><polyline class="cls-26" points="286.21 306.93 302.65 285.63 315.81 285.58 315.82 287.94 303.74 287.98 287.3 309.28"/><polygon class="cls-26" points="297.27 307.8 297.28 308.84 236.42 308.98 236.42 307.94 297.27 307.8"/><rect class="cls-26" x="12.07" y="305.09" width="62.41" height="2.59" transform="translate(222.78 2.12) rotate(-0.15)"/><circle class="cls-26" cx="296.91" cy="308.28" r="3.72"/><circle class="cls-26" cx="233.19" cy="308.28" r="3.72"/><path class="cls-26" d="M47.22,296.94l-41.67.13.07-12.38,41.67-.16ZM6.84,295.88l39.1-.12.06-10-39.1.15Z" transform="translate(223.58 2.01)"/><polygon class="cls-26" points="252.11 292.2 252.13 289 245.74 289.02 245.72 292.22 252.11 292.2"/><polygon class="cls-26" points="256.99 74.97 254.19 75.96 254.14 78.93 252.33 76.57 249.49 77.44 251.18 74.99 249.47 72.56 252.32 73.41 254.11 71.03 254.18 74 256.99 74.97"/><polygon class="cls-26" points="256.96 65.91 254.15 66.89 254.1 69.87 252.3 67.5 249.46 68.38 251.14 65.93 249.44 63.49 252.29 64.34 254.07 61.97 254.15 64.94 256.96 65.91"/><polygon class="cls-26" points="256.92 56.84 254.12 57.83 254.07 60.8 252.26 58.44 249.42 59.31 251.11 56.87 249.4 54.43 252.25 55.28 254.04 52.91 254.11 55.88 256.92 56.84"/><polygon class="cls-26" points="256.89 47.78 254.08 48.77 254.03 51.74 252.23 49.38 249.39 50.25 251.08 47.8 249.37 45.37 252.22 46.22 254 43.84 254.08 46.81 256.89 47.78"/><polygon class="cls-26" points="256.86 38.72 254.05 39.7 254 42.68 252.2 40.31 249.35 41.19 251.04 38.74 249.34 36.3 252.18 37.16 253.97 34.78 254.04 37.75 256.86 38.72"/><polygon class="cls-26" points="265.81 74.94 263 75.92 262.95 78.9 261.15 76.53 258.31 77.41 260 74.96 258.29 72.52 261.14 73.37 262.93 71 263 73.97 265.81 74.94"/><polygon class="cls-26" points="265.77 65.87 262.97 66.86 262.92 69.83 261.12 67.47 258.27 68.34 259.96 65.89 258.25 63.46 261.1 64.31 262.89 61.94 262.96 64.91 265.77 65.87"/><polygon class="cls-26" points="265.74 56.81 262.94 57.8 262.89 60.77 261.08 58.41 258.24 59.28 259.93 56.83 258.22 54.4 261.07 55.25 262.86 52.87 262.93 55.84 265.74 56.81"/><polygon class="cls-26" points="265.71 47.75 262.9 48.73 262.85 51.71 261.05 49.34 258.2 50.22 259.89 47.77 258.19 45.34 261.04 46.19 262.82 43.81 262.89 46.78 265.71 47.75"/><polygon class="cls-26" points="265.67 38.68 262.87 39.67 262.82 42.64 261.01 40.28 258.17 41.15 259.86 38.71 258.15 36.27 261 37.12 262.79 34.75 262.86 37.72 265.67 38.68"/><polygon class="cls-26" points="274.63 74.9 271.82 75.89 271.77 78.86 269.97 76.5 267.13 77.37 268.81 74.92 267.11 72.49 269.96 73.34 271.74 70.97 271.81 73.94 274.63 74.9"/><polygon class="cls-26" points="274.59 65.84 271.79 66.83 271.74 69.8 269.93 67.44 267.09 68.31 268.78 65.86 267.07 63.43 269.92 64.28 271.71 61.9 271.78 64.88 274.59 65.84"/><polygon class="cls-26" points="274.56 56.78 271.75 57.76 271.7 60.74 269.9 58.37 267.06 59.25 268.75 56.8 267.04 54.37 269.89 55.22 271.68 52.84 271.75 55.81 274.56 56.78"/><polygon class="cls-26" points="274.52 47.71 271.72 48.7 271.67 51.67 269.87 49.31 267.02 50.18 268.71 47.74 267 45.3 269.85 46.15 271.64 43.78 271.71 46.75 274.52 47.71"/><polygon class="cls-26" points="274.49 38.65 271.69 39.64 271.64 42.61 269.83 40.25 266.99 41.12 268.68 38.67 266.97 36.24 269.82 37.09 271.61 34.71 271.68 37.69 274.49 38.65"/><polygon class="cls-26" points="283.44 74.87 280.64 75.86 280.59 78.83 278.79 76.47 275.94 77.34 277.63 74.89 275.93 72.46 278.77 73.31 280.56 70.93 280.63 73.9 283.44 74.87"/><polygon class="cls-26" points="283.41 65.81 280.61 66.79 280.56 69.77 278.75 67.4 275.91 68.28 277.6 65.83 275.89 63.4 278.74 64.25 280.53 61.87 280.6 64.84 283.41 65.81"/><polygon class="cls-26" points="283.38 56.74 280.57 57.73 280.52 60.7 278.72 58.34 275.88 59.21 277.56 56.77 275.86 54.33 278.71 55.18 280.49 52.81 280.56 55.78 283.38 56.74"/><polygon class="cls-26" points="283.34 47.68 280.54 48.67 280.49 51.64 278.68 49.28 275.84 50.15 277.53 47.7 275.82 45.27 278.67 46.12 280.46 43.74 280.53 46.72 283.34 47.68"/><polygon class="cls-26" points="283.31 38.62 280.5 39.6 280.45 42.58 278.65 40.22 275.81 41.09 277.5 38.64 275.79 36.21 278.64 37.06 280.43 34.68 280.5 37.65 283.31 38.62"/><polygon class="cls-26" points="292.26 74.84 289.46 75.82 289.41 78.8 287.6 76.43 284.76 77.31 286.45 74.86 284.74 72.42 287.59 73.28 289.38 70.9 289.45 73.87 292.26 74.84"/><polygon class="cls-26" points="272.8 317.62 271.56 318.05 271.53 319.37 270.74 318.32 269.48 318.71 270.22 317.63 269.47 316.55 270.73 316.92 271.52 315.87 271.55 317.19 272.8 317.62"/><polygon class="cls-26" points="276.7 317.6 275.46 318.04 275.44 319.35 274.64 318.31 273.38 318.69 274.13 317.61 273.37 316.53 274.63 316.91 275.43 315.86 275.46 317.17 276.7 317.6"/><polygon class="cls-26" points="280.61 317.59 279.37 318.02 279.35 319.34 278.55 318.29 277.29 318.68 278.04 317.6 277.28 316.52 278.54 316.89 279.33 315.84 279.36 317.16 280.61 317.59"/><polygon class="cls-26" points="284.51 317.57 283.27 318.01 283.25 319.32 282.45 318.28 281.19 318.67 281.94 317.58 281.18 316.5 282.45 316.88 283.24 315.83 283.27 317.14 284.51 317.57"/><polygon class="cls-26" points="288.42 317.56 287.18 317.99 287.16 319.31 286.36 318.26 285.1 318.65 285.85 317.57 285.09 316.49 286.35 316.87 287.14 315.81 287.18 317.13 288.42 317.56"/><polygon class="cls-26" points="292.23 65.77 289.42 66.76 289.38 69.73 287.57 67.37 284.73 68.24 286.42 65.8 284.71 63.36 287.56 64.21 289.35 61.84 289.42 64.81 292.23 65.77"/><polygon class="cls-26" points="292.19 56.71 289.39 57.7 289.34 60.67 287.54 58.31 284.69 59.18 286.38 56.73 284.68 54.3 287.52 55.15 289.31 52.77 289.38 55.74 292.19 56.71"/><polygon class="cls-26" points="292.16 47.65 289.36 48.63 289.31 51.61 287.5 49.24 284.66 50.12 286.35 47.67 284.64 45.24 287.49 46.09 289.28 43.71 289.35 46.68 292.16 47.65"/><polygon class="cls-26" points="292.13 38.59 289.32 39.57 289.27 42.55 287.47 40.18 284.63 41.05 286.31 38.61 284.61 36.17 287.46 37.02 289.24 34.65 289.31 37.62 292.13 38.59"/><polygon class="cls-26" points="314.75 256.11 314.75 254.7 318.34 254.69 328.13 245.24 327.67 124.58 314.07 105.17 299.51 105.23 291.77 97.55 292.77 96.55 300.09 103.81 314.81 103.76 329.09 124.13 329.09 124.35 329.55 245.84 318.92 256.1 314.75 256.11"/><polygon class="cls-26" points="314.79 237.89 314.78 236.47 318.26 236.46 328.23 226.23 329.24 227.22 318.86 237.87 314.79 237.89"/><polygon class="cls-26" points="314.1 219.66 314.09 218.25 318.2 218.24 324.65 211.69 324.32 123.83 312.7 108.45 284.25 108.56 273.36 97.53 274.37 96.54 284.84 107.14 313.4 107.03 325.74 123.35 326.07 212.27 318.79 219.65 314.1 219.66"/><polygon class="cls-26" points="314.81 201.13 314.8 199.71 318.13 199.7 324.72 193.18 325.71 194.18 318.72 201.11 314.81 201.13"/><polygon class="cls-26" points="314.74 183.06 314.73 181.64 318.07 181.63 324.71 175.21 325.69 176.22 318.64 183.04 314.74 183.06"/><polygon class="cls-26" points="314.62 165.14 314.61 163.73 318 163.72 321.35 160.45 321.21 124.61 311.93 111.88 267.71 112.05 252.15 96.61 253.15 95.6 268.29 110.63 312.64 110.46 322.62 124.14 322.62 124.37 322.76 161.04 318.58 165.13 314.62 165.14"/><path class="cls-26" d="M50.45,121.53v-5.21l-12.81,0v5.21Zm-3.34-4,1,.7,1-.71-.37,1.14,1,.7H48.46l-.37,1.14-.38-1.14H46.52l1-.7Zm-4.07,0,1,.7,1-.7-.36,1.14,1,.7h-1.2L44,120.48l-.37-1.14h-1.2l1-.71Zm-4.06,0,1,.7,1-.71-.37,1.14,1,.7h-1.2L40,120.5l-.38-1.14H38.39l1-.7Z" transform="translate(223.58 2.01)"/><path class="cls-26" d="M45.52,149.43v-3.16a1.11,1.11,0,0,0-1.11-1.11l-11,0a1.11,1.11,0,0,0-1.11,1.11v3.17a1.11,1.11,0,0,0,1.11,1.11l11,0A1.12,1.12,0,0,0,45.52,149.43Zm-3.88-2.86.87.62.87-.63-.33,1,.87.63H42.85l-.33,1-.34-1H41.11l.87-.64Zm-3.63,0,.87.63.86-.64-.33,1,.87.63H39.21l-.33,1-.33-1H37.48l.86-.63Zm-3.64,0,.87.63.87-.63-.33,1,.87.62H35.58l-.33,1-.33-1H33.84l.87-.63Z" transform="translate(223.58 2.01)"/><polygon class="cls-26" points="280.32 173.93 279.36 174.25 279.36 175.26 278.76 174.44 277.8 174.76 278.39 173.94 277.8 173.12 278.76 173.43 279.35 172.61 279.35 173.62 280.32 173.93"/><polygon class="cls-26" points="277.79 176.49 276.83 176.8 276.84 177.81 276.24 177 275.28 177.31 275.87 176.49 275.27 175.68 276.24 175.99 276.83 175.17 276.83 176.18 277.79 176.49"/><polygon class="cls-26" points="277.77 171.22 276.81 171.54 276.82 172.55 276.22 171.74 275.26 172.05 275.85 171.23 275.25 170.42 276.22 170.73 276.81 169.91 276.81 170.92 277.77 171.22"/><polygon class="cls-26" points="280.34 179.01 279.38 179.33 279.38 180.34 278.78 179.52 277.82 179.84 278.41 179.02 277.82 178.2 278.78 178.51 279.37 177.69 279.37 178.7 280.34 179.01"/><polygon class="cls-26" points="280.35 183.92 279.39 184.24 279.4 185.25 278.8 184.43 277.84 184.75 278.43 183.93 277.83 183.11 278.8 183.42 279.39 182.6 279.39 183.61 280.35 183.92"/><polygon class="cls-26" points="277.81 181.54 276.85 181.85 276.86 182.87 276.26 182.05 275.3 182.37 275.89 181.54 275.29 180.73 276.25 181.04 276.85 180.22 276.85 181.23 277.81 181.54"/><path class="cls-26" d="M66.05,131.25l-7.92,0,0,7.92,7.92.05Zm-6.17,5.44L61,135.13l-1.12-1.54,1.82.59,1.11-1.56v1.92l1.82.58-1.81.6v1.91l-1.13-1.54Z" transform="translate(223.58 2.01)"/><path class="cls-26" d="M39.38,141.84l13.5.07-.05-13.24-13.5-.08ZM51,140.25l-9.93-.06L41,130.25l9.93.07Z" transform="translate(223.58 2.01)"/><path class="cls-26" d="M50,131.31l-7.92,0,.05,7.92,7.92.05Zm-6.18,5.44L45,135.19l-1.13-1.54,1.82.59,1.12-1.56v1.92l1.82.58-1.82.6v1.91l-1.13-1.54Z" transform="translate(223.58 2.01)"/><polygon class="cls-26" points="314.45 147.23 314.44 145.82 317.92 145.8 321.7 141.8 322.73 142.78 318.53 147.22 314.45 147.23"/><polygon class="cls-26" points="314.07 128.8 314.06 127.39 317.83 127.37 320.95 123.75 322.02 124.67 318.48 128.78 314.07 128.8"/><path class="cls-26" d="M22.44,195.32l-2,2.75,2,2.73-3.23-1-2,2.75v-3.39l-3.22-1L17.23,197v-3.39l2,2.73,3.22-1.06m3.69-2.7L22,194l-2.24.74-1.4-1.91-2.57-3.51,0,4.35V196l-2.24.74-4.13,1.36,4.14,1.33,2.25.72v2.36l0,4.35,2.54-3.53,1.38-1.91,2.25.72,4.14,1.33L23.6,200l-1.39-1.91,1.38-1.91,2.54-3.53Z" transform="translate(223.58 2.01)"/><path class="cls-26" d="M22.35,172.72l-2,2.75,2,2.73-3.23-1-2,2.74v-3.38l-3.23-1,3.22-1.06v-3.38l2,2.73,3.21-1.06m3.7-2.7-4.14,1.36-2.24.73-1.39-1.9-2.57-3.51v6.71l-2.24.74-4.14,1.36,4.15,1.33,2.25.72v2.36l0,4.35,2.55-3.53,1.38-1.91,2.24.72,4.15,1.33-2.57-3.51-1.4-1.91,1.38-1.91L26.05,170Z" transform="translate(223.58 2.01)"/><path class="cls-26" d="M22.27,149.73l-2,2.74,2,2.74-3.23-1-2,2.75v-3.39l-3.23-1,3.22-1.06v-3.39l2,2.74,3.22-1.06M26,147l-4.13,1.36-2.25.74-1.39-1.9-2.57-3.52v6.72l-2.24.74-4.13,1.36,4.14,1.33,2.25.72v6.71l2.55-3.53,1.38-1.92,2.25.72L26,157.88l-2.57-3.51L22,152.47l1.38-1.92L26,147Z" transform="translate(223.58 2.01)"/><path class="cls-26" d="M22.18,126.8l-2,2.75,2,2.73-3.22-1L17,134l0-3.39-3.22-1L17,128.51l0-3.38,2,2.73,3.22-1.06m3.7-2.7-4.14,1.36-2.24.74-1.4-1.91-2.57-3.51,0,4.35v2.36l-2.24.74-4.14,1.36,4.15,1.33,2.24.72V134l0,4.35,2.54-3.53,1.38-1.91,2.25.72L25.92,135l-2.58-3.51L22,129.54l1.38-1.91,2.55-3.53Z" transform="translate(223.58 2.01)"/><path class="cls-26" d="M22.1,104.13l-2,2.75,2,2.73-3.23-1-2,2.75v-3.39l-3.23-1,3.22-1.05v-3.39l2,2.73,3.22-1.06m3.69-2.7-4.13,1.36-2.25.74L18,101.62l-2.57-3.51v6.71l-2.24.74L9.1,106.92l4.14,1.33,2.25.72v6.71l2.55-3.53,1.38-1.91,2.25.72,4.14,1.33-2.57-3.51-1.39-1.91L23.25,105l2.54-3.53Z" transform="translate(223.58 2.01)"/><polygon class="cls-26" points="282.14 96.73 283.13 95.72 291.32 103.85 299.8 103.81 299.8 105.23 290.74 105.26 282.14 96.73"/><rect class="cls-26" x="81.09" y="93.35" width="1.41" height="10.68" transform="translate(177.71 89.22) rotate(-45.21)"/><polygon class="cls-26" points="262.17 96.83 263.17 95.83 274.61 107.18 284.54 107.14 284.55 108.56 274.03 108.6 262.17 96.83"/><polygon class="cls-26" points="251.26 259 251.26 258.06 293.21 257.9 297.24 253.84 296.98 183.37 297.92 183.37 298.19 254.22 293.61 258.84 251.26 259"/><path class="cls-26" d="M74.34,181.36l.27,70.86L70,256.84,27.68,257v-.94l41.95-.16,4-4.06-.26-70.46h.94" transform="translate(223.58 2.01)"/><polygon class="cls-26" points="250.66 244.16 250.66 243.22 290.99 243.06 294.87 239.16 294.66 183.42 295.6 183.41 295.81 239.54 291.38 244.01 250.66 244.16"/><polygon class="cls-26" points="250.37 230.32 250.37 229.37 288.72 229.23 292.49 225.43 292.33 183.21 293.28 183.21 293.44 225.82 289.12 230.17 250.37 230.32"/><polygon class="cls-26" points="251.03 216.11 251.04 215.17 286.19 215.36 290.12 211.4 290.01 183.43 290.95 183.43 291.06 211.79 286.58 216.31 251.03 216.11"/><polygon class="cls-26" points="281.81 124.28 281.8 122.86 286.72 122.84 289.61 125.26 291.79 125.25 291.79 126.66 289.1 126.67 286.21 124.26 281.81 124.28"/><polygon class="cls-26" points="281.79 118.92 281.78 117.51 286.19 117.49 289.05 115.05 300.57 115.01 300.58 116.42 289.57 116.47 286.71 118.9 281.79 118.92"/><rect class="cls-26" x="58.93" y="118.33" width="9" height="1.41" transform="translate(223.07 2.28) rotate(-0.25)"/><path class="cls-26" d="M17.44,87.57,17.2,23.62l59.7-.23.24,64Zm4-59.73.21,55.47,51.21-.19-.21-55.47Z" transform="translate(223.58 2.01)"/><polygon class="cls-26" points="239.1 263.73 238.97 212.46 231.07 204.7 231.07 204.4 230.44 22.77 269.98 22.62 270 27.38 268.58 27.39 268.57 24.04 231.86 24.18 232.49 204.1 240.38 211.86 240.39 212.16 240.51 263.12 255.62 277.25 275.58 277.17 275.58 278.59 255.06 278.66 254.85 278.47 239.1 263.73"/><polygon class="cls-26" points="234.65 263.75 234.53 212.47 226.63 204.71 226.63 204.42 225.99 22.79 264.83 22.64 264.83 24.05 227.41 24.2 228.04 204.12 235.94 211.88 235.94 212.17 236.07 263.13 251.17 277.26 271.13 277.19 271.14 278.6 250.62 278.68 250.41 278.49 234.65 263.75"/><line class="cls-26" x1="232" y1="200.1" x2="237.42" y2="200.08"/><rect class="cls-26" x="8.42" y="197.55" width="5.42" height="1.06" transform="matrix(1, 0, 0, 1, 222.99, 2.04)"/><line class="cls-26" x1="231.92" y1="177.51" x2="237.33" y2="177.49"/><rect class="cls-26" x="8.34" y="174.97" width="5.42" height="1.06" transform="translate(223.06 2.04) rotate(-0.17)"/><line class="cls-26" x1="231.83" y1="154.52" x2="237.25" y2="154.5"/><rect class="cls-26" x="8.25" y="151.97" width="5.42" height="1.06" transform="translate(223.13 2.04) rotate(-0.17)"/><line class="cls-26" x1="231.74" y1="131.59" x2="237.16" y2="131.57"/><rect class="cls-26" x="8.17" y="129.04" width="5.42" height="1.06" transform="translate(223.2 2.04) rotate(-0.17)"/><line class="cls-26" x1="231.66" y1="108.9" x2="237.08" y2="108.88"/><rect class="cls-26" x="8.08" y="106.35" width="5.42" height="1.06" transform="translate(223.26 2.04) rotate(-0.17)"/><rect class="cls-26" x="30.49" y="160.75" width="9.76" height="3.37" transform="translate(421.25 128.47) rotate(89.79)"/><path class="cls-26" d="M33,168l0-11.18,4.79,0,0,11.18Zm1.38-9.77,0,8.35h2l0-8.35Z" transform="translate(223.58 2.01)"/><rect class="cls-26" x="34.19" y="180.38" width="9.76" height="3.37" transform="translate(444.57 144.31) rotate(89.79)"/><path class="cls-26" d="M36.7,187.66l0-11.18h4.79l0,11.17Zm1.38-9.77,0,8.35h2l0-8.34Z" transform="translate(223.58 2.01)"/><rect class="cls-26" x="37.85" y="200" width="9.76" height="3.37" transform="translate(467.83 160.2) rotate(89.79)"/><path class="cls-26" d="M40.36,207.28l0-11.17,4.79,0,0,11.17Zm1.37-9.77,0,8.35h2l0-8.35Z" transform="translate(223.58 2.01)"/><polygon class="cls-26" points="282.69 258.4 278.5 259.78 278.52 264.19 275.91 260.63 271.72 262.01 274.3 258.43 271.69 254.87 275.89 256.22 278.47 252.64 278.49 257.05 282.69 258.4"/><polygon class="cls-26" points="282.64 243.59 278.45 244.97 278.46 249.39 275.86 245.83 271.66 247.21 274.24 243.63 271.64 240.07 275.84 241.41 278.42 237.83 278.44 242.25 282.64 243.59"/><polygon class="cls-26" points="282.59 229.73 278.39 231.11 278.41 235.52 275.8 231.96 271.61 233.34 274.19 229.76 271.58 226.2 275.79 227.54 278.37 223.97 278.38 228.38 282.59 229.73"/><polygon class="cls-26" points="282.53 215.71 278.34 217.09 278.36 221.5 275.75 217.94 271.56 219.32 274.14 215.74 271.53 212.18 275.73 213.53 278.31 209.95 278.33 214.36 282.53 215.71"/><path class="cls-26" d="M28.1,210.11l-7,0,0,7,7,0ZM22.52,215l1-1.37-1-1.36,1.6.52,1-1.37v1.69l1.6.51-1.6.53v1.68l-1-1.36Z" transform="translate(223.58 2.01)"/><path class="cls-26" d="M28.15,224.38l-7,0,0,7,7,0Zm-5.58,4.89,1-1.37-1-1.36,1.61.51,1-1.36v1.68l1.6.52-1.6.52v1.69l-1-1.36Z" transform="translate(223.58 2.01)"/><path class="cls-26" d="M28.2,238.23l-7,0,0,7,7,0Zm-5.58,4.89,1-1.37-1-1.36,1.61.52,1-1.37v1.68l1.61.52-1.61.53V244l-1-1.36Z" transform="translate(223.58 2.01)"/><path class="cls-26" d="M28.26,253l-7,0,0,7,7,0Zm-5.58,4.89,1-1.37-1-1.36,1.6.52,1-1.37V256l1.6.52-1.6.53v1.68l-1-1.36Z" transform="translate(223.58 2.01)"/><polygon class="cls-26" points="293.36 170.37 291.49 170.36 291.51 175.49 293.39 175.5 293.36 170.37"/><polygon class="cls-26" points="294.53 175.53 296.4 175.54 296.38 170.41 294.5 170.4 294.53 175.53"/><path class="cls-26" d="M66,181.55v.59h8.86L74.75,145H65.9ZM73.8,181H66.91l-.1-34.74h6.9Z" transform="translate(223.58 2.01)"/><rect class="cls-26" x="68.43" y="147.7" width="3.28" height="5.52" transform="translate(223.27 2.15) rotate(-0.12)"/><polygon class="cls-26" points="292.31 162.15 294.14 162.16 294.12 155.97 292.29 155.97 292.31 162.15"/><rect class="cls-26" x="68.37" y="161.09" width="3.67" height="6.18" transform="translate(223.25 2.15) rotate(-0.12)"/><polygon class="cls-26" points="291.52 176.83 291.54 181.97 293.41 181.97 293.39 176.84 291.52 176.83"/><polygon class="cls-26" points="294.55 182.01 296.43 182.02 296.4 176.88 294.53 176.88 294.55 182.01"/><rect class="cls-26" x="70.83" y="119.85" width="2.28" height="8.18" transform="translate(419.22 53.51) rotate(89.79)"/><rect class="cls-26" x="70.81" y="114.92" width="2.28" height="8.18" transform="translate(414.27 48.61) rotate(89.79)"/><rect class="cls-26" x="79.63" y="109.63" width="2.28" height="8.18" transform="translate(417.76 34.53) rotate(89.79)"/><path class="cls-26" d="M78.16,260l0-13.56,13.57,0,0,13.56Zm1.37-12.15,0,10.73,10.74,0,0-10.73Z" transform="translate(223.58 2.01)"/><path class="cls-26" d="M78.1,241.8,78,228.24l13.57-.06,0,13.57Zm1.36-12.16,0,10.74,10.74,0,0-10.74Z" transform="translate(223.58 2.01)"/><path class="cls-26" d="M78,223.55,78,210l13.56-.05,0,13.56ZM79.4,211.4l0,10.73,10.74,0,0-10.74Z" transform="translate(223.58 2.01)"/><path class="cls-26" d="M78,205.31l0-13.56,13.56-.06,0,13.57Zm1.37-12.16,0,10.74,10.73,0,0-10.74Z" transform="translate(223.58 2.01)"/><path class="cls-26" d="M77.89,187.38l0-13.57,13.56-.05.06,13.56Zm1.37-12.16,0,10.74,10.74,0,0-10.74Z" transform="translate(223.58 2.01)"/><path class="cls-26" d="M77.82,169.13l0-13.56,13.57,0,0,13.56ZM79.19,157l0,10.73,10.74,0,0-10.73Z" transform="translate(223.58 2.01)"/><path class="cls-26" d="M77.75,150.94l0-13.56,13.57-.06,0,13.57Zm1.37-12.16,0,10.74,10.74,0,0-10.74Z" transform="translate(223.58 2.01)"/><path class="cls-26" d="M77.69,133l-.06-13.56,13.57,0,0,13.56Zm1.36-12.15,0,10.73,10.73,0,0-10.73Z" transform="translate(223.58 2.01)"/><polygon class="cls-26" points="311.85 255.23 309.29 256.07 309.3 258.76 307.71 256.59 305.16 257.43 306.73 255.25 305.14 253.08 307.7 253.9 309.28 251.72 309.29 254.41 311.85 255.23"/><polygon class="cls-26" points="311.78 236.99 309.22 237.82 309.23 240.51 307.65 238.34 305.09 239.18 306.66 237 305.08 234.84 307.64 235.66 309.21 233.48 309.22 236.16 311.78 236.99"/><polygon class="cls-26" points="311.71 218.74 309.15 219.58 309.17 222.27 307.58 220.1 305.02 220.94 306.6 218.76 305.01 216.59 307.57 217.41 309.14 215.23 309.15 217.92 311.71 218.74"/><polygon class="cls-26" points="311.64 200.5 309.09 201.34 309.1 204.02 307.51 201.85 304.96 202.69 306.53 200.51 304.94 198.35 307.5 199.17 309.07 196.99 309.08 199.67 311.64 200.5"/><polygon class="cls-26" points="311.57 182.56 309.02 183.4 309.03 186.09 307.44 183.92 304.89 184.76 306.46 182.58 304.87 180.41 307.43 181.23 309 179.05 309.01 181.74 311.57 182.56"/><polygon class="cls-26" points="311.5 164.32 308.95 165.16 308.96 167.84 307.37 165.68 304.82 166.52 306.39 164.34 304.8 162.17 307.36 162.99 308.94 160.81 308.94 163.5 311.5 164.32"/><polygon class="cls-26" points="311.44 146.13 308.88 146.97 308.89 149.65 307.31 147.49 304.75 148.33 306.32 146.15 304.74 143.98 307.3 144.8 308.87 142.62 308.88 145.31 311.44 146.13"/><polygon class="cls-26" points="311.37 128.14 308.82 128.98 308.83 131.67 307.24 129.5 304.69 130.34 306.26 128.16 304.67 125.99 307.23 126.81 308.8 124.63 308.81 127.32 311.37 128.14"/><polygon class="cls-26" points="246.28 338.34 243.65 338.35 240.63 342.42 243.26 342.41 246.28 338.34"/><polygon class="cls-26" points="236.75 342.44 239.38 342.43 242.4 338.36 239.78 338.37 236.75 342.44"/><polygon class="cls-26" points="250.1 338.33 247.47 338.34 244.45 342.41 247.08 342.4 250.1 338.33"/><polygon class="cls-26" points="254.05 338.31 251.42 338.32 248.4 342.39 251.03 342.38 254.05 338.31"/><polygon class="cls-26" points="258.14 338.3 255.52 338.31 252.5 342.38 255.12 342.37 258.14 338.3"/><polygon class="cls-26" points="262.32 338.28 259.7 338.29 256.68 342.36 259.3 342.35 262.32 338.28"/><polygon class="cls-26" points="255.16 345.92 256.59 345.42 256.62 343.9 257.54 345.1 258.99 344.66 258.13 345.91 259 347.15 257.55 346.72 256.63 347.93 256.6 346.41 255.16 345.92"/><polygon class="cls-26" points="255.18 350.55 256.61 350.05 256.63 348.53 257.56 349.74 259.01 349.29 258.15 350.54 259.02 351.78 257.56 351.35 256.65 352.56 256.61 351.05 255.18 350.55"/><polygon class="cls-26" points="255.19 355.18 256.63 354.68 256.65 353.16 257.57 354.37 259.03 353.92 258.16 355.17 259.04 356.42 257.58 355.98 256.67 357.19 256.63 355.68 255.19 355.18"/><polygon class="cls-26" points="255.21 359.81 256.64 359.31 256.67 357.79 257.59 359 259.05 358.55 258.18 359.8 259.05 361.05 257.6 360.61 256.69 361.83 256.65 360.31 255.21 359.81"/><polygon class="cls-26" points="255.23 364.45 256.66 363.94 256.69 362.42 257.61 363.63 259.06 363.19 258.2 364.44 259.07 365.68 257.62 365.24 256.7 366.46 256.67 364.94 255.23 364.45"/><polygon class="cls-26" points="250.65 345.94 252.09 345.43 252.11 343.91 253.03 345.12 254.49 344.68 253.62 345.93 254.5 347.17 253.04 346.74 252.13 347.95 252.09 346.43 250.65 345.94"/><polygon class="cls-26" points="250.67 350.57 252.1 350.06 252.13 348.55 253.05 349.75 254.5 349.31 253.64 350.56 254.51 351.8 253.06 351.37 252.14 352.58 252.11 351.06 250.67 350.57"/><polygon class="cls-26" points="250.69 355.2 252.12 354.69 252.15 353.18 253.07 354.38 254.52 353.94 253.66 355.19 254.53 356.43 253.07 356 252.16 357.21 252.12 355.69 250.69 355.2"/><polygon class="cls-26" points="250.71 359.83 252.14 359.33 252.16 357.81 253.09 359.01 254.54 358.57 253.68 359.82 254.55 361.06 253.09 360.63 252.18 361.84 252.14 360.32 250.71 359.83"/><polygon class="cls-26" points="250.72 364.46 252.16 363.96 252.18 362.44 253.1 363.65 254.56 363.2 253.69 364.45 254.56 365.7 253.11 365.26 252.2 366.48 252.16 364.96 250.72 364.46"/><polygon class="cls-26" points="246.15 345.95 247.58 345.45 247.6 343.93 248.53 345.14 249.98 344.69 249.12 345.94 249.99 347.19 248.53 346.75 247.62 347.97 247.58 346.45 246.15 345.95"/><polygon class="cls-26" points="246.16 350.58 247.6 350.08 247.62 348.56 248.54 349.77 250 349.32 249.13 350.57 250.01 351.82 248.55 351.38 247.64 352.6 247.6 351.08 246.16 350.58"/><polygon class="cls-26" points="246.18 355.22 247.61 354.71 247.64 353.19 248.56 354.4 250.01 353.95 249.15 355.21 250.02 356.45 248.57 356.01 247.66 357.23 247.62 355.71 246.18 355.22"/><polygon class="cls-26" points="246.2 359.85 247.63 359.34 247.66 357.82 248.58 359.03 250.03 358.59 249.17 359.84 250.04 361.08 248.59 360.65 247.67 361.86 247.63 360.34 246.2 359.85"/><polygon class="cls-26" points="246.22 364.48 247.65 363.98 247.67 362.46 248.6 363.66 250.05 363.22 249.19 364.47 250.06 365.71 248.6 365.28 247.69 366.49 247.65 364.97 246.22 364.48"/><polygon class="cls-26" points="241.64 345.97 243.07 345.47 243.1 343.95 244.02 345.15 245.47 344.71 244.61 345.96 245.48 347.2 244.03 346.77 243.11 347.98 243.08 346.46 241.64 345.97"/><polygon class="cls-26" points="241.66 350.6 243.09 350.1 243.12 348.58 244.04 349.79 245.49 349.34 244.63 350.59 245.5 351.83 244.04 351.4 243.13 352.61 243.09 351.1 241.66 350.6"/><polygon class="cls-26" points="241.67 355.23 243.11 354.73 243.13 353.21 244.06 354.42 245.51 353.97 244.65 355.22 245.52 356.47 244.06 356.03 243.15 357.25 243.11 355.73 241.67 355.23"/><polygon class="cls-26" points="241.69 359.87 243.13 359.36 243.15 357.84 244.07 359.05 245.53 358.6 244.66 359.85 245.53 361.1 244.08 360.66 243.16 361.88 243.13 360.36 241.69 359.87"/><polygon class="cls-26" points="241.71 364.5 243.14 363.99 243.17 362.47 244.09 363.68 245.54 363.24 244.68 364.49 245.55 365.73 244.1 365.3 243.18 366.51 243.15 364.99 241.71 364.5"/><polygon class="cls-26" points="237.13 345.99 238.57 345.48 238.59 343.96 239.51 345.17 240.97 344.73 240.1 345.98 240.98 347.22 239.52 346.79 238.61 348 238.57 346.48 237.13 345.99"/><polygon class="cls-26" points="237.15 350.62 238.58 350.12 238.61 348.6 239.53 349.8 240.98 349.36 240.12 350.61 240.99 351.85 239.54 351.42 238.62 352.63 238.59 351.11 237.15 350.62"/><polygon class="cls-26" points="237.17 355.25 238.6 354.75 238.63 353.23 239.55 354.43 241 353.99 240.14 355.24 241.01 356.48 239.56 356.05 238.64 357.26 238.6 355.74 237.17 355.25"/><polygon class="cls-26" points="237.19 359.88 238.62 359.38 238.64 357.86 239.57 359.07 241.02 358.62 240.16 359.87 241.03 361.12 239.57 360.68 238.66 361.89 238.62 360.38 237.19 359.88"/><polygon class="cls-26" points="237.2 364.51 238.64 364.01 238.66 362.49 239.58 363.7 241.04 363.25 240.17 364.5 241.05 365.75 239.59 365.31 238.68 366.53 238.64 365.01 237.2 364.51"/><path class="cls-26" d="M12.31,366.52l-.1-26.73,24.57-.09.1,26.73Zm1.46-25.18L13.86,365l21.46-.09-.08-23.62Z" transform="translate(223.58 2.01)"/><polygon class="cls-26" points="282.93 338.21 285.51 338.2 288.52 342.24 285.93 342.25 282.93 338.21"/><polygon class="cls-26" points="292.34 342.23 289.75 342.24 286.75 338.19 289.33 338.18 292.34 342.23"/><polygon class="cls-26" points="279.16 338.22 281.75 338.21 284.75 342.26 282.17 342.27 279.16 338.22"/><polygon class="cls-26" points="275.27 338.23 277.86 338.23 280.86 342.27 278.28 342.28 275.27 338.23"/><polygon class="cls-26" points="271.24 338.25 273.82 338.24 276.83 342.29 274.25 342.3 271.24 338.25"/><polygon class="cls-26" points="267.12 338.26 269.7 338.25 272.71 342.3 270.12 342.31 267.12 338.26"/><polygon class="cls-26" points="274.23 345.85 272.82 345.35 272.78 343.83 271.88 345.05 270.45 344.62 271.31 345.86 270.46 347.11 271.89 346.66 272.8 347.87 272.82 346.35 274.23 345.85"/><polygon class="cls-26" points="274.25 350.48 272.84 349.99 272.8 348.47 271.9 349.68 270.46 349.25 271.32 350.49 270.48 351.74 271.91 351.3 272.81 352.5 272.84 350.98 274.25 350.48"/><polygon class="cls-26" points="274.27 355.11 272.85 354.62 272.82 353.1 271.92 354.31 270.48 353.88 271.34 355.12 270.49 356.37 271.92 355.93 272.83 357.13 272.86 355.62 274.27 355.11"/><polygon class="cls-26" points="274.29 359.74 272.87 359.25 272.83 357.73 271.93 358.94 270.5 358.51 271.36 359.75 270.51 361 271.94 360.56 272.85 361.77 272.87 360.25 274.29 359.74"/><polygon class="cls-26" points="274.3 364.38 272.89 363.88 272.85 362.36 271.95 363.58 270.52 363.14 271.38 364.39 270.53 365.64 271.96 365.19 272.87 366.4 272.89 364.88 274.3 364.38"/><polygon class="cls-26" points="278.67 345.83 277.26 345.34 277.22 343.82 276.32 345.03 274.89 344.6 275.75 345.84 274.9 347.09 276.33 346.65 277.24 347.86 277.26 346.33 278.67 345.83"/><polygon class="cls-26" points="278.69 350.46 277.27 349.97 277.24 348.45 276.34 349.67 274.9 349.23 275.76 350.47 274.91 351.72 276.35 351.28 277.25 352.49 277.28 350.97 278.69 350.46"/><polygon class="cls-26" points="278.71 355.1 277.29 354.6 277.26 353.08 276.36 354.3 274.92 353.86 275.78 355.11 274.93 356.36 276.36 355.91 277.27 357.12 277.3 355.6 278.71 355.1"/><polygon class="cls-26" points="278.73 359.73 277.31 359.23 277.27 357.71 276.37 358.93 274.94 358.49 275.8 359.74 274.95 360.99 276.38 360.54 277.29 361.75 277.31 360.23 278.73 359.73"/><polygon class="cls-26" points="278.74 364.36 277.33 363.86 277.29 362.35 276.39 363.56 274.96 363.13 275.82 364.37 274.97 365.62 276.4 365.17 277.31 366.38 277.33 364.86 278.74 364.36"/><polygon class="cls-26" points="283.11 345.81 281.7 345.32 281.66 343.8 280.76 345.02 279.33 344.58 280.19 345.83 279.34 347.08 280.77 346.63 281.68 347.84 281.7 346.32 283.11 345.81"/><polygon class="cls-26" points="283.13 350.45 281.71 349.95 281.68 348.43 280.78 349.65 279.34 349.21 280.2 350.46 279.35 351.71 280.79 351.26 281.69 352.47 281.72 350.95 283.13 350.45"/><polygon class="cls-26" points="283.15 355.08 281.73 354.58 281.7 353.06 280.8 354.28 279.36 353.85 280.22 355.09 279.37 356.34 280.8 355.89 281.71 357.1 281.74 355.58 283.15 355.08"/><polygon class="cls-26" points="283.17 359.71 281.75 359.22 281.71 357.7 280.81 358.91 279.38 358.48 280.24 359.72 279.39 360.97 280.82 360.53 281.73 361.73 281.75 360.21 283.17 359.71"/><polygon class="cls-26" points="283.18 364.34 281.77 363.85 281.73 362.33 280.83 363.54 279.4 363.11 280.26 364.35 279.41 365.6 280.84 365.16 281.75 366.37 281.77 364.85 283.18 364.34"/><polygon class="cls-26" points="287.55 345.8 286.14 345.3 286.1 343.79 285.2 345 283.77 344.56 284.63 345.81 283.78 347.06 285.21 346.61 286.12 347.82 286.14 346.3 287.55 345.8"/><polygon class="cls-26" points="287.57 350.43 286.15 349.94 286.12 348.42 285.22 349.63 283.78 349.2 284.64 350.44 283.79 351.69 285.22 351.25 286.13 352.45 286.16 350.93 287.57 350.43"/><polygon class="cls-26" points="287.59 355.06 286.17 354.57 286.13 353.05 285.24 354.26 283.8 353.83 284.66 355.07 283.81 356.32 285.24 355.88 286.15 357.08 286.18 355.57 287.59 355.06"/><polygon class="cls-26" points="287.6 359.69 286.19 359.2 286.15 357.68 285.25 358.89 283.82 358.46 284.68 359.7 283.83 360.95 285.26 360.51 286.17 361.72 286.19 360.2 287.6 359.69"/><polygon class="cls-26" points="287.62 364.32 286.21 363.83 286.17 362.31 285.27 363.53 283.84 363.09 284.69 364.34 283.85 365.59 285.28 365.14 286.19 366.35 286.21 364.83 287.62 364.32"/><polygon class="cls-26" points="291.99 345.78 290.58 345.29 290.54 343.77 289.64 344.98 288.21 344.55 289.06 345.79 288.21 347.04 289.65 346.6 290.56 347.81 290.58 346.29 291.99 345.78"/><polygon class="cls-26" points="292.01 350.41 290.59 349.92 290.56 348.4 289.66 349.62 288.22 349.18 289.08 350.42 288.23 351.67 289.66 351.23 290.57 352.44 290.6 350.92 292.01 350.41"/><polygon class="cls-26" points="292.03 355.05 290.61 354.55 290.57 353.03 289.68 354.25 288.24 353.81 289.1 355.06 288.25 356.31 289.68 355.86 290.59 357.07 290.61 355.55 292.03 355.05"/><polygon class="cls-26" points="292.04 359.68 290.63 359.18 290.59 357.66 289.69 358.88 288.26 358.44 289.12 359.69 288.27 360.94 289.7 360.49 290.61 361.7 290.63 360.18 292.04 359.68"/><polygon class="cls-26" points="292.06 364.31 290.64 363.81 290.61 362.3 289.71 363.51 288.27 363.07 289.13 364.32 288.28 365.57 289.71 365.12 290.62 366.33 290.65 364.81 292.06 364.31"/><path class="cls-26" d="M45.59,366.4l-.1-26.73,24.23-.1.1,26.74Zm1.46-25.19.08,23.63,21.13-.08-.09-23.63Z" transform="translate(223.58 2.01)"/><circle class="cls-26" cx="340.53" cy="284.21" r="1.83"/><circle class="cls-26" cx="252.01" cy="200.39" r="2.1"/><circle class="cls-26" cx="251.84" cy="154.68" r="2.1"/><circle class="cls-26" cx="251.92" cy="177.63" r="2.1"/><path class="cls-26" d="M27.73,199c-.35-21.2-.42-41.78-.5-63.56v-.71l.71-.14c2.56,0,9.36,0,12.34-.12l0,1.41c-2.76.09-8.73.12-11.68.13.08,21.65.16,42,.5,63Z" transform="translate(223.58 2.01)"/><polygon class="cls-26" points="247.43 213.1 251.21 209.3 251.18 201.7 252.59 201.69 252.62 209.88 248.43 214.1 247.43 213.1"/><rect class="cls-26" x="23.78" y="216.43" width="1.41" height="8.62" transform="translate(222.76 2.1) rotate(-0.21)"/><rect class="cls-26" x="23.84" y="231.59" width="1.41" height="7.17" transform="translate(222.69 2.1) rotate(-0.22)"/><rect class="cls-26" x="23.89" y="244.48" width="1.41" height="8.72" transform="translate(222.64 2.1) rotate(-0.22)"/><rect class="cls-26" x="38.46" y="267.93" width="3.8" height="15.9" transform="translate(539.67 236.49) rotate(89.79)"/><path class="cls-26" d="M31,279.23l0-6.63,18.73-.07,0,6.63Zm2.82-3.81v1l13.07-.05v-1Z" transform="translate(223.58 2.01)"/><path class="cls-26" d="M43.57,319.42l0-7.57,23-.09,0,7.57Zm1.53-6v4.47L65,317.78l0-4.46Z" transform="translate(223.58 2.01)"/><polygon class="cls-26" points="245.03 317.72 243.79 318.16 243.76 319.47 242.97 318.43 241.71 318.81 242.46 317.73 241.7 316.65 242.96 317.03 243.75 315.98 243.78 317.29 245.03 317.72"/><polygon class="cls-26" points="248.94 317.7 247.69 318.14 247.67 319.46 246.87 318.41 245.61 318.8 246.36 317.71 245.6 316.64 246.87 317.01 247.66 315.96 247.69 317.28 248.94 317.7"/><polygon class="cls-26" points="252.84 317.69 251.6 318.13 251.58 319.44 250.78 318.4 249.52 318.78 250.27 317.7 249.51 316.62 250.77 317 251.56 315.95 251.59 317.26 252.84 317.69"/><polygon class="cls-26" points="256.75 317.68 255.5 318.11 255.48 319.43 254.68 318.38 253.42 318.77 254.17 317.69 253.41 316.61 254.68 316.98 255.47 315.93 255.5 317.25 256.75 317.68"/><polygon class="cls-26" points="260.65 317.66 259.41 318.1 259.39 319.42 258.59 318.37 257.33 318.75 258.08 317.67 257.32 316.59 258.58 316.97 259.37 315.92 259.41 317.23 260.65 317.66"/><path class="cls-26" d="M15.8,319.52l0-7.57,23-.09,0,7.57Zm1.53-6V318l19.92-.07,0-4.47Z" transform="translate(223.58 2.01)"/><line class="cls-26" x1="235.84" y1="218.09" x2="221.91" y2="230.4"/><path class="cls-26" d="M-2.77,229.36a1.36,1.36,0,0,1,.07-2l13.92-12.31a1.57,1.57,0,0,1,2.13.06,1.36,1.36,0,0,1-.06,2L-.63,229.43a1.58,1.58,0,0,1-2.13-.06Z" transform="translate(223.58 2.01)"/><line class="cls-26" x1="235.87" y1="227.23" x2="221.95" y2="239.54"/><path class="cls-26" d="M-2.74,238.49a1.35,1.35,0,0,1,.08-2L11.26,224.2a1.58,1.58,0,0,1,2.13.05v0a1.34,1.34,0,0,1-.07,2L-.59,238.57a1.61,1.61,0,0,1-2.14-.06Z" transform="translate(223.58 2.01)"/><line class="cls-26" x1="235.91" y1="236.37" x2="221.99" y2="248.68"/><path class="cls-26" d="M-2.7,247.63a1.34,1.34,0,0,1,.07-2L11.3,233.33a1.59,1.59,0,0,1,2.13.06v0a1.35,1.35,0,0,1-.08,2L-.56,247.7a1.58,1.58,0,0,1-2.13,0Z" transform="translate(223.58 2.01)"/><line class="cls-26" x1="235.94" y1="245.51" x2="222.02" y2="257.82"/><path class="cls-26" d="M-2.66,256.77a1.36,1.36,0,0,1,.07-2l13.92-12.31a1.57,1.57,0,0,1,2.13.06,1.35,1.35,0,0,1-.06,2L-.52,256.84a1.57,1.57,0,0,1-2.13-.06Z" transform="translate(223.58 2.01)"/><line class="cls-26" x1="235.98" y1="254.65" x2="222.06" y2="266.96"/><path class="cls-26" d="M-2.63,265.91a1.36,1.36,0,0,1,.08-2l13.92-12.31a1.57,1.57,0,0,1,2.13.06h0a1.36,1.36,0,0,1-.07,2L-.49,266a1.57,1.57,0,0,1-2.13-.06Z" transform="translate(223.58 2.01)"/><line class="cls-26" x1="288.28" y1="338.22" x2="288.22" y2="320.48"/><rect class="cls-26" x="64.28" y="318.47" width="0.78" height="17.74" transform="translate(222.34 2.25) rotate(-0.22)"/><line class="cls-26" x1="284.38" y1="338.23" x2="284.31" y2="320.49"/><rect class="cls-26" x="60.37" y="318.49" width="0.78" height="17.74" transform="translate(222.36 2.23) rotate(-0.21)"/><line class="cls-26" x1="280.47" y1="338.24" x2="280.4" y2="320.51"/><rect class="cls-26" x="56.47" y="318.5" width="0.78" height="17.73" transform="translate(222.36 2.22) rotate(-0.21)"/><line class="cls-26" x1="276.56" y1="338.26" x2="276.5" y2="320.52"/><rect class="cls-26" x="52.56" y="318.52" width="0.78" height="17.74" transform="translate(222.34 2.21) rotate(-0.22)"/><line class="cls-26" x1="272.66" y1="338.27" x2="272.59" y2="320.54"/><rect class="cls-26" x="48.65" y="318.53" width="0.78" height="17.74" transform="translate(222.34 2.19) rotate(-0.22)"/><line class="cls-26" x1="268.7" y1="338.29" x2="268.64" y2="320.55"/><rect class="cls-26" x="44.7" y="318.55" width="0.78" height="17.74" transform="translate(222.34 2.18) rotate(-0.22)"/><line class="cls-26" x1="260.48" y1="338.32" x2="260.41" y2="320.58"/><rect class="cls-26" x="36.48" y="318.58" width="0.78" height="17.74" transform="translate(222.34 2.15) rotate(-0.22)"/><line class="cls-26" x1="256.57" y1="338.33" x2="256.51" y2="320.6"/><rect class="cls-26" x="32.57" y="318.59" width="0.78" height="17.74" transform="translate(222.34 2.13) rotate(-0.22)"/><line class="cls-26" x1="252.67" y1="338.35" x2="252.6" y2="320.61"/><rect class="cls-26" x="28.67" y="318.61" width="0.78" height="17.74" transform="translate(222.36 2.12) rotate(-0.21)"/><line class="cls-26" x1="248.76" y1="338.36" x2="248.7" y2="320.63"/><rect class="cls-26" x="24.76" y="318.62" width="0.78" height="17.73" transform="translate(222.36 2.1) rotate(-0.21)"/><line class="cls-26" x1="244.86" y1="338.38" x2="244.79" y2="320.64"/><rect class="cls-26" x="20.85" y="318.64" width="0.78" height="17.73" transform="translate(222.36 2.09) rotate(-0.21)"/><line class="cls-26" x1="240.9" y1="338.39" x2="240.83" y2="320.66"/><rect class="cls-26" x="16.9" y="318.65" width="0.78" height="17.74" transform="translate(222.34 2.07) rotate(-0.22)"/><line class="cls-26" x1="250.82" y1="314.43" x2="250.8" y2="308.62"/><rect class="cls-26" x="24.9" y="306.61" width="4.66" height="5.82" transform="translate(222.49 2.1) rotate(-0.2)"/><line class="cls-26" x1="278.4" y1="314.33" x2="278.38" y2="308.51"/><rect class="cls-26" x="52.48" y="306.51" width="4.66" height="5.82" transform="translate(222.43 2.21) rotate(-0.21)"/><polygon class="cls-26" points="335.24 282.26 334.57 102.8 313.3 81.69 315.3 79.68 337.39 101.61 338.07 282.25 335.24 282.26"/><polygon class="cls-26" points="330.86 98.07 330.8 82.72 309.43 61.52 310.92 60.01 332.92 81.84 332.98 98.06 330.86 98.07"/><polygon class="cls-26" points="326.46 77.84 326.41 64.63 308.59 46.94 309.58 45.94 327.82 64.04 327.88 77.83 326.46 77.84"/><polygon class="cls-26" points="323.25 60.92 323.21 50.03 306.53 33.48 307.28 32.72 324.27 49.59 324.31 60.92 323.25 60.92"/><polygon class="cls-26" points="332.01 284.24 337.66 282.25 337.76 276.26 341.4 281.02 347.13 279.26 343.73 284.2 347.17 289.11 341.43 287.39 337.82 292.18 337.68 286.19 332.01 284.24"/><path class="cls-26" d="M108.43,282.23l5.65-2,.1-6,3.64,4.76,5.73-1.75-3.4,4.93,3.44,4.91-5.74-1.72-3.61,4.8-.14-6-5.67-1.95m-4.17,0,3.72,1.28,4.77,1.64.13,5,.09,3.93,2.37-3.14,3-4,4.83,1.44,3.77,1.12-2.26-3.22-2.9-4.13,2.87-4.15,2.24-3.23L123.15,276l-4.82,1.48-3.06-4-2.39-3.13-.06,3.94-.09,5L108,280.94l-3.71,1.31Z" transform="translate(223.58 2.01)"/><path class="cls-26" d="M18.11,2.21h-.77L17.2,16.62l56.44.55h.77l.14-14.42Zm54.77,13.4-54.12-.52.11-11.33L73,4.29Z" transform="translate(223.58 2.01)"/><rect class="cls-26" x="23.38" y="6.98" width="4.02" height="10.67" transform="translate(236.4 39.59) rotate(-89.43)"/><rect class="cls-26" x="37.45" y="7.12" width="4.02" height="10.67" transform="translate(250.19 53.79) rotate(-89.43)"/><rect class="cls-26" x="51.52" y="7.25" width="4.02" height="10.67" transform="translate(263.99 68) rotate(-89.43)"/><rect class="cls-26" x="23.43" y="1.61" width="4.02" height="10.67" transform="translate(241.82 34.33) rotate(-89.43)"/><rect class="cls-26" x="37.5" y="1.75" width="4.02" height="10.67" transform="translate(255.62 48.53) rotate(-89.43)"/><rect class="cls-26" x="51.57" y="1.89" width="4.02" height="10.67" transform="translate(269.41 62.74) rotate(-89.43)"/><rect class="cls-26" x="64.38" y="7.16" width="4.02" height="10.67" transform="translate(276.8 80.76) rotate(-89.42)"/><rect class="cls-26" x="64.43" y="1.79" width="4.02" height="10.67" transform="translate(282.23 75.5) rotate(-89.43)"/><polygon class="cls-26" points="305.55 33.43 305.47 12.33 296.82 12.36 296.81 10.95 306.88 10.91 306.96 33.42 305.55 33.43"/><path class="cls-26" d="M-9.85,17l0-6.18,27.76-.1V7.86L-12.72,8l0,9.05A5.54,5.54,0,0,1-9.85,17Z" transform="translate(223.58 2.01)"/><path class="cls-26" d="M6.26,292.14v-2.83l-4.72,0L1,145.61v-.68l-10.41-8.37,0-9a5.48,5.48,0,0,1-2.83.44l0,9.28v.67l10.41,8.37.54,145.88Z" transform="translate(223.58 2.01)"/><path class="cls-26" d="M-18.59,127.8v-3.43l2.07-3.69-.39-104.26,11.48,0,0,8.26L-5,120.52l1.94,4.14v3.08Zm.7-3.24v2.53l14.07,0v-2.3l-1.94-4.14L-6.15,17.09l-10.06,0,.39,103.73Z" transform="translate(223.58 2.01)"/><polygon class="cls-26" points="215.87 27.09 214.69 27.48 214.7 28.72 213.96 27.72 212.78 28.11 213.51 27.09 212.77 26.09 213.96 26.47 214.68 25.46 214.69 26.71 215.87 27.09"/><polygon class="cls-26" points="212.77 30.11 211.58 30.5 211.59 31.74 210.85 30.74 209.67 31.13 210.4 30.11 209.66 29.11 210.85 29.49 211.58 28.48 211.58 29.73 212.77 30.11"/><polygon class="cls-26" points="212.74 23.76 211.56 24.14 211.56 25.39 210.83 24.39 209.65 24.77 210.37 23.77 209.64 22.76 210.82 23.14 211.55 22.13 211.56 23.38 212.74 23.76"/><polygon class="cls-26" points="215.9 33.24 214.72 33.63 214.72 34.87 213.98 33.87 212.8 34.26 213.53 33.25 212.79 32.24 213.98 32.62 214.71 31.61 214.71 32.86 215.9 33.24"/><polygon class="cls-26" points="215.92 39.39 214.74 39.78 214.74 41.03 214.01 40.02 212.82 40.41 213.55 39.4 212.82 38.4 214 38.78 214.73 37.77 214.74 39.01 215.92 39.39"/><polygon class="cls-26" points="212.71 42.63 211.53 43.02 211.53 44.26 210.8 43.26 209.61 43.65 210.34 42.63 209.61 41.63 210.79 42.01 211.52 41 211.53 42.24 212.71 42.63"/><polygon class="cls-26" points="212.79 36.46 211.61 36.85 211.61 38.09 210.88 37.09 209.69 37.48 210.42 36.47 209.69 35.46 210.87 35.84 211.6 34.83 211.6 36.08 212.79 36.46"/><polygon class="cls-26" points="215.98 54.73 214.79 55.12 214.8 56.36 214.06 55.36 212.88 55.74 213.61 54.73 212.87 53.73 214.06 54.11 214.79 53.1 214.79 54.35 215.98 54.73"/><polygon class="cls-26" points="212.87 57.75 211.69 58.13 211.69 59.38 210.96 58.38 209.77 58.77 210.5 57.76 209.77 56.75 210.95 57.13 211.68 56.12 211.68 57.37 212.87 57.75"/><polygon class="cls-26" points="212.85 51.4 211.66 51.78 211.67 53.03 210.93 52.02 209.75 52.41 210.48 51.4 209.74 50.4 210.93 50.78 211.66 49.77 211.66 51.02 212.85 51.4"/><polygon class="cls-26" points="216 60.88 214.82 61.27 214.82 62.51 214.09 61.51 212.91 61.9 213.63 60.89 212.9 59.88 214.08 60.26 214.81 59.25 214.81 60.5 216 60.88"/><polygon class="cls-26" points="216.02 67.03 214.84 67.42 214.85 68.67 214.11 67.66 212.93 68.05 213.66 67.04 212.92 66.03 214.11 66.42 214.83 65.41 214.84 66.65 216.02 67.03"/><polygon class="cls-26" points="212.81 70.27 211.63 70.65 211.64 71.9 210.9 70.89 209.72 71.28 210.45 70.27 209.71 69.27 210.9 69.65 211.62 68.64 211.63 69.89 212.81 70.27"/><polygon class="cls-26" points="212.89 64.1 211.71 64.48 211.72 65.73 210.98 64.73 209.8 65.11 210.53 64.11 209.79 63.1 210.97 63.48 211.7 62.47 211.71 63.72 212.89 64.1"/><polygon class="cls-26" points="216.08 82.36 214.9 82.75 214.9 84 214.17 83 212.99 83.38 213.71 82.37 212.98 81.37 214.16 81.75 214.89 80.74 214.9 81.98 216.08 82.36"/><polygon class="cls-26" points="212.97 85.39 211.79 85.77 211.79 87.02 211.06 86.02 209.88 86.4 210.6 85.39 209.87 84.39 211.06 84.77 211.78 83.76 211.79 85 212.97 85.39"/><polygon class="cls-26" points="212.95 79.03 211.77 79.42 211.77 80.67 211.04 79.67 209.85 80.05 210.58 79.04 209.85 78.04 211.03 78.42 211.76 77.41 211.76 78.66 212.95 79.03"/><polygon class="cls-26" points="216.1 88.52 214.92 88.91 214.93 90.15 214.19 89.15 213.01 89.54 213.74 88.53 213 87.52 214.19 87.9 214.91 86.89 214.92 88.14 216.1 88.52"/><polygon class="cls-26" points="216.13 94.67 214.94 95.06 214.95 96.3 214.21 95.3 213.03 95.69 213.76 94.68 213.02 93.67 214.21 94.06 214.94 93.05 214.94 94.29 216.13 94.67"/><polygon class="cls-26" points="212.92 97.9 211.74 98.29 211.74 99.54 211 98.53 209.82 98.92 210.55 97.91 209.81 96.91 211 97.29 211.73 96.28 211.73 97.52 212.92 97.9"/><polygon class="cls-26" points="213 91.74 211.81 92.13 211.82 93.37 211.08 92.36 209.9 92.75 210.63 91.74 209.89 90.74 211.08 91.12 211.81 90.11 211.81 91.36 213 91.74"/><polygon class="cls-26" points="216.19 110 215 110.39 215.01 111.64 214.27 110.63 213.09 111.02 213.82 110.01 213.08 109.01 214.27 109.39 215 108.38 215 109.62 216.19 110"/><polygon class="cls-26" points="213.08 113.03 211.89 113.41 211.9 114.66 211.16 113.65 209.98 114.04 210.71 113.03 209.97 112.03 211.16 112.41 211.89 111.4 211.89 112.64 213.08 113.03"/><polygon class="cls-26" points="213.05 106.67 211.87 107.06 211.88 108.31 211.14 107.3 209.96 107.69 210.69 106.68 209.95 105.68 211.13 106.06 211.86 105.05 211.87 106.29 213.05 106.67"/><polygon class="cls-26" points="216.21 116.16 215.03 116.55 215.03 117.79 214.29 116.79 213.11 117.18 213.84 116.17 213.1 115.16 214.29 115.54 215.02 114.53 215.02 115.78 216.21 116.16"/><polygon class="cls-26" points="216.23 122.31 215.05 122.7 215.05 123.94 214.32 122.94 213.13 123.33 213.86 122.32 213.13 121.31 214.31 121.69 215.04 120.68 215.05 121.93 216.23 122.31"/><polygon class="cls-26" points="213.02 125.54 211.84 125.93 211.84 127.18 211.11 126.17 209.93 126.56 210.65 125.55 209.92 124.55 211.1 124.93 211.83 123.92 211.84 125.16 213.02 125.54"/><polygon class="cls-26" points="213.1 119.38 211.92 119.76 211.92 121.01 211.19 120 210 120.39 210.73 119.38 210 118.38 211.18 118.76 211.91 117.75 211.91 119 213.1 119.38"/><rect class="cls-26" x="-12.12" y="122.78" width="3.02" height="12.46" transform="translate(342.02 141.15) rotate(89.79)"/></g></g></g></g></svg>