<svg xmlns="http://www.w3.org/2000/svg" xmlns:xlink="http://www.w3.org/1999/xlink" viewBox="0 0 811.91 440.12"><defs><style>.cls-1,.cls-10,.cls-11,.cls-12,.cls-13,.cls-14,.cls-15,.cls-16,.cls-17,.cls-18,.cls-19,.cls-20,.cls-21,.cls-22,.cls-23,.cls-24,.cls-5,.cls-6,.cls-7,.cls-8,.cls-9{fill:none;}.cls-2{clip-path:url(#clip-path);}.cls-3{fill:url(#linear-gradient);}.cls-4{clip-path:url(#clip-path-2);}.cls-10,.cls-11,.cls-12,.cls-13,.cls-14,.cls-15,.cls-16,.cls-17,.cls-18,.cls-19,.cls-20,.cls-21,.cls-22,.cls-23,.cls-24,.cls-5,.cls-6,.cls-7,.cls-9{stroke-miterlimit:10;}.cls-5{stroke-width:0.5px;stroke:url(#linear-gradient-2);}.cls-6{stroke-width:0.49px;stroke:url(#linear-gradient-3);}.cls-7{stroke-width:0.47px;stroke:url(#linear-gradient-4);}.cls-8{stroke-miterlimit:10;stroke-width:0.46px;stroke:url(#linear-gradient-5);}.cls-9{stroke-width:0.45px;stroke:url(#linear-gradient-6);}.cls-10{stroke-width:0.43px;stroke:url(#linear-gradient-7);}.cls-11{stroke-width:0.42px;stroke:url(#linear-gradient-8);}.cls-12{stroke-width:0.41px;stroke:url(#linear-gradient-9);}.cls-13{stroke-width:0.39px;stroke:url(#linear-gradient-10);}.cls-14{stroke-width:0.38px;stroke:url(#linear-gradient-11);}.cls-15{stroke-width:0.37px;stroke:url(#linear-gradient-12);}.cls-16{stroke-width:0.36px;stroke:url(#linear-gradient-13);}.cls-17{stroke-width:0.34px;stroke:url(#linear-gradient-14);}.cls-18{stroke-width:0.33px;stroke:url(#linear-gradient-15);}.cls-19{stroke-width:0.32px;stroke:url(#linear-gradient-16);}.cls-20{stroke-width:0.3px;stroke:url(#linear-gradient-17);}.cls-21{stroke-width:0.29px;stroke:url(#linear-gradient-18);}.cls-22{stroke-width:0.28px;stroke:url(#linear-gradient-19);}.cls-23{stroke-width:0.26px;stroke:url(#linear-gradient-20);}.cls-24{stroke-width:0.25px;stroke:url(#linear-gradient-21);}.cls-25{opacity:0.1;}.cls-26{fill:#fff;}</style><clipPath id="clip-path" transform="translate(217.13 -0.9)"><rect class="cls-1" width="470.84" height="378.08" transform="translate(470.84 378.08) rotate(180)"/></clipPath><linearGradient id="linear-gradient" x1="6.34" y1="-829.35" x2="471.4" y2="-829.35" gradientTransform="translate(217.13 2324.52) scale(1 2.58)" gradientUnits="userSpaceOnUse"><stop offset="0" stop-color="#015eff"/><stop offset="0.04" stop-color="#0851d2"/><stop offset="0.08" stop-color="#0e45a8"/><stop offset="0.12" stop-color="#143b83"/><stop offset="0.17" stop-color="#193264"/><stop offset="0.22" stop-color="#1c2b4b"/><stop offset="0.28" stop-color="#1f2638"/><stop offset="0.35" stop-color="#21222a"/><stop offset="0.43" stop-color="#232022"/><stop offset="0.59" stop-color="#231f20"/><stop offset="0.66" stop-color="#261f20"/><stop offset="0.72" stop-color="#311f20"/><stop offset="0.77" stop-color="#421f21"/><stop offset="0.83" stop-color="#5b1e21"/><stop offset="0.88" stop-color="#7a1e22"/><stop offset="0.92" stop-color="#a11d23"/><stop offset="0.97" stop-color="#ce1c24"/><stop offset="1" stop-color="#ed1c25"/></linearGradient><clipPath id="clip-path-2" transform="translate(217.13 -0.9)"><rect class="cls-1" x="5.43" y="0.91" width="465.54" height="377.38"/></clipPath><linearGradient id="linear-gradient-2" x1="713.95" y1="-661.47" x2="1450.17" y2="-661.47" gradientTransform="matrix(0.91, 0.48, -0.47, 1.02, -1088.96, 207.06)" gradientUnits="userSpaceOnUse"><stop offset="0" stop-color="#231f20" stop-opacity="0"/><stop offset="0.32" stop-color="#252122" stop-opacity="0.01"/><stop offset="0.43" stop-color="#2a2728" stop-opacity="0.03"/><stop offset="0.51" stop-color="#353132" stop-opacity="0.08"/><stop offset="0.58" stop-color="#434041" stop-opacity="0.15"/><stop offset="0.63" stop-color="#565354" stop-opacity="0.23"/><stop offset="0.68" stop-color="#6e6b6c" stop-opacity="0.34"/><stop offset="0.73" stop-color="#8a8888" stop-opacity="0.47"/><stop offset="0.77" stop-color="#aaa9a9" stop-opacity="0.61"/><stop offset="0.81" stop-color="#d0cfcf" stop-opacity="0.78"/><stop offset="0.84" stop-color="#f7f7f7" stop-opacity="0.96"/><stop offset="0.85" stop-color="#fff"/></linearGradient><linearGradient id="linear-gradient-3" x1="716.66" y1="-650.81" x2="1457.58" y2="-650.81" xlink:href="#linear-gradient-2"/><linearGradient id="linear-gradient-4" x1="719.36" y1="-640.06" x2="1464.99" y2="-640.06" xlink:href="#linear-gradient-2"/><linearGradient id="linear-gradient-5" x1="722.06" y1="-629.32" x2="1472.4" y2="-629.32" xlink:href="#linear-gradient-2"/><linearGradient id="linear-gradient-6" x1="724.76" y1="-618.58" x2="1479.81" y2="-618.58" xlink:href="#linear-gradient-2"/><linearGradient id="linear-gradient-7" x1="727.45" y1="-607.84" x2="1487.23" y2="-607.84" xlink:href="#linear-gradient-2"/><linearGradient id="linear-gradient-8" x1="730.15" y1="-597.1" x2="1494.64" y2="-597.1" xlink:href="#linear-gradient-2"/><linearGradient id="linear-gradient-9" x1="732.85" y1="-586.37" x2="1502.05" y2="-586.37" xlink:href="#linear-gradient-2"/><linearGradient id="linear-gradient-10" x1="735.54" y1="-575.64" x2="1509.46" y2="-575.64" xlink:href="#linear-gradient-2"/><linearGradient id="linear-gradient-11" x1="738.24" y1="-564.91" x2="1516.88" y2="-564.91" xlink:href="#linear-gradient-2"/><linearGradient id="linear-gradient-12" x1="740.94" y1="-554.19" x2="1524.29" y2="-554.19" xlink:href="#linear-gradient-2"/><linearGradient id="linear-gradient-13" x1="743.64" y1="-543.47" x2="1531.7" y2="-543.47" xlink:href="#linear-gradient-2"/><linearGradient id="linear-gradient-14" x1="746.34" y1="-532.75" x2="1539.11" y2="-532.75" xlink:href="#linear-gradient-2"/><linearGradient id="linear-gradient-15" x1="749.04" y1="-522.04" x2="1546.52" y2="-522.04" xlink:href="#linear-gradient-2"/><linearGradient id="linear-gradient-16" x1="751.74" y1="-511.33" x2="1553.94" y2="-511.33" xlink:href="#linear-gradient-2"/><linearGradient id="linear-gradient-17" x1="754.45" y1="-500.63" x2="1561.35" y2="-500.63" xlink:href="#linear-gradient-2"/><linearGradient id="linear-gradient-18" x1="757.16" y1="-489.93" x2="1568.76" y2="-489.93" xlink:href="#linear-gradient-2"/><linearGradient id="linear-gradient-19" x1="759.88" y1="-479.25" x2="1576.17" y2="-479.25" xlink:href="#linear-gradient-2"/><linearGradient id="linear-gradient-20" x1="762.59" y1="-468.67" x2="1583.59" y2="-468.67" xlink:href="#linear-gradient-2"/><linearGradient id="linear-gradient-21" x1="765.31" y1="-458.33" x2="1590.97" y2="-458.33" xlink:href="#linear-gradient-2"/></defs><g id="Layer_2" data-name="Layer 2"><g id="Layer_1-2" data-name="Layer 1"><g class="cls-2"><rect class="cls-3" x="223.47" width="465.06" height="377.04"/><g class="cls-4"><path class="cls-5" d="M-199.54,19.72c42.3,23.8,88.87,45.22,137.52,46.85,34.49,1.15,69-9.41,103.39-5.29C109.32,69.41,171,106.21,244.64,80c31.76-11.31,54.83-39.15,85.8-52.41,43.85-18.77,97.84-12.22,142.45,1.28,31.19,9.43,48.29,29.37,61.86,57.71,10.06,21,18.77,44.29,35.7,61.1" transform="translate(217.13 -0.9)"/><path class="cls-6" d="M-200.46,28.38c40.9,20.75,88.59,42.73,137.62,45.26C-39,74.91-15.4,71,7.51,68.7a157.65,157.65,0,0,1,32.94-.27C105.79,75.74,166.55,111.82,237,91.2c2.22-.65,4.46-1.33,6.72-2.08,31.31-10.42,55-36,86.37-47.81C373.91,24.84,427.43,32.1,472,46.16,503,56,520.21,75.86,534.63,103.21c11.19,21.22,21.06,44,37.1,59.88" transform="translate(217.13 -0.9)"/><path class="cls-7" d="M-201.38,37.05c39.5,17.68,88.3,40.22,137.72,43.66,24.14,1.77,48-1.5,70.32-4.28a146.76,146.76,0,0,1,32.87-.84c64.8,6.74,126.33,44.06,196.48,24.61,2.22-.61,4.47-1.23,6.74-1.93,30.85-9.55,55.19-32.92,86.95-43.21,43.8-14.19,96.87-6.2,141.31,8.43,30.9,10.14,48.31,30,63.5,56.38,12.36,21.46,23.35,43.61,38.5,58.65" transform="translate(217.13 -0.9)"/><path class="cls-8" d="M-202.3,45.72c38.1,14.62,88,37.6,137.82,42.07C-40,90-16,87.43,5.82,84.16a135.57,135.57,0,0,1,32.79-1.42c64.28,6,126.56,44.73,196.43,26.46,2.22-.57,4.48-1.13,6.77-1.79,30.37-8.68,55.33-29.81,87.52-38.6,43.73-11.93,96.39-3.19,140.74,12,30.76,10.48,48.43,30.3,64.32,55.7C548,158.23,560,179.8,574.28,194" transform="translate(217.13 -0.9)"/><path class="cls-9" d="M-203.22,54.38c36.7,11.56,87.75,35.08,137.92,40.48,24.83,2.68,49,.79,70.28-3C15.72,90,26.61,89,37.7,89.9c63.73,5.41,126.78,45.4,196.37,28.31,2.22-.54,4.49-1,6.79-1.65,29.89-7.84,55.46-26.73,88.1-34,43.63-9.71,95.91-.19,140.17,15.58,30.62,10.84,48.62,30.58,65.14,55,14.82,21.95,27.92,42.94,41.29,56.21" transform="translate(217.13 -0.9)"/><path class="cls-10" d="M-204.14,63.05c35.31,8.5,87.47,32.55,138,38.89A219.88,219.88,0,0,0,4.13,99.62c10.68-2.18,21.54-3.41,32.65-2.57,63.2,4.82,127,45.92,196.32,30.16,2.21-.51,4.5-.95,6.82-1.51,29.39-7,55.55-23.66,88.68-29.39,43.49-7.52,95.42,2.82,139.59,19.16,30.47,11.18,48.87,30.83,66,54.37,16.11,22.18,30.21,42.6,42.69,55" transform="translate(217.13 -0.9)"/><path class="cls-11" d="M-205.06,71.72c33.91,5.43,87.19,30,138.12,37.29,25.52,3.64,50.05,3,70.23-1.66,10.62-2.47,21.44-3.89,32.57-3.14,62.66,4.21,127.21,46.57,196.27,32,2.21-.47,4.51-.86,6.84-1.36,28.89-6.2,55.65-20.63,89.26-24.79,43.34-5.37,94.93,5.83,139,22.74,30.33,11.53,49.16,31.06,66.78,53.7,17.44,22.4,32.5,42.26,44.08,53.76" transform="translate(217.13 -0.9)"/><path class="cls-12" d="M-206,80.38c32.51,2.38,86.91,27.53,138.22,35.7,25.86,4.13,50.57,4.14,70.21-1,10.55-2.76,21.34-4.37,32.5-3.72,62.11,3.63,127.43,47.23,196.21,33.85,2.21-.43,4.52-.77,6.87-1.21,28.37-5.41,55.72-17.62,89.83-20.19,43.17-3.25,94.45,8.84,138.46,26.31,30.18,11.89,49.5,31.27,67.59,53,18.8,22.6,34.79,41.92,45.48,52.54" transform="translate(217.13 -0.9)"/><path class="cls-13" d="M-206.9,89.05c31.11-.68,86.63,25,138.32,34.11,26.2,4.61,51.1,5.22,70.18-.35A97.67,97.67,0,0,1,34,118.52c61.57,3,127.67,47.88,196.16,35.7,2.21-.4,4.52-.68,6.89-1.08,27.86-4.62,55.93-12.35,90.41-15.58,42.83-4,94,11.85,137.89,29.89,30,12.23,49.87,31.44,68.41,52.36,20.19,22.78,37.07,41.59,46.88,51.32" transform="translate(217.13 -0.9)"/><path class="cls-14" d="M-207.82,97.72c29.71-3.75,86.35,22.51,138.42,32.51,26.54,5.1,51.62,6.3,70.16.31a92.62,92.62,0,0,1,32.35-4.87c61,2.47,127.9,48.55,196.1,37.55,2.22-.36,4.54-.59,6.93-.93,27.34-3.87,55.88-9.34,91-11,42.78-2,93.48,14.85,137.32,33.47,29.89,12.58,50.29,31.59,69.23,51.69,21.62,22.93,39.36,41.25,48.27,50.1" transform="translate(217.13 -0.9)"/><path class="cls-15" d="M-208.74,106.38c28.32-6.8,86.07,20,138.52,30.93,26.89,5.59,52.13,7.35,70.14,1a87.28,87.28,0,0,1,32.27-5.44c60.49,1.89,128.14,49.22,196.05,39.39,2.22-.32,4.55-.5,7-.78,26.81-3.13,55.9-8.77,91.55-6.38,42.64,2.85,93,17.86,136.75,37,29.75,12.94,50.72,31.72,70.06,51C556.63,276.18,575.2,294,583.22,302" transform="translate(217.13 -0.9)"/><path class="cls-16" d="M-209.66,115.05c26.92-9.87,85.78,17.52,138.62,29.33,27.23,6.08,52.65,8.4,70.11,1.62a83.05,83.05,0,0,1,32.21-6c59.94,1.33,128.36,49.9,196,41.24,2.22-.28,4.55-.42,7-.64,26.29-2.41,56-5.88,92.14-1.77,42.46,4.81,92.51,20.87,136.17,40.62,29.6,13.28,51.18,31.81,70.88,50.36,24.56,23.13,43.93,40.57,51.06,47.65" transform="translate(217.13 -0.9)"/><path class="cls-17" d="M-210.58,123.72c25.52-12.93,85.5,15,138.72,27.73,27.57,6.58,53.16,9.45,70.09,2.28a79,79,0,0,1,32.13-6.59c59.4.77,128.6,50.57,195.94,43.08,2.22-.24,4.56-.33,7-.49,25.75-1.71,56.05-3,92.71,2.83,42.3,6.74,92,23.88,135.6,44.2,29.46,13.63,51.66,31.88,71.7,49.69,26.08,23.18,46.22,40.23,52.45,46.42" transform="translate(217.13 -0.9)"/><path class="cls-18" d="M-211.5,132.38c24.12-16,85.21,12.55,138.82,26.15C-44.77,165.61-19,169-2.61,161.46a74,74,0,0,1,32.05-7.17c58.86.69,128.83,51.26,195.89,44.94,2.22-.21,4.57-.26,7-.36a379,379,0,0,1,93.29,7.44c42.15,8.64,91.54,26.89,135,47.77,29.31,14,52.15,31.93,72.52,49,27.62,23.19,48.5,39.9,53.85,45.21" transform="translate(217.13 -0.9)"/><path class="cls-19" d="M-212.42,141.05C-189.7,122-127.5,151.11-73.5,165.6c28.25,7.58,54.15,11.49,70,3.59a72,72,0,0,1,32-7.75c58.32-.32,129.07,51.95,195.84,46.79,2.22-.17,4.58,0,7.06-.21,24.66-1.54,56.25,2.62,93.86,12,42,10.53,91.06,29.9,134.47,51.36,29.16,14.33,52.64,31.95,73.33,48.35,29.19,23.14,50.79,39.56,55.25,44" transform="translate(217.13 -0.9)"/><path class="cls-20" d="M-213.34,149.72c21.33-22.11,84.64,7.58,139,23,28.58,8.08,54.64,12.49,70,4.24a68.75,68.75,0,0,1,31.91-8.32c57.77-.87,129.3,52.64,195.78,48.63,2.22-.13,4.58,0,7.08-.06,24.18-.72,56.37,5.39,94.44,16.63,41.91,12.38,90.58,32.91,133.9,54.94,29,14.68,53.14,31.94,74.15,47.68,30.78,23.06,53.08,39.22,56.64,42.76" transform="translate(217.13 -0.9)"/><path class="cls-21" d="M-214.26,158.38c19.93-25.17,84.32,5.2,139.12,21.37,28.91,8.63,55.11,13.49,70,4.9a65.92,65.92,0,0,1,31.83-8.9c57.23-1.4,129.54,53.45,195.73,50.48,2.22-.09,4.59,0,7.11.08,23.66.94,56.51,8.16,95,21.24,41.82,14.21,90.09,35.92,133.33,58.51,28.87,15,53.64,31.92,75,47,32.39,22.92,55.37,38.88,58,41.53" transform="translate(217.13 -0.9)"/><path class="cls-22" d="M-215.18,167.05c18.53-28.23,84,2.7,139.22,19.77,29.25,9.13,55.58,14.48,70,5.56a63.45,63.45,0,0,1,31.76-9.47c56.7-1.83,129.77,54.11,195.68,52.33,2.22-.06,4.59,0,7.13.22,23.16,1.56,56.68,10.9,95.6,25.84,41.75,16,89.6,38.93,132.75,62.09,28.73,15.38,54.15,31.87,75.79,46.34,34,22.75,57.65,38.55,59.44,40.32" transform="translate(217.13 -0.9)"/><path class="cls-23" d="M-216.1,175.72c17.13-31.29,83.75.19,139.32,18.18,29.59,9.61,56,15.46,70,6.21a60.87,60.87,0,0,1,31.68-10.05c56.16-2.4,130,54.79,195.63,54.18a67.92,67.92,0,0,1,7.16.37c22.65,2.16,56.86,13.62,96.17,30.44C365.51,292.9,412.93,317,456,340.72c28.59,15.73,54.65,31.8,76.61,45.67,35.65,22.52,59.94,38.21,60.83,39.09" transform="translate(217.13 -0.9)"/><path class="cls-24" d="M-217,184.38c24.14-52.72,170.76,51,209.35,23.46,56.2-40,148.42,44.72,227.18,45.4,76.91.67,375.2,187.68,375.2,187.68" transform="translate(217.13 -0.9)"/></g><g class="cls-25"><path class="cls-26" d="M84.21,152.49a5.2,5.2,0,0,1,2.22,0l0-5.79a5.2,5.2,0,0,1-2.22.13Z" transform="translate(217.13 -0.9)"/><path class="cls-26" d="M84.58,249.11l.06,16.5h2.21l-.06-16.46A5.31,5.31,0,0,1,84.58,249.11Z" transform="translate(217.13 -0.9)"/><path class="cls-26" d="M84.53,237.59a5.2,5.2,0,0,1,2.22,0l0-6.24a5.15,5.15,0,0,1-2.21.18Z" transform="translate(217.13 -0.9)"/><path class="cls-26" d="M84.47,221a5.16,5.16,0,0,1,2.21-.16l0-6.47a5,5,0,0,1-2.21.34Z" transform="translate(217.13 -0.9)"/><path class="cls-26" d="M84.41,203.61a5,5,0,0,1,2.21.14l0-6.27a5.2,5.2,0,0,1-2.22.13Z" transform="translate(217.13 -0.9)"/><path class="cls-26" d="M84.34,186.74a5.2,5.2,0,0,1,2.22.12l0-6.47a5.17,5.17,0,0,1-2.21-.24Z" transform="translate(217.13 -0.9)"/><path class="cls-26" d="M84.28,169.89a5.17,5.17,0,0,1,2.21-.25l0-5.87a5,5,0,0,1-2.21.07Z" transform="translate(217.13 -0.9)"/><path class="cls-26" d="M86.36,135.62l0-5.61H84.13l0,5.57A5.15,5.15,0,0,1,86.36,135.62Z" transform="translate(217.13 -0.9)"/><path class="cls-26" d="M44.15,146.61l.43,117H42.79l-.44-117a.89.89,0,0,1,.89-.9h0A.91.91,0,0,1,44.15,146.61Z" transform="translate(217.13 -0.9)"/><path class="cls-26" d="M47.49,146.59l.44,117h-1.8l-.44-117a.9.9,0,0,1,.9-.9h0A.89.89,0,0,1,47.49,146.59Z" transform="translate(217.13 -0.9)"/><path class="cls-26" d="M40.71,146.61l.44,116.81-1.8-.22-.43-116.58a.89.89,0,0,1,.89-.9h0A.89.89,0,0,1,40.71,146.61Z" transform="translate(217.13 -0.9)"/><polygon class="cls-26" points="285.57 94.48 291.5 94.46 285.01 85.32 279.08 85.34 285.57 94.48"/><polygon class="cls-26" points="293.76 85.29 287.83 85.31 294.32 94.45 300.25 94.42 293.76 85.29"/><polygon class="cls-26" points="276.95 94.51 282.87 94.49 276.38 85.35 270.46 85.38 276.95 94.51"/><polygon class="cls-26" points="268.03 94.55 273.96 94.52 267.47 85.39 261.54 85.41 268.03 94.55"/><polygon class="cls-26" points="258.8 94.58 264.72 94.56 258.23 85.42 252.31 85.44 258.8 94.58"/><polygon class="cls-26" points="249.36 94.61 255.28 94.59 248.79 85.46 242.87 85.48 249.36 94.61"/><path class="cls-26" d="M38.49,112.31l0,10.56,19.39,0V121H63v-2H57.89v-.46H63v-2H57.89v-.58H63v-2H57.88v-1.65Zm17.27,8.87-15.56,0,0-7.25,15.57,0Z" transform="translate(217.13 -0.9)"/><rect class="cls-26" x="82.23" y="73.85" width="10.61" height="10.46" transform="translate(225.37 165.51) rotate(-89.86)"/><rect class="cls-26" x="82.06" y="58.67" width="8.5" height="8.15" transform="translate(240.49 147.99) rotate(-89.86)"/><rect class="cls-26" x="82.06" y="45.7" width="5.77" height="5.53" transform="translate(253.4 132.39) rotate(-89.86)"/><rect class="cls-26" x="82.04" y="33.94" width="4.33" height="4.16" transform="translate(265.11 119.22) rotate(-89.86)"/><path class="cls-26" d="M58.68,138.87l12.64.07,0-12.4-12.64-.07Zm10.86-1.49-9.3,0L60.18,128l9.3.06Z" transform="translate(217.13 -0.9)"/><polygon class="cls-26" points="302.14 274.82 295.18 284.22 296.69 284.21 303.65 274.81 302.14 274.82"/><polygon class="cls-26" points="299.53 274.83 292.57 284.23 294.09 284.22 301.05 274.82 299.53 274.83"/><polygon class="cls-26" points="304.75 274.81 297.79 284.21 299.3 284.2 306.26 274.81 304.75 274.81"/><polygon class="cls-26" points="310.02 274.79 303.06 284.19 304.58 284.18 311.54 274.79 310.02 274.79"/><polygon class="cls-26" points="307.42 274.8 300.46 284.2 301.97 284.19 308.93 274.8 307.42 274.8"/><polygon class="cls-26" points="312.63 274.78 305.67 284.18 307.19 284.17 314.14 274.78 312.63 274.78"/><polygon class="cls-26" points="276.69 280.07 269.73 289.47 271.24 289.46 278.2 280.07 276.69 280.07"/><polygon class="cls-26" points="274.08 280.08 267.12 289.48 268.63 289.47 275.59 280.08 274.08 280.08"/><polygon class="cls-26" points="279.29 280.06 272.33 289.46 273.85 289.45 280.81 280.06 279.29 280.06"/><polygon class="cls-26" points="284.57 280.05 277.61 289.44 279.13 289.43 286.08 280.04 284.57 280.05"/><polygon class="cls-26" points="281.96 280.06 275 289.45 276.52 289.44 283.48 280.05 281.96 280.06"/><polygon class="cls-26" points="287.18 280.04 280.22 289.43 281.73 289.42 288.69 280.03 287.18 280.04"/><path class="cls-26" d="M67,263.11l-11.73.36.22,11.73,11.73-.36,0-1.19h0l48.28-.37c.26-1,.81-1.86.29-2.44l-49.86.39h1.24l0-1,48-.23v-2.43l-48,.23,0-1.93,19.81-.12,0-1.55L67,264.28ZM66,273.7l-9.39.3-.18-9.39,9.39-.3Z" transform="translate(217.13 -0.9)"/><polygon class="cls-26" points="280.33 266.19 276.45 266.31 276.52 270.19 280.4 270.07 280.33 266.19"/><polygon class="cls-26" points="266.04 276.97 266.05 273.97 260.07 273.99 260.06 276.99 266.04 276.97"/><polygon class="cls-26" points="258.34 276.99 258.35 274 252.37 274.01 252.35 277.01 258.34 276.99"/><polygon class="cls-26" points="260.03 281.05 266.01 281.04 266.03 278.04 260.05 278.06 260.03 281.05"/><polygon class="cls-26" points="252.35 278.08 252.33 281.08 258.31 281.06 258.33 278.06 252.35 278.08"/><polygon class="cls-26" points="244.65 278.1 244.63 281.1 250.61 281.08 250.63 278.08 244.65 278.1"/><polygon class="cls-26" points="242.46 276.51 242.48 273.98 237.51 273.99 237.5 276.52 242.46 276.51"/><polygon class="cls-26" points="231.23 276.54 236.2 276.53 236.21 274 231.24 274.01 231.23 276.54"/><polygon class="cls-26" points="237.49 277.3 237.47 281.2 242.44 281.19 242.46 277.29 237.49 277.3"/><polygon class="cls-26" points="231.22 277.32 231.2 281.22 236.17 281.21 236.19 277.31 231.22 277.32"/><polygon class="cls-26" points="268.65 184.35 268.66 181.96 275.41 188.97 275.41 191.37 268.65 184.35"/><polygon class="cls-26" points="268.75 178.96 268.76 176.56 275.52 183.58 275.51 185.98 268.75 178.96"/><polygon class="cls-26" points="268.55 189.83 268.56 187.43 275.31 194.45 275.3 196.84 268.55 189.83"/><polygon class="cls-26" points="273.8 149.22 273.81 146.83 280.57 153.84 280.56 156.24 273.8 149.22"/><polygon class="cls-26" points="273.91 143.83 273.91 141.43 280.67 148.45 280.66 150.85 273.91 143.83"/><polygon class="cls-26" points="273.7 154.69 273.71 152.3 280.46 159.32 280.45 161.71 273.7 154.69"/><path class="cls-26" d="M51.48,175.26v-.13l0-11.76a.33.33,0,0,1,.33-.33.33.33,0,0,1,.33.33l0,11.63,7.46,7.87h0a.33.33,0,0,1-.48.45Z" transform="translate(217.13 -0.9)"/><path class="cls-26" d="M63,176.33a.35.35,0,0,1-.08-.22l0-10.47-7.46-7.87h0a.33.33,0,0,1,0-.47.32.32,0,0,1,.46,0l7.64,8.06,0,10.74a.33.33,0,0,1-.33.33A.33.33,0,0,1,63,176.33Z" transform="translate(217.13 -0.9)"/><polyline class="cls-26" points="283.28 292.36 298.69 272.41 309.66 272.37 309.66 271.48 298.32 271.52 282.91 291.48"/><polyline class="cls-26" points="282.59 290.82 297.99 270.86 310.32 270.82 310.33 273.03 299.01 273.07 283.61 293.02"/><polygon class="cls-26" points="292.95 291.64 292.96 292.61 235.94 292.74 235.94 291.77 292.95 291.64"/><rect class="cls-26" x="18.08" y="291.88" width="58.47" height="2.43" transform="translate(216.36 -0.78) rotate(-0.15)"/><circle class="cls-26" cx="292.61" cy="292.09" r="3.49"/><circle class="cls-26" cx="232.91" cy="292.09" r="3.49"/><path class="cls-26" d="M51,284.25l-39,.12.06-11.6,39-.15Zm-37.83-1,36.63-.11.06-9.41-36.64.14Z" transform="translate(217.13 -0.9)"/><polygon class="cls-26" points="250.64 277.02 250.65 274.02 244.67 274.04 244.66 277.04 250.64 277.02"/><polygon class="cls-26" points="255.21 73.5 252.58 74.42 252.54 77.21 250.85 74.99 248.18 75.81 249.77 73.52 248.17 71.24 250.84 72.03 252.51 69.81 252.58 72.59 255.21 73.5"/><polygon class="cls-26" points="255.18 65.01 252.55 65.93 252.51 68.72 250.81 66.5 248.15 67.32 249.73 65.03 248.13 62.75 250.8 63.54 252.48 61.32 252.54 64.1 255.18 65.01"/><polygon class="cls-26" points="255.15 56.52 252.52 57.44 252.47 60.23 250.78 58.01 248.12 58.83 249.7 56.54 248.1 54.26 250.77 55.05 252.45 52.83 252.51 55.61 255.15 56.52"/><polygon class="cls-26" points="255.12 48.02 252.49 48.95 252.44 51.73 250.75 49.52 248.09 50.34 249.67 48.05 248.07 45.76 250.74 46.56 252.41 44.34 252.48 47.12 255.12 48.02"/><polygon class="cls-26" points="255.08 39.53 252.46 40.46 252.41 43.24 250.72 41.03 248.06 41.85 249.64 39.55 248.04 37.27 250.71 38.07 252.38 35.84 252.45 38.63 255.08 39.53"/><polygon class="cls-26" points="263.47 73.47 260.85 74.39 260.8 77.18 259.11 74.96 256.44 75.78 258.03 73.49 256.43 71.21 259.1 72 260.77 69.78 260.84 72.56 263.47 73.47"/><polygon class="cls-26" points="263.44 64.97 260.81 65.9 260.77 68.69 259.08 66.47 256.41 67.29 258 65 256.4 62.72 259.06 63.51 260.74 61.29 260.81 64.07 263.44 64.97"/><polygon class="cls-26" points="263.41 56.48 260.78 57.41 260.74 60.19 259.04 57.98 256.38 58.8 257.96 56.51 256.36 54.22 259.03 55.02 260.71 52.8 260.77 55.58 263.41 56.48"/><polygon class="cls-26" points="263.38 47.99 260.75 48.92 260.7 51.7 259.01 49.49 256.35 50.31 257.93 48.01 256.33 45.73 259 46.53 260.68 44.3 260.74 47.09 263.38 47.99"/><polygon class="cls-26" points="263.35 39.5 260.72 40.43 260.67 43.21 258.98 41 256.32 41.81 257.9 39.52 256.3 37.24 258.97 38.04 260.64 35.81 260.71 38.6 263.35 39.5"/><polygon class="cls-26" points="271.73 73.44 269.11 74.36 269.06 77.14 267.37 74.93 264.71 75.75 266.29 73.46 264.69 71.17 267.36 71.97 269.03 69.75 269.1 72.53 271.73 73.44"/><polygon class="cls-26" points="271.7 64.94 269.07 65.87 269.03 68.65 267.34 66.44 264.67 67.26 266.26 64.97 264.66 62.68 267.33 63.48 269 61.26 269.07 64.04 271.7 64.94"/><polygon class="cls-26" points="271.67 56.45 269.04 57.38 269 60.16 267.31 57.95 264.64 58.77 266.23 56.47 264.63 54.19 267.3 54.99 268.97 52.76 269.04 55.55 271.67 56.45"/><polygon class="cls-26" points="271.64 47.96 269.01 48.89 268.96 51.67 267.27 49.46 264.61 50.27 266.19 47.98 264.59 45.7 267.26 46.5 268.94 44.27 269 47.06 271.64 47.96"/><polygon class="cls-26" points="271.61 39.47 268.98 40.4 268.93 43.18 267.24 40.97 264.58 41.78 266.16 39.49 264.56 37.21 267.23 38.01 268.9 35.78 268.97 38.57 271.61 39.47"/><polygon class="cls-26" points="280 73.4 277.37 74.33 277.32 77.11 275.63 74.9 272.97 75.72 274.55 73.42 272.95 71.14 275.62 71.94 277.29 69.72 277.36 72.5 280 73.4"/><polygon class="cls-26" points="279.96 64.91 277.34 65.84 277.29 68.62 275.6 66.41 272.94 67.23 274.52 64.93 272.92 62.65 275.59 63.45 277.26 61.22 277.33 64.01 279.96 64.91"/><polygon class="cls-26" points="279.93 56.42 277.31 57.35 277.26 60.13 275.57 57.92 272.9 58.73 274.49 56.44 272.89 54.16 275.56 54.96 277.23 52.73 277.3 55.52 279.93 56.42"/><polygon class="cls-26" points="279.9 47.93 277.27 48.86 277.23 51.64 275.54 49.43 272.87 50.24 274.45 47.95 272.86 45.67 275.52 46.47 277.2 44.24 277.27 47.03 279.9 47.93"/><polygon class="cls-26" points="279.87 39.44 277.24 40.37 277.19 43.15 275.5 40.94 272.84 41.75 274.42 39.46 272.82 37.18 275.49 37.98 277.17 35.75 277.23 38.54 279.87 39.44"/><polygon class="cls-26" points="288.26 73.37 285.63 74.3 285.58 77.08 283.89 74.87 281.23 75.69 282.81 73.39 281.21 71.11 283.88 71.91 285.56 69.68 285.62 72.47 288.26 73.37"/><polygon class="cls-26" points="270.02 300.83 268.86 301.24 268.84 302.47 268.09 301.49 266.91 301.86 267.61 300.84 266.9 299.83 268.08 300.18 268.82 299.2 268.85 300.43 270.02 300.83"/><polygon class="cls-26" points="273.68 300.82 272.52 301.23 272.5 302.46 271.75 301.48 270.57 301.84 271.27 300.83 270.56 299.82 271.74 300.17 272.48 299.18 272.51 300.42 273.68 300.82"/><polygon class="cls-26" points="277.34 300.8 276.18 301.21 276.15 302.45 275.41 301.47 274.23 301.83 274.93 300.81 274.22 299.8 275.4 300.15 276.14 299.17 276.17 300.4 277.34 300.8"/><polygon class="cls-26" points="281 300.79 279.83 301.2 279.81 302.43 279.06 301.45 277.89 301.81 278.59 300.8 277.88 299.79 279.06 300.14 279.8 299.16 279.83 300.39 281 300.79"/><polygon class="cls-26" points="284.66 300.78 283.49 301.19 283.47 302.42 282.72 301.44 281.55 301.8 282.25 300.79 281.54 299.77 282.72 300.13 283.46 299.14 283.49 300.38 284.66 300.78"/><polygon class="cls-26" points="288.23 64.88 285.6 65.81 285.55 68.59 283.86 66.38 281.2 67.19 282.78 64.9 281.18 62.62 283.85 63.42 285.52 61.19 285.59 63.98 288.23 64.88"/><polygon class="cls-26" points="288.19 56.39 285.57 57.32 285.52 60.1 283.83 57.89 281.17 58.7 282.75 56.41 281.15 54.13 283.82 54.93 285.49 52.7 285.56 55.49 288.19 56.39"/><polygon class="cls-26" points="288.16 47.9 285.53 48.83 285.49 51.61 283.8 49.4 281.13 50.21 282.72 47.92 281.12 45.64 283.79 46.44 285.46 44.21 285.53 47 288.16 47.9"/><polygon class="cls-26" points="288.13 39.41 285.5 40.33 285.46 43.12 283.76 40.91 281.1 41.72 282.68 39.43 281.08 37.15 283.75 37.95 285.43 35.72 285.5 38.51 288.13 39.41"/><polygon class="cls-26" points="309.33 243.21 309.32 241.89 312.69 241.87 321.86 233.02 321.43 119.97 308.69 101.8 295.05 101.85 287.8 94.65 288.73 93.71 295.59 100.52 309.38 100.47 322.76 119.55 322.76 119.76 323.19 233.58 313.23 243.2 309.33 243.21"/><polygon class="cls-26" points="309.36 226.13 309.36 224.81 312.62 224.8 321.95 215.21 322.9 216.14 313.18 226.12 309.36 226.13"/><polygon class="cls-26" points="308.71 209.06 308.71 207.74 312.56 207.72 318.6 201.59 318.3 119.27 307.41 104.87 280.75 104.97 270.55 94.64 271.49 93.71 281.3 103.64 308.06 103.54 319.62 118.82 319.93 202.14 313.11 209.05 308.71 209.06"/><polygon class="cls-26" points="309.38 191.69 309.37 190.37 312.5 190.36 318.66 184.25 319.6 185.19 313.04 191.68 309.38 191.69"/><polygon class="cls-26" points="309.31 174.76 309.31 173.44 312.44 173.43 318.65 167.41 319.58 168.36 312.97 174.75 309.31 174.76"/><polygon class="cls-26" points="309.2 157.98 309.2 156.66 312.37 156.64 315.5 153.59 315.38 120 306.68 108.08 265.25 108.24 250.68 93.77 251.61 92.83 265.8 106.91 307.35 106.75 316.7 119.57 316.7 119.78 316.83 154.14 312.91 157.97 309.2 157.98"/><path class="cls-26" d="M54.05,119.91V115l-12,0v4.88Zm-3.14-3.79.91.65.91-.66-.34,1.07.91.65H52.17l-.34,1.07-.35-1.07H50.36l.9-.67Zm-3.81,0,.91.66.91-.67-.34,1.07.91.66H48.37L48,118.92l-.35-1.06H46.55l.9-.66Zm-3.8,0,.91.66.9-.66-.34,1.07.91.65H44.56l-.35,1.07-.35-1.07H42.74l.91-.66Z" transform="translate(217.13 -0.9)"/><path class="cls-26" d="M49.42,146.05v-3a1,1,0,0,0-1-1l-10.32,0a1,1,0,0,0-1,1.05v3a1,1,0,0,0,1,1l10.32,0A1,1,0,0,0,49.42,146.05Zm-3.63-2.69.82.59.81-.6-.31,1,.81.58h-1l-.31.95-.31-.95h-1l.81-.59Zm-3.4,0,.81.59.81-.59-.31.95.82.59h-1l-.3,1-.32-1h-1l.81-.6Zm-3.41,0,.82.59.8-.59-.3,1,.81.59h-1l-.31,1-.31-.95h-1l.8-.59Z" transform="translate(217.13 -0.9)"/><polygon class="cls-26" points="277.06 166.21 276.17 166.51 276.17 167.46 275.61 166.69 274.71 166.99 275.26 166.22 274.7 165.46 275.61 165.74 276.16 164.98 276.16 165.92 277.06 166.21"/><polygon class="cls-26" points="274.7 168.61 273.8 168.9 273.81 169.85 273.25 169.09 272.35 169.38 272.9 168.62 272.34 167.85 273.24 168.14 273.8 167.37 273.8 168.32 274.7 168.61"/><polygon class="cls-26" points="274.68 163.68 273.78 163.97 273.79 164.92 273.23 164.16 272.33 164.45 272.88 163.69 272.32 162.92 273.22 163.21 273.78 162.44 273.78 163.39 274.68 163.68"/><polygon class="cls-26" points="277.08 170.97 276.18 171.27 276.19 172.22 275.63 171.45 274.73 171.75 275.28 170.98 274.72 170.22 275.62 170.5 276.18 169.74 276.18 170.68 277.08 170.97"/><polygon class="cls-26" points="277.1 175.57 276.2 175.87 276.2 176.82 275.64 176.05 274.75 176.35 275.3 175.58 274.74 174.82 275.64 175.1 276.19 174.34 276.2 175.28 277.1 175.57"/><polygon class="cls-26" points="274.72 173.34 273.82 173.64 273.82 174.58 273.26 173.82 272.36 174.12 272.92 173.35 272.36 172.58 273.26 172.87 273.81 172.1 273.82 173.05 274.72 173.34"/><path class="cls-26" d="M68.66,129l-7.42,0,0,7.42,7.42,0Zm-5.79,5.09,1.05-1.45-1.06-1.45,1.71.55,1.05-1.45v1.79l1.71.55-1.7.56V135l-1-1.45Z" transform="translate(217.13 -0.9)"/><path class="cls-26" d="M43.67,138.93l12.65.07,0-12.41-12.64-.07Zm10.87-1.49-9.3-.05-.06-9.31,9.3.06Z" transform="translate(217.13 -0.9)"/><path class="cls-26" d="M53.66,129.07l-7.42,0,0,7.42,7.42,0Zm-5.79,5.09,1.05-1.46-1.06-1.44,1.71.55,1-1.46v1.79l1.71.55-1.7.56V135l-1.06-1.44Z" transform="translate(217.13 -0.9)"/><polygon class="cls-26" points="309.04 141.2 309.04 139.87 312.29 139.86 315.84 136.11 316.8 137.03 312.87 141.19 309.04 141.2"/><polygon class="cls-26" points="308.69 123.93 308.68 122.61 312.21 122.59 315.13 119.2 316.14 120.06 312.82 123.91 308.69 123.93"/><path class="cls-26" d="M27.8,189l-1.86,2.57,1.88,2.56-3-1-1.86,2.58V192.6l-3-1,3-1v-3.17L24.79,190l3-1m3.46-2.54-3.87,1.28-2.1.69L24,186.69l-2.41-3.29v6.29l-2.1.69-3.87,1.27,3.88,1.25,2.11.67v6.29L24,196.55l1.29-1.79,2.1.67,3.89,1.25-2.41-3.29-1.31-1.78,1.3-1.8,2.38-3.31Z" transform="translate(217.13 -0.9)"/><path class="cls-26" d="M27.72,167.86l-1.86,2.58L27.74,173l-3-1-1.86,2.57v-3.17l-3-1,3-1v-3.18l1.88,2.57,3-1m3.46-2.53-3.87,1.27-2.1.7-1.31-1.79-2.41-3.29,0,4.08v2.21l-2.1.69-3.87,1.28,3.88,1.24,2.11.68v6.29l2.39-3.31,1.29-1.8,2.11.68,3.88,1.25-2.41-3.29-1.31-1.79,1.3-1.79,2.38-3.31Z" transform="translate(217.13 -0.9)"/><path class="cls-26" d="M27.64,146.32l-1.86,2.57,1.88,2.57-3-1-1.86,2.57v-3.17l-3-1,3-1v-3.18l1.88,2.56,3-1m3.46-2.53-3.87,1.27-2.1.69L23.82,144l-2.41-3.29V147l-2.1.69-3.87,1.27,3.88,1.25,2.11.67v6.29l2.39-3.3,1.29-1.8,2.1.68L31.14,154l-2.41-3.29-1.31-1.78,1.29-1.79,2.39-3.31Z" transform="translate(217.13 -0.9)"/><path class="cls-26" d="M27.56,124.84l-1.86,2.58L27.58,130l-3-1-1.86,2.57v-3.17l-3-1,3-1v-3.18l1.87,2.56,3-1M31,122.31l-3.87,1.27-2.11.69-1.3-1.78-2.41-3.29v6.29l-2.1.69-3.87,1.27,3.88,1.25,2.11.68v6.29l2.39-3.31,1.29-1.8,2.1.68,3.89,1.24-2.41-3.29-1.31-1.78,1.29-1.79L31,122.31Z" transform="translate(217.13 -0.9)"/><path class="cls-26" d="M27.48,103.6l-1.86,2.58,1.88,2.56-3-1-1.86,2.57v-3.17l-3-1,3-1V102l1.87,2.56,3-1m3.46-2.53-3.87,1.27L25,103l-1.31-1.78L21.25,98v6.29l-2.1.69-3.87,1.28,3.88,1.24,2.11.68v6.29l2.39-3.31,1.29-1.8,2.1.68L31,111.25,28.57,108l-1.31-1.78,1.29-1.79,2.39-3.31Z" transform="translate(217.13 -0.9)"/><polygon class="cls-26" points="278.77 93.88 279.7 92.94 287.37 100.55 295.32 100.52 295.32 101.85 286.83 101.88 278.77 93.88"/><rect class="cls-26" x="82.75" y="93.5" width="1.32" height="10" transform="translate(171.87 87.4) rotate(-45.21)"/><polygon class="cls-26" points="260.07 93.98 261 93.04 271.72 103.67 281.03 103.64 281.03 104.97 271.17 105 260.07 93.98"/><polygon class="cls-26" points="249.84 245.91 249.84 245.03 289.15 244.88 292.92 241.08 292.68 175.06 293.56 175.06 293.81 241.44 289.52 245.76 249.84 245.91"/><path class="cls-26" d="M76.43,176l.25,66.39-4.3,4.32-39.67.15v-.89l39.3-.14L75.79,242l-.25-66h.89" transform="translate(217.13 -0.9)"/><polygon class="cls-26" points="249.28 232.01 249.28 231.13 287.06 230.99 290.69 227.32 290.5 175.1 291.38 175.1 291.58 227.69 287.43 231.87 249.28 232.01"/><polygon class="cls-26" points="249.01 219.04 249 218.16 284.94 218.02 288.47 214.47 288.32 174.91 289.21 174.91 289.36 214.83 285.31 218.9 249.01 219.04"/><polygon class="cls-26" points="249.63 205.73 249.64 204.85 282.56 205.03 286.25 201.32 286.15 175.11 287.03 175.11 287.13 201.68 282.93 205.91 249.63 205.73"/><polygon class="cls-26" points="278.46 119.69 278.46 118.37 283.07 118.35 285.77 120.61 287.81 120.6 287.82 121.93 285.29 121.94 282.59 119.68 278.46 119.69"/><polygon class="cls-26" points="278.45 114.67 278.44 113.35 282.56 113.33 285.25 111.05 296.04 111.01 296.05 112.34 285.74 112.38 283.05 114.66 278.45 114.67"/><rect class="cls-26" x="61.99" y="116.9" width="8.43" height="1.32" transform="matrix(1, 0, 0, 1, 216.62, -0.62)"/><path class="cls-26" d="M23.11,88.09l-.22-59.92L78.82,28,79,87.88Zm3.77-56,.19,52,48-.18-.19-52Z" transform="translate(217.13 -0.9)"/><polygon class="cls-26" points="238.45 250.35 238.33 202.31 230.93 195.04 230.93 194.76 230.33 24.59 267.38 24.45 267.4 28.91 266.07 28.92 266.06 25.78 231.66 25.91 232.25 194.48 239.65 201.75 239.66 202.03 239.77 249.77 253.92 263.01 272.62 262.94 272.63 264.26 253.4 264.34 253.21 264.16 238.45 250.35"/><polygon class="cls-26" points="234.28 250.36 234.16 202.32 226.76 195.05 226.76 194.78 226.17 24.61 262.55 24.47 262.56 25.8 227.5 25.93 228.09 194.5 235.49 201.77 235.49 202.04 235.61 249.79 249.76 263.03 268.46 262.96 268.46 264.28 249.24 264.35 249.04 264.17 234.28 250.36"/><line class="cls-26" x1="231.8" y1="190.73" x2="236.87" y2="190.71"/><rect class="cls-26" x="14.67" y="191.13" width="5.07" height="0.99" transform="translate(216.56 -0.85) rotate(-0.17)"/><line class="cls-26" x1="231.72" y1="169.57" x2="236.79" y2="169.55"/><rect class="cls-26" x="14.59" y="169.97" width="5.08" height="0.99" transform="translate(216.63 -0.85) rotate(-0.17)"/><line class="cls-26" x1="231.64" y1="148.03" x2="236.71" y2="148.01"/><rect class="cls-26" x="14.51" y="148.42" width="5.07" height="0.99" transform="translate(216.69 -0.85) rotate(-0.17)"/><line class="cls-26" x1="231.56" y1="126.54" x2="236.63" y2="126.52"/><rect class="cls-26" x="14.43" y="126.94" width="5.07" height="0.99" transform="translate(216.75 -0.85) rotate(-0.17)"/><line class="cls-26" x1="231.48" y1="105.28" x2="236.55" y2="105.26"/><rect class="cls-26" x="14.35" y="105.68" width="5.07" height="0.99" transform="translate(216.82 -0.85) rotate(-0.17)"/><rect class="cls-26" x="35.34" y="156.65" width="9.15" height="3.16" transform="translate(415.12 116.82) rotate(89.79)"/><path class="cls-26" d="M37.69,163.48l0-10.47,4.48,0,0,10.47ZM39,154.32l0,7.83h1.83l0-7.82Z" transform="translate(217.13 -0.9)"/><rect class="cls-26" x="38.81" y="175.03" width="9.15" height="3.16" transform="translate(436.97 131.66) rotate(89.79)"/><path class="cls-26" d="M41.16,181.86l0-10.47,4.49,0,0,10.47Zm1.29-9.15,0,7.82h1.84l0-7.82Z" transform="translate(217.13 -0.9)"/><rect class="cls-26" x="42.24" y="193.42" width="9.15" height="3.16" transform="translate(458.76 146.55) rotate(89.79)"/><path class="cls-26" d="M44.59,200.24l0-10.47,4.48,0,0,10.48Zm1.29-9.15,0,7.82h1.83l0-7.82Z" transform="translate(217.13 -0.9)"/><polygon class="cls-26" points="279.29 245.35 275.36 246.65 275.38 250.78 272.94 247.44 269.01 248.74 271.43 245.38 268.98 242.05 272.92 243.31 275.34 239.96 275.36 244.09 279.29 245.35"/><polygon class="cls-26" points="279.24 231.48 275.31 232.78 275.33 236.91 272.88 233.57 268.96 234.87 271.38 231.51 268.93 228.18 272.87 229.44 275.29 226.08 275.3 230.22 279.24 231.48"/><polygon class="cls-26" points="279.19 218.49 275.26 219.78 275.28 223.91 272.84 220.58 268.91 221.87 271.33 218.52 268.88 215.18 272.82 216.44 275.24 213.09 275.25 217.22 279.19 218.49"/><polygon class="cls-26" points="279.14 205.36 275.21 206.65 275.23 210.78 272.79 207.45 268.86 208.74 271.28 205.39 268.83 202.05 272.77 203.31 275.19 199.96 275.2 204.09 279.14 205.36"/><path class="cls-26" d="M33.1,202.89l-6.56,0,0,6.56,6.56,0Zm-5.23,4.58.93-1.29-.94-1.27,1.51.48.92-1.28v1.58l1.5.48-1.5.5v1.58L29.37,207Z" transform="translate(217.13 -0.9)"/><path class="cls-26" d="M33.15,216.26l-6.56,0,0,6.56,6.56,0Zm-5.23,4.58.93-1.28-.94-1.27,1.51.48.92-1.28v1.58l1.5.48-1.5.49v1.58l-.94-1.27Z" transform="translate(217.13 -0.9)"/><path class="cls-26" d="M33.2,229.24l-6.56,0,0,6.55,6.56,0ZM28,233.82l.93-1.28L28,231.26l1.51.49.92-1.29V232l1.5.49-1.5.49v1.58l-.94-1.28Z" transform="translate(217.13 -0.9)"/><path class="cls-26" d="M33.25,243.06l-6.56,0,0,6.55,6.56,0ZM28,247.64l.93-1.28L28,245.08l1.51.48.92-1.28v1.58l1.5.49-1.5.49v1.58l-.94-1.28Z" transform="translate(217.13 -0.9)"/><polygon class="cls-26" points="289.29 162.87 287.54 162.87 287.56 167.68 289.31 167.68 289.29 162.87"/><polygon class="cls-26" points="290.38 167.72 292.13 167.72 292.11 162.91 290.36 162.91 290.38 167.72"/><path class="cls-26" d="M68.64,176.14v.55h8.3l-.13-34.76h-8.3Zm7.28-.56H69.46L69.37,143h6.47Z" transform="translate(217.13 -0.9)"/><rect class="cls-26" x="70.89" y="144.42" width="3.07" height="5.18" transform="translate(216.83 -0.76) rotate(-0.12)"/><polygon class="cls-26" points="288.3 155.18 290.02 155.18 290 149.39 288.28 149.38 288.3 155.18"/><rect class="cls-26" x="70.83" y="156.96" width="3.44" height="5.79" transform="matrix(1, 0, 0, 1, 216.81, -0.76)"/><polygon class="cls-26" points="287.56 168.93 287.58 173.74 289.33 173.75 289.31 168.94 287.56 168.93"/><polygon class="cls-26" points="290.4 173.78 292.16 173.79 292.14 168.98 290.38 168.97 290.4 173.78"/><rect class="cls-26" x="73.14" y="118.33" width="2.13" height="7.66" transform="translate(413.22 46.59) rotate(89.79)"/><rect class="cls-26" x="73.12" y="113.71" width="2.13" height="7.66" transform="translate(408.58 42) rotate(89.79)"/><rect class="cls-26" x="81.38" y="108.76" width="2.13" height="7.66" transform="translate(411.86 28.81) rotate(89.79)"/><path class="cls-26" d="M80,249.68,80,237l12.71-.05,0,12.71Zm1.28-11.39,0,10.06,10.06,0,0-10.06Z" transform="translate(217.13 -0.9)"/><path class="cls-26" d="M79.94,232.58l0-12.71,12.71,0,.05,12.7Zm1.29-11.39,0,10.06,10.06,0,0-10.05Z" transform="translate(217.13 -0.9)"/><path class="cls-26" d="M79.88,215.49l0-12.71,12.71-.05,0,12.71Zm1.28-11.39,0,10.06,10.06,0,0-10.06Z" transform="translate(217.13 -0.9)"/><path class="cls-26" d="M79.82,198.4l0-12.71,12.71-.05,0,12.71ZM81.1,187l0,10.05,10.06,0,0-10.06Z" transform="translate(217.13 -0.9)"/><path class="cls-26" d="M79.75,181.59l0-12.7,12.71,0,0,12.71ZM81,170.2l0,10.06,10.06,0,0-10.06Z" transform="translate(217.13 -0.9)"/><path class="cls-26" d="M79.69,164.5l0-12.71,12.71,0,.05,12.71ZM81,153.11l0,10.06,10.06,0,0-10.06Z" transform="translate(217.13 -0.9)"/><path class="cls-26" d="M79.62,147.46l0-12.71,12.7-.05,0,12.71Zm1.29-11.39,0,10.06,10.06,0L91,136Z" transform="translate(217.13 -0.9)"/><path class="cls-26" d="M79.56,130.61l0-12.71,12.71-.05,0,12.71Zm1.28-11.39,0,10.06,10.06,0,0-10.06Z" transform="translate(217.13 -0.9)"/><polygon class="cls-26" points="306.6 242.38 304.21 243.17 304.22 245.69 302.73 243.66 300.34 244.44 301.81 242.4 300.33 240.37 302.72 241.14 304.2 239.09 304.21 241.61 306.6 242.38"/><polygon class="cls-26" points="306.54 225.29 304.15 226.08 304.16 228.59 302.67 226.56 300.28 227.35 301.75 225.31 300.26 223.28 302.66 224.04 304.13 222 304.14 224.52 306.54 225.29"/><polygon class="cls-26" points="306.48 208.19 304.08 208.98 304.09 211.5 302.61 209.47 300.21 210.26 301.69 208.21 300.2 206.18 302.6 206.95 304.07 204.91 304.08 207.43 306.48 208.19"/><polygon class="cls-26" points="306.41 191.1 304.02 191.89 304.03 194.41 302.54 192.38 300.15 193.16 301.62 191.12 300.13 189.09 302.53 189.86 304 187.81 304.01 190.33 306.41 191.1"/><polygon class="cls-26" points="306.35 174.3 303.96 175.09 303.97 177.6 302.48 175.57 300.09 176.36 301.56 174.32 300.07 172.29 302.47 173.06 303.94 171.01 303.95 173.53 306.35 174.3"/><polygon class="cls-26" points="306.29 157.21 303.89 157.99 303.9 160.51 302.41 158.48 300.02 159.27 301.5 157.22 300.01 155.19 302.4 155.96 303.88 153.92 303.89 156.44 306.29 157.21"/><polygon class="cls-26" points="306.22 140.16 303.83 140.95 303.84 143.47 302.35 141.44 299.96 142.22 301.43 140.18 299.94 138.15 302.34 138.92 303.81 136.88 303.82 139.39 306.22 140.16"/><polygon class="cls-26" points="306.16 123.31 303.77 124.1 303.77 126.62 302.29 124.58 299.89 125.37 301.37 123.33 299.88 121.3 302.28 122.07 303.75 120.02 303.76 122.54 306.16 123.31"/><polygon class="cls-26" points="245.17 320.25 242.71 320.26 239.88 324.07 242.34 324.06 245.17 320.25"/><polygon class="cls-26" points="236.25 324.09 238.71 324.08 241.54 320.26 239.08 320.27 236.25 324.09"/><polygon class="cls-26" points="248.75 320.24 246.29 320.25 243.46 324.06 245.92 324.05 248.75 320.24"/><polygon class="cls-26" points="252.46 320.22 250 320.23 247.16 324.05 249.63 324.04 252.46 320.22"/><polygon class="cls-26" points="256.29 320.21 253.83 320.22 251 324.03 253.46 324.02 256.29 320.21"/><polygon class="cls-26" points="260.21 320.19 257.75 320.2 254.92 324.02 257.38 324.01 260.21 320.19"/><polygon class="cls-26" points="253.5 327.35 254.84 326.88 254.86 325.45 255.73 326.58 257.09 326.17 256.28 327.34 257.1 328.5 255.73 328.1 254.88 329.23 254.84 327.81 253.5 327.35"/><polygon class="cls-26" points="253.51 331.69 254.85 331.22 254.88 329.79 255.74 330.92 257.1 330.51 256.29 331.68 257.11 332.84 255.75 332.44 254.89 333.57 254.86 332.15 253.51 331.69"/><polygon class="cls-26" points="253.53 336.03 254.87 335.56 254.89 334.13 255.76 335.26 257.12 334.85 256.31 336.02 257.13 337.18 255.76 336.78 254.91 337.91 254.87 336.49 253.53 336.03"/><polygon class="cls-26" points="253.54 340.37 254.89 339.89 254.91 338.47 255.78 339.6 257.14 339.19 256.33 340.36 257.14 341.52 255.78 341.12 254.93 342.25 254.89 340.83 253.54 340.37"/><polygon class="cls-26" points="253.56 344.71 254.9 344.23 254.93 342.81 255.79 343.94 257.15 343.52 256.34 344.7 257.16 345.86 255.8 345.45 254.94 346.59 254.91 345.17 253.56 344.71"/><polygon class="cls-26" points="249.27 327.37 250.62 326.89 250.64 325.47 251.5 326.6 252.87 326.18 252.06 327.35 252.87 328.52 251.51 328.11 250.65 329.25 250.62 327.83 249.27 327.37"/><polygon class="cls-26" points="249.29 331.7 250.63 331.23 250.66 329.81 251.52 330.94 252.88 330.52 252.07 331.69 252.89 332.86 251.53 332.45 250.67 333.59 250.64 332.17 249.29 331.7"/><polygon class="cls-26" points="249.31 336.04 250.65 335.57 250.67 334.15 251.54 335.28 252.9 334.86 252.09 336.03 252.91 337.2 251.54 336.79 250.69 337.93 250.65 336.51 249.31 336.04"/><polygon class="cls-26" points="249.32 340.38 250.66 339.91 250.69 338.49 251.55 339.62 252.91 339.2 252.1 340.37 252.92 341.54 251.56 341.13 250.7 342.27 250.67 340.85 249.32 340.38"/><polygon class="cls-26" points="249.34 344.72 250.68 344.25 250.71 342.83 251.57 343.96 252.93 343.54 252.12 344.71 252.94 345.88 251.57 345.47 250.72 346.61 250.68 345.19 249.34 344.72"/><polygon class="cls-26" points="245.05 327.38 246.39 326.91 246.42 325.49 247.28 326.62 248.64 326.2 247.83 327.37 248.65 328.54 247.29 328.13 246.43 329.27 246.4 327.84 245.05 327.38"/><polygon class="cls-26" points="245.07 331.72 246.41 331.25 246.43 329.82 247.3 330.95 248.66 330.54 247.85 331.71 248.67 332.88 247.3 332.47 246.45 333.61 246.41 332.18 245.07 331.72"/><polygon class="cls-26" points="245.08 336.06 246.43 335.59 246.45 334.16 247.31 335.3 248.68 334.88 247.87 336.05 248.68 337.21 247.32 336.81 246.46 337.94 246.43 336.52 245.08 336.06"/><polygon class="cls-26" points="245.1 340.4 246.44 339.93 246.47 338.5 247.33 339.63 248.69 339.22 247.88 340.39 248.7 341.55 247.34 341.15 246.48 342.28 246.45 340.86 245.1 340.4"/><polygon class="cls-26" points="245.12 344.74 246.46 344.27 246.48 342.84 247.35 343.97 248.71 343.56 247.9 344.73 248.72 345.89 247.35 345.49 246.5 346.62 246.46 345.2 245.12 344.74"/><polygon class="cls-26" points="240.83 327.4 242.17 326.92 242.19 325.5 243.06 326.63 244.42 326.21 243.61 327.39 244.43 328.55 243.06 328.14 242.21 329.28 242.18 327.86 240.83 327.4"/><polygon class="cls-26" points="240.84 331.74 242.19 331.26 242.21 329.84 243.08 330.97 244.44 330.55 243.63 331.73 244.45 332.89 243.08 332.48 242.23 333.62 242.19 332.2 240.84 331.74"/><polygon class="cls-26" points="240.86 336.07 242.2 335.6 242.23 334.18 243.09 335.31 244.45 334.89 243.64 336.06 244.46 337.23 243.1 336.82 242.24 337.96 242.21 336.54 240.86 336.07"/><polygon class="cls-26" points="240.88 340.42 242.22 339.94 242.24 338.52 243.11 339.65 244.47 339.23 243.66 340.4 244.48 341.57 243.11 341.16 242.26 342.3 242.22 340.88 240.88 340.42"/><polygon class="cls-26" points="240.89 344.75 242.24 344.28 242.26 342.86 243.13 343.99 244.49 343.57 243.68 344.74 244.49 345.91 243.13 345.5 242.28 346.64 242.24 345.22 240.89 344.75"/><polygon class="cls-26" points="236.61 327.41 237.95 326.94 237.97 325.52 238.84 326.65 240.2 326.23 239.39 327.4 240.21 328.57 238.84 328.16 237.99 329.3 237.95 327.88 236.61 327.41"/><polygon class="cls-26" points="236.62 331.75 237.97 331.28 237.99 329.86 238.85 330.99 240.22 330.57 239.41 331.74 240.22 332.91 238.86 332.5 238 333.64 237.97 332.21 236.62 331.75"/><polygon class="cls-26" points="236.64 336.09 237.98 335.62 238.01 334.19 238.87 335.33 240.23 334.91 239.42 336.08 240.24 337.25 238.88 336.84 238.02 337.98 237.99 336.55 236.64 336.09"/><polygon class="cls-26" points="236.66 340.43 238 339.96 238.02 338.54 238.89 339.67 240.25 339.25 239.44 340.42 240.26 341.58 238.89 341.18 238.04 342.32 238 340.89 236.66 340.43"/><polygon class="cls-26" points="236.67 344.77 238.01 344.3 238.04 342.87 238.9 344 240.26 343.59 239.46 344.76 240.27 345.93 238.91 345.52 238.05 346.65 238.02 345.23 236.67 344.77"/><path class="cls-26" d="M18.31,349.44l-.1-25.05,23-.09.09,25.05Zm1.36-23.6L19.76,348l20.11-.08-.08-22.14Z" transform="translate(217.13 -0.9)"/><polygon class="cls-26" points="279.51 320.12 281.93 320.11 284.75 323.9 282.33 323.91 279.51 320.12"/><polygon class="cls-26" points="288.33 323.89 285.9 323.9 283.09 320.11 285.51 320.1 288.33 323.89"/><polygon class="cls-26" points="275.98 320.13 278.41 320.13 281.22 323.92 278.8 323.93 275.98 320.13"/><polygon class="cls-26" points="272.34 320.15 274.76 320.14 277.58 323.93 275.15 323.94 272.34 320.15"/><polygon class="cls-26" points="268.56 320.16 270.98 320.15 273.8 323.95 271.38 323.95 268.56 320.16"/><polygon class="cls-26" points="264.7 320.18 267.12 320.17 269.94 323.96 267.52 323.97 264.7 320.18"/><polygon class="cls-26" points="271.37 327.28 270.04 326.82 270.01 325.4 269.16 326.53 267.82 326.13 268.63 327.29 267.83 328.46 269.17 328.05 270.02 329.18 270.04 327.75 271.37 327.28"/><polygon class="cls-26" points="271.38 331.62 270.06 331.16 270.02 329.74 269.18 330.87 267.83 330.47 268.64 331.63 267.84 332.8 269.19 332.39 270.04 333.52 270.06 332.09 271.38 331.62"/><polygon class="cls-26" points="271.4 335.96 270.07 335.5 270.04 334.07 269.2 335.21 267.85 334.81 268.66 335.97 267.86 337.14 269.2 336.73 270.05 337.86 270.08 336.43 271.4 335.96"/><polygon class="cls-26" points="271.42 340.3 270.09 339.84 270.06 338.41 269.21 339.55 267.87 339.14 268.67 340.31 267.88 341.48 269.22 341.06 270.07 342.2 270.09 340.77 271.42 340.3"/><polygon class="cls-26" points="271.43 344.64 270.11 344.18 270.07 342.75 269.23 343.89 267.88 343.48 268.69 344.65 267.89 345.82 269.23 345.4 270.08 346.54 270.11 345.11 271.43 344.64"/><polygon class="cls-26" points="275.52 327.27 274.2 326.8 274.17 325.38 273.32 326.52 271.98 326.11 272.78 327.28 271.99 328.45 273.33 328.03 274.18 329.16 274.2 327.74 275.52 327.27"/><polygon class="cls-26" points="275.54 331.61 274.21 331.14 274.18 329.72 273.34 330.86 272 330.45 272.8 331.62 272 332.79 273.34 332.37 274.2 333.5 274.22 332.08 275.54 331.61"/><polygon class="cls-26" points="275.56 335.94 274.23 335.48 274.2 334.06 273.36 335.2 272.01 334.79 272.82 335.95 272.02 337.13 273.36 336.71 274.21 337.84 274.24 336.42 275.56 335.94"/><polygon class="cls-26" points="275.57 340.28 274.25 339.82 274.21 338.4 273.37 339.54 272.03 339.13 272.83 340.3 272.04 341.47 273.38 341.05 274.23 342.18 274.25 340.76 275.57 340.28"/><polygon class="cls-26" points="275.59 344.62 274.26 344.16 274.23 342.74 273.39 343.88 272.04 343.47 272.85 344.63 272.05 345.81 273.39 345.39 274.24 346.52 274.27 345.1 275.59 344.62"/><polygon class="cls-26" points="279.69 327.25 278.36 326.79 278.32 325.37 277.48 326.5 276.14 326.1 276.94 327.26 276.15 328.43 277.49 328.01 278.34 329.15 278.36 327.72 279.69 327.25"/><polygon class="cls-26" points="279.7 331.59 278.38 331.13 278.34 329.7 277.5 330.84 276.15 330.44 276.96 331.6 276.16 332.77 277.5 332.36 278.36 333.49 278.38 332.06 279.7 331.59"/><polygon class="cls-26" points="279.72 335.93 278.39 335.47 278.36 334.04 277.51 335.18 276.17 334.77 276.98 335.94 276.18 337.11 277.52 336.69 278.37 337.82 278.39 336.4 279.72 335.93"/><polygon class="cls-26" points="279.73 340.27 278.41 339.81 278.37 338.38 277.53 339.52 276.19 339.11 276.99 340.28 276.19 341.45 277.54 341.03 278.39 342.17 278.41 340.74 279.73 340.27"/><polygon class="cls-26" points="279.75 344.61 278.42 344.15 278.39 342.72 277.55 343.86 276.2 343.45 277.01 344.62 276.21 345.79 277.55 345.37 278.4 346.5 278.43 345.08 279.75 344.61"/><polygon class="cls-26" points="283.84 327.24 282.52 326.77 282.48 325.35 281.64 326.49 280.3 326.08 281.1 327.25 280.31 328.42 281.65 328 282.5 329.13 282.52 327.71 283.84 327.24"/><polygon class="cls-26" points="283.86 331.57 282.53 331.11 282.5 329.69 281.66 330.83 280.31 330.42 281.12 331.58 280.32 332.76 281.66 332.34 282.51 333.47 282.54 332.05 283.86 331.57"/><polygon class="cls-26" points="283.88 335.91 282.55 335.45 282.52 334.03 281.67 335.17 280.33 334.76 281.13 335.92 280.34 337.1 281.68 336.68 282.53 337.81 282.55 336.39 283.88 335.91"/><polygon class="cls-26" points="283.89 340.25 282.57 339.79 282.53 338.37 281.69 339.5 280.35 339.1 281.15 340.26 280.35 341.44 281.69 341.02 282.55 342.15 282.57 340.73 283.89 340.25"/><polygon class="cls-26" points="283.91 344.59 282.58 344.13 282.55 342.71 281.71 343.85 280.36 343.44 281.17 344.6 280.37 345.77 281.71 345.36 282.56 346.49 282.59 345.06 283.91 344.59"/><polygon class="cls-26" points="288 327.22 286.68 326.76 286.64 325.33 285.8 326.47 284.46 326.06 285.26 327.23 284.46 328.4 285.81 327.98 286.66 329.12 286.68 327.69 288 327.22"/><polygon class="cls-26" points="288.02 331.56 286.69 331.1 286.66 329.67 285.82 330.81 284.47 330.4 285.28 331.57 284.48 332.74 285.82 332.32 286.67 333.45 286.7 332.03 288.02 331.56"/><polygon class="cls-26" points="288.04 335.9 286.71 335.44 286.68 334.01 285.83 335.15 284.49 334.74 285.29 335.91 284.5 337.08 285.84 336.66 286.69 337.79 286.71 336.37 288.04 335.9"/><polygon class="cls-26" points="288.05 340.24 286.73 339.77 286.69 338.35 285.85 339.49 284.5 339.08 285.31 340.25 284.51 341.42 285.85 341 286.71 342.13 286.73 340.71 288.05 340.24"/><polygon class="cls-26" points="288.07 344.58 286.74 344.12 286.71 342.69 285.87 343.83 284.52 343.42 285.33 344.59 284.53 345.76 285.87 345.34 286.72 346.47 286.75 345.05 288.07 344.58"/><path class="cls-26" d="M49.49,349.32l-.1-25.05,22.7-.08.1,25Zm1.36-23.6.09,22.14,19.79-.07-.08-22.14Z" transform="translate(217.13 -0.9)"/><circle class="cls-26" cx="333.48" cy="269.53" r="1.71"/><circle class="cls-26" cx="250.54" cy="191.01" r="1.97"/><circle class="cls-26" cx="250.38" cy="148.18" r="1.97"/><circle class="cls-26" cx="250.46" cy="169.68" r="1.97"/><path class="cls-26" d="M32.75,192.43c-.32-19.86-.39-39.13-.47-59.54v-.67l.66-.12c2.4,0,8.78,0,11.57-.12l0,1.32c-2.58.08-8.18.11-10.94.12.08,20.28.15,39.35.47,59Z" transform="translate(217.13 -0.9)"/><polygon class="cls-26" points="246.25 202.91 249.79 199.35 249.76 192.23 251.09 192.22 251.12 199.89 247.19 203.84 246.25 202.91"/><rect class="cls-26" x="29.06" y="208.82" width="1.32" height="8.07" transform="translate(216.34 -0.79) rotate(-0.21)"/><rect class="cls-26" x="29.11" y="223.02" width="1.32" height="6.72" transform="translate(216.27 -0.79) rotate(-0.22)"/><rect class="cls-26" x="29.16" y="235.09" width="1.32" height="8.17" transform="translate(216.23 -0.79) rotate(-0.22)"/><rect class="cls-26" x="42.81" y="257.07" width="3.56" height="14.89" transform="translate(526.07 218.02) rotate(89.79)"/><path class="cls-26" d="M35.83,267.66l0-6.22,17.55-.07,0,6.22Zm2.64-3.58V265l12.24,0V264Z" transform="translate(217.13 -0.9)"/><path class="cls-26" d="M47.59,305.3l0-7.09,21.56-.08,0,7.09ZM49,299.66v4.18l18.66-.07,0-4.18Z" transform="translate(217.13 -0.9)"/><polygon class="cls-26" points="244 300.93 242.84 301.34 242.82 302.57 242.07 301.59 240.89 301.95 241.59 300.94 240.88 299.93 242.07 300.28 242.81 299.29 242.84 300.53 244 300.93"/><polygon class="cls-26" points="247.66 300.92 246.5 301.32 246.48 302.56 245.73 301.58 244.55 301.94 245.25 300.92 244.54 299.91 245.72 300.27 246.47 299.28 246.5 300.51 247.66 300.92"/><polygon class="cls-26" points="251.32 300.9 250.16 301.31 250.14 302.54 249.39 301.56 248.21 301.93 248.91 300.91 248.2 299.9 249.38 300.25 250.13 299.27 250.16 300.5 251.32 300.9"/><polygon class="cls-26" points="254.98 300.89 253.82 301.3 253.8 302.53 253.05 301.55 251.87 301.91 252.57 300.9 251.86 299.89 253.04 300.24 253.78 299.25 253.81 300.49 254.98 300.89"/><polygon class="cls-26" points="258.64 300.87 257.48 301.28 257.46 302.52 256.71 301.54 255.53 301.9 256.23 300.88 255.52 299.87 256.7 300.23 257.44 299.24 257.47 300.47 258.64 300.87"/><path class="cls-26" d="M21.58,305.4l0-7.09,21.57-.08,0,7.09ZM23,299.76l0,4.18,18.65-.07v-4.18Z" transform="translate(217.13 -0.9)"/><line class="cls-26" x1="235.39" y1="207.59" x2="222.35" y2="219.12"/><path class="cls-26" d="M4.18,220.92a1.26,1.26,0,0,1,.07-1.86l13-11.53a1.48,1.48,0,0,1,2,.05,1.29,1.29,0,0,1-.06,1.88L6.18,221a1.48,1.48,0,0,1-2-.05Z" transform="translate(217.13 -0.9)"/><line class="cls-26" x1="235.42" y1="216.15" x2="222.38" y2="227.68"/><path class="cls-26" d="M4.21,229.49a1.28,1.28,0,0,1,.07-1.87l13-11.53a1.49,1.49,0,0,1,2,0v0a1.26,1.26,0,0,1-.07,1.86l-13,11.53a1.48,1.48,0,0,1-2-.05Z" transform="translate(217.13 -0.9)"/><line class="cls-26" x1="235.46" y1="224.71" x2="222.42" y2="236.25"/><path class="cls-26" d="M4.25,238.05a1.26,1.26,0,0,1,.07-1.86l13-11.54a1.49,1.49,0,0,1,2,.06h0a1.27,1.27,0,0,1-.07,1.86l-13,11.53a1.46,1.46,0,0,1-2-.05Z" transform="translate(217.13 -0.9)"/><line class="cls-26" x1="235.49" y1="233.27" x2="222.45" y2="244.81"/><path class="cls-26" d="M4.28,246.61a1.27,1.27,0,0,1,.07-1.86l13-11.54a1.49,1.49,0,0,1,2,.06,1.26,1.26,0,0,1-.06,1.87l-13,11.54a1.49,1.49,0,0,1-2-.06Z" transform="translate(217.13 -0.9)"/><line class="cls-26" x1="235.53" y1="241.83" x2="222.48" y2="253.37"/><path class="cls-26" d="M4.31,255.17a1.27,1.27,0,0,1,.07-1.86l13.05-11.54a1.48,1.48,0,0,1,2,.06h0a1.27,1.27,0,0,1-.07,1.86l-13,11.54a1.49,1.49,0,0,1-2-.06Z" transform="translate(217.13 -0.9)"/><line class="cls-26" x1="284.53" y1="320.13" x2="284.47" y2="303.51"/><rect class="cls-26" x="67" y="304.42" width="0.73" height="16.62" transform="translate(215.95 -0.65) rotate(-0.22)"/><line class="cls-26" x1="280.87" y1="320.14" x2="280.81" y2="303.53"/><rect class="cls-26" x="63.34" y="304.43" width="0.73" height="16.62" transform="translate(215.97 -0.66) rotate(-0.21)"/><line class="cls-26" x1="277.21" y1="320.16" x2="277.15" y2="303.54"/><rect class="cls-26" x="59.68" y="304.45" width="0.73" height="16.62" transform="translate(215.97 -0.68) rotate(-0.21)"/><line class="cls-26" x1="273.55" y1="320.17" x2="273.49" y2="303.56"/><rect class="cls-26" x="56.02" y="304.46" width="0.73" height="16.62" transform="translate(215.95 -0.69) rotate(-0.22)"/><line class="cls-26" x1="269.89" y1="320.19" x2="269.83" y2="303.57"/><rect class="cls-26" x="52.36" y="304.47" width="0.73" height="16.62" transform="translate(215.95 -0.7) rotate(-0.22)"/><line class="cls-26" x1="266.18" y1="320.2" x2="266.12" y2="303.58"/><rect class="cls-26" x="48.66" y="304.49" width="0.73" height="16.62" transform="translate(215.95 -0.72) rotate(-0.22)"/><line class="cls-26" x1="258.48" y1="320.23" x2="258.42" y2="303.61"/><rect class="cls-26" x="40.95" y="304.52" width="0.73" height="16.62" transform="translate(215.95 -0.75) rotate(-0.22)"/><line class="cls-26" x1="254.82" y1="320.24" x2="254.76" y2="303.63"/><rect class="cls-26" x="37.29" y="304.53" width="0.73" height="16.62" transform="translate(215.95 -0.76) rotate(-0.22)"/><line class="cls-26" x1="251.16" y1="320.26" x2="251.1" y2="303.64"/><rect class="cls-26" x="33.63" y="304.54" width="0.73" height="16.62" transform="translate(215.97 -0.78) rotate(-0.21)"/><line class="cls-26" x1="247.5" y1="320.27" x2="247.44" y2="303.65"/><rect class="cls-26" x="29.97" y="304.56" width="0.73" height="16.62" transform="translate(215.97 -0.79) rotate(-0.21)"/><line class="cls-26" x1="243.84" y1="320.28" x2="243.78" y2="303.67"/><rect class="cls-26" x="26.31" y="304.57" width="0.73" height="16.62" transform="translate(215.97 -0.8) rotate(-0.21)"/><line class="cls-26" x1="240.14" y1="320.3" x2="240.07" y2="303.68"/><rect class="cls-26" x="22.61" y="304.58" width="0.73" height="16.62" transform="translate(215.95 -0.81) rotate(-0.22)"/><line class="cls-26" x1="249.43" y1="297.85" x2="249.41" y2="292.4"/><rect class="cls-26" x="30.11" y="293.3" width="4.37" height="5.45" transform="translate(216.09 -0.79) rotate(-0.2)"/><line class="cls-26" x1="275.27" y1="297.75" x2="275.25" y2="292.3"/><rect class="cls-26" x="55.95" y="293.21" width="4.37" height="5.45" transform="translate(216.03 -0.69) rotate(-0.21)"/><polygon class="cls-26" points="328.53 267.71 327.89 99.57 307.97 79.79 309.84 77.91 330.54 98.46 331.18 267.7 328.53 267.71"/><polygon class="cls-26" points="324.42 95.14 324.36 80.76 304.34 60.89 305.74 59.48 326.35 79.93 326.4 95.13 324.42 95.14"/><polygon class="cls-26" points="320.3 76.18 320.25 63.81 303.55 47.23 304.48 46.3 321.57 63.26 321.62 76.18 320.3 76.18"/><polygon class="cls-26" points="317.29 60.34 317.25 50.13 301.63 34.62 302.33 33.92 318.25 49.72 318.28 60.33 317.29 60.34"/><polygon class="cls-26" points="325.49 269.56 330.79 267.7 330.88 262.08 334.3 266.55 339.67 264.9 336.47 269.52 339.7 274.12 334.32 272.51 330.94 277 330.81 271.39 325.49 269.56"/><path class="cls-26" d="M108.36,270.47l5.3-1.87.09-5.61,3.41,4.46,5.37-1.65-3.19,4.63,3.23,4.59-5.38-1.6-3.38,4.49-.14-5.62-5.31-1.82m-3.9,0,3.49,1.2,4.46,1.53.12,4.73.09,3.68,2.21-2.94,2.84-3.78,4.53,1.35,3.53,1.06-2.11-3-2.72-3.87,2.69-3.89,2.09-3-3.52,1.08L117.64,266l-2.87-3.75-2.24-2.93-.06,3.68-.08,4.73-4.45,1.57-3.48,1.22Z" transform="translate(217.13 -0.9)"/><path class="cls-26" d="M23.75,8.11H23l-.13,13.51,52.88.52h.72l.13-13.51ZM75.06,20.67l-50.71-.49.1-10.61,50.71.49Z" transform="translate(217.13 -0.9)"/><rect class="cls-26" x="28.68" y="12.58" width="3.77" height="10" transform="translate(229.81 47.07) rotate(-89.43)"/><rect class="cls-26" x="41.86" y="12.71" width="3.77" height="10" transform="translate(242.73 60.37) rotate(-89.43)"/><rect class="cls-26" x="55.05" y="12.84" width="3.77" height="10" transform="translate(255.66 73.68) rotate(-89.43)"/><rect class="cls-26" x="28.73" y="7.55" width="3.77" height="10" transform="translate(234.89 42.14) rotate(-89.43)"/><rect class="cls-26" x="41.91" y="7.68" width="3.77" height="10" transform="translate(247.81 55.44) rotate(-89.43)"/><rect class="cls-26" x="55.1" y="7.81" width="3.77" height="10" transform="matrix(0.01, -1, 1, 0.01, 260.74, 68.75)"/><rect class="cls-26" x="67.09" y="12.75" width="3.77" height="10" transform="translate(267.66 85.64) rotate(-89.42)"/><rect class="cls-26" x="67.14" y="7.72" width="3.77" height="10" transform="translate(272.75 80.71) rotate(-89.43)"/><polygon class="cls-26" points="300.7 34.58 300.63 14.81 292.53 14.84 292.52 13.52 301.95 13.48 302.03 34.57 300.7 34.58"/><path class="cls-26" d="M-2.46,21.94l0-5.79,26-.09V13.4l-28.66.11,0,8.48A5.07,5.07,0,0,1-2.46,21.94Z" transform="translate(217.13 -0.9)"/><path class="cls-26" d="M12.64,279.75V277.1l-4.42,0L7.72,142.46v-.63L-2,134l0-8.45a5.21,5.21,0,0,1-2.65.41l0,8.69v.63l9.75,7.84.5,136.68Z" transform="translate(217.13 -0.9)"/><path class="cls-26" d="M-10.64,125.78v-3.21l1.94-3.47-.37-97.67,10.76,0,0,7.74L2,119l1.82,3.88v2.89Zm.65-3v2.37l13.19,0v-2.15L1.38,119,1,22.05l-9.43,0L-8,119.27Z" transform="translate(217.13 -0.9)"/><polygon class="cls-26" points="216.69 28.64 215.58 29 215.59 30.17 214.9 29.23 213.79 29.59 214.47 28.64 213.78 27.7 214.89 28.06 215.57 27.11 215.58 28.28 216.69 28.64"/><polygon class="cls-26" points="213.78 31.47 212.67 31.83 212.67 33 211.98 32.05 210.88 32.42 211.56 31.47 210.87 30.53 211.98 30.89 212.66 29.94 212.67 31.11 213.78 31.47"/><polygon class="cls-26" points="213.75 25.52 212.65 25.88 212.65 27.05 211.96 26.11 210.85 26.47 211.54 25.52 210.85 24.58 211.96 24.94 212.64 23.99 212.64 25.16 213.75 25.52"/><polygon class="cls-26" points="216.71 34.4 215.6 34.77 215.61 35.93 214.92 34.99 213.81 35.35 214.49 34.41 213.8 33.47 214.91 33.82 215.6 32.88 215.6 34.04 216.71 34.4"/><polygon class="cls-26" points="216.73 40.16 215.63 40.53 215.63 41.7 214.94 40.75 213.83 41.12 214.51 40.17 213.82 39.23 214.94 39.59 215.62 38.64 215.62 39.81 216.73 40.16"/><polygon class="cls-26" points="213.72 43.2 212.62 43.56 212.62 44.73 211.93 43.78 210.82 44.15 211.51 43.2 210.82 42.26 211.93 42.62 212.61 41.67 212.61 42.84 213.72 43.2"/><polygon class="cls-26" points="213.8 37.41 212.69 37.78 212.7 38.95 212.01 38.01 210.9 38.37 211.58 37.42 210.89 36.48 212 36.84 212.68 35.89 212.69 37.06 213.8 37.41"/><polygon class="cls-26" points="216.79 54.53 215.68 54.9 215.68 56.06 214.99 55.12 213.89 55.49 214.57 54.54 213.88 53.6 214.99 53.95 215.67 53.01 215.68 54.17 216.79 54.53"/><polygon class="cls-26" points="213.87 57.36 212.77 57.73 212.77 58.89 212.08 57.95 210.97 58.31 211.66 57.37 210.97 56.43 212.08 56.78 212.76 55.84 212.76 57 213.87 57.36"/><polygon class="cls-26" points="213.85 51.41 212.74 51.78 212.75 52.94 212.06 52 210.95 52.37 211.63 51.42 210.94 50.48 212.06 50.84 212.74 49.89 212.74 51.05 213.85 51.41"/><polygon class="cls-26" points="216.81 60.3 215.7 60.66 215.7 61.83 215.01 60.88 213.91 61.25 214.59 60.3 213.9 59.36 215.01 59.72 215.69 58.77 215.7 59.94 216.81 60.3"/><polygon class="cls-26" points="216.83 66.06 215.72 66.42 215.73 67.59 215.04 66.65 213.93 67.01 214.61 66.07 213.92 65.13 215.03 65.48 215.72 64.54 215.72 65.7 216.83 66.06"/><polygon class="cls-26" points="213.82 69.09 212.71 69.45 212.72 70.62 212.03 69.68 210.92 70.04 211.6 69.1 210.91 68.16 212.03 68.51 212.71 67.57 212.71 68.73 213.82 69.09"/><polygon class="cls-26" points="213.9 63.31 212.79 63.67 212.79 64.84 212.1 63.9 211 64.27 211.68 63.32 210.99 62.38 212.1 62.73 212.78 61.79 212.79 62.95 213.9 63.31"/><polygon class="cls-26" points="216.88 80.43 215.78 80.79 215.78 81.96 215.09 81.02 213.98 81.38 214.66 80.44 213.98 79.49 215.09 79.85 215.77 78.9 215.77 80.07 216.88 80.43"/><polygon class="cls-26" points="213.97 83.26 212.86 83.62 212.87 84.79 212.18 83.85 211.07 84.21 211.75 83.26 211.06 82.32 212.17 82.68 212.86 81.73 212.86 82.9 213.97 83.26"/><polygon class="cls-26" points="213.95 77.31 212.84 77.67 212.84 78.84 212.16 77.9 211.05 78.26 211.73 77.31 211.04 76.37 212.15 76.73 212.83 75.78 212.84 76.95 213.95 77.31"/><polygon class="cls-26" points="216.91 86.19 215.8 86.56 215.8 87.72 215.11 86.78 214 87.14 214.69 86.2 214 85.26 215.11 85.61 215.79 84.67 215.79 85.83 216.91 86.19"/><polygon class="cls-26" points="216.93 91.95 215.82 92.32 215.82 93.49 215.13 92.55 214.03 92.91 214.71 91.96 214.02 91.02 215.13 91.38 215.81 90.43 215.82 91.6 216.93 91.95"/><polygon class="cls-26" points="213.92 94.98 212.81 95.35 212.82 96.52 212.13 95.58 211.02 95.94 211.7 94.99 211.01 94.05 212.12 94.41 212.8 93.46 212.81 94.63 213.92 94.98"/><polygon class="cls-26" points="213.99 89.21 212.89 89.57 212.89 90.74 212.2 89.8 211.09 90.16 211.78 89.21 211.09 88.27 212.2 88.63 212.88 87.68 212.88 88.85 213.99 89.21"/><polygon class="cls-26" points="216.98 106.32 215.87 106.69 215.88 107.85 215.19 106.91 214.08 107.28 214.76 106.33 214.07 105.39 215.18 105.75 215.87 104.8 215.87 105.97 216.98 106.32"/><polygon class="cls-26" points="214.07 109.15 212.96 109.52 212.97 110.68 212.28 109.74 211.17 110.11 211.85 109.16 211.16 108.22 212.27 108.58 212.95 107.63 212.96 108.8 214.07 109.15"/><polygon class="cls-26" points="214.05 103.2 212.94 103.57 212.94 104.73 212.25 103.79 211.15 104.16 211.83 103.21 211.14 102.27 212.25 102.63 212.93 101.68 212.94 102.84 214.05 103.2"/><polygon class="cls-26" points="217 112.09 215.89 112.45 215.9 113.62 215.21 112.68 214.1 113.04 214.78 112.09 214.09 111.15 215.21 111.51 215.89 110.56 215.89 111.73 217 112.09"/><polygon class="cls-26" points="217.02 117.85 215.92 118.22 215.92 119.38 215.23 118.44 214.12 118.81 214.81 117.86 214.12 116.92 215.23 117.27 215.91 116.33 215.91 117.49 217.02 117.85"/><polygon class="cls-26" points="214.02 120.88 212.91 121.25 212.91 122.41 212.22 121.47 211.12 121.83 211.8 120.89 211.11 119.95 212.22 120.3 212.9 119.36 212.91 120.52 214.02 120.88"/><polygon class="cls-26" points="214.09 115.1 212.98 115.47 212.99 116.63 212.3 115.69 211.19 116.06 211.87 115.11 211.18 114.17 212.29 114.52 212.98 113.58 212.98 114.74 214.09 115.1"/><rect class="cls-26" x="-4.58" y="121.08" width="2.83" height="11.68" transform="translate(340.89 128.7) rotate(89.79)"/></g></g></g></g></svg>