<svg xmlns="http://www.w3.org/2000/svg" xmlns:xlink="http://www.w3.org/1999/xlink" viewBox="0 0 760.68 412.34"><defs><style>.cls-1,.cls-10,.cls-11,.cls-12,.cls-13,.cls-14,.cls-15,.cls-16,.cls-17,.cls-18,.cls-19,.cls-20,.cls-21,.cls-22,.cls-23,.cls-4,.cls-5,.cls-6,.cls-7,.cls-8,.cls-9{fill:none;}.cls-2{fill:url(#radial-gradient);}.cls-3{clip-path:url(#clip-path);}.cls-10,.cls-11,.cls-12,.cls-13,.cls-14,.cls-15,.cls-16,.cls-17,.cls-18,.cls-19,.cls-20,.cls-21,.cls-22,.cls-23,.cls-4,.cls-5,.cls-6,.cls-8,.cls-9{stroke-miterlimit:10;}.cls-4{stroke-width:0.5px;stroke:url(#linear-gradient);}.cls-5{stroke-width:0.49px;stroke:url(#linear-gradient-2);}.cls-6{stroke-width:0.47px;stroke:url(#linear-gradient-3);}.cls-7{stroke-miterlimit:10;stroke-width:0.46px;stroke:url(#linear-gradient-4);}.cls-8{stroke-width:0.45px;stroke:url(#linear-gradient-5);}.cls-9{stroke-width:0.43px;stroke:url(#linear-gradient-6);}.cls-10{stroke-width:0.42px;stroke:url(#linear-gradient-7);}.cls-11{stroke-width:0.41px;stroke:url(#linear-gradient-8);}.cls-12{stroke-width:0.39px;stroke:url(#linear-gradient-9);}.cls-13{stroke-width:0.38px;stroke:url(#linear-gradient-10);}.cls-14{stroke-width:0.37px;stroke:url(#linear-gradient-11);}.cls-15{stroke-width:0.36px;stroke:url(#linear-gradient-12);}.cls-16{stroke-width:0.34px;stroke:url(#linear-gradient-13);}.cls-17{stroke-width:0.33px;stroke:url(#linear-gradient-14);}.cls-18{stroke-width:0.32px;stroke:url(#linear-gradient-15);}.cls-19{stroke-width:0.3px;stroke:url(#linear-gradient-16);}.cls-20{stroke-width:0.29px;stroke:url(#linear-gradient-17);}.cls-21{stroke-width:0.28px;stroke:url(#linear-gradient-18);}.cls-22{stroke-width:0.26px;stroke:url(#linear-gradient-19);}.cls-23{stroke-width:0.25px;stroke:url(#linear-gradient-20);}</style><radialGradient id="radial-gradient" cx="110.26" cy="145.15" fx="-13.087357252071016" r="449.45" gradientTransform="matrix(0.98, -0.51, 0.1, 1.17, 172.81, 235.8)" gradientUnits="userSpaceOnUse"><stop offset="0.6" stop-color="#231f20"/><stop offset="0.66" stop-color="#271f20"/><stop offset="0.72" stop-color="#331f20"/><stop offset="0.77" stop-color="#471e21"/><stop offset="0.83" stop-color="#641e22"/><stop offset="0.88" stop-color="#881d23"/><stop offset="0.94" stop-color="#b51d24"/><stop offset="1" stop-color="#e91c25"/><stop offset="1" stop-color="#ed1c25"/></radialGradient><clipPath id="clip-path" transform="translate(185.53)"><rect class="cls-1" y="0.68" width="465.54" height="351.64"/></clipPath><linearGradient id="linear-gradient" x1="50.03" y1="-618.48" x2="739.78" y2="-618.48" gradientTransform="matrix(0.91, 0.48, -0.47, 1.02, -441.64, 489.87)" gradientUnits="userSpaceOnUse"><stop offset="0" stop-color="#231f20" stop-opacity="0"/><stop offset="0.3" stop-color="#252122" stop-opacity="0.01"/><stop offset="0.4" stop-color="#2a2728" stop-opacity="0.03"/><stop offset="0.48" stop-color="#353132" stop-opacity="0.08"/><stop offset="0.54" stop-color="#434041" stop-opacity="0.15"/><stop offset="0.59" stop-color="#565354" stop-opacity="0.23"/><stop offset="0.64" stop-color="#6e6b6c" stop-opacity="0.34"/><stop offset="0.68" stop-color="#8a8888" stop-opacity="0.47"/><stop offset="0.72" stop-color="#aaa9a9" stop-opacity="0.61"/><stop offset="0.76" stop-color="#d0cfcf" stop-opacity="0.78"/><stop offset="0.79" stop-color="#f7f7f7" stop-opacity="0.96"/><stop offset="0.79" stop-color="#fff"/></linearGradient><linearGradient id="linear-gradient-2" x1="52.57" y1="-608.5" x2="746.73" y2="-608.5" xlink:href="#linear-gradient"/><linearGradient id="linear-gradient-3" x1="55.09" y1="-598.43" x2="753.67" y2="-598.43" xlink:href="#linear-gradient"/><linearGradient id="linear-gradient-4" x1="57.62" y1="-588.36" x2="760.62" y2="-588.36" xlink:href="#linear-gradient"/><linearGradient id="linear-gradient-5" x1="60.15" y1="-578.3" x2="767.56" y2="-578.3" xlink:href="#linear-gradient"/><linearGradient id="linear-gradient-6" x1="62.67" y1="-568.23" x2="774.5" y2="-568.23" xlink:href="#linear-gradient"/><linearGradient id="linear-gradient-7" x1="65.2" y1="-558.18" x2="781.45" y2="-558.18" xlink:href="#linear-gradient"/><linearGradient id="linear-gradient-8" x1="67.72" y1="-548.12" x2="788.39" y2="-548.12" xlink:href="#linear-gradient"/><linearGradient id="linear-gradient-9" x1="70.25" y1="-538.07" x2="795.34" y2="-538.07" xlink:href="#linear-gradient"/><linearGradient id="linear-gradient-10" x1="72.77" y1="-528.02" x2="802.28" y2="-528.02" xlink:href="#linear-gradient"/><linearGradient id="linear-gradient-11" x1="75.3" y1="-517.97" x2="809.23" y2="-517.97" xlink:href="#linear-gradient"/><linearGradient id="linear-gradient-12" x1="77.83" y1="-507.93" x2="816.17" y2="-507.93" xlink:href="#linear-gradient"/><linearGradient id="linear-gradient-13" x1="80.36" y1="-497.89" x2="823.12" y2="-497.89" xlink:href="#linear-gradient"/><linearGradient id="linear-gradient-14" x1="82.89" y1="-487.85" x2="830.06" y2="-487.85" xlink:href="#linear-gradient"/><linearGradient id="linear-gradient-15" x1="85.42" y1="-477.82" x2="837" y2="-477.82" xlink:href="#linear-gradient"/><linearGradient id="linear-gradient-16" x1="87.96" y1="-467.79" x2="843.95" y2="-467.79" xlink:href="#linear-gradient"/><linearGradient id="linear-gradient-17" x1="90.5" y1="-457.77" x2="850.89" y2="-457.77" xlink:href="#linear-gradient"/><linearGradient id="linear-gradient-18" x1="93.04" y1="-447.77" x2="857.84" y2="-447.77" xlink:href="#linear-gradient"/><linearGradient id="linear-gradient-19" x1="95.59" y1="-437.85" x2="864.78" y2="-437.85" xlink:href="#linear-gradient"/><linearGradient id="linear-gradient-20" x1="98.13" y1="-428.17" x2="871.7" y2="-428.17" xlink:href="#linear-gradient"/></defs><g id="Layer_2" data-name="Layer 2"><g id="Layer_1-2" data-name="Layer 1"><rect class="cls-2" x="185.77" width="465.06" height="353"/><g class="cls-3"><path class="cls-4" d="M-169,17.62C-129.42,39.92-85.78,60-40.21,61.51c32.32,1.08,64.63-8.81,96.87-4.95,63.66,7.61,121.45,42.09,190.45,17.51,29.76-10.6,51.36-36.68,80.38-49.1C368.57,7.38,419.16,13.52,461,26.16c29.23,8.84,45.24,27.52,58,54.08,9.42,19.67,17.59,41.49,33.45,57.24" transform="translate(185.53)"/><path class="cls-5" d="M-169.91,25.74c38.32,19.43,83,40,128.94,42.4,22.3,1.19,44.45-2.51,65.91-4.63a147.35,147.35,0,0,1,30.86-.25C117,70.11,173.94,103.91,239.93,84.59c2.08-.61,4.18-1.24,6.29-2,29.34-9.76,51.55-33.75,80.92-44.79,41.08-15.43,91.22-8.63,132.93,4.55,29.09,9.17,45.22,27.82,58.73,53.44,10.48,19.89,19.73,41.18,34.76,56.1" transform="translate(185.53)"/><path class="cls-6" d="M-170.77,33.86c37,16.56,82.73,37.68,129,40.91,22.62,1.65,44.93-1.41,65.89-4A137.12,137.12,0,0,1,54.94,70C115.65,76.28,173.3,111.24,239,93c2.08-.58,4.19-1.16,6.32-1.82,28.89-8.94,51.7-30.84,81.46-40.48,41-13.29,90.76-5.81,132.39,7.9,28.95,9.5,45.26,28.11,59.49,52.82,11.59,20.1,21.88,40.86,36.07,55" transform="translate(185.53)"/><path class="cls-7" d="M-171.63,42c35.7,13.7,82.47,35.23,129.12,39.42,23,2,45.42-.34,65.87-3.41a126.63,126.63,0,0,1,30.72-1.32c60.22,5.64,118.57,41.9,184,24.79,2.08-.54,4.2-1.07,6.34-1.68,28.45-8.13,51.84-27.93,82-36.17,41-11.18,90.31-3,131.86,11.25,28.82,9.83,45.38,28.4,60.26,52.2,12.72,20.33,24,40.54,37.38,53.8" transform="translate(185.53)"/><path class="cls-8" d="M-172.49,50.1C-138.1,60.93-90.28,83-43.28,88c23.27,2.51,45.91.74,65.85-2.78a118,118,0,0,1,30.65-1.87c59.72,5.07,118.79,42.53,184,26.52,2.08-.5,4.21-1,6.37-1.54,28-7.34,51.95-25,82.54-31.85C367,67.4,416,76.32,457.43,91.1c28.68,10.15,45.55,28.65,61,51.56,13.89,20.56,26.16,40.23,38.68,52.66" transform="translate(185.53)"/><path class="cls-9" d="M-173.35,58.22c33.07,8,81.95,30.5,129.3,36.43a205.93,205.93,0,0,0,65.83-2.17,110.48,110.48,0,0,1,30.58-2.41c59.21,4.51,119,43,183.93,28.26,2.08-.47,4.22-.89,6.39-1.41,27.53-6.57,52.05-22.18,83.08-27.54,40.75-7,89.4,2.64,130.79,18,28.55,10.48,45.78,28.89,61.8,50.94,15.09,20.78,28.3,39.91,40,51.52" transform="translate(185.53)"/><path class="cls-10" d="M-174.22,66.34c31.77,5.09,81.69,28.14,129.41,34.94,23.9,3.4,46.89,2.84,65.8-1.56A103.51,103.51,0,0,1,51.5,96.78c58.71,4,119.18,43.63,183.88,30,2.08-.44,4.23-.8,6.42-1.27,27.06-5.81,52.13-19.33,83.62-23.23,40.6-5,88.94,5.46,130.25,21.3,28.41,10.81,46.06,29.11,62.57,50.32,16.33,21,30.44,39.59,41.3,50.37" transform="translate(185.53)"/><path class="cls-11" d="M-175.08,74.46c30.46,2.22,81.43,25.78,129.5,33.45,24.23,3.86,47.38,3.87,65.78-1a97.42,97.42,0,0,1,30.44-3.48c58.2,3.4,119.4,44.25,183.83,31.72,2.08-.41,4.24-.72,6.44-1.14,26.59-5.07,52.2-16.51,84.16-18.92,40.45-3,88.49,8.28,129.72,24.66,28.28,11.13,46.38,29.29,63.33,49.68,17.61,21.18,32.59,39.28,42.61,49.23" transform="translate(185.53)"/><path class="cls-12" d="M-175.94,82.58c29.15-.64,81.16,23.44,129.59,32,24.55,4.32,47.87,4.89,65.76-.32a91.76,91.76,0,0,1,30.37-4c57.69,2.86,119.62,44.87,183.78,33.45,2.08-.37,4.25-.64,6.47-1,26.1-4.34,52.39-11.58,84.7-14.61,40.12-3.76,88,11.1,129.18,28,28.14,11.46,46.73,29.46,64.1,49.06,18.92,21.34,34.73,39,43.92,48.08" transform="translate(185.53)"/><path class="cls-13" d="M-176.8,90.7c27.84-3.51,80.9,21.09,129.68,30.46,24.87,4.78,48.36,5.9,65.74.29a86.52,86.52,0,0,1,30.3-4.56c57.19,2.31,119.83,45.49,183.73,35.17,2.08-.33,4.25-.55,6.49-.87,25.61-3.62,52.35-8.74,85.24-10.28C364.46,139,412,154.83,453,172.26c28,11.79,47.12,29.6,64.87,48.44,20.25,21.48,36.87,38.64,45.22,46.93" transform="translate(185.53)"/><path class="cls-14" d="M-177.66,98.82c26.52-6.38,80.63,18.75,129.78,29,25.18,5.24,48.84,6.89,65.71.9a82.08,82.08,0,0,1,30.23-5.1c56.68,1.78,120.05,46.12,183.68,36.91,2.08-.3,4.26-.47,6.52-.74,25.12-2.93,52.38-8.21,85.78-6,39.95,2.67,87.13,16.74,128.11,34.71,27.87,12.11,47.53,29.71,65.64,47.8,21.62,21.6,39,38.33,46.53,45.79" transform="translate(185.53)"/><path class="cls-15" d="M-178.53,106.94c25.22-9.25,80.37,16.41,129.88,27.48,25.51,5.7,49.32,7.87,65.69,1.51a78,78,0,0,1,30.17-5.64c56.16,1.25,120.26,46.75,183.63,38.64,2.07-.26,4.26-.39,6.53-.6,24.63-2.25,52.45-5.5,86.32-1.66,39.79,4.51,86.68,19.56,127.58,38.06,27.74,12.44,48,29.8,66.41,47.18,23,21.67,41.16,38,47.84,44.64" transform="translate(185.53)"/><path class="cls-16" d="M-179.39,115.06c23.91-12.11,80.1,14.08,130,26,25.83,6.17,49.8,8.85,65.67,2.14A73.81,73.81,0,0,1,46.35,137c55.65.72,120.48,47.38,183.58,40.37,2.07-.23,4.27-.32,6.56-.47,24.13-1.59,52.51-2.83,86.86,2.65,39.63,6.32,86.22,22.38,127,41.41,27.59,12.77,48.39,29.87,67.16,46.56C542,289.23,560.87,305.21,566.71,311" transform="translate(185.53)"/><path class="cls-17" d="M-180.25,123.18c22.6-15,79.84,11.75,130.06,24.49C-24,154.3.08,157.48,15.46,150.42a69.26,69.26,0,0,1,30-6.72c55.14.64,120.7,48,183.53,42.1,2.07-.19,4.27-.24,6.58-.33a354.71,354.71,0,0,1,87.4,7c39.49,8.1,85.77,25.2,126.52,44.77,27.46,13.09,48.85,29.91,67.93,45.92,25.89,21.72,45.45,37.38,50.46,42.35" transform="translate(185.53)"/><path class="cls-18" d="M-181.11,131.29c21.29-17.84,79.56,9.43,130.15,23,26.47,7.1,50.74,10.76,65.63,3.36a67.36,67.36,0,0,1,30-7.26c54.64-.3,120.92,48.67,183.48,43.84,2.07-.16,4.28-.05,6.61-.2,23.1-1.45,52.7,2.45,87.94,11.27,39.37,9.86,85.31,28,126,48.12,27.32,13.43,49.31,29.93,68.7,45.3,27.35,21.68,47.59,37.06,51.76,41.2" transform="translate(185.53)"/><path class="cls-19" d="M-182,139.41c20-20.71,79.29,7.11,130.25,21.52,26.77,7.57,51.18,11.7,65.6,4a64.26,64.26,0,0,1,29.89-7.8c54.13-.82,121.14,49.31,183.43,45.56,2.07-.13,4.29,0,6.63-.06,22.65-.67,52.82,5.06,88.48,15.59,39.27,11.59,84.86,30.83,125.45,51.46,27.19,13.76,49.78,29.93,69.47,44.68,28.84,21.6,49.73,36.74,53.07,40.05" transform="translate(185.53)"/><path class="cls-20" d="M-182.83,147.53c18.66-23.58,79,4.88,130.34,20,27.08,8.09,51.63,12.64,65.58,4.6a61.62,61.62,0,0,1,29.82-8.34c53.62-1.32,121.36,50.07,183.38,47.29,2.08-.08,4.3,0,6.66.08,22.17.88,52.94,7.64,89,19.9,39.18,13.31,84.4,33.65,124.91,54.82,27.05,14.08,50.26,29.9,70.24,44,30.34,21.48,51.87,36.43,54.38,38.92" transform="translate(185.53)"/><path class="cls-21" d="M-183.7,155.65c17.36-26.44,78.73,2.53,130.44,18.53,27.4,8.55,52.07,13.57,65.56,5.21a59.3,59.3,0,0,1,29.75-8.88c53.12-1.71,121.58,50.7,183.33,49,2.08,0,4.3.05,6.68.21,21.7,1.46,53.1,10.21,89.56,24.21,39.12,15,83.95,36.47,124.38,58.17,26.92,14.41,50.73,29.86,71,43.42,31.87,21.31,54,36.11,55.69,37.77" transform="translate(185.53)"/><path class="cls-22" d="M-184.56,163.77c16.05-29.31,78.47.19,130.53,17,27.72,9,52.5,14.49,65.54,5.82a56.93,56.93,0,0,1,29.68-9.41C93.8,175,163,228.54,224.47,228a67.09,67.09,0,0,1,6.7.35c21.23,2,53.28,12.77,90.11,28.52,39.07,16.72,83.49,39.29,123.84,61.52,26.78,14.74,51.2,29.8,71.77,42.8,33.41,21.09,56.16,35.79,57,36.62" transform="translate(185.53)"/><path class="cls-23" d="M-185.42,171.89c22.62-49.39,160,47.73,196.14,22,52.65-37.51,139.05,41.89,212.84,42.53,72.06.62,351.52,175.83,351.52,175.83" transform="translate(185.53)"/></g></g></g></svg>