<svg xmlns="http://www.w3.org/2000/svg" xmlns:xlink="http://www.w3.org/1999/xlink" viewBox="0 0 811.91 441.31"><defs><style>.cls-1,.cls-10,.cls-11,.cls-12,.cls-13,.cls-14,.cls-15,.cls-16,.cls-17,.cls-18,.cls-19,.cls-20,.cls-21,.cls-22,.cls-23,.cls-24,.cls-5,.cls-6,.cls-7,.cls-8,.cls-9{fill:none;}.cls-2{clip-path:url(#clip-path);}.cls-3{fill:url(#linear-gradient);}.cls-4{clip-path:url(#clip-path-2);}.cls-10,.cls-11,.cls-12,.cls-13,.cls-14,.cls-15,.cls-16,.cls-17,.cls-18,.cls-19,.cls-20,.cls-21,.cls-22,.cls-23,.cls-24,.cls-5,.cls-6,.cls-7,.cls-9{stroke-miterlimit:10;}.cls-5{stroke-width:0.5px;stroke:url(#linear-gradient-2);}.cls-6{stroke-width:0.49px;stroke:url(#linear-gradient-3);}.cls-7{stroke-width:0.47px;stroke:url(#linear-gradient-4);}.cls-8{stroke-miterlimit:10;stroke-width:0.46px;stroke:url(#linear-gradient-5);}.cls-9{stroke-width:0.45px;stroke:url(#linear-gradient-6);}.cls-10{stroke-width:0.43px;stroke:url(#linear-gradient-7);}.cls-11{stroke-width:0.42px;stroke:url(#linear-gradient-8);}.cls-12{stroke-width:0.41px;stroke:url(#linear-gradient-9);}.cls-13{stroke-width:0.39px;stroke:url(#linear-gradient-10);}.cls-14{stroke-width:0.38px;stroke:url(#linear-gradient-11);}.cls-15{stroke-width:0.37px;stroke:url(#linear-gradient-12);}.cls-16{stroke-width:0.36px;stroke:url(#linear-gradient-13);}.cls-17{stroke-width:0.34px;stroke:url(#linear-gradient-14);}.cls-18{stroke-width:0.33px;stroke:url(#linear-gradient-15);}.cls-19{stroke-width:0.32px;stroke:url(#linear-gradient-16);}.cls-20{stroke-width:0.3px;stroke:url(#linear-gradient-17);}.cls-21{stroke-width:0.29px;stroke:url(#linear-gradient-18);}.cls-22{stroke-width:0.28px;stroke:url(#linear-gradient-19);}.cls-23{stroke-width:0.26px;stroke:url(#linear-gradient-20);}.cls-24{stroke-width:0.25px;stroke:url(#linear-gradient-21);}.cls-25{opacity:0.04;}.cls-26{fill:#fff;}</style><clipPath id="clip-path" transform="translate(222.58 1.42)"><rect class="cls-1" width="470.84" height="378.08" transform="translate(470.84 378.08) rotate(180)"/></clipPath><linearGradient id="linear-gradient" x1="-24.04" y1="-509" x2="472.35" y2="-509" gradientTransform="translate(222.58 1415.73) scale(1 2.41)" gradientUnits="userSpaceOnUse"><stop offset="0" stop-color="#015eff"/><stop offset="0.06" stop-color="#0850cf"/><stop offset="0.12" stop-color="#0f43a1"/><stop offset="0.19" stop-color="#153879"/><stop offset="0.26" stop-color="#1a2f59"/><stop offset="0.33" stop-color="#1e2840"/><stop offset="0.4" stop-color="#21232e"/><stop offset="0.47" stop-color="#222023"/><stop offset="0.56" stop-color="#231f20"/><stop offset="0.62" stop-color="#281f20"/><stop offset="0.68" stop-color="#371f20"/><stop offset="0.74" stop-color="#4f1e21"/><stop offset="0.81" stop-color="#711e22"/><stop offset="0.89" stop-color="#9c1d23"/><stop offset="0.96" stop-color="#d11c24"/><stop offset="1" stop-color="#ed1c25"/></linearGradient><clipPath id="clip-path-2" transform="translate(222.58 1.42)"><rect class="cls-1" x="-24.3" y="-0.69" width="496.9" height="375.33"/></clipPath><linearGradient id="linear-gradient-2" x1="427.63" y1="-816.26" x2="1163.84" y2="-816.26" gradientTransform="matrix(0.91, 0.48, -0.47, 1.02, -907.29, 501.08)" gradientUnits="userSpaceOnUse"><stop offset="0" stop-color="#231f20" stop-opacity="0"/><stop offset="0.32" stop-color="#252122" stop-opacity="0.01"/><stop offset="0.43" stop-color="#2a2728" stop-opacity="0.03"/><stop offset="0.51" stop-color="#353132" stop-opacity="0.08"/><stop offset="0.58" stop-color="#434041" stop-opacity="0.15"/><stop offset="0.63" stop-color="#565354" stop-opacity="0.23"/><stop offset="0.68" stop-color="#6e6b6c" stop-opacity="0.34"/><stop offset="0.73" stop-color="#8a8888" stop-opacity="0.47"/><stop offset="0.77" stop-color="#aaa9a9" stop-opacity="0.61"/><stop offset="0.81" stop-color="#d0cfcf" stop-opacity="0.78"/><stop offset="0.84" stop-color="#f7f7f7" stop-opacity="0.96"/><stop offset="0.85" stop-color="#fff"/></linearGradient><linearGradient id="linear-gradient-3" x1="430.34" y1="-805.6" x2="1171.25" y2="-805.6" xlink:href="#linear-gradient-2"/><linearGradient id="linear-gradient-4" x1="433.04" y1="-794.85" x2="1178.66" y2="-794.85" xlink:href="#linear-gradient-2"/><linearGradient id="linear-gradient-5" x1="435.73" y1="-784.11" x2="1186.08" y2="-784.11" xlink:href="#linear-gradient-2"/><linearGradient id="linear-gradient-6" x1="438.43" y1="-773.37" x2="1193.49" y2="-773.37" xlink:href="#linear-gradient-2"/><linearGradient id="linear-gradient-7" x1="441.13" y1="-762.63" x2="1200.9" y2="-762.63" xlink:href="#linear-gradient-2"/><linearGradient id="linear-gradient-8" x1="443.82" y1="-751.89" x2="1208.31" y2="-751.89" xlink:href="#linear-gradient-2"/><linearGradient id="linear-gradient-9" x1="446.52" y1="-741.16" x2="1215.72" y2="-741.16" xlink:href="#linear-gradient-2"/><linearGradient id="linear-gradient-10" x1="449.22" y1="-730.43" x2="1223.14" y2="-730.43" xlink:href="#linear-gradient-2"/><linearGradient id="linear-gradient-11" x1="451.91" y1="-719.7" x2="1230.55" y2="-719.7" xlink:href="#linear-gradient-2"/><linearGradient id="linear-gradient-12" x1="454.61" y1="-708.98" x2="1237.96" y2="-708.98" xlink:href="#linear-gradient-2"/><linearGradient id="linear-gradient-13" x1="457.31" y1="-698.26" x2="1245.37" y2="-698.26" xlink:href="#linear-gradient-2"/><linearGradient id="linear-gradient-14" x1="460.01" y1="-687.54" x2="1252.79" y2="-687.54" xlink:href="#linear-gradient-2"/><linearGradient id="linear-gradient-15" x1="462.71" y1="-676.83" x2="1260.2" y2="-676.83" xlink:href="#linear-gradient-2"/><linearGradient id="linear-gradient-16" x1="465.42" y1="-666.12" x2="1267.61" y2="-666.12" xlink:href="#linear-gradient-2"/><linearGradient id="linear-gradient-17" x1="468.13" y1="-655.42" x2="1275.02" y2="-655.42" xlink:href="#linear-gradient-2"/><linearGradient id="linear-gradient-18" x1="470.84" y1="-644.72" x2="1282.44" y2="-644.72" xlink:href="#linear-gradient-2"/><linearGradient id="linear-gradient-19" x1="473.55" y1="-634.04" x2="1289.85" y2="-634.04" xlink:href="#linear-gradient-2"/><linearGradient id="linear-gradient-20" x1="476.26" y1="-623.46" x2="1297.26" y2="-623.46" xlink:href="#linear-gradient-2"/><linearGradient id="linear-gradient-21" x1="478.98" y1="-613.12" x2="1304.65" y2="-613.12" xlink:href="#linear-gradient-2"/></defs><g id="Layer_2" data-name="Layer 2"><g id="Layer_1-2" data-name="Layer 1"><g class="cls-2"><rect class="cls-3" x="198.54" width="496.39" height="376.77"/><g class="cls-4"><path class="cls-5" d="M-205,18.59c42.3,23.8,88.87,45.22,137.52,46.85C-33,66.59,1.5,56,35.92,60.15c68,8.13,129.63,44.93,203.28,18.69C271,67.53,294,39.69,325,26.43c43.85-18.77,97.84-12.22,142.45,1.28,31.19,9.43,48.29,29.37,61.86,57.71,10.06,21,18.77,44.29,35.71,61.1" transform="translate(222.58 1.42)"/><path class="cls-6" d="M-205.91,27.25C-165,48-117.32,70-68.29,72.51c23.81,1.28,47.44-2.67,70.35-4.94A157.66,157.66,0,0,1,35,67.31c65.34,7.3,126.1,43.38,196.53,22.76,2.22-.65,4.46-1.33,6.72-2.08,31.31-10.42,55-36,86.37-47.81C368.46,23.71,422,31,466.5,45c31.05,9.79,48.26,29.7,62.68,57.05,11.19,21.22,21.06,44,37.1,59.88" transform="translate(222.58 1.42)"/><path class="cls-7" d="M-206.83,35.92c39.5,17.68,88.3,40.22,137.72,43.67,24.15,1.76,48-1.51,70.33-4.29a146.66,146.66,0,0,1,32.86-.84c64.81,6.74,126.33,44.06,196.48,24.61,2.22-.61,4.48-1.23,6.75-1.93,30.84-9.55,55.18-32.92,86.94-43.21,43.8-14.19,96.88-6.2,141.31,8.43,30.91,10.14,48.31,30,63.5,56.38,12.37,21.46,23.35,43.61,38.5,58.65" transform="translate(222.58 1.42)"/><path class="cls-8" d="M-207.75,44.59c38.1,14.62,88,37.6,137.82,42.07,24.49,2.2,48.48-.35,70.3-3.63a135.63,135.63,0,0,1,32.8-1.42c64.27,6,126.55,44.73,196.42,26.47,2.22-.58,4.49-1.14,6.77-1.8,30.37-8.68,55.33-29.81,87.53-38.6,43.72-11.93,96.38-3.19,140.73,12,30.76,10.48,48.44,30.3,64.32,55.71,13.58,21.7,25.64,43.27,39.9,57.43" transform="translate(222.58 1.42)"/><path class="cls-9" d="M-208.67,53.25C-172,64.81-120.92,88.33-70.75,93.73c24.83,2.68,49,.79,70.28-3,10.74-1.9,21.64-2.93,32.72-2C96,94.18,159,134.17,228.62,117.08c2.22-.54,4.5-1,6.8-1.65,29.88-7.84,55.45-26.73,88.1-34,43.62-9.71,95.9-.18,140.16,15.58,30.62,10.84,48.62,30.58,65.15,55C543.65,174,556.75,195,570.11,208.26" transform="translate(222.58 1.42)"/><path class="cls-10" d="M-209.59,61.92c35.31,8.5,87.47,32.55,138,38.89A220,220,0,0,0-1.31,98.49c10.68-2.18,21.54-3.41,32.64-2.57,63.2,4.82,127,45.92,196.32,30.16,2.22-.5,4.5-1,6.82-1.5,29.39-7,55.56-23.67,88.68-29.4,43.49-7.52,95.42,2.82,139.6,19.16,30.47,11.19,48.86,30.84,66,54.37,16.1,22.18,30.2,42.6,42.68,55" transform="translate(222.58 1.42)"/><path class="cls-11" d="M-210.51,70.59c33.91,5.44,87.19,30,138.12,37.29,25.52,3.64,50.05,3,70.23-1.66,10.62-2.47,21.45-3.89,32.57-3.14,62.66,4.22,127.21,46.57,196.27,32,2.22-.47,4.51-.86,6.85-1.36,28.88-6.2,55.64-20.63,89.25-24.79,43.34-5.36,94.93,5.83,139,22.74,30.32,11.53,49.16,31.06,66.78,53.7,17.43,22.4,32.49,42.26,44.08,53.76" transform="translate(222.58 1.42)"/><path class="cls-12" d="M-211.43,79.25c32.51,2.38,86.91,27.53,138.22,35.71,25.86,4.12,50.58,4.13,70.21-1,10.56-2.76,21.35-4.37,32.5-3.72,62.11,3.63,127.44,47.23,196.21,33.85,2.22-.43,4.52-.76,6.87-1.21,28.38-5.4,55.72-17.62,89.83-20.19,43.18-3.25,94.45,8.84,138.46,26.31,30.18,11.89,49.5,31.27,67.6,53,18.79,22.6,34.78,41.92,45.47,52.54" transform="translate(222.58 1.42)"/><path class="cls-13" d="M-212.35,87.92c31.11-.68,86.63,25,138.32,34.11,26.2,4.61,51.1,5.22,70.19-.35a97.87,97.87,0,0,1,32.42-4.29c61.57,3,127.67,47.89,196.16,35.7,2.21-.4,4.53-.68,6.9-1.08,27.86-4.62,55.92-12.35,90.4-15.58,42.83-4,94,11.85,137.89,29.89,30,12.23,49.88,31.44,68.42,52.36,20.18,22.79,37.07,41.59,46.87,51.32" transform="translate(222.58 1.42)"/><path class="cls-14" d="M-213.27,96.59c29.72-3.75,86.35,22.51,138.42,32.51,26.55,5.1,51.62,6.3,70.16.31a92.65,92.65,0,0,1,32.35-4.87c61,2.47,127.9,48.56,196.11,37.55,2.21-.36,4.53-.59,6.92-.93,27.34-3.87,55.88-9.33,91-11,42.77-2,93.48,14.86,137.31,33.47,29.89,12.58,50.29,31.59,69.24,51.69,21.61,22.93,39.35,41.25,48.27,50.1" transform="translate(222.58 1.42)"/><path class="cls-15" d="M-214.19,105.25c28.32-6.8,86.07,20,138.52,30.93,26.89,5.59,52.14,7.35,70.14,1a87.53,87.53,0,0,1,32.28-5.44c60.48,1.89,128.13,49.22,196.05,39.39,2.21-.32,4.54-.5,6.95-.78,26.81-3.13,55.91-8.77,91.56-6.38,42.63,2.85,93,17.86,136.74,37,29.75,12.94,50.73,31.72,70.06,51,23.07,23.05,41.64,40.91,49.66,48.87" transform="translate(222.58 1.42)"/><path class="cls-16" d="M-215.11,113.92c26.92-9.86,85.78,17.52,138.62,29.33,27.23,6.09,52.65,8.41,70.12,1.62a83,83,0,0,1,32.2-6c59.94,1.33,128.36,49.9,196,41.24,2.21-.28,4.55-.41,7-.64,26.29-2.4,56-5.87,92.14-1.77,42.46,4.81,92.51,20.87,136.17,40.62,29.6,13.28,51.19,31.81,70.88,50.36,24.56,23.13,43.93,40.57,51.06,47.65" transform="translate(222.58 1.42)"/><path class="cls-17" d="M-216,122.59c25.52-12.93,85.5,15,138.72,27.74,27.57,6.58,53.16,9.44,70.09,2.27A79.05,79.05,0,0,1,24.91,146c59.4.77,128.6,50.57,196,43.09,2.21-.25,4.55-.34,7-.5,25.76-1.71,56.05-3,92.71,2.83,42.3,6.74,92,23.88,135.61,44.2,29.45,13.63,51.65,31.88,71.69,49.69,26.08,23.18,46.22,40.23,52.46,46.42" transform="translate(222.58 1.42)"/><path class="cls-18" d="M-216.95,131.25c24.12-16,85.21,12.55,138.82,26.15,27.91,7.08,53.66,10.47,70.07,2.93A74,74,0,0,1,24,153.16c58.86.69,128.84,51.26,195.9,44.94,2.21-.21,4.56-.25,7-.35a378.38,378.38,0,0,1,93.29,7.43c42.15,8.64,91.54,26.89,135,47.77,29.31,14,52.14,31.93,72.51,49,27.63,23.19,48.51,39.9,53.85,45.21" transform="translate(222.58 1.42)"/><path class="cls-19" d="M-217.87,139.92c22.73-19,84.93,10.06,138.93,24.55,28.24,7.58,54.14,11.49,70,3.59a71.81,71.81,0,0,1,32-7.74c58.31-.33,129.06,51.94,195.84,46.78,2.21-.17,4.57,0,7.05-.21,24.66-1.54,56.25,2.62,93.86,12,42,10.52,91.06,29.9,134.47,51.35,29.16,14.33,52.64,32,73.33,48.35,29.19,23.15,50.79,39.56,55.25,44" transform="translate(222.58 1.42)"/><path class="cls-20" d="M-218.79,148.59c21.33-22.11,84.64,7.58,139,23,28.58,8.08,54.63,12.49,70,4.24a68.75,68.75,0,0,1,31.91-8.32c57.78-.87,129.3,52.64,195.79,48.63,2.21-.13,4.57,0,7.07-.06,24.18-.72,56.38,5.4,94.45,16.64,41.9,12.37,90.57,32.9,133.89,54.93,29,14.68,53.14,31.94,74.15,47.68,30.78,23.06,53.08,39.22,56.65,42.76" transform="translate(222.58 1.42)"/><path class="cls-21" d="M-219.71,157.25c19.93-25.16,84.32,5.2,139.13,21.37,28.9,8.63,55.11,13.49,70,4.9a66,66,0,0,1,31.83-8.9c57.24-1.4,129.54,53.45,195.74,50.48,2.21-.09,4.58,0,7.1.08,23.67.94,56.51,8.16,95,21.24,41.81,14.21,90.09,35.92,133.32,58.51,28.88,15,53.65,31.93,75,47,32.39,22.92,55.37,38.88,58,41.53" transform="translate(222.58 1.42)"/><path class="cls-22" d="M-220.63,165.92c18.53-28.23,84,2.7,139.23,19.77,29.24,9.13,55.57,14.49,70,5.57a63.29,63.29,0,0,1,31.75-9.48C77,180,150.09,235.89,216,234.11c2.22-.06,4.6,0,7.13.22,23.16,1.56,56.68,10.9,95.6,25.84,41.75,16,89.6,38.93,132.75,62.09,28.73,15.38,54.15,31.88,75.79,46.35,34,22.74,57.66,38.54,59.44,40.31" transform="translate(222.58 1.42)"/><path class="cls-23" d="M-221.55,174.59c17.13-31.29,83.75.19,139.33,18.18,29.58,9.61,56,15.47,69.94,6.22a60.79,60.79,0,0,1,31.69-10.06c56.15-2.4,130,54.79,195.62,54.18a67.79,67.79,0,0,1,7.16.37c22.66,2.16,56.86,13.63,96.17,30.44,41.71,17.85,89.12,41.94,132.18,65.67,28.59,15.73,54.65,31.81,76.61,45.67,35.65,22.52,59.94,38.21,60.84,39.09" transform="translate(222.58 1.42)"/><path class="cls-24" d="M-222.47,183.25c24.15-52.71,170.76,50.95,209.35,23.47,56.21-40,148.42,44.71,227.18,45.39,76.91.67,375.2,187.68,375.2,187.68" transform="translate(222.58 1.42)"/></g><g class="cls-25"><path class="cls-26" d="M82.14,155.31a5.52,5.52,0,0,1,2.36,0l0-6.18a5.43,5.43,0,0,1-2.37.14Z" transform="translate(222.58 1.42)"/><path class="cls-26" d="M82.52,258.44l.07,17.62H85l-.06-17.57A5.57,5.57,0,0,1,82.52,258.44Z" transform="translate(222.58 1.42)"/><path class="cls-26" d="M82.48,246.15a5.53,5.53,0,0,1,2.36,0l0-6.67a5.38,5.38,0,0,1-2.36.2Z" transform="translate(222.58 1.42)"/><path class="cls-26" d="M82.41,228.46a5.54,5.54,0,0,1,2.36-.18l0-6.9a5.3,5.3,0,0,1-2.36.36Z" transform="translate(222.58 1.42)"/><path class="cls-26" d="M82.34,209.87a5.53,5.53,0,0,1,2.36.16l0-6.7a5.38,5.38,0,0,1-2.36.14Z" transform="translate(222.58 1.42)"/><path class="cls-26" d="M82.27,191.87a5.58,5.58,0,0,1,2.37.13l0-6.91a5.71,5.71,0,0,1-2.36-.25Z" transform="translate(222.58 1.42)"/><path class="cls-26" d="M82.21,173.89a5.39,5.39,0,0,1,2.36-.27l0-6.27a5.52,5.52,0,0,1-2.36.08Z" transform="translate(222.58 1.42)"/><path class="cls-26" d="M84.43,137.3l0-6H82.05l0,5.94A5.69,5.69,0,0,1,84.43,137.3Z" transform="translate(222.58 1.42)"/><path class="cls-26" d="M39.37,149l.47,124.85H37.92L37.45,149a1,1,0,0,1,.95-1h0A1,1,0,0,1,39.37,149Z" transform="translate(222.58 1.42)"/><path class="cls-26" d="M42.94,149l.47,124.85H41.49L41,149a1,1,0,0,1,1-1h0A1,1,0,0,1,42.94,149Z" transform="translate(222.58 1.42)"/><path class="cls-26" d="M35.71,149l.46,124.67-1.92-.23L33.79,149a.94.94,0,0,1,1-.95h0A1,1,0,0,1,35.71,149Z" transform="translate(222.58 1.42)"/><polygon class="cls-26" points="287.88 95.77 294.2 95.75 287.28 86 280.95 86.02 287.88 95.77"/><polygon class="cls-26" points="296.61 85.96 290.29 85.99 297.22 95.74 303.54 95.72 296.61 85.96"/><polygon class="cls-26" points="278.67 95.81 285 95.78 278.07 86.03 271.75 86.06 278.67 95.81"/><polygon class="cls-26" points="269.16 95.84 275.48 95.82 268.56 86.07 262.23 86.09 269.16 95.84"/><polygon class="cls-26" points="259.3 95.88 265.63 95.86 258.7 86.11 252.37 86.13 259.3 95.88"/><polygon class="cls-26" points="249.22 95.92 255.55 95.89 248.63 86.14 242.3 86.17 249.22 95.92"/><path class="cls-26" d="M33.33,112.43l0,11.27,20.7,0v-2h5.41v-2.14H54V119h5.42V116.9H54v-.62h5.42v-2.14H54v-1.76Zm18.44,9.47-16.61,0,0-7.73,16.61,0Z" transform="translate(222.58 1.42)"/><rect class="cls-26" x="80.02" y="71.38" width="11.33" height="11.16" transform="translate(231.09 163.86) rotate(-89.86)"/><rect class="cls-26" x="79.84" y="55.17" width="9.07" height="8.7" transform="matrix(0, -1, 1, 0, 247.23, 145.16)"/><rect class="cls-26" x="79.84" y="41.33" width="6.16" height="5.91" transform="translate(261.01 128.5) rotate(-89.86)"/><rect class="cls-26" x="79.81" y="28.77" width="4.63" height="4.44" transform="translate(273.51 114.45) rotate(-89.86)"/><path class="cls-26" d="M54.88,140.78l13.49.07-.05-13.24-13.49-.08Zm11.6-1.59-9.94-.06-.06-9.94,9.93.07Z" transform="translate(222.58 1.42)"/><polygon class="cls-26" points="305.56 288.26 298.13 298.29 299.75 298.28 307.18 288.26 305.56 288.26"/><polygon class="cls-26" points="302.78 288.27 295.35 298.3 296.97 298.29 304.39 288.27 302.78 288.27"/><polygon class="cls-26" points="308.34 288.25 300.92 298.28 302.53 298.27 309.96 288.25 308.34 288.25"/><polygon class="cls-26" points="313.98 288.23 306.55 298.26 308.17 298.25 315.59 288.23 313.98 288.23"/><polygon class="cls-26" points="311.19 288.24 303.76 298.27 305.38 298.26 312.81 288.24 311.19 288.24"/><polygon class="cls-26" points="316.76 288.22 309.33 298.25 310.95 298.24 318.38 288.21 316.76 288.22"/><polygon class="cls-26" points="278.39 293.87 270.97 303.9 272.58 303.89 280.01 293.86 278.39 293.87"/><polygon class="cls-26" points="275.61 293.88 268.18 303.91 269.8 303.9 277.23 293.87 275.61 293.88"/><polygon class="cls-26" points="281.18 293.86 273.75 303.89 275.36 303.88 282.79 293.85 281.18 293.86"/><polygon class="cls-26" points="286.81 293.84 279.38 303.87 281 303.86 288.43 293.83 286.81 293.84"/><polygon class="cls-26" points="284.02 293.85 276.6 303.88 278.21 303.87 285.64 293.84 284.02 293.85"/><polygon class="cls-26" points="289.59 293.83 282.16 303.86 283.78 303.85 291.21 293.82 289.59 293.83"/><path class="cls-26" d="M63.74,273.38l-12.52.39.24,12.52L64,285.9l0-1.26h0l51.54-.4c.27-1.11.86-2,.31-2.61l-53.22.42H63.9l0-1.11,51.19-.24v-2.6l-51.22.24,0-2.05L85,276.15l0-1.65-21.17.13Zm-1,11.31-10,.31-.19-10,10-.31Z" transform="translate(222.58 1.42)"/><polygon class="cls-26" points="282.28 279.05 278.14 279.18 278.22 283.32 282.36 283.19 282.28 279.05"/><polygon class="cls-26" points="267.03 290.56 267.05 287.36 260.66 287.38 260.64 290.58 267.03 290.56"/><polygon class="cls-26" points="258.81 290.58 258.83 287.38 252.44 287.4 252.42 290.6 258.81 290.58"/><polygon class="cls-26" points="260.62 294.92 267 294.9 267.02 291.7 260.63 291.71 260.62 294.92"/><polygon class="cls-26" points="252.42 291.74 252.4 294.94 258.78 294.92 258.8 291.72 252.42 291.74"/><polygon class="cls-26" points="244.2 291.77 244.18 294.97 250.56 294.95 250.58 291.75 244.2 291.77"/><polygon class="cls-26" points="241.87 290.06 241.88 287.36 236.58 287.38 236.56 290.08 241.87 290.06"/><polygon class="cls-26" points="229.88 290.1 235.18 290.08 235.19 287.38 229.89 287.4 229.88 290.1"/><polygon class="cls-26" points="236.56 290.91 236.54 295.07 241.84 295.06 241.86 290.89 236.56 290.91"/><polygon class="cls-26" points="229.87 290.93 229.85 295.09 235.15 295.08 235.17 290.92 229.87 290.93"/><polygon class="cls-26" points="269.82 191.7 269.83 189.14 277.04 196.63 277.03 199.19 269.82 191.7"/><polygon class="cls-26" points="269.93 185.94 269.94 183.39 277.15 190.88 277.14 193.44 269.93 185.94"/><polygon class="cls-26" points="269.71 197.54 269.71 194.99 276.93 202.48 276.92 205.03 269.71 197.54"/><polygon class="cls-26" points="275.32 154.2 275.33 151.65 282.54 159.14 282.53 161.69 275.32 154.2"/><polygon class="cls-26" points="275.43 148.45 275.44 145.89 282.65 153.38 282.64 155.94 275.43 148.45"/><polygon class="cls-26" points="275.21 160.04 275.21 157.49 282.42 164.98 282.42 167.54 275.21 160.04"/><path class="cls-26" d="M47.2,179.62v-.14l-.05-12.56a.36.36,0,0,1,.71,0l0,12.41,8,8.4h0a.34.34,0,0,1,0,.49.35.35,0,0,1-.5,0Z" transform="translate(222.58 1.42)"/><path class="cls-26" d="M59.47,180.76a.35.35,0,0,1-.1-.24l0-11.17-8-8.4h0a.35.35,0,0,1,.52-.48l8.15,8.6,0,11.46a.35.35,0,0,1-.35.35A.33.33,0,0,1,59.47,180.76Z" transform="translate(222.58 1.42)"/><polyline class="cls-26" points="285.44 306.98 301.88 285.69 313.59 285.64 313.59 284.7 301.48 284.74 285.04 306.04"/><polyline class="cls-26" points="284.69 305.34 301.13 284.04 314.29 283.99 314.3 286.35 302.22 286.39 285.78 307.69"/><polygon class="cls-26" points="295.76 306.21 295.76 307.25 234.91 307.39 234.9 306.35 295.76 306.21"/><rect class="cls-26" x="11.55" y="304.09" width="62.41" height="2.59" transform="translate(221.78 1.53) rotate(-0.15)"/><circle class="cls-26" cx="295.39" cy="306.69" r="3.72"/><circle class="cls-26" cx="231.67" cy="306.69" r="3.72"/><path class="cls-26" d="M46.71,295.94,5,296.07l.07-12.38,41.67-.16ZM6.32,294.88l39.11-.12,0-10-39.1.15Z" transform="translate(222.58 1.42)"/><polygon class="cls-26" points="250.59 290.61 250.61 287.41 244.22 287.43 244.21 290.63 250.59 290.61"/><polygon class="cls-26" points="255.47 73.38 252.67 74.36 252.62 77.34 250.81 74.98 247.97 75.85 249.66 73.4 247.95 70.97 250.8 71.82 252.59 69.44 252.66 72.41 255.47 73.38"/><polygon class="cls-26" points="255.44 64.32 252.63 65.3 252.59 68.28 250.78 65.91 247.94 66.78 249.63 64.34 247.92 61.9 250.77 62.75 252.56 60.38 252.63 63.35 255.44 64.32"/><polygon class="cls-26" points="255.41 55.25 252.6 56.24 252.55 59.21 250.75 56.85 247.9 57.72 249.59 55.27 247.88 52.84 250.73 53.69 252.52 51.31 252.59 54.29 255.41 55.25"/><polygon class="cls-26" points="255.37 46.19 252.57 47.18 252.52 50.15 250.71 47.79 247.87 48.66 249.56 46.21 247.85 43.78 250.7 44.63 252.49 42.25 252.56 45.22 255.37 46.19"/><polygon class="cls-26" points="255.34 37.13 252.53 38.11 252.48 41.09 250.68 38.72 247.84 39.59 249.53 37.15 247.82 34.72 250.67 35.56 252.45 33.19 252.53 36.16 255.34 37.13"/><polygon class="cls-26" points="264.29 73.35 261.49 74.33 261.44 77.31 259.63 74.94 256.79 75.81 258.48 73.37 256.77 70.93 259.62 71.78 261.41 69.41 261.48 72.38 264.29 73.35"/><polygon class="cls-26" points="264.26 64.28 261.45 65.27 261.4 68.24 259.6 65.88 256.76 66.75 258.44 64.3 256.74 61.87 259.59 62.72 261.37 60.34 261.44 63.32 264.26 64.28"/><polygon class="cls-26" points="264.22 55.22 261.42 56.21 261.37 59.18 259.56 56.82 256.72 57.69 258.41 55.24 256.7 52.81 259.55 53.66 261.34 51.28 261.41 54.25 264.22 55.22"/><polygon class="cls-26" points="264.19 46.16 261.38 47.14 261.33 50.12 259.53 47.75 256.69 48.63 258.38 46.18 256.67 43.74 259.52 44.59 261.31 42.22 261.38 45.19 264.19 46.16"/><polygon class="cls-26" points="264.15 37.09 261.35 38.08 261.3 41.05 259.5 38.69 256.65 39.56 258.34 37.12 256.63 34.68 259.48 35.53 261.27 33.16 261.34 36.13 264.15 37.09"/><polygon class="cls-26" points="273.11 73.31 270.31 74.3 270.25 77.27 268.45 74.91 265.61 75.78 267.3 73.33 265.59 70.9 268.44 71.75 270.23 69.38 270.3 72.35 273.11 73.31"/><polygon class="cls-26" points="273.07 64.25 270.27 65.24 270.22 68.21 268.42 65.85 265.57 66.72 267.26 64.27 265.56 61.84 268.4 62.69 270.19 60.31 270.26 63.28 273.07 64.25"/><polygon class="cls-26" points="273.04 55.19 270.24 56.17 270.19 59.15 268.38 56.78 265.54 57.66 267.23 55.21 265.52 52.77 268.37 53.63 270.16 51.25 270.23 54.22 273.04 55.19"/><polygon class="cls-26" points="273.01 46.12 270.2 47.11 270.15 50.08 268.35 47.72 265.51 48.59 267.19 46.15 265.49 43.71 268.34 44.56 270.12 42.19 270.19 45.16 273.01 46.12"/><polygon class="cls-26" points="272.97 37.06 270.17 38.05 270.12 41.02 268.31 38.66 265.47 39.53 267.16 37.08 265.45 34.65 268.3 35.5 270.09 33.12 270.16 36.09 272.97 37.06"/><polygon class="cls-26" points="281.93 73.28 279.12 74.27 279.07 77.24 277.27 74.88 274.43 75.75 276.12 73.3 274.41 70.87 277.26 71.72 279.04 69.34 279.12 72.31 281.93 73.28"/><polygon class="cls-26" points="281.89 64.22 279.09 65.2 279.04 68.18 277.23 65.81 274.39 66.69 276.08 64.24 274.37 61.8 277.22 62.66 279.01 60.28 279.08 63.25 281.89 64.22"/><polygon class="cls-26" points="281.86 55.15 279.06 56.14 279 59.11 277.2 56.75 274.36 57.62 276.05 55.17 274.34 52.74 277.19 53.59 278.98 51.22 279.05 54.19 281.86 55.15"/><polygon class="cls-26" points="281.82 46.09 279.02 47.08 278.97 50.05 277.17 47.69 274.32 48.56 276.01 46.11 274.31 43.68 277.15 44.53 278.94 42.15 279.01 45.13 281.82 46.09"/><polygon class="cls-26" points="281.79 37.03 278.99 38.01 278.94 40.99 277.13 38.63 274.29 39.5 275.98 37.05 274.27 34.62 277.12 35.47 278.91 33.09 278.98 36.06 281.79 37.03"/><polygon class="cls-26" points="290.75 73.25 287.94 74.23 287.89 77.21 286.09 74.84 283.24 75.72 284.93 73.27 283.23 70.83 286.07 71.68 287.86 69.31 287.93 72.28 290.75 73.25"/><polygon class="cls-26" points="271.28 316.02 270.04 316.46 270.02 317.78 269.22 316.73 267.96 317.12 268.71 316.03 267.95 314.96 269.21 315.33 270 314.28 270.04 315.6 271.28 316.02"/><polygon class="cls-26" points="275.19 316.01 273.94 316.45 273.92 317.76 273.12 316.72 271.86 317.1 272.61 316.02 271.86 314.94 273.12 315.32 273.91 314.27 273.94 315.58 275.19 316.01"/><polygon class="cls-26" points="279.09 316 277.85 316.43 277.83 317.75 277.03 316.7 275.77 317.09 276.52 316 275.76 314.93 277.02 315.3 277.81 314.25 277.85 315.57 279.09 316"/><polygon class="cls-26" points="283 315.98 281.75 316.42 281.73 317.74 280.93 316.69 279.68 317.07 280.42 315.99 279.67 314.91 280.93 315.29 281.72 314.24 281.75 315.55 283 315.98"/><polygon class="cls-26" points="286.9 315.97 285.66 316.4 285.64 317.72 284.84 316.67 283.58 317.06 284.33 315.98 283.57 314.9 284.83 315.27 285.63 314.22 285.66 315.54 286.9 315.97"/><polygon class="cls-26" points="290.71 64.18 287.91 65.17 287.86 68.14 286.05 65.78 283.21 66.65 284.9 64.2 283.19 61.77 286.04 62.62 287.83 60.25 287.9 63.22 290.71 64.18"/><polygon class="cls-26" points="290.68 55.12 287.87 56.11 287.82 59.08 286.02 56.72 283.18 57.59 284.87 55.14 283.16 52.71 286.01 53.56 287.79 51.18 287.87 54.16 290.68 55.12"/><polygon class="cls-26" points="290.64 46.06 287.84 47.04 287.79 50.02 285.98 47.65 283.14 48.53 284.83 46.08 283.12 43.65 285.97 44.5 287.76 42.12 287.83 45.09 290.64 46.06"/><polygon class="cls-26" points="290.61 36.99 287.81 37.98 287.75 40.95 285.95 38.59 283.11 39.46 284.8 37.02 283.09 34.58 285.94 35.43 287.73 33.06 287.8 36.03 290.61 36.99"/><polygon class="cls-26" points="313.24 254.52 313.23 253.11 316.83 253.09 326.61 243.65 326.16 122.99 312.56 103.58 297.99 103.64 290.25 95.96 291.25 94.95 298.57 102.22 313.29 102.17 327.57 122.54 327.57 122.76 328.03 244.25 317.4 254.51 313.24 254.52"/><polygon class="cls-26" points="313.27 236.3 313.26 234.88 316.75 234.87 326.71 224.64 327.72 225.63 317.34 236.28 313.27 236.3"/><polygon class="cls-26" points="312.58 218.07 312.57 216.66 316.68 216.65 323.14 210.1 322.81 122.23 311.18 106.86 282.74 106.97 271.84 95.94 272.85 94.95 283.32 105.55 311.89 105.44 324.22 121.76 324.55 210.68 317.27 218.06 312.58 218.07"/><polygon class="cls-26" points="313.29 199.54 313.28 198.12 316.62 198.11 323.2 191.59 324.19 192.59 317.2 199.52 313.29 199.54"/><polygon class="cls-26" points="313.22 181.47 313.21 180.05 316.55 180.04 323.19 173.62 324.17 174.63 317.13 181.45 313.22 181.47"/><polygon class="cls-26" points="313.1 163.55 313.09 162.14 316.48 162.13 319.83 158.86 319.69 123.02 310.41 110.29 266.19 110.46 250.63 95.02 251.63 94.01 266.77 109.04 311.13 108.87 321.11 122.55 321.11 122.78 321.24 159.45 317.06 163.54 313.1 163.55"/><path class="cls-26" d="M49.94,120.53v-5.21l-12.82,0,0,5.21Zm-3.35-4,1,.7,1-.71-.37,1.14,1,.7h-1.2l-.37,1.14-.37-1.14H46l1-.7Zm-4.06,0,1,.7,1-.7-.36,1.14,1,.7h-1.2l-.36,1.14-.38-1.14h-1.2l1-.71Zm-4.07,0,1,.7,1-.71L40,117.65l1,.7H39.81l-.37,1.14-.37-1.14h-1.2l1-.7Z" transform="translate(222.58 1.42)"/><path class="cls-26" d="M45,148.43v-3.16a1.11,1.11,0,0,0-1.11-1.11l-11,0a1.11,1.11,0,0,0-1.11,1.11v3.17a1.11,1.11,0,0,0,1.11,1.11l11,0A1.11,1.11,0,0,0,45,148.43Zm-3.87-2.86.86.62.87-.63-.33,1,.87.63H42.33l-.33,1-.33-1H40.6l.86-.64Zm-3.64,0,.87.63.86-.64-.32,1,.87.63H38.69l-.32,1-.34-1H37l.87-.63Zm-3.63,0,.86.63.87-.63-.33,1,.87.62H35.06l-.33,1-.33-1H33.33l.86-.63Z" transform="translate(222.58 1.42)"/><polygon class="cls-26" points="278.8 172.34 277.84 172.66 277.84 173.67 277.25 172.85 276.29 173.17 276.88 172.35 276.28 171.53 277.24 171.84 277.83 171.02 277.84 172.03 278.8 172.34"/><polygon class="cls-26" points="276.28 174.9 275.31 175.21 275.32 176.22 274.72 175.41 273.76 175.72 274.35 174.9 273.75 174.09 274.72 174.4 275.31 173.58 275.31 174.59 276.28 174.9"/><polygon class="cls-26" points="276.26 169.63 275.3 169.95 275.3 170.96 274.7 170.15 273.74 170.46 274.33 169.64 273.74 168.83 274.7 169.13 275.29 168.31 275.29 169.33 276.26 169.63"/><polygon class="cls-26" points="278.82 177.42 277.86 177.74 277.86 178.75 277.26 177.93 276.3 178.25 276.89 177.43 276.3 176.61 277.26 176.92 277.85 176.1 277.86 177.11 278.82 177.42"/><polygon class="cls-26" points="278.84 182.33 277.88 182.65 277.88 183.66 277.28 182.84 276.32 183.16 276.91 182.34 276.32 181.52 277.28 181.83 277.87 181.01 277.87 182.02 278.84 182.33"/><polygon class="cls-26" points="276.29 179.95 275.33 180.26 275.34 181.27 274.74 180.46 273.78 180.78 274.37 179.96 273.77 179.14 274.74 179.45 275.33 178.63 275.33 179.64 276.29 179.95"/><path class="cls-26" d="M65.53,130.25l-7.92,0,.06,7.92,7.92.05Zm-6.17,5.44,1.12-1.56-1.13-1.54,1.82.59,1.12-1.56v1.92l1.82.58-1.81.6v1.91l-1.12-1.54Z" transform="translate(222.58 1.42)"/><path class="cls-26" d="M38.86,140.84l13.5.07,0-13.24-13.5-.08Zm11.6-1.59-9.93-.06-.06-9.94,9.93.07Z" transform="translate(222.58 1.42)"/><path class="cls-26" d="M49.52,130.31l-7.92,0,0,7.92,7.92.05Zm-6.17,5.44,1.11-1.56-1.13-1.54,1.83.59,1.11-1.56v1.92l1.82.58-1.82.6v1.91l-1.13-1.54Z" transform="translate(222.58 1.42)"/><polygon class="cls-26" points="312.93 145.64 312.92 144.23 316.4 144.21 320.19 140.21 321.21 141.19 317.01 145.63 312.93 145.64"/><polygon class="cls-26" points="312.55 127.21 312.54 125.8 316.31 125.78 319.43 122.16 320.51 123.08 316.96 127.19 312.55 127.21"/><path class="cls-26" d="M21.92,194.32l-2,2.75,2,2.73-3.22-1-2,2.75,0-3.39-3.22-1L16.72,196l0-3.39,2,2.73,3.22-1.06m3.7-2.7L21.48,193l-2.24.74-1.4-1.91-2.57-3.51,0,4.35V195l-2.24.74-4.14,1.36,4.15,1.33,2.24.72v2.36l0,4.35,2.54-3.53,1.38-1.91,2.25.72,4.15,1.33L23.08,199l-1.39-1.91,1.38-1.91,2.55-3.53Z" transform="translate(222.58 1.42)"/><path class="cls-26" d="M21.84,171.72l-2,2.75,2,2.73-3.23-1-2,2.74v-3.38l-3.23-1,3.22-1.06v-3.38l2,2.73,3.22-1.06m3.69-2.7-4.14,1.36-2.24.73-1.39-1.9-2.57-3.51v6.71l-2.24.74-4.13,1.36L13,175.84l2.25.72v6.71l2.55-3.53,1.38-1.91,2.25.72,4.14,1.33L23,176.37l-1.4-1.91L23,172.55,25.53,169Z" transform="translate(222.58 1.42)"/><path class="cls-26" d="M21.75,148.73l-2,2.74,2,2.74-3.22-1-2,2.75v-3.39l-3.22-1,3.21-1.06v-3.39l2,2.74,3.22-1.06M25.44,146l-4.13,1.36-2.24.74-1.4-1.9L15.1,142.7l0,4.36v2.36l-2.25.74-4.13,1.36,4.14,1.33,2.25.72v2.36l0,4.35,2.54-3.53,1.38-1.92,2.25.72,4.15,1.33-2.58-3.51-1.39-1.9,1.38-1.92L25.44,146Z" transform="translate(222.58 1.42)"/><path class="cls-26" d="M21.66,125.8l-2,2.75,2,2.73-3.23-1-2,2.75v-3.39l-3.23-1,3.22-1.06v-3.38l2,2.73,3.21-1.06m3.7-2.7-4.14,1.36L19,125.2l-1.39-1.91L15,119.78l0,4.35v2.36l-2.24.74-4.14,1.36,4.15,1.33,2.25.72V133l0,4.35,2.55-3.53L19,131.91l2.24.72L25.4,134l-2.57-3.51-1.4-1.91,1.38-1.91,2.55-3.53Z" transform="translate(222.58 1.42)"/><path class="cls-26" d="M21.58,103.13l-2,2.75,2,2.73-3.23-1-2,2.75v-3.39l-3.22-1,3.21-1.05v-3.39l2,2.73,3.22-1.06m3.69-2.7-4.13,1.36-2.24.74-1.4-1.91-2.57-3.51,0,4.35v2.36l-2.25.74-4.13,1.36,4.14,1.33L15,108v2.36l0,4.35,2.54-3.53,1.38-1.91,2.25.72,4.14,1.33-2.57-3.51-1.39-1.91L22.73,104l2.54-3.53Z" transform="translate(222.58 1.42)"/><polygon class="cls-26" points="280.62 95.14 281.62 94.13 289.8 102.26 298.28 102.22 298.29 103.64 289.22 103.67 280.62 95.14"/><rect class="cls-26" x="80.58" y="92.35" width="1.41" height="10.68" transform="translate(177.27 87.97) rotate(-45.21)"/><polygon class="cls-26" points="260.65 95.24 261.65 94.23 273.09 105.59 283.03 105.55 283.03 106.97 272.51 107 260.65 95.24"/><polygon class="cls-26" points="249.74 257.41 249.74 256.47 291.69 256.31 295.73 252.25 295.46 181.78 296.4 181.78 296.67 252.63 292.09 257.25 249.74 257.41"/><path class="cls-26" d="M73.82,180.36l.27,70.86-4.58,4.62L27.16,256v-.94l42-.16,4-4.06-.27-70.46h.94" transform="translate(222.58 1.42)"/><polygon class="cls-26" points="249.14 242.57 249.14 241.63 289.47 241.47 293.35 237.57 293.14 181.83 294.08 181.82 294.29 237.95 289.86 242.42 249.14 242.57"/><polygon class="cls-26" points="248.85 228.72 248.85 227.78 287.21 227.64 290.97 223.84 290.81 181.62 291.76 181.62 291.92 224.23 287.6 228.58 248.85 228.72"/><polygon class="cls-26" points="249.52 214.52 249.52 213.58 284.67 213.77 288.6 209.81 288.49 181.84 289.44 181.84 289.54 210.2 285.06 214.72 249.52 214.52"/><polygon class="cls-26" points="280.29 122.69 280.29 121.27 285.21 121.25 288.09 123.67 290.27 123.66 290.28 125.07 287.58 125.08 284.69 122.67 280.29 122.69"/><polygon class="cls-26" points="280.27 117.33 280.27 115.92 284.67 115.9 287.54 113.46 299.05 113.42 299.06 114.83 288.06 114.88 285.19 117.31 280.27 117.33"/><rect class="cls-26" x="58.41" y="117.33" width="9" height="1.41" transform="translate(222.07 1.69) rotate(-0.25)"/><path class="cls-26" d="M16.92,86.57l-.24-63.95,59.7-.23.24,64Zm4-59.73.21,55.47,51.21-.19-.21-55.47Z" transform="translate(222.58 1.42)"/><polygon class="cls-26" points="237.58 262.14 237.45 210.87 229.56 203.11 229.56 202.81 228.92 21.18 268.46 21.03 268.48 25.79 267.07 25.79 267.06 22.45 230.34 22.59 230.97 202.51 238.87 210.27 238.87 210.57 239 261.53 254.1 275.66 274.06 275.58 274.06 277 253.54 277.07 253.34 276.88 237.58 262.14"/><polygon class="cls-26" points="233.14 262.16 233.01 210.88 225.11 203.12 225.11 202.83 224.47 21.2 263.31 21.05 263.32 22.46 225.89 22.61 226.52 202.53 234.42 210.29 234.42 210.58 234.55 261.54 249.65 275.67 269.61 275.6 269.62 277.01 249.1 277.09 248.89 276.9 233.14 262.16"/><line class="cls-26" x1="230.48" y1="198.51" x2="235.9" y2="198.49"/><rect class="cls-26" x="7.9" y="196.55" width="5.42" height="1.06" transform="matrix(1, 0, 0, 1, 222, 1.45)"/><line class="cls-26" x1="230.4" y1="175.92" x2="235.81" y2="175.9"/><rect class="cls-26" x="7.82" y="173.97" width="5.42" height="1.06" transform="translate(222.06 1.45) rotate(-0.17)"/><line class="cls-26" x1="230.31" y1="152.93" x2="235.73" y2="152.91"/><rect class="cls-26" x="7.73" y="150.97" width="5.42" height="1.06" transform="translate(222.13 1.45) rotate(-0.17)"/><line class="cls-26" x1="230.23" y1="130" x2="235.64" y2="129.98"/><rect class="cls-26" x="7.65" y="128.04" width="5.42" height="1.06" transform="translate(222.2 1.45) rotate(-0.17)"/><line class="cls-26" x1="230.14" y1="107.31" x2="235.56" y2="107.29"/><rect class="cls-26" x="7.56" y="105.35" width="5.42" height="1.06" transform="translate(222.27 1.45) rotate(-0.17)"/><rect class="cls-26" x="29.97" y="159.75" width="9.76" height="3.37" transform="translate(418.74 127.4) rotate(89.79)"/><path class="cls-26" d="M32.48,167l0-11.18,4.79,0,0,11.18Zm1.37-9.77,0,8.35h2l0-8.35Z" transform="translate(222.58 1.42)"/><rect class="cls-26" x="33.68" y="179.38" width="9.76" height="3.37" transform="translate(442.05 143.24) rotate(89.79)"/><path class="cls-26" d="M36.18,186.66l0-11.18h4.79l0,11.17Zm1.38-9.77,0,8.35h2l0-8.34Z" transform="translate(222.58 1.42)"/><rect class="cls-26" x="37.33" y="199" width="9.76" height="3.37" transform="translate(465.32 159.13) rotate(89.79)"/><path class="cls-26" d="M39.84,206.28l0-11.17,4.79,0,0,11.17Zm1.38-9.77,0,8.35h2l0-8.35Z" transform="translate(222.58 1.42)"/><polygon class="cls-26" points="281.18 256.81 276.98 258.19 277 262.6 274.39 259.04 270.2 260.42 272.78 256.84 270.17 253.28 274.38 254.63 276.96 251.05 276.97 255.46 281.18 256.81"/><polygon class="cls-26" points="281.12 242 276.93 243.38 276.94 247.8 274.34 244.24 270.14 245.62 272.73 242.04 270.12 238.48 274.32 239.82 276.9 236.24 276.92 240.66 281.12 242"/><polygon class="cls-26" points="281.07 228.13 276.88 229.51 276.89 233.93 274.29 230.37 270.09 231.75 272.67 228.17 270.07 224.61 274.27 225.95 276.85 222.37 276.87 226.79 281.07 228.13"/><polygon class="cls-26" points="281.02 214.12 276.82 215.5 276.84 219.91 274.23 216.35 270.04 217.73 272.62 214.15 270.01 210.59 274.22 211.94 276.8 208.36 276.81 212.77 281.02 214.12"/><path class="cls-26" d="M27.58,209.11l-7,0,0,7,7,0ZM22,214l1-1.37-1-1.36,1.6.52,1-1.37v1.69l1.6.51-1.6.53v1.68l-1-1.36Z" transform="translate(222.58 1.42)"/><path class="cls-26" d="M27.63,223.38l-7,0,0,7,7,0Zm-5.58,4.89,1-1.37-1-1.36,1.61.51,1-1.36v1.68l1.61.52-1.61.52v1.69l-1-1.36Z" transform="translate(222.58 1.42)"/><path class="cls-26" d="M27.69,237.23l-7,0,0,7,7,0Zm-5.58,4.89,1-1.37-1-1.36,1.61.52,1-1.37v1.68l1.61.52-1.6.53V243l-1-1.36Z" transform="translate(222.58 1.42)"/><path class="cls-26" d="M27.74,252l-7,0,0,7,7,0Zm-5.58,4.89,1-1.37-1-1.36,1.61.52,1-1.37V255l1.6.52-1.6.53v1.68l-1-1.36Z" transform="translate(222.58 1.42)"/><polygon class="cls-26" points="291.85 168.77 289.97 168.76 290 173.9 291.87 173.91 291.85 168.77"/><polygon class="cls-26" points="293.01 173.94 294.88 173.95 294.86 168.82 292.99 168.81 293.01 173.94"/><path class="cls-26" d="M65.51,180.55v.59h8.85L74.23,144H65.38Zm7.78-.59h-6.9l-.1-34.74h6.9Z" transform="translate(222.58 1.42)"/><rect class="cls-26" x="67.92" y="146.7" width="3.28" height="5.52" transform="translate(222.28 1.56) rotate(-0.12)"/><polygon class="cls-26" points="290.79 160.56 292.62 160.56 292.6 154.38 290.77 154.38 290.79 160.56"/><rect class="cls-26" x="67.85" y="160.09" width="3.67" height="6.18" transform="translate(222.25 1.56) rotate(-0.12)"/><polygon class="cls-26" points="290 175.24 290.02 180.38 291.89 180.38 291.87 175.25 290 175.24"/><polygon class="cls-26" points="293.04 180.42 294.91 180.43 294.89 175.29 293.01 175.29 293.04 180.42"/><rect class="cls-26" x="70.31" y="118.85" width="2.28" height="8.18" transform="translate(416.7 52.44) rotate(89.79)"/><rect class="cls-26" x="70.3" y="113.92" width="2.28" height="8.18" transform="translate(411.75 47.54) rotate(89.79)"/><rect class="cls-26" x="79.11" y="108.63" width="2.28" height="8.18" transform="translate(415.25 33.46) rotate(89.79)"/><path class="cls-26" d="M77.65,259l-.06-13.56,13.57,0,0,13.56ZM79,246.89l0,10.73,10.74,0,0-10.73Z" transform="translate(222.58 1.42)"/><path class="cls-26" d="M77.58,240.8l0-13.56,13.56-.06,0,13.57ZM79,228.64l0,10.74,10.73,0,0-10.74Z" transform="translate(222.58 1.42)"/><path class="cls-26" d="M77.51,222.55,77.46,209,91,208.94l0,13.56Zm1.37-12.15,0,10.73,10.73,0,0-10.74Z" transform="translate(222.58 1.42)"/><path class="cls-26" d="M77.44,204.31l0-13.56L91,190.69,91,204.26Zm1.37-12.16,0,10.74,10.74,0,0-10.74Z" transform="translate(222.58 1.42)"/><path class="cls-26" d="M77.37,186.38l-.05-13.57,13.57-.05,0,13.56Zm1.37-12.16,0,10.74,10.74,0,0-10.74Z" transform="translate(222.58 1.42)"/><path class="cls-26" d="M77.31,168.13l-.06-13.56,13.57,0,.05,13.56ZM78.67,156l0,10.73,10.74,0,0-10.73Z" transform="translate(222.58 1.42)"/><path class="cls-26" d="M77.24,149.94l0-13.56,13.56-.06,0,13.57Zm1.37-12.16,0,10.74,10.74,0,0-10.74Z" transform="translate(222.58 1.42)"/><path class="cls-26" d="M77.17,132l0-13.56,13.56,0,0,13.56Zm1.37-12.15,0,10.73,10.73,0,0-10.73Z" transform="translate(222.58 1.42)"/><polygon class="cls-26" points="310.33 253.64 307.77 254.48 307.79 257.17 306.2 255 303.64 255.84 305.21 253.66 303.63 251.49 306.19 252.31 307.76 250.13 307.77 252.82 310.33 253.64"/><polygon class="cls-26" points="310.26 235.39 307.71 236.23 307.72 238.92 306.13 236.75 303.57 237.59 305.15 235.41 303.56 233.25 306.12 234.07 307.69 231.88 307.7 234.57 310.26 235.39"/><polygon class="cls-26" points="310.19 217.15 307.64 217.99 307.65 220.68 306.06 218.51 303.51 219.35 305.08 217.17 303.49 215 306.05 215.82 307.62 213.64 307.63 216.33 310.19 217.15"/><polygon class="cls-26" points="310.12 198.9 307.57 199.74 307.58 202.43 305.99 200.26 303.44 201.1 305.01 198.92 303.42 196.75 305.98 197.58 307.55 195.4 307.56 198.08 310.12 198.9"/><polygon class="cls-26" points="310.06 180.97 307.5 181.81 307.51 184.5 305.92 182.33 303.37 183.17 304.94 180.99 303.36 178.82 305.91 179.64 307.49 177.46 307.5 180.15 310.06 180.97"/><polygon class="cls-26" points="309.99 162.73 307.43 163.57 307.44 166.25 305.86 164.09 303.3 164.93 304.87 162.75 303.29 160.58 305.85 161.4 307.42 159.22 307.43 161.91 309.99 162.73"/><polygon class="cls-26" points="309.92 144.53 307.37 145.38 307.38 148.06 305.79 145.9 303.23 146.74 304.81 144.56 303.22 142.39 305.78 143.21 307.35 141.03 307.36 143.71 309.92 144.53"/><polygon class="cls-26" points="309.85 126.55 307.3 127.39 307.31 130.08 305.72 127.91 303.17 128.75 304.74 126.57 303.15 124.4 305.71 125.22 307.28 123.04 307.29 125.73 309.85 126.55"/><polygon class="cls-26" points="244.76 336.75 242.13 336.76 239.11 340.83 241.74 340.82 244.76 336.75"/><polygon class="cls-26" points="235.24 340.85 237.86 340.84 240.88 336.77 238.26 336.78 235.24 340.85"/><polygon class="cls-26" points="248.58 336.74 245.96 336.75 242.94 340.82 245.56 340.81 248.58 336.74"/><polygon class="cls-26" points="252.53 336.72 249.91 336.73 246.88 340.8 249.51 340.79 252.53 336.72"/><polygon class="cls-26" points="256.62 336.71 254 336.72 250.98 340.79 253.6 340.78 256.62 336.71"/><polygon class="cls-26" points="260.81 336.69 258.18 336.7 255.16 340.77 257.79 340.76 260.81 336.69"/><polygon class="cls-26" points="253.64 344.33 255.07 343.82 255.1 342.31 256.02 343.51 257.48 343.07 256.61 344.32 257.48 345.56 256.03 345.13 255.12 346.34 255.08 344.82 253.64 344.33"/><polygon class="cls-26" points="253.66 348.96 255.09 348.46 255.12 346.94 256.04 348.14 257.49 347.7 256.63 348.95 257.5 350.19 256.05 349.76 255.13 350.97 255.1 349.45 253.66 348.96"/><polygon class="cls-26" points="253.68 353.59 255.11 353.09 255.13 351.57 256.06 352.78 257.51 352.33 256.65 353.58 257.52 354.82 256.06 354.39 255.15 355.61 255.11 354.09 253.68 353.59"/><polygon class="cls-26" points="253.69 358.22 255.13 357.72 255.15 356.2 256.07 357.41 257.53 356.96 256.66 358.21 257.54 359.46 256.08 359.02 255.17 360.24 255.13 358.72 253.69 358.22"/><polygon class="cls-26" points="253.71 362.86 255.14 362.35 255.17 360.83 256.09 362.04 257.55 361.59 256.68 362.84 257.55 364.09 256.1 363.65 255.18 364.87 255.15 363.35 253.71 362.86"/><polygon class="cls-26" points="249.13 344.35 250.57 343.84 250.59 342.32 251.52 343.53 252.97 343.08 252.1 344.33 252.98 345.58 251.52 345.14 250.61 346.36 250.57 344.84 249.13 344.35"/><polygon class="cls-26" points="249.15 348.98 250.59 348.47 250.61 346.95 251.53 348.16 252.99 347.72 252.12 348.97 253 350.21 251.54 349.78 250.63 350.99 250.59 349.47 249.15 348.98"/><polygon class="cls-26" points="249.17 353.61 250.6 353.11 250.63 351.59 251.55 352.79 253 352.35 252.14 353.6 253.01 354.84 251.56 354.41 250.64 355.62 250.61 354.1 249.17 353.61"/><polygon class="cls-26" points="249.19 358.24 250.62 357.74 250.65 356.22 251.57 357.43 253.02 356.98 252.16 358.23 253.03 359.47 251.57 359.04 250.66 360.25 250.62 358.73 249.19 358.24"/><polygon class="cls-26" points="249.2 362.87 250.64 362.37 250.66 360.85 251.59 362.06 253.04 361.61 252.18 362.86 253.05 364.11 251.59 363.67 250.68 364.88 250.64 363.37 249.2 362.87"/><polygon class="cls-26" points="244.63 344.36 246.06 343.86 246.09 342.34 247.01 343.55 248.46 343.1 247.6 344.35 248.47 345.6 247.01 345.16 246.1 346.38 246.06 344.86 244.63 344.36"/><polygon class="cls-26" points="244.65 348.99 246.08 348.49 246.1 346.97 247.03 348.18 248.48 347.73 247.62 348.98 248.49 350.23 247.03 349.79 246.12 351.01 246.08 349.49 244.65 348.99"/><polygon class="cls-26" points="244.66 353.63 246.1 353.12 246.12 351.6 247.04 352.81 248.5 352.36 247.63 353.62 248.51 354.86 247.05 354.42 246.14 355.64 246.1 354.12 244.66 353.63"/><polygon class="cls-26" points="244.68 358.26 246.11 357.75 246.14 356.23 247.06 357.44 248.51 357 247.65 358.25 248.52 359.49 247.07 359.06 246.15 360.27 246.12 358.75 244.68 358.26"/><polygon class="cls-26" points="244.7 362.89 246.13 362.38 246.16 360.87 247.08 362.07 248.53 361.63 247.67 362.88 248.54 364.12 247.09 363.69 246.17 364.9 246.13 363.38 244.7 362.89"/><polygon class="cls-26" points="240.12 344.38 241.56 343.88 241.58 342.36 242.5 343.56 243.96 343.12 243.09 344.37 243.97 345.61 242.51 345.18 241.59 346.39 241.56 344.87 240.12 344.38"/><polygon class="cls-26" points="240.14 349.01 241.57 348.51 241.6 346.99 242.52 348.19 243.97 347.75 243.11 349 243.98 350.24 242.53 349.81 241.61 351.02 241.58 349.5 240.14 349.01"/><polygon class="cls-26" points="240.16 353.64 241.59 353.14 241.62 351.62 242.54 352.83 243.99 352.38 243.13 353.63 244 354.88 242.54 354.44 241.63 355.65 241.59 354.14 240.16 353.64"/><polygon class="cls-26" points="240.17 358.27 241.61 357.77 241.63 356.25 242.56 357.46 244.01 357.01 243.14 358.26 244.02 359.51 242.56 359.07 241.65 360.29 241.61 358.77 240.17 358.27"/><polygon class="cls-26" points="240.19 362.91 241.63 362.4 241.65 360.88 242.57 362.09 244.03 361.64 243.16 362.89 244.03 364.14 242.58 363.7 241.66 364.92 241.63 363.4 240.19 362.91"/><polygon class="cls-26" points="235.62 344.4 237.05 343.89 237.07 342.37 238 343.58 239.45 343.13 238.59 344.38 239.46 345.63 238 345.19 237.09 346.41 237.05 344.89 235.62 344.4"/><polygon class="cls-26" points="235.63 349.03 237.07 348.52 237.09 347 238.01 348.21 239.47 347.77 238.6 349.02 239.48 350.26 238.02 349.83 237.11 351.04 237.07 349.52 235.63 349.03"/><polygon class="cls-26" points="235.65 353.66 237.08 353.16 237.11 351.64 238.03 352.84 239.48 352.4 238.62 353.65 239.49 354.89 238.04 354.46 237.12 355.67 237.09 354.15 235.65 353.66"/><polygon class="cls-26" points="235.67 358.29 237.1 357.79 237.13 356.27 238.05 357.48 239.5 357.03 238.64 358.28 239.51 359.52 238.06 359.09 237.14 360.3 237.1 358.79 235.67 358.29"/><polygon class="cls-26" points="235.69 362.92 237.12 362.42 237.14 360.9 238.07 362.11 239.52 361.66 238.66 362.91 239.53 364.16 238.07 363.72 237.16 364.94 237.12 363.42 235.69 362.92"/><path class="cls-26" d="M11.79,365.52l-.1-26.73,24.58-.09.1,26.73Zm1.46-25.18L13.34,364l21.47-.09-.09-23.62Z" transform="translate(222.58 1.42)"/><polygon class="cls-26" points="281.41 336.62 284 336.61 287 340.65 284.42 340.66 281.41 336.62"/><polygon class="cls-26" points="290.82 340.64 288.23 340.65 285.23 336.6 287.81 336.59 290.82 340.64"/><polygon class="cls-26" points="277.64 336.63 280.23 336.62 283.24 340.67 280.65 340.68 277.64 336.63"/><polygon class="cls-26" points="273.75 336.64 276.34 336.63 279.35 340.68 276.76 340.69 273.75 336.64"/><polygon class="cls-26" points="269.72 336.66 272.31 336.65 275.31 340.7 272.73 340.71 269.72 336.66"/><polygon class="cls-26" points="265.6 336.67 268.19 336.67 271.19 340.71 268.61 340.72 265.6 336.67"/><polygon class="cls-26" points="272.72 344.26 271.3 343.76 271.26 342.25 270.37 343.46 268.93 343.02 269.79 344.27 268.94 345.52 270.37 345.07 271.28 346.28 271.3 344.76 272.72 344.26"/><polygon class="cls-26" points="272.73 348.89 271.32 348.39 271.28 346.88 270.38 348.09 268.95 347.66 269.81 348.9 268.96 350.15 270.39 349.7 271.3 350.91 271.32 349.39 272.73 348.89"/><polygon class="cls-26" points="272.75 353.52 271.33 353.03 271.3 351.51 270.4 352.72 268.96 352.29 269.82 353.53 268.97 354.78 270.4 354.34 271.31 355.54 271.34 354.02 272.75 353.52"/><polygon class="cls-26" points="272.77 358.15 271.35 357.66 271.32 356.14 270.42 357.35 268.98 356.92 269.84 358.16 268.99 359.41 270.42 358.97 271.33 360.18 271.36 358.66 272.77 358.15"/><polygon class="cls-26" points="272.79 362.78 271.37 362.29 271.33 360.77 270.43 361.99 269 361.55 269.86 362.8 269.01 364.05 270.44 363.6 271.35 364.81 271.37 363.29 272.79 362.78"/><polygon class="cls-26" points="277.16 344.24 275.74 343.75 275.7 342.23 274.8 343.44 273.37 343.01 274.23 344.25 273.38 345.5 274.81 345.06 275.72 346.26 275.74 344.75 277.16 344.24"/><polygon class="cls-26" points="277.17 348.87 275.76 348.38 275.72 346.86 274.82 348.07 273.39 347.64 274.25 348.88 273.4 350.13 274.83 349.69 275.74 350.9 275.76 349.38 277.17 348.87"/><polygon class="cls-26" points="277.19 353.5 275.77 353.01 275.74 351.49 274.84 352.71 273.4 352.27 274.26 353.51 273.41 354.76 274.85 354.32 275.75 355.53 275.78 354.01 277.19 353.5"/><polygon class="cls-26" points="277.21 358.14 275.79 357.64 275.76 356.12 274.86 357.34 273.42 356.9 274.28 358.15 273.43 359.4 274.86 358.95 275.77 360.16 275.8 358.64 277.21 358.14"/><polygon class="cls-26" points="277.23 362.77 275.81 362.27 275.77 360.75 274.87 361.97 273.44 361.53 274.3 362.78 273.45 364.03 274.88 363.58 275.79 364.79 275.81 363.27 277.23 362.77"/><polygon class="cls-26" points="281.6 344.22 280.18 343.73 280.14 342.21 279.24 343.43 277.81 342.99 278.67 344.24 277.82 345.49 279.25 345.04 280.16 346.25 280.18 344.73 281.6 344.22"/><polygon class="cls-26" points="281.61 348.86 280.2 348.36 280.16 346.84 279.26 348.06 277.83 347.62 278.69 348.87 277.84 350.12 279.27 349.67 280.18 350.88 280.2 349.36 281.61 348.86"/><polygon class="cls-26" points="281.63 353.49 280.21 352.99 280.18 351.48 279.28 352.69 277.84 352.25 278.7 353.5 277.85 354.75 279.28 354.3 280.19 355.51 280.22 353.99 281.63 353.49"/><polygon class="cls-26" points="281.65 358.12 280.23 357.63 280.19 356.11 279.3 357.32 277.86 356.89 278.72 358.13 277.87 359.38 279.3 358.94 280.21 360.14 280.24 358.62 281.65 358.12"/><polygon class="cls-26" points="281.66 362.75 280.25 362.26 280.21 360.74 279.31 361.95 277.88 361.52 278.74 362.76 277.89 364.01 279.32 363.57 280.23 364.77 280.25 363.25 281.66 362.75"/><polygon class="cls-26" points="286.03 344.21 284.62 343.71 284.58 342.19 283.68 343.41 282.25 342.97 283.11 344.22 282.26 345.47 283.69 345.02 284.6 346.23 284.62 344.71 286.03 344.21"/><polygon class="cls-26" points="286.05 348.84 284.64 348.35 284.6 346.83 283.7 348.04 282.27 347.61 283.13 348.85 282.27 350.1 283.71 349.65 284.62 350.86 284.64 349.34 286.05 348.84"/><polygon class="cls-26" points="286.07 353.47 284.65 352.98 284.62 351.46 283.72 352.67 282.28 352.24 283.14 353.48 282.29 354.73 283.72 354.29 284.63 355.49 284.66 353.98 286.07 353.47"/><polygon class="cls-26" points="286.09 358.1 284.67 357.61 284.63 356.09 283.74 357.3 282.3 356.87 283.16 358.11 282.31 359.36 283.74 358.92 284.65 360.13 284.68 358.61 286.09 358.1"/><polygon class="cls-26" points="286.1 362.73 284.69 362.24 284.65 360.72 283.75 361.94 282.32 361.5 283.18 362.75 282.33 364 283.76 363.55 284.67 364.76 284.69 363.24 286.1 362.73"/><polygon class="cls-26" points="290.47 344.19 289.06 343.7 289.02 342.18 288.12 343.39 286.69 342.96 287.55 344.2 286.7 345.45 288.13 345.01 289.04 346.21 289.06 344.69 290.47 344.19"/><polygon class="cls-26" points="290.49 348.82 289.07 348.33 289.04 346.81 288.14 348.02 286.7 347.59 287.56 348.83 286.71 350.08 288.15 349.64 289.05 350.85 289.08 349.33 290.49 348.82"/><polygon class="cls-26" points="290.51 353.45 289.09 352.96 289.06 351.44 288.16 352.66 286.72 352.22 287.58 353.46 286.73 354.71 288.16 354.27 289.07 355.48 289.1 353.96 290.51 353.45"/><polygon class="cls-26" points="290.53 358.09 289.11 357.59 289.07 356.07 288.17 357.29 286.74 356.85 287.6 358.1 286.75 359.35 288.18 358.9 289.09 360.11 289.11 358.59 290.53 358.09"/><polygon class="cls-26" points="290.54 362.72 289.13 362.22 289.09 360.7 288.19 361.92 286.76 361.48 287.62 362.73 286.77 363.98 288.2 363.53 289.11 364.74 289.13 363.22 290.54 362.72"/><path class="cls-26" d="M45.07,365.4,45,338.67l24.23-.1.1,26.74Zm1.46-25.19.09,23.63,21.12-.08-.09-23.63Z" transform="translate(222.58 1.42)"/><circle class="cls-26" cx="339.02" cy="282.62" r="1.83"/><circle class="cls-26" cx="250.49" cy="198.8" r="2.1"/><circle class="cls-26" cx="250.32" cy="153.09" r="2.1"/><circle class="cls-26" cx="250.41" cy="176.04" r="2.1"/><path class="cls-26" d="M27.21,198c-.34-21.2-.42-41.78-.5-63.56v-.71l.7-.14c2.56,0,9.36,0,12.34-.12l0,1.41c-2.76.09-8.73.12-11.68.13.09,21.65.17,42,.5,63Z" transform="translate(222.58 1.42)"/><polygon class="cls-26" points="245.91 211.51 249.69 207.71 249.66 200.11 251.07 200.1 251.1 208.29 246.91 212.51 245.91 211.51"/><rect class="cls-26" x="23.27" y="215.43" width="1.41" height="8.62" transform="translate(221.76 1.51) rotate(-0.21)"/><rect class="cls-26" x="23.32" y="230.59" width="1.41" height="7.17" transform="translate(221.69 1.51) rotate(-0.22)"/><rect class="cls-26" x="23.37" y="243.48" width="1.41" height="8.72" transform="translate(221.65 1.51) rotate(-0.22)"/><rect class="cls-26" x="37.95" y="266.93" width="3.8" height="15.9" transform="translate(537.16 235.42) rotate(89.79)"/><path class="cls-26" d="M30.5,278.23l0-6.63,18.73-.07,0,6.63Zm2.81-3.81v1l13.06-.05v-1Z" transform="translate(222.58 1.42)"/><path class="cls-26" d="M43.05,318.42l0-7.57,23-.09,0,7.57Zm1.53-6,0,4.47,19.91-.08,0-4.46Z" transform="translate(222.58 1.42)"/><polygon class="cls-26" points="243.51 316.13 242.27 316.57 242.25 317.88 241.45 316.84 240.19 317.22 240.94 316.14 240.18 315.06 241.44 315.44 242.23 314.38 242.27 315.7 243.51 316.13"/><polygon class="cls-26" points="247.42 316.11 246.18 316.55 246.15 317.87 245.35 316.82 244.09 317.21 244.84 316.12 244.09 315.05 245.35 315.42 246.14 314.37 246.17 315.69 247.42 316.11"/><polygon class="cls-26" points="251.32 316.1 250.08 316.54 250.06 317.85 249.26 316.81 248 317.19 248.75 316.11 247.99 315.03 249.25 315.41 250.04 314.36 250.08 315.67 251.32 316.1"/><polygon class="cls-26" points="255.23 316.08 253.99 316.52 253.96 317.84 253.16 316.79 251.91 317.18 252.65 316.1 251.9 315.02 253.16 315.39 253.95 314.34 253.98 315.66 255.23 316.08"/><polygon class="cls-26" points="259.13 316.07 257.89 316.51 257.87 317.82 257.07 316.78 255.81 317.16 256.56 316.08 255.8 315 257.06 315.38 257.86 314.33 257.89 315.64 259.13 316.07"/><path class="cls-26" d="M15.28,318.52l0-7.57,23-.09,0,7.57Zm1.53-6,0,4.46,19.91-.07,0-4.47Z" transform="translate(222.58 1.42)"/><line class="cls-26" x1="234.32" y1="216.5" x2="220.4" y2="228.81"/><path class="cls-26" d="M-3.29,228.36a1.36,1.36,0,0,1,.07-2L10.7,214.06a1.57,1.57,0,0,1,2.13.06,1.34,1.34,0,0,1-.06,2L-1.15,228.43a1.58,1.58,0,0,1-2.13-.06Z" transform="translate(222.58 1.42)"/><line class="cls-26" x1="234.35" y1="225.64" x2="220.43" y2="237.95"/><path class="cls-26" d="M-3.26,237.49a1.35,1.35,0,0,1,.08-2L10.74,223.2a1.58,1.58,0,0,1,2.13.05v0a1.34,1.34,0,0,1-.07,2L-1.11,237.57a1.59,1.59,0,0,1-2.13-.06Z" transform="translate(222.58 1.42)"/><line class="cls-26" x1="234.39" y1="234.78" x2="220.47" y2="247.09"/><path class="cls-26" d="M-3.22,246.63a1.35,1.35,0,0,1,.08-2l13.92-12.32a1.59,1.59,0,0,1,2.13.06v0a1.35,1.35,0,0,1-.07,2L-1.08,246.7a1.58,1.58,0,0,1-2.13,0Z" transform="translate(222.58 1.42)"/><line class="cls-26" x1="234.43" y1="243.92" x2="220.51" y2="256.23"/><path class="cls-26" d="M-3.18,255.77a1.36,1.36,0,0,1,.07-2l13.92-12.31a1.57,1.57,0,0,1,2.13.06,1.34,1.34,0,0,1-.06,2L-1,255.84a1.57,1.57,0,0,1-2.13-.06Z" transform="translate(222.58 1.42)"/><line class="cls-26" x1="234.46" y1="253.05" x2="220.54" y2="265.37"/><path class="cls-26" d="M-3.15,264.91a1.36,1.36,0,0,1,.08-2l13.92-12.31a1.57,1.57,0,0,1,2.13.06h0a1.36,1.36,0,0,1-.07,2L-1,265a1.57,1.57,0,0,1-2.13-.06Z" transform="translate(222.58 1.42)"/><line class="cls-26" x1="286.76" y1="336.62" x2="286.7" y2="318.89"/><rect class="cls-26" x="63.76" y="317.47" width="0.78" height="17.74" transform="translate(221.34 1.66) rotate(-0.22)"/><line class="cls-26" x1="282.86" y1="336.64" x2="282.79" y2="318.9"/><rect class="cls-26" x="59.86" y="317.49" width="0.78" height="17.74" transform="translate(221.36 1.64) rotate(-0.21)"/><line class="cls-26" x1="278.95" y1="336.65" x2="278.88" y2="318.92"/><rect class="cls-26" x="55.95" y="317.5" width="0.78" height="17.73" transform="translate(221.36 1.63) rotate(-0.21)"/><line class="cls-26" x1="275.04" y1="336.67" x2="274.98" y2="318.93"/><rect class="cls-26" x="52.04" y="317.52" width="0.78" height="17.74" transform="translate(221.34 1.62) rotate(-0.22)"/><line class="cls-26" x1="271.14" y1="336.68" x2="271.07" y2="318.95"/><rect class="cls-26" x="48.14" y="317.53" width="0.78" height="17.74" transform="translate(221.34 1.6) rotate(-0.22)"/><line class="cls-26" x1="267.18" y1="336.7" x2="267.12" y2="318.96"/><rect class="cls-26" x="44.18" y="317.55" width="0.78" height="17.74" transform="translate(221.34 1.59) rotate(-0.22)"/><line class="cls-26" x1="258.96" y1="336.73" x2="258.9" y2="318.99"/><rect class="cls-26" x="35.96" y="317.58" width="0.78" height="17.74" transform="translate(221.34 1.56) rotate(-0.22)"/><line class="cls-26" x1="255.06" y1="336.74" x2="254.99" y2="319.01"/><rect class="cls-26" x="32.06" y="317.59" width="0.78" height="17.74" transform="translate(221.34 1.54) rotate(-0.22)"/><line class="cls-26" x1="251.15" y1="336.76" x2="251.08" y2="319.02"/><rect class="cls-26" x="28.15" y="317.61" width="0.78" height="17.74" transform="translate(221.36 1.52) rotate(-0.21)"/><line class="cls-26" x1="247.24" y1="336.77" x2="247.18" y2="319.04"/><rect class="cls-26" x="24.24" y="317.62" width="0.78" height="17.73" transform="translate(221.36 1.51) rotate(-0.21)"/><line class="cls-26" x1="243.34" y1="336.79" x2="243.27" y2="319.05"/><rect class="cls-26" x="20.34" y="317.64" width="0.78" height="17.73" transform="translate(221.36 1.49) rotate(-0.21)"/><line class="cls-26" x1="239.38" y1="336.8" x2="239.32" y2="319.07"/><rect class="cls-26" x="16.38" y="317.65" width="0.78" height="17.74" transform="translate(221.34 1.48) rotate(-0.22)"/><line class="cls-26" x1="249.31" y1="312.84" x2="249.29" y2="307.03"/><rect class="cls-26" x="24.39" y="305.61" width="4.66" height="5.82" transform="translate(221.49 1.51) rotate(-0.2)"/><line class="cls-26" x1="276.88" y1="312.74" x2="276.86" y2="306.92"/><rect class="cls-26" x="51.96" y="305.51" width="4.66" height="5.82" transform="translate(221.43 1.62) rotate(-0.21)"/><polygon class="cls-26" points="333.73 280.67 333.05 101.2 311.79 80.1 313.78 78.09 335.88 100.02 336.56 280.66 333.73 280.67"/><polygon class="cls-26" points="329.34 96.48 329.28 81.14 307.91 59.92 309.4 58.42 331.4 80.25 331.46 96.47 329.34 96.48"/><polygon class="cls-26" points="324.94 76.25 324.89 63.04 307.07 45.35 308.06 44.34 326.31 62.45 326.36 76.24 324.94 76.25"/><polygon class="cls-26" points="321.73 59.33 321.69 48.44 305.01 31.89 305.76 31.13 322.75 47.99 322.79 59.33 321.73 59.33"/><polygon class="cls-26" points="330.49 282.65 336.14 280.66 336.24 274.67 339.88 279.43 345.62 277.67 342.21 282.61 345.65 287.51 339.91 285.8 336.3 290.59 336.16 284.6 330.49 282.65"/><path class="cls-26" d="M107.91,281.23l5.66-2,.09-6L117.3,278l5.74-1.75-3.41,4.93,3.44,4.91-5.74-1.72-3.61,4.8-.14-6-5.67-1.95m-4.17,0,3.73,1.28,4.77,1.64.12,5,.09,3.93,2.37-3.14,3-4,4.83,1.44,3.77,1.12-2.26-3.22-2.89-4.13,2.86-4.15,2.24-3.23L122.64,275l-4.83,1.48-3.06-4-2.39-3.13-.06,3.94-.09,5-4.75,1.67-3.72,1.31Z" transform="translate(222.58 1.42)"/><path class="cls-26" d="M17.59,1.21h-.77l-.14,14.42,56.44.55h.77L74,1.76Zm54.77,13.4-54.12-.52.11-11.33,54.12.53Z" transform="translate(222.58 1.42)"/><rect class="cls-26" x="22.86" y="5.98" width="4.02" height="10.67" transform="translate(235.89 37.49) rotate(-89.43)"/><rect class="cls-26" x="36.93" y="6.12" width="4.02" height="10.67" transform="translate(249.68 51.7) rotate(-89.43)"/><rect class="cls-26" x="51" y="6.25" width="4.02" height="10.67" transform="translate(263.48 65.9) rotate(-89.43)"/><rect class="cls-26" x="22.92" y="0.61" width="4.02" height="10.67" transform="translate(241.31 32.23) rotate(-89.43)"/><rect class="cls-26" x="36.99" y="0.75" width="4.02" height="10.67" transform="translate(255.1 46.43) rotate(-89.43)"/><rect class="cls-26" x="51.06" y="0.89" width="4.02" height="10.67" transform="translate(268.9 60.64) rotate(-89.43)"/><rect class="cls-26" x="63.86" y="6.16" width="4.02" height="10.67" transform="translate(276.29 78.66) rotate(-89.42)"/><rect class="cls-26" x="63.91" y="0.79" width="4.02" height="10.67" transform="translate(281.72 73.4) rotate(-89.43)"/><polygon class="cls-26" points="304.03 31.84 303.95 10.74 295.3 10.77 295.3 9.36 305.36 9.32 305.44 31.83 304.03 31.84"/><path class="cls-26" d="M-10.37,16l0-6.18,27.76-.1V6.86L-13.24,7l0,9.05A5.54,5.54,0,0,1-10.37,16Z" transform="translate(222.58 1.42)"/><path class="cls-26" d="M5.74,291.14v-2.83l-4.71,0L.49,144.61v-.68l-10.41-8.37,0-9a5.46,5.46,0,0,1-2.83.44l0,9.28v.67l10.41,8.37.54,145.88Z" transform="translate(222.58 1.42)"/><path class="cls-26" d="M-19.11,126.8v-3.43l2.07-3.69-.39-104.26,11.48,0,0,8.26.36,95.88,1.94,4.14v3.08Zm.7-3.24v2.53l14.07,0v-2.3l-1.94-4.14L-6.67,16.09l-10.06,0,.39,103.73Z" transform="translate(222.58 1.42)"/><polygon class="cls-26" points="214.36 25.5 213.17 25.89 213.18 27.13 212.44 26.13 211.26 26.52 211.99 25.5 211.25 24.5 212.44 24.88 213.17 23.87 213.17 25.12 214.36 25.5"/><polygon class="cls-26" points="211.25 28.52 210.07 28.91 210.07 30.15 209.34 29.15 208.15 29.54 208.88 28.52 208.14 27.52 209.33 27.9 210.06 26.89 210.06 28.14 211.25 28.52"/><polygon class="cls-26" points="211.22 22.16 210.04 22.55 210.05 23.8 209.31 22.8 208.13 23.18 208.86 22.17 208.12 21.17 209.31 21.55 210.03 20.54 210.04 21.79 211.22 22.16"/><polygon class="cls-26" points="214.38 31.65 213.2 32.04 213.2 33.28 212.47 32.28 211.28 32.67 212.01 31.66 211.28 30.65 212.46 31.03 213.19 30.02 213.19 31.27 214.38 31.65"/><polygon class="cls-26" points="214.4 37.8 213.22 38.19 213.22 39.44 212.49 38.43 211.31 38.82 212.03 37.81 211.3 36.8 212.48 37.19 213.21 36.17 213.22 37.42 214.4 37.8"/><polygon class="cls-26" points="211.19 41.03 210.01 41.42 210.01 42.67 209.28 41.66 208.1 42.05 208.82 41.04 208.09 40.04 209.27 40.42 210 39.41 210.01 40.66 211.19 41.03"/><polygon class="cls-26" points="211.27 34.87 210.09 35.26 210.09 36.5 209.36 35.5 208.18 35.88 208.9 34.88 208.17 33.87 209.35 34.25 210.08 33.24 210.09 34.49 211.27 34.87"/><polygon class="cls-26" points="214.46 53.13 213.28 53.52 213.28 54.77 212.55 53.77 211.36 54.15 212.09 53.14 211.36 52.14 212.54 52.52 213.27 51.51 213.28 52.76 214.46 53.13"/><polygon class="cls-26" points="211.35 56.16 210.17 56.54 210.17 57.79 209.44 56.78 208.26 57.17 208.98 56.16 208.25 55.16 209.43 55.54 210.16 54.53 210.17 55.77 211.35 56.16"/><polygon class="cls-26" points="211.33 49.8 210.15 50.19 210.15 51.44 209.41 50.44 208.23 50.82 208.96 49.81 208.22 48.81 209.41 49.19 210.14 48.18 210.14 49.42 211.33 49.8"/><polygon class="cls-26" points="214.48 59.29 213.3 59.68 213.31 60.92 212.57 59.92 211.39 60.31 212.12 59.3 211.38 58.29 212.56 58.67 213.29 57.66 213.3 58.91 214.48 59.29"/><polygon class="cls-26" points="214.51 65.44 213.32 65.83 213.33 67.07 212.59 66.07 211.41 66.46 212.14 65.45 211.4 64.44 212.59 64.83 213.32 63.81 213.32 65.06 214.51 65.44"/><polygon class="cls-26" points="211.3 68.67 210.11 69.06 210.12 70.31 209.38 69.3 208.2 69.69 208.93 68.68 208.19 67.68 209.38 68.06 210.11 67.05 210.11 68.29 211.3 68.67"/><polygon class="cls-26" points="211.38 62.51 210.19 62.9 210.2 64.14 209.46 63.13 208.28 63.52 209.01 62.51 208.27 61.51 209.46 61.89 210.19 60.88 210.19 62.13 211.38 62.51"/><polygon class="cls-26" points="214.56 80.78 213.38 81.16 213.39 82.41 212.65 81.4 211.47 81.79 212.2 80.78 211.46 79.78 212.65 80.16 213.37 79.15 213.38 80.39 214.56 80.78"/><polygon class="cls-26" points="211.46 83.8 210.27 84.18 210.28 85.43 209.54 84.42 208.36 84.81 209.09 83.8 208.35 82.8 209.54 83.18 210.26 82.17 210.27 83.41 211.46 83.8"/><polygon class="cls-26" points="211.43 77.44 210.25 77.83 210.25 79.08 209.52 78.07 208.34 78.46 209.06 77.45 208.33 76.45 209.51 76.83 210.24 75.82 210.25 77.06 211.43 77.44"/><polygon class="cls-26" points="214.59 86.93 213.4 87.32 213.41 88.56 212.67 87.56 211.49 87.95 212.22 86.94 211.48 85.93 212.67 86.31 213.4 85.3 213.4 86.55 214.59 86.93"/><polygon class="cls-26" points="214.61 93.08 213.43 93.47 213.43 94.71 212.7 93.71 211.51 94.1 212.24 93.09 211.51 92.08 212.69 92.46 213.42 91.45 213.42 92.7 214.61 93.08"/><polygon class="cls-26" points="211.4 96.31 210.22 96.7 210.22 97.95 209.49 96.94 208.3 97.33 209.03 96.32 208.3 95.32 209.48 95.7 210.21 94.69 210.21 95.93 211.4 96.31"/><polygon class="cls-26" points="211.48 90.14 210.3 90.53 210.3 91.78 209.57 90.78 208.38 91.16 209.11 90.15 208.38 89.15 209.56 89.53 210.29 88.52 210.29 89.77 211.48 90.14"/><polygon class="cls-26" points="214.67 108.41 213.49 108.8 213.49 110.05 212.75 109.04 211.57 109.43 212.3 108.42 211.56 107.42 212.75 107.8 213.48 106.79 213.48 108.03 214.67 108.41"/><polygon class="cls-26" points="211.56 111.43 210.38 111.82 210.38 113.07 209.65 112.06 208.46 112.45 209.19 111.44 208.46 110.44 209.64 110.82 210.37 109.81 210.37 111.05 211.56 111.43"/><polygon class="cls-26" points="211.53 105.08 210.35 105.47 210.36 106.72 209.62 105.71 208.44 106.1 209.17 105.09 208.43 104.09 209.62 104.47 210.34 103.46 210.35 104.7 211.53 105.08"/><polygon class="cls-26" points="214.69 114.57 213.51 114.96 213.51 116.2 212.78 115.2 211.59 115.58 212.32 114.58 211.59 113.57 212.77 113.95 213.5 112.94 213.5 114.19 214.69 114.57"/><polygon class="cls-26" points="214.71 120.72 213.53 121.11 213.54 122.35 212.8 121.35 211.62 121.74 212.34 120.73 211.61 119.72 212.79 120.1 213.52 119.09 213.53 120.34 214.71 120.72"/><polygon class="cls-26" points="211.5 123.95 210.32 124.34 210.32 125.59 209.59 124.58 208.41 124.97 209.13 123.96 208.4 122.96 209.59 123.34 210.31 122.33 210.32 123.57 211.5 123.95"/><polygon class="cls-26" points="211.58 117.78 210.4 118.17 210.41 119.42 209.67 118.41 208.49 118.8 209.22 117.79 208.48 116.79 209.66 117.17 210.39 116.16 210.4 117.4 211.58 117.78"/><rect class="cls-26" x="-12.64" y="121.78" width="3.02" height="12.46" transform="translate(339.5 140.08) rotate(89.79)"/></g></g></g></g></svg>