<svg xmlns="http://www.w3.org/2000/svg" xmlns:xlink="http://www.w3.org/1999/xlink" viewBox="0 0 760.69 441.82"><defs><style>.cls-1,.cls-10,.cls-11,.cls-12,.cls-13,.cls-14,.cls-15,.cls-16,.cls-17,.cls-18,.cls-19,.cls-20,.cls-21,.cls-22,.cls-23,.cls-24,.cls-5,.cls-6,.cls-7,.cls-8,.cls-9{fill:none;}.cls-2{clip-path:url(#clip-path);}.cls-3{fill:url(#linear-gradient);}.cls-4{clip-path:url(#clip-path-2);}.cls-10,.cls-11,.cls-12,.cls-13,.cls-14,.cls-15,.cls-16,.cls-17,.cls-18,.cls-19,.cls-20,.cls-21,.cls-22,.cls-23,.cls-24,.cls-5,.cls-6,.cls-7,.cls-9{stroke-miterlimit:10;}.cls-5{stroke-width:0.5px;stroke:url(#linear-gradient-2);}.cls-6{stroke-width:0.49px;stroke:url(#linear-gradient-3);}.cls-7{stroke-width:0.47px;stroke:url(#linear-gradient-4);}.cls-8{stroke-miterlimit:10;stroke-width:0.46px;stroke:url(#linear-gradient-5);}.cls-9{stroke-width:0.45px;stroke:url(#linear-gradient-6);}.cls-10{stroke-width:0.43px;stroke:url(#linear-gradient-7);}.cls-11{stroke-width:0.42px;stroke:url(#linear-gradient-8);}.cls-12{stroke-width:0.41px;stroke:url(#linear-gradient-9);}.cls-13{stroke-width:0.39px;stroke:url(#linear-gradient-10);}.cls-14{stroke-width:0.38px;stroke:url(#linear-gradient-11);}.cls-15{stroke-width:0.37px;stroke:url(#linear-gradient-12);}.cls-16{stroke-width:0.36px;stroke:url(#linear-gradient-13);}.cls-17{stroke-width:0.34px;stroke:url(#linear-gradient-14);}.cls-18{stroke-width:0.33px;stroke:url(#linear-gradient-15);}.cls-19{stroke-width:0.32px;stroke:url(#linear-gradient-16);}.cls-20{stroke-width:0.3px;stroke:url(#linear-gradient-17);}.cls-21{stroke-width:0.29px;stroke:url(#linear-gradient-18);}.cls-22{stroke-width:0.28px;stroke:url(#linear-gradient-19);}.cls-23{stroke-width:0.26px;stroke:url(#linear-gradient-20);}.cls-24{stroke-width:0.25px;stroke:url(#linear-gradient-21);}.cls-25{opacity:0.1;}.cls-26{fill:#fff;}</style><clipPath id="clip-path" transform="translate(180.1 -0.88)"><rect class="cls-1" width="470.84" height="378.08" transform="translate(470.84 378.08) rotate(180)"/></clipPath><linearGradient id="linear-gradient" x1="-6.31" y1="245.34" x2="470.28" y2="136.35" gradientTransform="translate(474.68 379.25) rotate(-180)" gradientUnits="userSpaceOnUse"><stop offset="0" stop-color="#015eff"/><stop offset="0.03" stop-color="#1a6eff"/><stop offset="0.08" stop-color="#4f90ff"/><stop offset="0.15" stop-color="#7eadff"/><stop offset="0.21" stop-color="#a6c7ff"/><stop offset="0.27" stop-color="#c6dbff"/><stop offset="0.34" stop-color="#dfebff"/><stop offset="0.4" stop-color="#f1f6ff"/><stop offset="0.48" stop-color="#fcfdff"/><stop offset="0.56" stop-color="#fff"/><stop offset="0.61" stop-color="snow"/><stop offset="0.67" stop-color="#fdebec"/><stop offset="0.73" stop-color="#fcd3d5"/><stop offset="0.8" stop-color="#f9b1b4"/><stop offset="0.87" stop-color="#f5868a"/><stop offset="0.94" stop-color="#f15158"/><stop offset="1" stop-color="#ed1c25"/></linearGradient><clipPath id="clip-path-2" transform="translate(180.1 -0.88)"><rect class="cls-1" x="5.43" y="0.91" width="465.54" height="377.38"/></clipPath><linearGradient id="linear-gradient-2" x1="534.37" y1="-559.28" x2="1227.71" y2="-559.28" gradientTransform="matrix(0.91, 0.48, -0.47, 1.02, -847.38, 198.73)" gradientUnits="userSpaceOnUse"><stop offset="0" stop-color="#fff" stop-opacity="0"/><stop offset="0.35" stop-color="#fff" stop-opacity="0.01"/><stop offset="0.48" stop-color="#fff" stop-opacity="0.03"/><stop offset="0.57" stop-color="#fff" stop-opacity="0.08"/><stop offset="0.64" stop-color="#fff" stop-opacity="0.15"/><stop offset="0.71" stop-color="#fff" stop-opacity="0.23"/><stop offset="0.76" stop-color="#fff" stop-opacity="0.34"/><stop offset="0.81" stop-color="#fff" stop-opacity="0.47"/><stop offset="0.86" stop-color="#fff" stop-opacity="0.61"/><stop offset="0.9" stop-color="#fff" stop-opacity="0.78"/><stop offset="0.94" stop-color="#fff" stop-opacity="0.96"/><stop offset="0.95" stop-color="#fff"/></linearGradient><linearGradient id="linear-gradient-3" x1="537.16" y1="-548.9" x2="1235.09" y2="-548.9" xlink:href="#linear-gradient-2"/><linearGradient id="linear-gradient-4" x1="539.93" y1="-538.16" x2="1242.46" y2="-538.16" xlink:href="#linear-gradient-2"/><linearGradient id="linear-gradient-5" x1="542.7" y1="-527.39" x2="1249.84" y2="-527.39" xlink:href="#linear-gradient-2"/><linearGradient id="linear-gradient-6" x1="545.47" y1="-516.64" x2="1257.21" y2="-516.64" xlink:href="#linear-gradient-2"/><linearGradient id="linear-gradient-7" x1="548.24" y1="-505.88" x2="1264.59" y2="-505.88" xlink:href="#linear-gradient-2"/><linearGradient id="linear-gradient-8" x1="551" y1="-495.13" x2="1271.96" y2="-495.13" xlink:href="#linear-gradient-2"/><linearGradient id="linear-gradient-9" x1="553.77" y1="-484.38" x2="1279.34" y2="-484.38" xlink:href="#linear-gradient-2"/><linearGradient id="linear-gradient-10" x1="556.53" y1="-473.64" x2="1286.71" y2="-473.64" xlink:href="#linear-gradient-2"/><linearGradient id="linear-gradient-11" x1="559.3" y1="-462.9" x2="1294.09" y2="-462.9" xlink:href="#linear-gradient-2"/><linearGradient id="linear-gradient-12" x1="562.07" y1="-452.16" x2="1301.46" y2="-452.16" xlink:href="#linear-gradient-2"/><linearGradient id="linear-gradient-13" x1="564.84" y1="-441.43" x2="1308.84" y2="-441.43" xlink:href="#linear-gradient-2"/><linearGradient id="linear-gradient-14" x1="567.61" y1="-430.71" x2="1316.21" y2="-430.71" xlink:href="#linear-gradient-2"/><linearGradient id="linear-gradient-15" x1="570.38" y1="-419.99" x2="1323.59" y2="-419.99" xlink:href="#linear-gradient-2"/><linearGradient id="linear-gradient-16" x1="573.16" y1="-409.28" x2="1330.96" y2="-409.28" xlink:href="#linear-gradient-2"/><linearGradient id="linear-gradient-17" x1="575.94" y1="-398.6" x2="1338.34" y2="-398.6" xlink:href="#linear-gradient-2"/><linearGradient id="linear-gradient-18" x1="578.72" y1="-387.99" x2="1345.71" y2="-387.99" xlink:href="#linear-gradient-2"/><linearGradient id="linear-gradient-19" x1="581.51" y1="-377.49" x2="1353.09" y2="-377.49" xlink:href="#linear-gradient-2"/><linearGradient id="linear-gradient-20" x1="584.29" y1="-367.22" x2="1360.46" y2="-367.22" xlink:href="#linear-gradient-2"/><linearGradient id="linear-gradient-21" x1="587.07" y1="-357.35" x2="1367.81" y2="-357.35" xlink:href="#linear-gradient-2"/></defs><g id="Layer_2" data-name="Layer 2"><g id="Layer_1-2" data-name="Layer 1"><g class="cls-2"><rect class="cls-3" x="3.7" y="0.88" width="467.28" height="377.49" transform="translate(654.78 378.37) rotate(180)"/><g class="cls-4"><path class="cls-5" d="M-163.61,19.09C-124,43-80.35,64.56-34.77,66.2c32.31,1.15,64.62-9.46,96.86-5.32,63.67,8.17,121.46,45.18,190.45,18.79C282.3,68.3,303.91,40.31,332.92,27,374,8.1,424.59,14.69,466.38,28.26c29.23,9.49,45.25,29.53,58,58,9.42,21.11,17.59,44.53,33.45,61.43" transform="translate(180.1 -0.88)"/><path class="cls-6" d="M-164.47,27.8c38.31,20.86,83,43,128.91,45.5,22.55,1.29,44.93-2.78,66.63-5a136.52,136.52,0,0,1,30.11-.2C124.24,75.61,182.75,114,251.3,88.84c29.23-10.7,51.58-36.31,81.06-48.15,41.1-16.51,91.19-9.29,132.91,4.85,29.12,9.85,45.25,29.88,58.83,57.41C534.63,124.33,544,147.23,559,163.24" transform="translate(180.1 -0.88)"/><path class="cls-7" d="M-165.34,36.52c37,17.78,82.71,40.43,129,43.89,22.85,1.79,45.4-1.6,66.58-4.35a127.65,127.65,0,0,1,30-.79C122.72,82.18,181.94,121.85,250.07,98c28.69-10,51.75-33.26,81.72-43.6,41.07-14.18,90.71-6.31,132.36,8.41,29,10.22,45.35,30.22,59.7,56.79,11.69,21.65,22.14,44,36.34,59.15" transform="translate(180.1 -0.88)"/><path class="cls-8" d="M-166.2,45.23C-130.5,59.94-83.76,83-37.12,87.51c23.17,2.23,45.88-.42,66.53-3.68a117.94,117.94,0,0,1,29.93-1.36c61.88,6.1,121.79,47.26,189.49,24.71C277,97.8,300.73,77,331.23,68.12c41-11.87,90.22-3.31,131.81,12,28.91,10.58,45.51,30.54,60.56,56.18,12.88,21.93,24.42,43.77,37.78,58" transform="translate(180.1 -0.88)"/><path class="cls-9" d="M-167.06,53.94C-132.68,65.58-84.9,89.19-37.91,94.62c23.49,2.71,46.36.74,66.49-3a109.62,109.62,0,0,1,29.85-1.94c61.27,5.42,121.87,47.93,189.16,26.68,27.62-8.72,52-27.22,83.08-34.52,40.88-9.59,89.74-.32,131.26,15.55,28.8,11,45.73,30.85,61.43,55.56,14.1,22.21,26.69,43.52,39.22,56.86" transform="translate(180.1 -0.88)"/><path class="cls-10" d="M-167.92,62.66C-134.85,71.22-86,95.37-38.69,101.73a195.83,195.83,0,0,0,66.44-2.34c9.75-2.11,19.64-3.31,29.76-2.52,60.67,4.74,122,48.59,188.84,28.65,27.08-8.07,52.11-24.24,83.75-30,40.73-7.38,89.26,2.67,130.71,19.1,28.7,11.33,46,31.14,62.3,54.95,15.37,22.49,29,43.27,40.66,55.72" transform="translate(180.1 -0.88)"/><path class="cls-11" d="M-168.78,71.37c31.76,5.49,81.61,30.17,129.3,37.46,24.12,3.69,47.33,3,66.4-1.67,9.69-2.38,19.54-3.78,29.67-3.1,60.07,4.09,122,49.24,188.52,30.63,26.54-7.43,52.17-21.29,84.43-25.43,40.55-5.2,88.78,5.66,130.16,22.67,28.59,11.69,46.35,31.4,63.16,54.34,16.68,22.75,31.26,43,42.11,54.57" transform="translate(180.1 -0.88)"/><path class="cls-12" d="M-169.64,80.09c30.44,2.41,81.33,27.63,129.38,35.85,24.43,4.18,47.8,4.14,66.35-1,9.63-2.67,19.44-4.26,29.58-3.68,59.47,3.43,122.12,49.88,188.2,32.6,26-6.8,52.22-18.37,85.1-20.88,40.36-3.09,88.3,8.65,129.61,26.23,28.49,12.06,46.74,31.64,64,53.72,18,23,33.53,42.76,43.55,53.43" transform="translate(180.1 -0.88)"/><path class="cls-13" d="M-170.51,88.8c29.14-.66,81.06,25.11,129.46,34.25,24.75,4.67,48.29,5.24,66.32-.34,9.56-3,19.34-4.73,29.49-4.25C113.62,121.24,176.93,169,242.63,153c25.44-6.17,52.47-12.52,85.78-16.34,39.89-4.56,87.82,11.65,129.06,29.8,28.38,12.42,47.15,31.85,64.9,53.1,19.39,23.22,35.81,42.5,45,52.29" transform="translate(180.1 -0.88)"/><path class="cls-14" d="M-171.37,97.51c27.83-3.73,80.78,22.59,129.54,32.64,25.06,5.17,48.76,6.34,66.27.34,9.5-3.26,19.24-5.21,29.4-4.83,58.26,2.13,122.23,51.09,187.55,36.54,24.89-5.55,52.36-9.59,86.45-11.79,39.86-2.57,87.34,14.63,128.52,33.36,28.27,12.79,47.6,32,65.76,52.49,20.8,23.41,38.09,42.24,46.44,51.14" transform="translate(180.1 -0.88)"/><path class="cls-15" d="M-172.23,106.23c26.51-6.81,80.5,20.07,129.61,31,25.38,5.67,49.24,7.42,66.23,1a76.49,76.49,0,0,1,29.31-5.41c57.65,1.5,122.29,51.67,187.23,38.51,24.33-4.93,52.34-9.86,87.13-7.25,39.71,3,86.86,17.63,128,36.93,28.17,13.16,48.08,32.2,66.64,51.87,22.24,23.58,40.36,42,47.87,50" transform="translate(180.1 -0.88)"/><path class="cls-16" d="M-173.09,114.94c25.2-9.88,80.22,17.56,129.69,29.43,25.69,6.16,49.71,8.48,66.18,1.67a73,73,0,0,1,29.23-6c57,.88,122.32,52.24,186.9,40.49a282.26,282.26,0,0,1,87.81-2.7c39.5,4.9,86.37,20.61,127.41,40.49,28.06,13.52,48.58,32.33,67.5,51.25,23.71,23.72,42.64,41.74,49.32,48.86" transform="translate(180.1 -0.88)"/><path class="cls-17" d="M-173.95,123.66c23.89-13,79.94,15,129.77,27.81C-18.19,158.14,6,161,22,153.82c9.31-4.2,18.94-6.72,29.14-6.57,56.43.85,122.37,52.78,186.58,42.46,23.22-3.73,52.44-4.38,88.48,1.84,39.31,6.79,85.9,23.61,126.86,44.06,28,13.89,49.1,32.44,68.37,50.63,25.22,23.81,44.92,41.49,50.77,47.72" transform="translate(180.1 -0.88)"/><path class="cls-18" d="M-174.81,132.37c22.57-16,79.66,12.54,129.84,26.21,26.31,7.17,50.63,10.59,66.09,3a66.23,66.23,0,0,1,29.05-7.14c55.83-.36,122.41,53.29,186.26,44.43,22.65-3.15,52.52-1.71,89.16,6.39,39.13,8.64,85.41,26.59,126.31,47.62,27.86,14.25,49.63,32.53,69.24,50,26.74,23.86,47.19,41.23,52.2,46.57" transform="translate(180.1 -0.88)"/><path class="cls-19" d="M-175.68,141.09c21.27-19.1,79.38,10,129.93,24.6,26.62,7.67,51.08,11.62,66,3.68a63.22,63.22,0,0,1,29-7.72c55.23-1,122.45,53.77,185.94,46.39,22.09-2.56,52.61,1,89.83,10.94,39,10.46,84.94,29.59,125.76,51.19,27.76,14.62,50.18,32.59,70.11,49.4,28.3,23.87,49.47,41,53.65,45.43" transform="translate(180.1 -0.88)"/><path class="cls-20" d="M-176.54,149.8c20-22.17,79.1,7.53,130,23,26.93,8.19,51.52,12.65,66,4.35a60.89,60.89,0,0,1,28.88-8.3C103,167.28,170.82,223.07,234,217.21c21.53-2,52.74,3.56,90.51,15.48,38.86,12.27,84.45,32.58,125.21,54.76,27.65,15,50.72,32.62,71,48.78,29.88,23.84,51.75,40.73,55.09,44.29" transform="translate(180.1 -0.88)"/><path class="cls-21" d="M-177.4,158.51c18.64-25.24,78.78,5.12,130.08,21.39,27.22,8.74,52,13.67,66,5A58.19,58.19,0,0,1,47.42,176c54-2.16,122.52,54.65,185.3,50.34,21-1.43,52.87,6.15,91.17,20,38.77,14,84,35.57,124.67,58.32,27.54,15.35,51.27,32.64,71.84,48.17,31.47,23.75,54,40.47,56.53,43.14" transform="translate(180.1 -0.88)"/><path class="cls-22" d="M-178.26,167.23c17.33-28.32,78.5,2.59,130.15,19.78,27.54,9.23,52.38,14.68,65.92,5.69a56,56,0,0,1,28.69-9.46c53.42-2.74,122.56,55,185,52.31,20.41-.89,53,8.72,91.85,24.57S406.82,298.69,447.44,322c27.44,15.72,51.82,32.64,72.71,47.55,33.09,23.63,56.31,40.22,58,42" transform="translate(180.1 -0.88)"/><path class="cls-23" d="M-179.12,175.94c16-31.39,78.22.08,130.23,18.17C-21,203.84,3.89,209.8,17,200.47a54,54,0,0,1,28.6-10c52.83-3.26,122.62,55.37,184.66,54.28,19.85-.35,53.26,11.27,92.53,29.12,38.66,17.57,83,41.55,123.56,65.45,27.33,16.08,52.37,32.61,73.57,46.93,34.72,23.45,58.59,40,59.42,40.85" transform="translate(180.1 -0.88)"/><path class="cls-24" d="M-180,184.66c22.61-53,160,51.22,196.13,23.59C68.81,168,155.2,253.2,229,253.89c72.05.67,351.52,188.7,351.52,188.7" transform="translate(180.1 -0.88)"/></g><g class="cls-25"><path class="cls-26" d="M77.43,152.49a5.2,5.2,0,0,1,2.22,0l0-5.79a5.2,5.2,0,0,1-2.22.13Z" transform="translate(180.1 -0.88)"/><path class="cls-26" d="M77.8,249.11l.06,16.5h2.21L80,249.15A5.31,5.31,0,0,1,77.8,249.11Z" transform="translate(180.1 -0.88)"/><path class="cls-26" d="M77.75,237.59a5.2,5.2,0,0,1,2.22,0l0-6.24a5.16,5.16,0,0,1-2.21.18Z" transform="translate(180.1 -0.88)"/><path class="cls-26" d="M77.69,221a5.15,5.15,0,0,1,2.21-.16l0-6.47a5.06,5.06,0,0,1-2.21.34Z" transform="translate(180.1 -0.88)"/><path class="cls-26" d="M77.63,203.61a5,5,0,0,1,2.21.14l0-6.27a5.2,5.2,0,0,1-2.22.13Z" transform="translate(180.1 -0.88)"/><path class="cls-26" d="M77.56,186.74a5.2,5.2,0,0,1,2.22.12l0-6.47a5.17,5.17,0,0,1-2.21-.24Z" transform="translate(180.1 -0.88)"/><path class="cls-26" d="M77.5,169.89a5.17,5.17,0,0,1,2.21-.25l0-5.87a5,5,0,0,1-2.21.07Z" transform="translate(180.1 -0.88)"/><path class="cls-26" d="M79.58,135.62l0-5.61H77.35l0,5.57A5.15,5.15,0,0,1,79.58,135.62Z" transform="translate(180.1 -0.88)"/><path class="cls-26" d="M37.36,146.61l.44,117H36l-.43-117a.89.89,0,0,1,.89-.9h0A.9.9,0,0,1,37.36,146.61Z" transform="translate(180.1 -0.88)"/><path class="cls-26" d="M40.71,146.59l.44,117h-1.8l-.44-117a.9.9,0,0,1,.9-.9h0A.89.89,0,0,1,40.71,146.59Z" transform="translate(180.1 -0.88)"/><path class="cls-26" d="M33.93,146.61l.44,116.81-1.8-.22-.43-116.58a.88.88,0,0,1,.89-.9h0A.89.89,0,0,1,33.93,146.61Z" transform="translate(180.1 -0.88)"/><polygon class="cls-26" points="241.76 94.5 247.69 94.48 241.19 85.34 235.27 85.37 241.76 94.5"/><polygon class="cls-26" points="249.94 85.31 244.02 85.33 250.51 94.47 256.43 94.45 249.94 85.31"/><polygon class="cls-26" points="233.13 94.53 239.06 94.51 232.57 85.38 226.65 85.4 233.13 94.53"/><polygon class="cls-26" points="224.22 94.57 230.15 94.55 223.66 85.41 217.73 85.43 224.22 94.57"/><polygon class="cls-26" points="214.98 94.6 220.91 94.58 214.42 85.44 208.49 85.47 214.98 94.6"/><polygon class="cls-26" points="205.54 94.64 211.47 94.62 204.98 85.48 199.06 85.5 205.54 94.64"/><path class="cls-26" d="M31.71,112.31l0,10.56,19.39,0V121h5.07v-2H51.11v-.46h5.08v-2H51.11v-.58h5.07v-2H51.1v-1.65ZM49,121.18l-15.56,0,0-7.25,15.57,0Z" transform="translate(180.1 -0.88)"/><rect class="cls-26" x="75.45" y="73.85" width="10.61" height="10.46" transform="translate(181.57 158.76) rotate(-89.86)"/><rect class="cls-26" x="75.28" y="58.67" width="8.5" height="8.15" transform="translate(196.69 141.24) rotate(-89.86)"/><rect class="cls-26" x="75.28" y="45.7" width="5.77" height="5.53" transform="translate(209.6 125.63) rotate(-89.86)"/><rect class="cls-26" x="75.26" y="33.94" width="4.33" height="4.16" transform="translate(221.32 112.47) rotate(-89.86)"/><path class="cls-26" d="M51.9,138.87l12.64.07-.05-12.4-12.64-.07Zm10.86-1.49-9.3,0L53.4,128l9.3.06Z" transform="translate(180.1 -0.88)"/><polygon class="cls-26" points="258.33 274.85 251.37 284.24 252.88 284.23 259.84 274.84 258.33 274.85"/><polygon class="cls-26" points="255.72 274.86 248.76 284.25 250.27 284.24 257.23 274.85 255.72 274.86"/><polygon class="cls-26" points="260.93 274.84 253.97 284.23 255.49 284.22 262.45 274.83 260.93 274.84"/><polygon class="cls-26" points="266.21 274.82 259.25 284.21 260.77 284.2 267.73 274.81 266.21 274.82"/><polygon class="cls-26" points="263.6 274.83 256.64 284.22 258.16 284.21 265.12 274.82 263.6 274.83"/><polygon class="cls-26" points="268.82 274.81 261.86 284.2 263.37 284.19 270.33 274.8 268.82 274.81"/><polygon class="cls-26" points="232.87 280.1 225.91 289.49 227.43 289.49 234.39 280.09 232.87 280.1"/><polygon class="cls-26" points="230.26 280.11 223.31 289.5 224.82 289.5 231.78 280.1 230.26 280.11"/><polygon class="cls-26" points="235.48 280.09 228.52 289.48 230.03 289.48 236.99 280.08 235.48 280.09"/><polygon class="cls-26" points="240.76 280.07 233.8 289.46 235.31 289.45 242.27 280.06 240.76 280.07"/><polygon class="cls-26" points="238.15 280.08 231.19 289.47 232.7 289.46 239.66 280.07 238.15 280.08"/><polygon class="cls-26" points="243.36 280.06 236.4 289.45 237.92 289.45 244.88 280.05 243.36 280.06"/><path class="cls-26" d="M60.2,263.11l-11.73.36.22,11.73,11.73-.36,0-1.19h0l48.28-.37c.26-1,.81-1.86.29-2.44l-49.86.39h1.24l0-1,48-.23v-2.43l-48,.23,0-1.93,19.81-.12,0-1.55-19.83.13Zm-1,10.59-9.39.3-.18-9.39,9.39-.3Z" transform="translate(180.1 -0.88)"/><polygon class="cls-26" points="236.52 266.21 232.64 266.33 232.71 270.21 236.59 270.09 236.52 266.21"/><polygon class="cls-26" points="222.22 277 222.24 274 216.26 274.01 216.24 277.01 222.22 277"/><polygon class="cls-26" points="214.52 277.02 214.54 274.02 208.56 274.04 208.54 277.04 214.52 277.02"/><polygon class="cls-26" points="216.22 281.08 222.2 281.06 222.22 278.06 216.23 278.08 216.22 281.08"/><polygon class="cls-26" points="208.53 278.1 208.52 281.1 214.5 281.08 214.52 278.08 208.53 278.1"/><polygon class="cls-26" points="200.84 278.13 200.82 281.13 206.8 281.11 206.82 278.11 200.84 278.13"/><polygon class="cls-26" points="198.65 276.53 198.66 274 193.7 274.02 193.68 276.55 198.65 276.53"/><polygon class="cls-26" points="187.42 276.57 192.38 276.55 192.4 274.02 187.43 274.04 187.42 276.57"/><polygon class="cls-26" points="193.68 277.32 193.66 281.23 198.62 281.21 198.65 277.31 193.68 277.32"/><polygon class="cls-26" points="187.41 277.35 187.39 281.24 192.35 281.23 192.38 277.33 187.41 277.35"/><polygon class="cls-26" points="224.84 184.38 224.85 181.98 231.6 189 231.59 191.39 224.84 184.38"/><polygon class="cls-26" points="224.94 178.98 224.95 176.59 231.7 183.61 231.7 186 224.94 178.98"/><polygon class="cls-26" points="224.74 189.85 224.74 187.46 231.5 194.47 231.49 196.87 224.74 189.85"/><polygon class="cls-26" points="229.99 149.24 230 146.85 236.75 153.87 236.75 156.26 229.99 149.24"/><polygon class="cls-26" points="230.09 143.85 230.1 141.46 236.86 148.47 236.85 150.87 230.09 143.85"/><polygon class="cls-26" points="229.89 154.72 229.89 152.32 236.65 159.34 236.64 161.74 229.89 154.72"/><path class="cls-26" d="M44.7,175.26v-.13l0-11.76A.33.33,0,0,1,45,163a.33.33,0,0,1,.33.33l0,11.63,7.46,7.87h0a.33.33,0,0,1-.48.45Z" transform="translate(180.1 -0.88)"/><path class="cls-26" d="M56.19,176.33a.35.35,0,0,1-.08-.22l0-10.47-7.46-7.87h0a.34.34,0,0,1,0-.47.33.33,0,0,1,.47,0l7.64,8.06,0,10.74a.33.33,0,0,1-.33.33A.33.33,0,0,1,56.19,176.33Z" transform="translate(180.1 -0.88)"/><polyline class="cls-26" points="239.47 292.38 254.87 272.43 265.85 272.39 265.84 271.5 254.5 271.55 239.1 291.5"/><polyline class="cls-26" points="238.77 290.84 254.18 270.89 266.5 270.84 266.51 273.05 255.2 273.09 239.8 293.05"/><polygon class="cls-26" points="249.14 291.66 249.14 292.63 192.13 292.76 192.13 291.79 249.14 291.66"/><rect class="cls-26" x="11.3" y="291.88" width="58.47" height="2.43" transform="translate(179.33 -0.77) rotate(-0.15)"/><circle class="cls-26" cx="248.8" cy="292.11" r="3.49"/><circle class="cls-26" cx="189.1" cy="292.11" r="3.49"/><path class="cls-26" d="M44.24,284.25l-39,.12.06-11.6,39-.15Zm-37.84-1L43,283.14l.05-9.41-36.63.14Z" transform="translate(180.1 -0.88)"/><polygon class="cls-26" points="206.82 277.04 206.84 274.04 200.86 274.06 200.84 277.06 206.82 277.04"/><polygon class="cls-26" points="211.4 73.52 208.77 74.44 208.72 77.23 207.03 75.02 204.37 75.83 205.95 73.54 204.35 71.26 207.02 72.06 208.7 69.83 208.76 72.62 211.4 73.52"/><polygon class="cls-26" points="211.37 65.03 208.74 65.95 208.69 68.74 207 66.53 204.34 67.34 205.92 65.05 204.32 62.77 206.99 63.57 208.66 61.34 208.73 64.13 211.37 65.03"/><polygon class="cls-26" points="211.34 56.54 208.71 57.46 208.66 60.25 206.97 58.03 204.31 58.85 205.89 56.56 204.29 54.28 206.96 55.08 208.63 52.85 208.7 55.63 211.34 56.54"/><polygon class="cls-26" points="211.3 48.05 208.68 48.97 208.63 51.76 206.94 49.54 204.28 50.36 205.86 48.07 204.26 45.79 206.93 46.58 208.6 44.36 208.67 47.14 211.3 48.05"/><polygon class="cls-26" points="211.27 39.56 208.64 40.48 208.6 43.27 206.91 41.05 204.24 41.87 205.83 39.58 204.23 37.3 206.9 38.09 208.57 35.87 208.64 38.65 211.27 39.56"/><polygon class="cls-26" points="219.66 73.49 217.03 74.41 216.99 77.2 215.29 74.99 212.63 75.8 214.21 73.51 212.62 71.23 215.28 72.03 216.96 69.8 217.03 72.58 219.66 73.49"/><polygon class="cls-26" points="219.63 65 217 65.92 216.95 68.71 215.26 66.5 212.6 67.31 214.18 65.02 212.58 62.74 215.25 63.53 216.93 61.31 216.99 64.09 219.63 65"/><polygon class="cls-26" points="219.6 56.51 216.97 57.43 216.92 60.22 215.23 58 212.57 58.82 214.15 56.53 212.55 54.25 215.22 55.04 216.9 52.82 216.96 55.6 219.6 56.51"/><polygon class="cls-26" points="219.56 48.02 216.94 48.94 216.89 51.73 215.2 49.51 212.54 50.33 214.12 48.04 212.52 45.76 215.19 46.55 216.86 44.33 216.93 47.11 219.56 48.02"/><polygon class="cls-26" points="219.53 39.53 216.91 40.45 216.86 43.23 215.17 41.02 212.5 41.84 214.09 39.55 212.49 37.27 215.16 38.06 216.83 35.84 216.9 38.62 219.53 39.53"/><polygon class="cls-26" points="227.92 73.46 225.29 74.38 225.25 77.17 223.56 74.95 220.89 75.77 222.48 73.48 220.88 71.2 223.55 72 225.22 69.77 225.29 72.55 227.92 73.46"/><polygon class="cls-26" points="227.89 64.97 225.26 65.89 225.22 68.68 223.53 66.46 220.86 67.28 222.44 64.99 220.84 62.71 223.51 63.5 225.19 61.28 225.25 64.06 227.89 64.97"/><polygon class="cls-26" points="227.86 56.48 225.23 57.4 225.18 60.19 223.49 57.97 220.83 58.79 222.41 56.5 220.81 54.22 223.48 55.01 225.16 52.79 225.22 55.57 227.86 56.48"/><polygon class="cls-26" points="227.83 47.99 225.2 48.91 225.15 51.7 223.46 49.48 220.8 50.3 222.38 48.01 220.78 45.73 223.45 46.52 225.12 44.3 225.19 47.08 227.83 47.99"/><polygon class="cls-26" points="227.79 39.49 225.17 40.42 225.12 43.2 223.43 40.99 220.77 41.81 222.35 39.52 220.75 37.23 223.42 38.03 225.09 35.8 225.16 38.59 227.79 39.49"/><polygon class="cls-26" points="236.18 73.43 233.56 74.35 233.51 77.14 231.82 74.92 229.16 75.74 230.74 73.45 229.14 71.17 231.81 71.96 233.48 69.74 233.55 72.52 236.18 73.43"/><polygon class="cls-26" points="236.15 64.94 233.52 65.86 233.48 68.65 231.79 66.43 229.12 67.25 230.71 64.96 229.11 62.68 231.78 63.47 233.45 61.25 233.52 64.03 236.15 64.94"/><polygon class="cls-26" points="236.12 56.45 233.49 57.37 233.45 60.16 231.75 57.94 229.09 58.76 230.67 56.47 229.07 54.19 231.74 54.98 233.42 52.76 233.49 55.54 236.12 56.45"/><polygon class="cls-26" points="236.09 47.95 233.46 48.88 233.41 51.66 231.72 49.45 229.06 50.27 230.64 47.98 229.04 45.7 231.71 46.49 233.39 44.27 233.45 47.05 236.09 47.95"/><polygon class="cls-26" points="236.06 39.46 233.43 40.39 233.38 43.17 231.69 40.96 229.03 41.78 230.61 39.48 229.01 37.2 231.68 38 233.35 35.77 233.42 38.56 236.06 39.46"/><polygon class="cls-26" points="244.44 73.4 241.82 74.32 241.77 77.11 240.08 74.89 237.42 75.71 239 73.42 237.4 71.14 240.07 71.93 241.74 69.71 241.81 72.49 244.44 73.4"/><polygon class="cls-26" points="226.21 300.85 225.04 301.26 225.02 302.5 224.28 301.52 223.09 301.88 223.8 300.86 223.09 299.85 224.27 300.21 225.01 299.22 225.04 300.45 226.21 300.85"/><polygon class="cls-26" points="229.87 300.84 228.7 301.25 228.68 302.48 227.93 301.5 226.75 301.87 227.46 300.85 226.75 299.84 227.93 300.19 228.67 299.21 228.7 300.44 229.87 300.84"/><polygon class="cls-26" points="233.53 300.83 232.36 301.24 232.34 302.47 231.59 301.49 230.41 301.85 231.12 300.84 230.41 299.83 231.59 300.18 232.33 299.19 232.36 300.43 233.53 300.83"/><polygon class="cls-26" points="237.19 300.81 236.02 301.22 236 302.46 235.25 301.48 234.07 301.84 234.77 300.82 234.06 299.81 235.25 300.17 235.99 299.18 236.02 300.41 237.19 300.81"/><polygon class="cls-26" points="240.84 300.8 239.68 301.21 239.66 302.44 238.91 301.46 237.73 301.82 238.43 300.81 237.72 299.8 238.91 300.15 239.65 299.17 239.68 300.4 240.84 300.8"/><polygon class="cls-26" points="244.41 64.91 241.78 65.83 241.74 68.61 240.05 66.4 237.38 67.22 238.97 64.93 237.37 62.65 240.04 63.44 241.71 61.22 241.78 64 244.41 64.91"/><polygon class="cls-26" points="244.38 56.41 241.75 57.34 241.71 60.12 240.02 57.91 237.35 58.73 238.94 56.44 237.34 54.16 240 54.95 241.68 52.73 241.75 55.51 244.38 56.41"/><polygon class="cls-26" points="244.35 47.92 241.72 48.85 241.68 51.63 239.98 49.42 237.32 50.24 238.9 47.94 237.3 45.66 239.97 46.46 241.65 44.23 241.72 47.02 244.35 47.92"/><polygon class="cls-26" points="244.32 39.43 241.69 40.36 241.64 43.14 239.95 40.93 237.29 41.74 238.87 39.45 237.27 37.17 239.94 37.97 241.62 35.74 241.68 38.53 244.32 39.43"/><polygon class="cls-26" points="265.51 243.23 265.51 241.91 268.88 241.9 278.05 233.05 277.62 120 264.88 101.82 251.24 101.87 243.99 94.67 244.92 93.73 251.78 100.54 265.57 100.49 278.94 119.58 278.94 119.78 279.37 233.61 269.42 243.22 265.51 243.23"/><polygon class="cls-26" points="265.55 226.16 265.54 224.83 268.8 224.82 278.14 215.24 279.09 216.16 269.37 226.14 265.55 226.16"/><polygon class="cls-26" points="264.9 209.09 264.89 207.76 268.74 207.75 274.79 201.62 274.48 119.29 263.59 104.89 236.94 104.99 226.73 94.66 227.68 93.73 237.49 103.66 264.25 103.56 275.81 118.85 276.12 202.16 269.3 209.07 264.9 209.09"/><polygon class="cls-26" points="265.56 191.72 265.56 190.39 268.68 190.38 274.85 184.27 275.78 185.21 269.23 191.7 265.56 191.72"/><polygon class="cls-26" points="265.5 174.79 265.5 173.46 268.62 173.45 274.84 167.43 275.76 168.39 269.16 174.77 265.5 174.79"/><polygon class="cls-26" points="265.39 158 265.38 156.68 268.56 156.67 271.69 153.61 271.57 120.03 262.87 108.1 221.44 108.26 206.87 93.79 207.8 92.85 221.98 106.93 263.54 106.78 272.89 119.59 272.89 119.81 273.02 154.16 269.1 157.99 265.39 158"/><path class="cls-26" d="M47.27,119.91V115l-12,0v4.88Zm-3.14-3.79.91.65.91-.66-.35,1.07.92.65H45.39l-.34,1.07-.35-1.07H43.58l.9-.67Zm-3.81,0,.91.66.91-.67-.34,1.07.91.66H41.58l-.34,1.07-.35-1.06H39.77l.9-.66Zm-3.81,0,.92.66.9-.66L38,117.21l.91.65H37.78l-.35,1.07-.35-1.07H36l.91-.66Z" transform="translate(180.1 -0.88)"/><path class="cls-26" d="M42.64,146.05v-3a1,1,0,0,0-1-1l-10.32,0a1,1,0,0,0-1,1.05v3a1,1,0,0,0,1,1l10.32,0A1,1,0,0,0,42.64,146.05ZM39,143.36l.81.59.81-.6-.3,1,.81.58h-1l-.31.95-.31-.95h-1l.81-.59Zm-3.4,0,.81.59.81-.59-.31.95.82.59h-1l-.3,1-.32-1h-1l.81-.6Zm-3.41,0L33,144l.81-.59-.3,1,.81.59h-1l-.31,1-.31-.95h-1l.81-.59Z" transform="translate(180.1 -0.88)"/><polygon class="cls-26" points="233.25 166.24 232.35 166.53 232.36 167.48 231.8 166.72 230.9 167.01 231.45 166.24 230.89 165.48 231.79 165.77 232.35 165 232.35 165.95 233.25 166.24"/><polygon class="cls-26" points="230.89 168.63 229.99 168.93 229.99 169.87 229.43 169.11 228.53 169.41 229.09 168.64 228.53 167.87 229.43 168.16 229.98 167.4 229.99 168.34 230.89 168.63"/><polygon class="cls-26" points="230.87 163.7 229.97 164 229.97 164.94 229.41 164.18 228.51 164.48 229.07 163.71 228.51 162.94 229.41 163.23 229.96 162.47 229.97 163.41 230.87 163.7"/><polygon class="cls-26" points="233.27 171 232.37 171.29 232.37 172.24 231.81 171.47 230.91 171.77 231.47 171 230.91 170.24 231.81 170.53 232.37 169.76 232.37 170.71 233.27 171"/><polygon class="cls-26" points="233.29 175.6 232.39 175.89 232.39 176.84 231.83 176.08 230.93 176.37 231.49 175.6 230.93 174.84 231.83 175.13 232.38 174.36 232.39 175.31 233.29 175.6"/><polygon class="cls-26" points="230.91 173.36 230.01 173.66 230.01 174.61 229.45 173.84 228.55 174.14 229.1 173.37 228.54 172.61 229.45 172.9 230 172.13 230 173.07 230.91 173.36"/><path class="cls-26" d="M61.88,129l-7.42,0,0,7.42,7.42,0Zm-5.79,5.09,1-1.45-1.06-1.45,1.71.55,1.05-1.45v1.79l1.71.55-1.7.56V135l-1.05-1.45Z" transform="translate(180.1 -0.88)"/><path class="cls-26" d="M36.89,138.93l12.65.07,0-12.41-12.64-.07Zm10.87-1.49-9.3-.05-.06-9.31,9.3.06Z" transform="translate(180.1 -0.88)"/><path class="cls-26" d="M46.88,129.07l-7.42,0,0,7.42,7.43,0Zm-5.79,5.09,1-1.46-1.06-1.44,1.71.55,1-1.46v1.79l1.71.55-1.71.56V135l-1.06-1.44Z" transform="translate(180.1 -0.88)"/><polygon class="cls-26" points="265.23 141.22 265.22 139.9 268.48 139.88 272.03 136.14 272.99 137.05 269.05 141.21 265.23 141.22"/><polygon class="cls-26" points="264.87 123.95 264.87 122.63 268.4 122.62 271.32 119.22 272.33 120.09 269 123.94 264.87 123.95"/><path class="cls-26" d="M21,189l-1.86,2.57L21,194.17l-3-1-1.86,2.58V192.6l-3-1,3-1v-3.17L18,190l3-1m3.46-2.54-3.87,1.28-2.11.69-1.3-1.78-2.41-3.29v6.29l-2.1.69-3.87,1.27,3.88,1.25,2.11.67v6.29l2.39-3.31,1.29-1.79,2.1.67,3.89,1.25-2.41-3.29-1.31-1.78,1.29-1.8,2.39-3.31Z" transform="translate(180.1 -0.88)"/><path class="cls-26" d="M20.94,167.86l-1.86,2.58L21,173l-3-1-1.86,2.57v-3.17l-3-1,3-1v-3.18l1.88,2.57,3-1m3.46-2.53-3.87,1.27-2.1.7-1.31-1.79-2.41-3.29v6.29l-2.1.69-3.87,1.28,3.88,1.24,2.11.68v6.29l2.39-3.31,1.29-1.8,2.1.68,3.89,1.25L22,172.22l-1.31-1.79L22,168.64l2.39-3.31Z" transform="translate(180.1 -0.88)"/><path class="cls-26" d="M20.86,146.32,19,148.89l1.88,2.57-3-1L16,153.06v-3.17l-3-1,3-1v-3.18l1.87,2.56,3-1m3.46-2.53-3.88,1.27-2.1.69L17,144l-2.41-3.29V147l-2.1.69-3.87,1.27,3.88,1.25,2.11.67v6.29l2.39-3.3,1.29-1.8,2.1.68L24.36,154,22,150.67l-1.31-1.78,1.29-1.79,2.39-3.31Z" transform="translate(180.1 -0.88)"/><path class="cls-26" d="M20.78,124.84l-1.86,2.58L20.8,130l-3-1-1.86,2.57v-3.17l-3-1,3-1v-3.18l1.87,2.56,3-1m3.46-2.53-3.88,1.27-2.1.69L17,122.49l-2.41-3.29v6.29l-2.1.69L8.6,127.45l3.88,1.25,2.11.68v2.21l0,4.08L17,132.36l1.29-1.8,2.1.68,3.89,1.24-2.41-3.29-1.31-1.78,1.29-1.79,2.39-3.31Z" transform="translate(180.1 -0.88)"/><path class="cls-26" d="M20.7,103.6l-1.86,2.58,1.88,2.56-3-1-1.86,2.57v-3.17l-3-1,3-1V102l1.87,2.56,3-1m3.46-2.53-3.88,1.27-2.1.69-1.3-1.78L14.47,98v6.29l-2.1.69-3.87,1.28,3.88,1.24,2.11.68v2.21l0,4.08,2.39-3.31,1.29-1.8,2.1.68,3.89,1.25L21.79,108l-1.31-1.78,1.29-1.79,2.39-3.31Z" transform="translate(180.1 -0.88)"/><polygon class="cls-26" points="234.96 93.91 235.89 92.97 243.56 100.58 251.5 100.55 251.51 101.87 243.01 101.9 234.96 93.91"/><rect class="cls-26" x="75.97" y="93.5" width="1.32" height="10" transform="translate(132.84 82.61) rotate(-45.21)"/><polygon class="cls-26" points="216.25 94 217.19 93.06 227.91 103.7 237.21 103.66 237.22 104.99 227.36 105.03 216.25 94"/><polygon class="cls-26" points="206.03 245.94 206.03 245.05 245.33 244.91 249.11 241.1 248.86 175.08 249.75 175.08 250 241.46 245.7 245.79 206.03 245.94"/><path class="cls-26" d="M69.65,176l.25,66.39-4.3,4.32-39.67.15v-.89l39.3-.14L69,242l-.25-66h.89" transform="translate(180.1 -0.88)"/><polygon class="cls-26" points="205.47 232.03 205.46 231.15 243.25 231.01 246.88 227.35 246.69 175.13 247.57 175.12 247.77 227.71 243.62 231.89 205.47 232.03"/><polygon class="cls-26" points="205.19 219.06 205.19 218.18 241.13 218.04 244.66 214.49 244.51 174.93 245.39 174.93 245.54 214.85 241.5 218.93 205.19 219.06"/><polygon class="cls-26" points="205.82 205.75 205.82 204.87 238.75 205.05 242.43 201.34 242.34 175.14 243.22 175.13 243.32 201.7 239.12 205.94 205.82 205.75"/><polygon class="cls-26" points="234.65 119.72 234.65 118.39 239.25 118.37 241.96 120.64 244 120.63 244 121.95 241.48 121.96 238.78 119.7 234.65 119.72"/><polygon class="cls-26" points="234.63 114.7 234.63 113.37 238.75 113.36 241.44 111.08 252.23 111.03 252.24 112.36 241.93 112.4 239.24 114.68 234.63 114.7"/><rect class="cls-26" x="55.21" y="116.9" width="8.43" height="1.32" transform="matrix(1, 0, 0, 1, 179.59, -0.62)"/><path class="cls-26" d="M16.33,88.09l-.22-59.92L72,28l.22,59.92Zm3.77-56,.19,52,48-.18-.19-52Z" transform="translate(180.1 -0.88)"/><polygon class="cls-26" points="194.64 250.37 194.52 202.33 187.12 195.06 187.12 194.79 186.52 24.62 223.57 24.48 223.59 28.93 222.26 28.94 222.25 25.81 187.85 25.93 188.44 194.5 195.84 201.77 195.84 202.05 195.96 249.79 210.11 263.03 228.81 262.96 228.82 264.29 209.59 264.36 209.4 264.18 194.64 250.37"/><polygon class="cls-26" points="190.47 250.38 190.35 202.35 182.95 195.08 182.95 194.8 182.35 24.63 218.74 24.5 218.75 25.82 183.69 25.95 184.28 194.52 191.68 201.79 191.68 202.07 191.8 249.81 205.94 263.05 224.65 262.98 224.65 264.3 205.43 264.38 205.23 264.2 190.47 250.38"/><line class="cls-26" x1="187.99" y1="190.75" x2="193.06" y2="190.74"/><rect class="cls-26" x="7.89" y="191.13" width="5.07" height="0.99" transform="translate(179.53 -0.85) rotate(-0.17)"/><line class="cls-26" x1="187.91" y1="169.59" x2="192.98" y2="169.57"/><rect class="cls-26" x="7.81" y="169.97" width="5.08" height="0.99" transform="translate(179.6 -0.85) rotate(-0.17)"/><line class="cls-26" x1="187.83" y1="148.05" x2="192.9" y2="148.03"/><rect class="cls-26" x="7.73" y="148.42" width="5.07" height="0.99" transform="translate(179.66 -0.85) rotate(-0.17)"/><line class="cls-26" x1="187.75" y1="126.57" x2="192.82" y2="126.55"/><rect class="cls-26" x="7.65" y="126.94" width="5.07" height="0.99" transform="translate(179.72 -0.85) rotate(-0.17)"/><line class="cls-26" x1="187.67" y1="105.31" x2="192.74" y2="105.29"/><rect class="cls-26" x="7.57" y="105.68" width="5.07" height="0.99" transform="translate(179.79 -0.85) rotate(-0.17)"/><rect class="cls-26" x="28.56" y="156.65" width="9.15" height="3.16" transform="translate(371.34 123.63) rotate(89.79)"/><path class="cls-26" d="M30.91,163.48l0-10.47,4.48,0,0,10.47Zm1.29-9.16,0,7.83h1.83l0-7.82Z" transform="translate(180.1 -0.88)"/><rect class="cls-26" x="32.03" y="175.03" width="9.15" height="3.16" transform="translate(393.18 138.47) rotate(89.79)"/><path class="cls-26" d="M34.38,181.86l0-10.47,4.49,0,0,10.47Zm1.29-9.15,0,7.82h1.84l0-7.82Z" transform="translate(180.1 -0.88)"/><rect class="cls-26" x="35.46" y="193.42" width="9.15" height="3.16" transform="translate(414.98 153.36) rotate(89.79)"/><path class="cls-26" d="M37.81,200.24l0-10.47,4.48,0,0,10.48Zm1.29-9.15,0,7.82H41l0-7.82Z" transform="translate(180.1 -0.88)"/><polygon class="cls-26" points="235.48 245.38 231.55 246.67 231.57 250.81 229.12 247.47 225.2 248.76 227.61 245.41 225.17 242.07 229.11 243.33 231.53 239.98 231.54 244.11 235.48 245.38"/><polygon class="cls-26" points="235.43 231.5 231.5 232.8 231.51 236.93 229.07 233.6 225.14 234.89 227.56 231.53 225.12 228.2 229.06 229.46 231.47 226.11 231.49 230.24 235.43 231.5"/><polygon class="cls-26" points="235.38 218.51 231.45 219.8 231.47 223.94 229.02 220.6 225.09 221.9 227.51 218.54 225.07 215.21 229.01 216.47 231.43 213.11 231.44 217.25 235.38 218.51"/><polygon class="cls-26" points="235.33 205.38 231.4 206.67 231.42 210.81 228.97 207.47 225.05 208.76 227.46 205.41 225.02 202.07 228.96 203.34 231.38 199.98 231.39 204.12 235.33 205.38"/><path class="cls-26" d="M26.32,202.89l-6.56,0,0,6.56,6.56,0Zm-5.23,4.58.93-1.29-.94-1.27,1.51.48.92-1.28v1.58l1.5.48-1.5.5v1.58L22.59,207Z" transform="translate(180.1 -0.88)"/><path class="cls-26" d="M26.37,216.26l-6.56,0,0,6.56,6.56,0Zm-5.23,4.58.93-1.28-.94-1.27,1.51.48.92-1.28v1.58l1.5.48-1.5.49v1.58l-.94-1.27Z" transform="translate(180.1 -0.88)"/><path class="cls-26" d="M26.42,229.24l-6.56,0,0,6.55,6.55,0Zm-5.23,4.58.92-1.28-.93-1.28,1.51.49.92-1.29V232l1.5.49-1.5.49v1.58l-.94-1.28Z" transform="translate(180.1 -0.88)"/><path class="cls-26" d="M26.47,243.06l-6.56,0,0,6.55,6.56,0Zm-5.23,4.58.93-1.28-.94-1.28,1.51.48.92-1.28v1.58l1.5.49-1.5.49v1.58l-.94-1.28Z" transform="translate(180.1 -0.88)"/><polygon class="cls-26" points="245.48 162.9 243.72 162.89 243.74 167.7 245.5 167.71 245.48 162.9"/><polygon class="cls-26" points="246.56 167.74 248.32 167.75 248.3 162.94 246.54 162.93 246.56 167.74"/><path class="cls-26" d="M61.86,176.14v.55h8.3L70,141.93h-8.3Zm7.28-.56H62.68L62.59,143h6.46Z" transform="translate(180.1 -0.88)"/><rect class="cls-26" x="64.11" y="144.42" width="3.07" height="5.18" transform="translate(179.8 -0.75) rotate(-0.12)"/><polygon class="cls-26" points="244.49 155.2 246.2 155.2 246.18 149.41 244.47 149.41 244.49 155.2"/><rect class="cls-26" x="64.05" y="156.96" width="3.44" height="5.79" transform="matrix(1, 0, 0, 1, 179.78, -0.75)"/><polygon class="cls-26" points="243.75 168.96 243.77 173.77 245.52 173.77 245.5 168.96 243.75 168.96"/><polygon class="cls-26" points="246.59 173.81 248.34 173.82 248.32 169 246.57 169 246.59 173.81"/><rect class="cls-26" x="66.36" y="118.33" width="2.13" height="7.66" transform="translate(369.43 53.4) rotate(89.79)"/><rect class="cls-26" x="66.34" y="113.71" width="2.13" height="7.66" transform="translate(364.79 48.81) rotate(89.79)"/><rect class="cls-26" x="74.6" y="108.76" width="2.13" height="7.66" transform="translate(368.07 35.62) rotate(89.79)"/><path class="cls-26" d="M73.23,249.68l0-12.71,12.71-.05,0,12.71Zm1.28-11.39,0,10.06,10,0,0-10.06Z" transform="translate(180.1 -0.88)"/><path class="cls-26" d="M73.16,232.58l0-12.71,12.71,0,.05,12.7Zm1.28-11.39,0,10.06,10.06,0,0-10.05Z" transform="translate(180.1 -0.88)"/><path class="cls-26" d="M73.1,215.49l0-12.71,12.71-.05,0,12.71Zm1.28-11.39,0,10.06,10.06,0,0-10.06Z" transform="translate(180.1 -0.88)"/><path class="cls-26" d="M73,198.4,73,185.69l12.7-.05,0,12.71ZM74.32,187l0,10.05,10.06,0,0-10.06Z" transform="translate(180.1 -0.88)"/><path class="cls-26" d="M73,181.59l0-12.7,12.71,0,.05,12.71Zm1.28-11.39,0,10.06,10.06,0,0-10.06Z" transform="translate(180.1 -0.88)"/><path class="cls-26" d="M72.91,164.5l0-12.71,12.71,0,.05,12.71Zm1.28-11.39,0,10.06,10.06,0,0-10.06Z" transform="translate(180.1 -0.88)"/><path class="cls-26" d="M72.84,147.46l0-12.71,12.7-.05,0,12.71Zm1.29-11.39,0,10.06,10.06,0,0-10.06Z" transform="translate(180.1 -0.88)"/><path class="cls-26" d="M72.78,130.61l0-12.71,12.71-.05,0,12.71Zm1.28-11.39,0,10.06,10.06,0,0-10.06Z" transform="translate(180.1 -0.88)"/><polygon class="cls-26" points="262.79 242.41 260.4 243.19 260.41 245.71 258.92 243.68 256.53 244.47 258 242.42 256.51 240.39 258.91 241.16 260.38 239.12 260.39 241.64 262.79 242.41"/><polygon class="cls-26" points="262.73 225.31 260.33 226.1 260.35 228.62 258.86 226.59 256.46 227.37 257.94 225.33 256.45 223.3 258.85 224.07 260.32 222.02 260.33 224.54 262.73 225.31"/><polygon class="cls-26" points="262.66 208.22 260.27 209 260.28 211.52 258.79 209.49 256.4 210.28 257.87 208.24 256.38 206.21 258.78 206.97 260.26 204.93 260.26 207.45 262.66 208.22"/><polygon class="cls-26" points="262.6 191.13 260.21 191.91 260.22 194.43 258.73 192.4 256.34 193.19 257.81 191.14 256.32 189.11 258.72 189.88 260.19 187.84 260.2 190.36 262.6 191.13"/><polygon class="cls-26" points="262.54 174.32 260.14 175.11 260.15 177.63 258.67 175.6 256.27 176.38 257.75 174.34 256.26 172.31 258.66 173.08 260.13 171.04 260.14 173.55 262.54 174.32"/><polygon class="cls-26" points="262.47 157.23 260.08 158.02 260.09 160.53 258.6 158.5 256.21 159.29 257.68 157.25 256.19 155.22 258.59 155.99 260.06 153.94 260.07 156.46 262.47 157.23"/><polygon class="cls-26" points="262.41 140.19 260.02 140.97 260.02 143.49 258.54 141.46 256.15 142.25 257.62 140.21 256.13 138.17 258.53 138.94 260 136.9 260.01 139.42 262.41 140.19"/><polygon class="cls-26" points="262.35 123.33 259.95 124.12 259.96 126.64 258.47 124.61 256.08 125.39 257.56 123.35 256.07 121.32 258.46 122.09 259.94 120.05 259.95 122.56 262.35 123.33"/><polygon class="cls-26" points="201.36 320.27 198.9 320.28 196.07 324.1 198.53 324.09 201.36 320.27"/><polygon class="cls-26" points="192.44 324.11 194.9 324.1 197.73 320.29 195.27 320.3 192.44 324.11"/><polygon class="cls-26" points="204.94 320.26 202.48 320.27 199.65 324.08 202.11 324.07 204.94 320.26"/><polygon class="cls-26" points="208.64 320.25 206.18 320.26 203.35 324.07 205.81 324.06 208.64 320.25"/><polygon class="cls-26" points="212.48 320.23 210.02 320.24 207.19 324.06 209.65 324.05 212.48 320.23"/><polygon class="cls-26" points="216.4 320.22 213.94 320.23 211.1 324.04 213.57 324.03 216.4 320.22"/><polygon class="cls-26" points="209.68 327.37 211.03 326.9 211.05 325.48 211.91 326.61 213.27 326.19 212.47 327.36 213.28 328.53 211.92 328.12 211.06 329.26 211.03 327.83 209.68 327.37"/><polygon class="cls-26" points="209.7 331.71 211.04 331.24 211.06 329.82 211.93 330.95 213.29 330.53 212.48 331.7 213.3 332.87 211.94 332.46 211.08 333.6 211.04 332.17 209.7 331.71"/><polygon class="cls-26" points="209.72 336.05 211.06 335.58 211.08 334.15 211.95 335.29 213.31 334.87 212.5 336.04 213.31 337.21 211.95 336.8 211.1 337.94 211.06 336.51 209.72 336.05"/><polygon class="cls-26" points="209.73 340.39 211.07 339.92 211.1 338.5 211.96 339.63 213.32 339.21 212.51 340.38 213.33 341.55 211.97 341.14 211.11 342.28 211.08 340.85 209.73 340.39"/><polygon class="cls-26" points="209.75 344.73 211.09 344.26 211.11 342.83 211.98 343.96 213.34 343.55 212.53 344.72 213.35 345.88 211.98 345.48 211.13 346.62 211.09 345.19 209.75 344.73"/><polygon class="cls-26" points="205.46 327.39 206.8 326.92 206.83 325.49 207.69 326.62 209.05 326.21 208.24 327.38 209.06 328.54 207.7 328.14 206.84 329.27 206.81 327.85 205.46 327.39"/><polygon class="cls-26" points="205.48 331.73 206.82 331.25 206.84 329.83 207.71 330.96 209.07 330.55 208.26 331.72 209.08 332.88 207.71 332.48 206.86 333.61 206.82 332.19 205.48 331.73"/><polygon class="cls-26" points="205.49 336.07 206.84 335.59 206.86 334.17 207.72 335.3 209.09 334.88 208.28 336.06 209.09 337.22 207.73 336.81 206.87 337.95 206.84 336.53 205.49 336.07"/><polygon class="cls-26" points="205.51 340.41 206.85 339.93 206.88 338.51 207.74 339.64 209.1 339.22 208.29 340.4 209.11 341.56 207.75 341.15 206.89 342.29 206.85 340.87 205.51 340.41"/><polygon class="cls-26" points="205.53 344.75 206.87 344.27 206.89 342.85 207.76 343.98 209.12 343.56 208.31 344.74 209.13 345.9 207.76 345.49 206.91 346.63 206.87 345.21 205.53 344.75"/><polygon class="cls-26" points="201.24 327.4 202.58 326.93 202.6 325.51 203.47 326.64 204.83 326.22 204.02 327.39 204.84 328.56 203.47 328.15 202.62 329.29 202.58 327.87 201.24 327.4"/><polygon class="cls-26" points="201.25 331.74 202.6 331.27 202.62 329.85 203.49 330.98 204.85 330.56 204.04 331.73 204.85 332.9 203.49 332.49 202.63 333.63 202.6 332.21 201.25 331.74"/><polygon class="cls-26" points="201.27 336.08 202.61 335.61 202.64 334.19 203.5 335.32 204.86 334.9 204.05 336.07 204.87 337.24 203.51 336.83 202.65 337.97 202.62 336.55 201.27 336.08"/><polygon class="cls-26" points="201.29 340.42 202.63 339.95 202.65 338.53 203.52 339.66 204.88 339.24 204.07 340.41 204.89 341.58 203.52 341.17 202.67 342.31 202.63 340.88 201.29 340.42"/><polygon class="cls-26" points="201.3 344.76 202.65 344.29 202.67 342.87 203.53 344 204.9 343.58 204.09 344.75 204.9 345.92 203.54 345.51 202.68 346.65 202.65 345.22 201.3 344.76"/><polygon class="cls-26" points="197.02 327.42 198.36 326.95 198.38 325.52 199.25 326.65 200.61 326.24 199.8 327.41 200.62 328.57 199.25 328.17 198.4 329.31 198.36 327.88 197.02 327.42"/><polygon class="cls-26" points="197.03 331.76 198.38 331.29 198.4 329.86 199.26 330.99 200.62 330.58 199.81 331.75 200.63 332.91 199.27 332.51 198.41 333.64 198.38 332.22 197.03 331.76"/><polygon class="cls-26" points="197.05 336.1 198.39 335.63 198.41 334.2 199.28 335.33 200.64 334.92 199.83 336.09 200.65 337.25 199.28 336.85 198.43 337.98 198.4 336.56 197.05 336.1"/><polygon class="cls-26" points="197.06 340.44 198.41 339.96 198.43 338.54 199.3 339.67 200.66 339.26 199.85 340.43 200.66 341.59 199.3 341.19 198.44 342.32 198.41 340.9 197.06 340.44"/><polygon class="cls-26" points="197.08 344.78 198.42 344.31 198.45 342.88 199.31 344.01 200.67 343.6 199.86 344.77 200.68 345.93 199.32 345.52 198.46 346.66 198.43 345.24 197.08 344.78"/><polygon class="cls-26" points="192.79 327.44 194.14 326.96 194.16 325.54 195.03 326.67 196.39 326.25 195.58 327.43 196.39 328.59 195.03 328.18 194.18 329.32 194.14 327.9 192.79 327.44"/><polygon class="cls-26" points="192.81 331.77 194.15 331.3 194.18 329.88 195.04 331.01 196.4 330.59 195.59 331.76 196.41 332.93 195.05 332.52 194.19 333.66 194.16 332.24 192.81 331.77"/><polygon class="cls-26" points="192.83 336.11 194.17 335.64 194.19 334.22 195.06 335.35 196.42 334.93 195.61 336.1 196.43 337.27 195.06 336.86 194.21 338 194.17 336.58 192.83 336.11"/><polygon class="cls-26" points="192.84 340.45 194.19 339.98 194.21 338.56 195.07 339.69 196.43 339.27 195.63 340.44 196.44 341.61 195.08 341.2 194.22 342.34 194.19 340.92 192.84 340.45"/><polygon class="cls-26" points="192.86 344.79 194.2 344.32 194.22 342.9 195.09 344.03 196.45 343.61 195.64 344.78 196.46 345.95 195.09 345.54 194.24 346.68 194.21 345.25 192.86 344.79"/><path class="cls-26" d="M11.53,349.44l-.1-25.05,23-.09.09,25.05Zm1.36-23.6L13,348l20.11-.08L33,325.76Z" transform="translate(180.1 -0.88)"/><polygon class="cls-26" points="235.7 320.14 238.12 320.14 240.94 323.93 238.51 323.94 235.7 320.14"/><polygon class="cls-26" points="244.51 323.92 242.09 323.92 239.28 320.13 241.7 320.12 244.51 323.92"/><polygon class="cls-26" points="232.17 320.16 234.59 320.15 237.41 323.94 234.99 323.95 232.17 320.16"/><polygon class="cls-26" points="228.52 320.17 230.95 320.16 233.76 323.95 231.34 323.96 228.52 320.17"/><polygon class="cls-26" points="224.75 320.19 227.17 320.18 229.99 323.97 227.56 323.98 224.75 320.19"/><polygon class="cls-26" points="220.89 320.2 223.31 320.19 226.13 323.98 223.7 323.99 220.89 320.2"/><polygon class="cls-26" points="227.55 327.31 226.23 326.84 226.19 325.42 225.35 326.56 224.01 326.15 224.81 327.31 224.01 328.49 225.36 328.07 226.21 329.2 226.23 327.78 227.55 327.31"/><polygon class="cls-26" points="227.57 331.64 226.24 331.18 226.21 329.76 225.37 330.9 224.02 330.49 224.83 331.65 224.03 332.83 225.37 332.41 226.22 333.54 226.25 332.12 227.57 331.64"/><polygon class="cls-26" points="227.59 335.98 226.26 335.52 226.23 334.1 225.38 335.24 224.04 334.83 224.84 335.99 224.05 337.17 225.39 336.75 226.24 337.88 226.26 336.46 227.59 335.98"/><polygon class="cls-26" points="227.6 340.32 226.28 339.86 226.24 338.44 225.4 339.57 224.06 339.17 224.86 340.33 224.06 341.5 225.41 341.09 226.26 342.22 226.28 340.8 227.6 340.32"/><polygon class="cls-26" points="227.62 344.66 226.29 344.2 226.26 342.78 225.41 343.92 224.07 343.51 224.88 344.67 224.08 345.85 225.42 345.43 226.27 346.56 226.3 345.13 227.62 344.66"/><polygon class="cls-26" points="231.71 327.29 230.39 326.83 230.35 325.4 229.51 326.54 228.17 326.13 228.97 327.3 228.17 328.47 229.51 328.05 230.37 329.19 230.39 327.76 231.71 327.29"/><polygon class="cls-26" points="231.73 331.63 230.4 331.17 230.37 329.74 229.53 330.88 228.18 330.47 228.99 331.64 228.19 332.81 229.53 332.39 230.38 333.52 230.41 332.1 231.73 331.63"/><polygon class="cls-26" points="231.75 335.97 230.42 335.51 230.38 334.08 229.54 335.22 228.2 334.81 229 335.98 228.21 337.15 229.55 336.73 230.4 337.86 230.42 336.44 231.75 335.97"/><polygon class="cls-26" points="231.76 340.31 230.44 339.85 230.4 338.42 229.56 339.56 228.21 339.15 229.02 340.32 228.22 341.49 229.56 341.07 230.41 342.2 230.44 340.78 231.76 340.31"/><polygon class="cls-26" points="231.78 344.65 230.45 344.19 230.42 342.76 229.57 343.9 228.23 343.49 229.04 344.66 228.24 345.83 229.58 345.41 230.43 346.54 230.46 345.12 231.78 344.65"/><polygon class="cls-26" points="235.87 327.27 234.55 326.81 234.51 325.39 233.67 326.53 232.32 326.12 233.13 327.28 232.33 328.46 233.67 328.04 234.53 329.17 234.55 327.75 235.87 327.27"/><polygon class="cls-26" points="235.89 331.61 234.56 331.15 234.53 329.73 233.69 330.87 232.34 330.46 233.15 331.62 232.35 332.8 233.69 332.38 234.54 333.51 234.56 332.09 235.89 331.61"/><polygon class="cls-26" points="235.9 335.95 234.58 335.49 234.54 334.07 233.7 335.2 232.36 334.8 233.16 335.96 232.37 337.13 233.71 336.72 234.56 337.85 234.58 336.43 235.9 335.95"/><polygon class="cls-26" points="235.92 340.29 234.59 339.83 234.56 338.41 233.72 339.54 232.37 339.14 233.18 340.3 232.38 341.47 233.72 341.06 234.57 342.19 234.6 340.76 235.92 340.29"/><polygon class="cls-26" points="235.94 344.63 234.61 344.17 234.58 342.75 233.73 343.88 232.39 343.48 233.19 344.64 232.4 345.81 233.74 345.4 234.59 346.53 234.61 345.1 235.94 344.63"/><polygon class="cls-26" points="240.03 327.26 238.71 326.8 238.67 325.37 237.83 326.51 236.48 326.1 237.29 327.27 236.49 328.44 237.83 328.02 238.69 329.15 238.71 327.73 240.03 327.26"/><polygon class="cls-26" points="240.05 331.6 238.72 331.13 238.69 329.71 237.84 330.85 236.5 330.44 237.31 331.61 236.51 332.78 237.85 332.36 238.7 333.49 238.72 332.07 240.05 331.6"/><polygon class="cls-26" points="240.06 335.94 238.74 335.48 238.7 334.05 237.86 335.19 236.52 334.78 237.32 335.95 236.53 337.12 237.87 336.7 238.72 337.83 238.74 336.41 240.06 335.94"/><polygon class="cls-26" points="240.08 340.28 238.75 339.81 238.72 338.39 237.88 339.53 236.53 339.12 237.34 340.29 236.54 341.46 237.88 341.04 238.73 342.17 238.76 340.75 240.08 340.28"/><polygon class="cls-26" points="240.1 344.62 238.77 344.15 238.74 342.73 237.89 343.87 236.55 343.46 237.35 344.63 236.56 345.8 237.9 345.38 238.75 346.51 238.77 345.09 240.1 344.62"/><polygon class="cls-26" points="244.19 327.24 242.86 326.78 242.83 325.36 241.99 326.5 240.64 326.09 241.45 327.25 240.65 328.43 241.99 328.01 242.84 329.14 242.87 327.71 244.19 327.24"/><polygon class="cls-26" points="244.21 331.58 242.88 331.12 242.85 329.7 242 330.83 240.66 330.43 241.47 331.59 240.67 332.76 242.01 332.35 242.86 333.48 242.88 332.06 244.21 331.58"/><polygon class="cls-26" points="244.22 335.92 242.9 335.46 242.86 334.04 242.02 335.17 240.68 334.77 241.48 335.93 240.69 337.1 242.03 336.69 242.88 337.82 242.9 336.39 244.22 335.92"/><polygon class="cls-26" points="244.24 340.26 242.91 339.8 242.88 338.38 242.04 339.51 240.69 339.11 241.5 340.27 240.7 341.44 242.04 341.02 242.89 342.16 242.92 340.73 244.24 340.26"/><polygon class="cls-26" points="244.25 344.6 242.93 344.14 242.9 342.71 242.05 343.85 240.71 343.44 241.51 344.61 240.72 345.78 242.06 345.37 242.91 346.5 242.93 345.07 244.25 344.6"/><path class="cls-26" d="M42.71,349.32l-.1-25.05,22.7-.08.1,25Zm1.36-23.6.09,22.14L64,347.79l-.09-22.14Z" transform="translate(180.1 -0.88)"/><circle class="cls-26" cx="289.67" cy="269.56" r="1.71"/><circle class="cls-26" cx="206.73" cy="191.03" r="1.97"/><circle class="cls-26" cx="206.57" cy="148.2" r="1.97"/><circle class="cls-26" cx="206.65" cy="169.7" r="1.97"/><path class="cls-26" d="M26,192.43c-.32-19.86-.39-39.13-.47-59.54v-.67l.66-.12c2.4,0,8.77,0,11.57-.12l0,1.32c-2.58.08-8.18.11-10.94.12.08,20.28.15,39.35.47,59Z" transform="translate(180.1 -0.88)"/><polygon class="cls-26" points="202.44 202.94 205.98 199.37 205.95 192.25 207.28 192.25 207.31 199.91 203.38 203.87 202.44 202.94"/><rect class="cls-26" x="22.28" y="208.82" width="1.32" height="8.07" transform="translate(179.31 -0.79) rotate(-0.21)"/><rect class="cls-26" x="22.33" y="223.02" width="1.32" height="6.72" transform="translate(179.24 -0.79) rotate(-0.22)"/><rect class="cls-26" x="22.38" y="235.09" width="1.32" height="8.17" transform="translate(179.2 -0.79) rotate(-0.22)"/><rect class="cls-26" x="36.03" y="257.07" width="3.56" height="14.89" transform="translate(482.28 224.83) rotate(89.79)"/><path class="cls-26" d="M29.05,267.66l0-6.22,17.55-.07,0,6.22Zm2.64-3.58V265l12.25,0V264Z" transform="translate(180.1 -0.88)"/><path class="cls-26" d="M40.81,305.3l0-7.09,21.56-.08,0,7.09Zm1.44-5.64v4.18l18.66-.07,0-4.18Z" transform="translate(180.1 -0.88)"/><polygon class="cls-26" points="200.19 300.95 199.03 301.36 199.01 302.6 198.26 301.62 197.08 301.98 197.78 300.96 197.07 299.95 198.25 300.3 199 299.32 199.03 300.55 200.19 300.95"/><polygon class="cls-26" points="203.85 300.94 202.69 301.35 202.67 302.58 201.92 301.6 200.74 301.96 201.44 300.95 200.73 299.94 201.91 300.29 202.65 299.3 202.68 300.54 203.85 300.94"/><polygon class="cls-26" points="207.51 300.92 206.35 301.33 206.33 302.57 205.58 301.59 204.4 301.95 205.1 300.93 204.39 299.92 205.57 300.28 206.31 299.29 206.34 300.52 207.51 300.92"/><polygon class="cls-26" points="211.17 300.91 210 301.32 209.99 302.55 209.24 301.57 208.06 301.94 208.76 300.92 208.05 299.91 209.23 300.26 209.97 299.28 210 300.51 211.17 300.91"/><polygon class="cls-26" points="214.83 300.9 213.66 301.31 213.64 302.54 212.9 301.56 211.72 301.92 212.42 300.91 211.71 299.9 212.89 300.25 213.63 299.26 213.66 300.5 214.83 300.9"/><path class="cls-26" d="M14.8,305.4l0-7.09,21.56-.08,0,7.09Zm1.43-5.64,0,4.18,18.65-.07v-4.18Z" transform="translate(180.1 -0.88)"/><line class="cls-26" x1="191.58" y1="207.61" x2="178.54" y2="219.15"/><path class="cls-26" d="M-2.6,220.92a1.26,1.26,0,0,1,.07-1.86l13-11.53a1.48,1.48,0,0,1,2,.05,1.29,1.29,0,0,1-.06,1.88L-.6,221a1.48,1.48,0,0,1-2-.05Z" transform="translate(180.1 -0.88)"/><line class="cls-26" x1="191.61" y1="216.17" x2="178.57" y2="227.71"/><path class="cls-26" d="M-2.57,229.49a1.28,1.28,0,0,1,.07-1.87l13-11.53a1.49,1.49,0,0,1,2,0v0a1.27,1.27,0,0,1-.07,1.86l-13,11.53a1.48,1.48,0,0,1-2-.05Z" transform="translate(180.1 -0.88)"/><line class="cls-26" x1="191.65" y1="224.73" x2="178.6" y2="236.27"/><path class="cls-26" d="M-2.53,238.05a1.26,1.26,0,0,1,.07-1.86l13-11.54a1.48,1.48,0,0,1,2,.06h0a1.27,1.27,0,0,1-.07,1.86l-13,11.53a1.46,1.46,0,0,1-2-.05Z" transform="translate(180.1 -0.88)"/><line class="cls-26" x1="191.68" y1="233.3" x2="178.64" y2="244.83"/><path class="cls-26" d="M-2.5,246.61a1.27,1.27,0,0,1,.07-1.86l13-11.54a1.49,1.49,0,0,1,2,.06,1.26,1.26,0,0,1-.06,1.87l-13,11.54a1.49,1.49,0,0,1-2-.06Z" transform="translate(180.1 -0.88)"/><line class="cls-26" x1="191.71" y1="241.86" x2="178.67" y2="253.39"/><path class="cls-26" d="M-2.47,255.17a1.27,1.27,0,0,1,.07-1.86l13.05-11.54a1.48,1.48,0,0,1,2,.06h0a1.26,1.26,0,0,1-.07,1.86l-13,11.54a1.49,1.49,0,0,1-2-.06Z" transform="translate(180.1 -0.88)"/><line class="cls-26" x1="240.71" y1="320.15" x2="240.65" y2="303.54"/><rect class="cls-26" x="60.22" y="304.42" width="0.73" height="16.62" transform="translate(178.92 -0.65) rotate(-0.22)"/><line class="cls-26" x1="237.05" y1="320.17" x2="236.99" y2="303.55"/><rect class="cls-26" x="56.56" y="304.43" width="0.73" height="16.62" transform="translate(178.94 -0.67) rotate(-0.21)"/><line class="cls-26" x1="233.4" y1="320.18" x2="233.33" y2="303.57"/><rect class="cls-26" x="52.9" y="304.45" width="0.73" height="16.62" transform="translate(178.93 -0.68) rotate(-0.21)"/><line class="cls-26" x1="229.74" y1="320.2" x2="229.67" y2="303.58"/><rect class="cls-26" x="49.24" y="304.46" width="0.73" height="16.62" transform="translate(178.92 -0.69) rotate(-0.22)"/><line class="cls-26" x1="226.08" y1="320.21" x2="226.01" y2="303.59"/><rect class="cls-26" x="45.58" y="304.47" width="0.73" height="16.62" transform="translate(178.92 -0.7) rotate(-0.22)"/><line class="cls-26" x1="222.37" y1="320.22" x2="222.31" y2="303.61"/><rect class="cls-26" x="41.88" y="304.49" width="0.73" height="16.62" transform="translate(178.92 -0.72) rotate(-0.22)"/><line class="cls-26" x1="214.67" y1="320.25" x2="214.61" y2="303.64"/><rect class="cls-26" x="34.17" y="304.52" width="0.73" height="16.62" transform="translate(178.92 -0.75) rotate(-0.22)"/><line class="cls-26" x1="211.01" y1="320.27" x2="210.95" y2="303.65"/><rect class="cls-26" x="30.51" y="304.53" width="0.73" height="16.62" transform="translate(178.92 -0.76) rotate(-0.22)"/><line class="cls-26" x1="207.35" y1="320.28" x2="207.29" y2="303.66"/><rect class="cls-26" x="26.85" y="304.54" width="0.73" height="16.62" transform="translate(178.93 -0.78) rotate(-0.21)"/><line class="cls-26" x1="203.69" y1="320.29" x2="203.63" y2="303.68"/><rect class="cls-26" x="23.19" y="304.56" width="0.73" height="16.62" transform="translate(178.93 -0.79) rotate(-0.21)"/><line class="cls-26" x1="200.03" y1="320.31" x2="199.97" y2="303.69"/><rect class="cls-26" x="19.53" y="304.57" width="0.73" height="16.62" transform="translate(178.93 -0.8) rotate(-0.21)"/><line class="cls-26" x1="196.32" y1="320.32" x2="196.26" y2="303.7"/><rect class="cls-26" x="15.83" y="304.58" width="0.73" height="16.62" transform="translate(178.91 -0.82) rotate(-0.22)"/><line class="cls-26" x1="205.62" y1="297.87" x2="205.6" y2="292.42"/><rect class="cls-26" x="23.33" y="293.3" width="4.37" height="5.45" transform="translate(179.05 -0.79) rotate(-0.2)"/><line class="cls-26" x1="231.46" y1="297.78" x2="231.44" y2="292.33"/><rect class="cls-26" x="49.17" y="293.21" width="4.37" height="5.45" transform="translate(179 -0.69) rotate(-0.21)"/><polygon class="cls-26" points="284.71 267.73 284.08 99.59 264.16 79.82 266.03 77.94 286.73 98.48 287.36 267.72 284.71 267.73"/><polygon class="cls-26" points="280.6 95.16 280.55 80.79 260.53 60.92 261.93 59.51 282.53 79.95 282.59 95.16 280.6 95.16"/><polygon class="cls-26" points="276.49 76.21 276.44 63.83 259.74 47.26 260.67 46.32 277.76 63.28 277.81 76.2 276.49 76.21"/><polygon class="cls-26" points="273.48 60.36 273.44 50.15 257.81 34.65 258.51 33.94 274.43 49.74 274.47 60.35 273.48 60.36"/><polygon class="cls-26" points="281.68 269.59 286.98 267.72 287.07 262.11 290.48 266.57 295.85 264.92 292.66 269.54 295.89 274.14 290.5 272.54 287.13 277.02 286.99 271.41 281.68 269.59"/><path class="cls-26" d="M101.58,270.47l5.3-1.87L107,263l3.41,4.46,5.37-1.65-3.19,4.63,3.23,4.59-5.38-1.6L107,277.91l-.14-5.62-5.31-1.82m-3.9,0,3.48,1.2,4.47,1.53.12,4.73.09,3.68,2.21-2.94,2.84-3.78,4.53,1.35,3.53,1.06-2.11-3-2.72-3.87,2.69-3.89,2.09-3-3.52,1.08L110.86,266,108,262.21l-2.24-2.93-.06,3.68-.08,4.73-4.45,1.57-3.48,1.22Z" transform="translate(180.1 -0.88)"/><path class="cls-26" d="M17,8.11h-.73l-.13,13.51L69,22.13h.73l.13-13.51ZM68.28,20.67l-50.71-.49.1-10.61,50.71.49Z" transform="translate(180.1 -0.88)"/><rect class="cls-26" x="21.9" y="12.58" width="3.77" height="10" transform="translate(186.06 40.31) rotate(-89.43)"/><rect class="cls-26" x="35.08" y="12.71" width="3.77" height="10" transform="translate(198.99 53.62) rotate(-89.43)"/><rect class="cls-26" x="48.26" y="12.84" width="3.77" height="10" transform="translate(211.91 66.93) rotate(-89.43)"/><rect class="cls-26" x="21.95" y="7.55" width="3.77" height="10" transform="translate(191.14 35.38) rotate(-89.43)"/><rect class="cls-26" x="35.13" y="7.68" width="3.77" height="10" transform="translate(204.07 48.69) rotate(-89.43)"/><rect class="cls-26" x="48.32" y="7.81" width="3.77" height="10" transform="matrix(0.01, -1, 1, 0.01, 216.99, 62)"/><rect class="cls-26" x="60.31" y="12.75" width="3.77" height="10" transform="translate(223.92 78.88) rotate(-89.42)"/><rect class="cls-26" x="60.36" y="7.72" width="3.77" height="10" transform="translate(229.01 73.95) rotate(-89.43)"/><polygon class="cls-26" points="256.89 34.6 256.82 14.83 248.72 14.86 248.71 13.54 258.14 13.5 258.21 34.6 256.89 34.6"/><path class="cls-26" d="M-9.24,21.94l0-5.79,26-.09V13.4l-28.66.11,0,8.48A5.07,5.07,0,0,1-9.24,21.94Z" transform="translate(180.1 -0.88)"/><path class="cls-26" d="M5.86,279.75V277.1l-4.42,0L.94,142.46v-.63L-8.82,134l0-8.45a5.22,5.22,0,0,1-2.65.41l0,8.69v.63l9.75,7.84.5,136.68Z" transform="translate(180.1 -0.88)"/><path class="cls-26" d="M-17.42,125.78v-3.21l1.94-3.47-.37-97.67,10.76,0,0,7.74L-4.74,119l1.82,3.88v2.89Zm.65-3v2.37l13.18,0v-2.15L-5.4,119l-.37-97-9.42,0,.36,97.18Z" transform="translate(180.1 -0.88)"/><polygon class="cls-26" points="172.88 28.66 171.77 29.02 171.77 30.19 171.08 29.25 169.98 29.61 170.66 28.67 169.97 27.73 171.08 28.08 171.76 27.14 171.77 28.3 172.88 28.66"/><polygon class="cls-26" points="169.96 31.49 168.86 31.85 168.86 33.02 168.17 32.08 167.06 32.44 167.75 31.5 167.06 30.56 168.17 30.91 168.85 29.97 168.85 31.13 169.96 31.49"/><polygon class="cls-26" points="169.94 25.54 168.83 25.9 168.84 27.07 168.15 26.13 167.04 26.49 167.72 25.55 167.03 24.61 168.15 24.96 168.83 24.02 168.83 25.18 169.94 25.54"/><polygon class="cls-26" points="172.9 34.42 171.79 34.79 171.79 35.95 171.1 35.01 170 35.38 170.68 34.43 169.99 33.49 171.1 33.85 171.78 32.9 171.79 34.07 172.9 34.42"/><polygon class="cls-26" points="172.92 40.19 171.81 40.55 171.82 41.72 171.13 40.78 170.02 41.14 170.7 40.2 170.01 39.26 171.12 39.61 171.81 38.66 171.81 39.83 172.92 40.19"/><polygon class="cls-26" points="169.91 43.22 168.8 43.58 168.81 44.75 168.12 43.81 167.01 44.17 167.69 43.23 167 42.28 168.12 42.64 168.8 41.7 168.8 42.86 169.91 43.22"/><polygon class="cls-26" points="169.99 37.44 168.88 37.8 168.88 38.97 168.19 38.03 167.09 38.39 167.77 37.45 167.08 36.51 168.19 36.86 168.87 35.92 168.88 37.08 169.99 37.44"/><polygon class="cls-26" points="172.97 54.55 171.87 54.92 171.87 56.09 171.18 55.15 170.07 55.51 170.75 54.56 170.07 53.62 171.18 53.98 171.86 53.03 171.86 54.2 172.97 54.55"/><polygon class="cls-26" points="170.06 57.38 168.95 57.75 168.96 58.91 168.27 57.97 167.16 58.34 167.84 57.39 167.15 56.45 168.26 56.81 168.95 55.86 168.95 57.03 170.06 57.38"/><polygon class="cls-26" points="170.04 51.43 168.93 51.8 168.94 52.97 168.25 52.02 167.14 52.39 167.82 51.44 167.13 50.5 168.24 50.86 168.92 49.91 168.93 51.08 170.04 51.43"/><polygon class="cls-26" points="173 60.32 171.89 60.68 171.89 61.85 171.2 60.91 170.09 61.27 170.78 60.33 170.09 59.39 171.2 59.74 171.88 58.8 171.88 59.96 173 60.32"/><polygon class="cls-26" points="173.02 66.08 171.91 66.45 171.91 67.61 171.22 66.67 170.12 67.04 170.8 66.09 170.11 65.15 171.22 65.51 171.9 64.56 171.91 65.73 173.02 66.08"/><polygon class="cls-26" points="170.01 69.11 168.9 69.48 168.91 70.64 168.22 69.7 167.11 70.07 167.79 69.12 167.1 68.18 168.21 68.54 168.89 67.59 168.9 68.76 170.01 69.11"/><polygon class="cls-26" points="170.08 63.33 168.98 63.7 168.98 64.86 168.29 63.92 167.18 64.29 167.87 63.34 167.18 62.4 168.29 62.76 168.97 61.81 168.97 62.98 170.08 63.33"/><polygon class="cls-26" points="173.07 80.45 171.96 80.81 171.97 81.98 171.28 81.04 170.17 81.4 170.85 80.46 170.16 79.52 171.27 79.87 171.96 78.93 171.96 80.09 173.07 80.45"/><polygon class="cls-26" points="170.16 83.28 169.05 83.64 169.06 84.81 168.37 83.87 167.26 84.23 167.94 83.29 167.25 82.35 168.36 82.7 169.04 81.76 169.05 82.92 170.16 83.28"/><polygon class="cls-26" points="170.14 77.33 169.03 77.69 169.03 78.86 168.34 77.92 167.24 78.28 167.92 77.34 167.23 76.4 168.34 76.75 169.02 75.81 169.03 76.97 170.14 77.33"/><polygon class="cls-26" points="173.09 86.21 171.98 86.58 171.99 87.75 171.3 86.8 170.19 87.17 170.87 86.22 170.19 85.28 171.29 85.64 171.98 84.69 171.98 85.86 173.09 86.21"/><polygon class="cls-26" points="173.11 91.98 172.01 92.34 172.01 93.51 171.32 92.57 170.21 92.93 170.9 91.99 170.21 91.05 171.32 91.4 172 90.45 172 91.62 173.11 91.98"/><polygon class="cls-26" points="170.11 95.01 169 95.37 169 96.54 168.31 95.6 167.21 95.96 167.89 95.02 167.2 94.08 168.31 94.43 168.99 93.49 169 94.65 170.11 95.01"/><polygon class="cls-26" points="170.18 89.23 169.07 89.59 169.08 90.76 168.39 89.82 167.28 90.18 167.96 89.24 167.27 88.3 168.38 88.65 169.07 87.71 169.07 88.87 170.18 89.23"/><polygon class="cls-26" points="173.17 106.34 172.06 106.71 172.06 107.88 171.38 106.94 170.27 107.3 170.95 106.35 170.26 105.41 171.37 105.77 172.05 104.82 172.06 105.99 173.17 106.34"/><polygon class="cls-26" points="170.26 109.17 169.15 109.54 169.15 110.7 168.46 109.76 167.35 110.13 168.04 109.18 167.35 108.24 168.46 108.6 169.14 107.65 169.15 108.82 170.26 109.17"/><polygon class="cls-26" points="170.23 103.22 169.13 103.59 169.13 104.76 168.44 103.81 167.33 104.18 168.01 103.23 167.33 102.29 168.44 102.65 169.12 101.7 169.12 102.87 170.23 103.22"/><polygon class="cls-26" points="173.19 112.11 172.08 112.47 172.09 113.64 171.4 112.7 170.29 113.06 170.97 112.12 170.28 111.18 171.39 111.53 172.07 110.59 172.08 111.75 173.19 112.11"/><polygon class="cls-26" points="173.21 117.87 172.1 118.24 172.11 119.4 171.42 118.46 170.31 118.83 170.99 117.88 170.3 116.94 171.41 117.3 172.1 116.35 172.1 117.52 173.21 117.87"/><polygon class="cls-26" points="170.2 120.9 169.1 121.27 169.1 122.44 168.41 121.49 167.3 121.86 167.99 120.91 167.3 119.97 168.41 120.33 169.09 119.38 169.09 120.55 170.2 120.9"/><polygon class="cls-26" points="170.28 115.12 169.17 115.49 169.17 116.66 168.49 115.71 167.38 116.08 168.06 115.13 167.37 114.19 168.48 114.55 169.16 113.6 169.17 114.77 170.28 115.12"/><rect class="cls-26" x="-11.36" y="121.08" width="2.83" height="11.68" transform="translate(297.1 135.51) rotate(89.79)"/></g></g></g></g></svg>