<svg xmlns="http://www.w3.org/2000/svg" xmlns:xlink="http://www.w3.org/1999/xlink" viewBox="0 0 760.68 411.67"><defs><style>.cls-1,.cls-10,.cls-11,.cls-12,.cls-13,.cls-14,.cls-15,.cls-16,.cls-17,.cls-18,.cls-19,.cls-20,.cls-21,.cls-22,.cls-23,.cls-4,.cls-5,.cls-6,.cls-7,.cls-8,.cls-9{fill:none;}.cls-2{fill:url(#radial-gradient);}.cls-3{clip-path:url(#clip-path);}.cls-10,.cls-11,.cls-12,.cls-13,.cls-14,.cls-15,.cls-16,.cls-17,.cls-18,.cls-19,.cls-20,.cls-21,.cls-22,.cls-23,.cls-4,.cls-5,.cls-6,.cls-8,.cls-9{stroke-miterlimit:10;}.cls-4{stroke-width:0.5px;stroke:url(#linear-gradient);}.cls-5{stroke-width:0.49px;stroke:url(#linear-gradient-2);}.cls-6{stroke-width:0.47px;stroke:url(#linear-gradient-3);}.cls-7{stroke-miterlimit:10;stroke-width:0.46px;stroke:url(#linear-gradient-4);}.cls-8{stroke-width:0.45px;stroke:url(#linear-gradient-5);}.cls-9{stroke-width:0.43px;stroke:url(#linear-gradient-6);}.cls-10{stroke-width:0.42px;stroke:url(#linear-gradient-7);}.cls-11{stroke-width:0.41px;stroke:url(#linear-gradient-8);}.cls-12{stroke-width:0.39px;stroke:url(#linear-gradient-9);}.cls-13{stroke-width:0.38px;stroke:url(#linear-gradient-10);}.cls-14{stroke-width:0.37px;stroke:url(#linear-gradient-11);}.cls-15{stroke-width:0.36px;stroke:url(#linear-gradient-12);}.cls-16{stroke-width:0.34px;stroke:url(#linear-gradient-13);}.cls-17{stroke-width:0.33px;stroke:url(#linear-gradient-14);}.cls-18{stroke-width:0.32px;stroke:url(#linear-gradient-15);}.cls-19{stroke-width:0.3px;stroke:url(#linear-gradient-16);}.cls-20{stroke-width:0.29px;stroke:url(#linear-gradient-17);}.cls-21{stroke-width:0.28px;stroke:url(#linear-gradient-18);}.cls-22{stroke-width:0.26px;stroke:url(#linear-gradient-19);}.cls-23{stroke-width:0.25px;stroke:url(#linear-gradient-20);}</style><radialGradient id="radial-gradient" cx="110.92" cy="144.18" fx="-12.423091052169767" r="449.45" gradientTransform="matrix(0.98, -0.51, 0.1, 1.17, 172.92, 237.27)" gradientUnits="userSpaceOnUse"><stop offset="0.6" stop-color="#fffdfd"/><stop offset="0.66" stop-color="#fff9f9"/><stop offset="0.71" stop-color="#feeded"/><stop offset="0.76" stop-color="#fcd9da"/><stop offset="0.82" stop-color="#fabcbf"/><stop offset="0.87" stop-color="#f7989c"/><stop offset="0.92" stop-color="#f36b71"/><stop offset="0.98" stop-color="#ef373f"/><stop offset="1" stop-color="#ed1c25"/></radialGradient><clipPath id="clip-path" transform="translate(185.53)"><rect class="cls-1" width="465.54" height="351.64"/></clipPath><linearGradient id="linear-gradient" x1="117.22" y1="-367.32" x2="806.97" y2="-367.32" gradientTransform="matrix(0.91, 0.48, -0.47, 1.02, -385.58, 201.66)" gradientUnits="userSpaceOnUse"><stop offset="0" stop-color="#fff" stop-opacity="0"/><stop offset="0.15" stop-color="#fff" stop-opacity="0.18"/><stop offset="0.47" stop-color="#fff" stop-opacity="0.53"/><stop offset="0.72" stop-color="#fff" stop-opacity="0.78"/><stop offset="0.9" stop-color="#fff" stop-opacity="0.94"/><stop offset="1" stop-color="#fff"/></linearGradient><linearGradient id="linear-gradient-2" x1="119.76" y1="-357.34" x2="813.92" y2="-357.34" xlink:href="#linear-gradient"/><linearGradient id="linear-gradient-3" x1="122.28" y1="-347.27" x2="820.86" y2="-347.27" xlink:href="#linear-gradient"/><linearGradient id="linear-gradient-4" x1="124.81" y1="-337.2" x2="827.81" y2="-337.2" xlink:href="#linear-gradient"/><linearGradient id="linear-gradient-5" x1="127.34" y1="-327.13" x2="834.75" y2="-327.13" xlink:href="#linear-gradient"/><linearGradient id="linear-gradient-6" x1="129.86" y1="-317.07" x2="841.7" y2="-317.07" xlink:href="#linear-gradient"/><linearGradient id="linear-gradient-7" x1="132.39" y1="-307.02" x2="848.64" y2="-307.02" xlink:href="#linear-gradient"/><linearGradient id="linear-gradient-8" x1="134.91" y1="-296.96" x2="855.58" y2="-296.96" xlink:href="#linear-gradient"/><linearGradient id="linear-gradient-9" x1="137.44" y1="-286.91" x2="862.53" y2="-286.91" xlink:href="#linear-gradient"/><linearGradient id="linear-gradient-10" x1="139.96" y1="-276.86" x2="869.47" y2="-276.86" xlink:href="#linear-gradient"/><linearGradient id="linear-gradient-11" x1="142.49" y1="-266.81" x2="876.42" y2="-266.81" xlink:href="#linear-gradient"/><linearGradient id="linear-gradient-12" x1="145.02" y1="-256.77" x2="883.36" y2="-256.77" xlink:href="#linear-gradient"/><linearGradient id="linear-gradient-13" x1="147.55" y1="-246.73" x2="890.31" y2="-246.73" xlink:href="#linear-gradient"/><linearGradient id="linear-gradient-14" x1="150.08" y1="-236.69" x2="897.25" y2="-236.69" xlink:href="#linear-gradient"/><linearGradient id="linear-gradient-15" x1="152.61" y1="-226.66" x2="904.2" y2="-226.66" xlink:href="#linear-gradient"/><linearGradient id="linear-gradient-16" x1="155.15" y1="-216.63" x2="911.14" y2="-216.63" xlink:href="#linear-gradient"/><linearGradient id="linear-gradient-17" x1="157.69" y1="-206.61" x2="918.08" y2="-206.61" xlink:href="#linear-gradient"/><linearGradient id="linear-gradient-18" x1="160.23" y1="-196.61" x2="925.03" y2="-196.61" xlink:href="#linear-gradient"/><linearGradient id="linear-gradient-19" x1="162.78" y1="-186.69" x2="931.97" y2="-186.69" xlink:href="#linear-gradient"/><linearGradient id="linear-gradient-20" x1="165.32" y1="-177.01" x2="938.89" y2="-177.01" xlink:href="#linear-gradient"/></defs><g id="Layer_2" data-name="Layer 2"><g id="Layer_1-2" data-name="Layer 1"><rect class="cls-2" x="186.44" width="465.06" height="353"/><g class="cls-3"><path class="cls-4" d="M-169,16.94c39.63,22.3,83.27,42.38,128.84,43.9,32.32,1.08,64.63-8.81,96.87-5C120.32,63.5,178.11,98,247.11,73.4c29.76-10.6,51.36-36.68,80.38-49.11C368.57,6.7,419.16,12.85,461,25.49c29.23,8.84,45.24,27.51,58,54.07,9.42,19.67,17.59,41.5,33.45,57.25" transform="translate(185.53)"/><path class="cls-5" d="M-169.91,25.06c38.32,19.44,83,40,128.94,42.41,22.3,1.19,44.45-2.51,65.91-4.64a148,148,0,0,1,30.86-.24C117,69.43,173.94,103.24,239.93,83.92c2.08-.61,4.18-1.25,6.29-2,29.34-9.77,51.55-33.76,80.92-44.79,41.08-15.44,91.22-8.63,132.93,4.54,29.09,9.17,45.22,27.82,58.73,53.45,10.48,19.88,19.73,41.18,34.76,56.1" transform="translate(185.53)"/><path class="cls-6" d="M-170.77,33.18c37,16.57,82.73,37.69,129,40.91,22.62,1.66,44.93-1.41,65.89-4a137.13,137.13,0,0,1,30.79-.79C115.65,75.6,173.3,110.57,239,92.35c2.08-.57,4.19-1.16,6.32-1.81,28.89-9,51.7-30.84,81.46-40.48,41-13.3,90.76-5.81,132.39,7.89,28.95,9.5,45.26,28.12,59.49,52.82,11.59,20.11,21.88,40.87,36.07,55" transform="translate(185.53)"/><path class="cls-7" d="M-171.63,41.3C-135.93,55-89.16,76.53-42.51,80.72c23,2.06,45.42-.33,65.87-3.4A126.63,126.63,0,0,1,54.08,76c60.22,5.64,118.57,41.91,184,24.79,2.08-.53,4.2-1.06,6.34-1.67,28.45-8.14,51.84-27.94,82-36.17,41-11.18,90.31-3,131.86,11.25,28.82,9.82,45.38,28.39,60.26,52.19,12.72,20.33,24,40.55,37.38,53.81" transform="translate(185.53)"/><path class="cls-8" d="M-172.49,49.42C-138.1,60.25-90.28,82.29-43.28,87.35c23.27,2.5,45.91.74,65.85-2.79A117.58,117.58,0,0,1,53.22,82.7c59.72,5.07,118.79,42.53,184,26.52,2.08-.5,4.21-1,6.37-1.55,28-7.34,51.95-25,82.54-31.85C367,66.73,416,75.65,457.43,90.42c28.68,10.15,45.55,28.65,61,51.57,13.89,20.56,26.16,40.23,38.68,52.66" transform="translate(185.53)"/><path class="cls-9" d="M-173.35,57.54C-140.28,65.51-91.4,88-44,94A205.92,205.92,0,0,0,21.78,91.8a110.48,110.48,0,0,1,30.58-2.4c59.21,4.51,119,43,183.93,28.25,2.08-.47,4.22-.89,6.39-1.41,27.53-6.56,52.05-22.17,83.08-27.54,40.75-7,89.4,2.65,130.79,18,28.55,10.48,45.78,28.89,61.8,50.94,15.09,20.78,28.3,39.92,40,51.52" transform="translate(185.53)"/><path class="cls-10" d="M-174.22,65.66c31.77,5.1,81.69,28.14,129.41,34.94,23.9,3.41,46.89,2.84,65.8-1.55a103.52,103.52,0,0,1,30.51-3c58.71,4,119.18,43.63,183.88,30,2.08-.44,4.23-.81,6.42-1.28,27.06-5.8,52.13-19.33,83.62-23.22,40.6-5,88.94,5.46,130.25,21.3,28.41,10.8,46.06,29.1,62.57,50.31,16.33,21,30.44,39.6,41.3,50.37" transform="translate(185.53)"/><path class="cls-11" d="M-175.08,73.78c30.46,2.23,81.43,25.79,129.5,33.45,24.23,3.86,47.38,3.87,65.78-.94a97.13,97.13,0,0,1,30.44-3.48c58.2,3.4,119.4,44.24,183.83,31.71,2.08-.4,4.24-.72,6.44-1.14,26.59-5.06,52.2-16.51,84.16-18.91,40.45-3,88.49,8.28,129.72,24.65,28.28,11.13,46.38,29.29,63.33,49.69C535.73,210,550.71,228.09,560.73,238" transform="translate(185.53)"/><path class="cls-12" d="M-175.94,81.9c29.15-.64,81.16,23.44,129.59,32,24.55,4.32,47.87,4.89,65.76-.33a91.76,91.76,0,0,1,30.37-4c57.69,2.85,119.62,44.87,183.78,33.45,2.08-.37,4.25-.64,6.47-1,26.1-4.33,52.39-11.57,84.7-14.6,40.12-3.76,88,11.1,129.18,28,28.14,11.47,46.73,29.46,64.1,49.06,18.92,21.35,34.73,39,43.92,48.08" transform="translate(185.53)"/><path class="cls-13" d="M-176.8,90c27.84-3.51,80.9,21.1,129.68,30.47,24.87,4.77,48.36,5.89,65.74.28a86.76,86.76,0,0,1,30.3-4.56c57.19,2.31,119.83,45.49,183.73,35.18,2.08-.34,4.25-.55,6.49-.87,25.61-3.63,52.35-8.75,85.24-10.29C364.46,138.35,412,154.15,453,171.59c28,11.79,47.12,29.6,64.87,48.43,20.25,21.49,36.87,38.64,45.22,46.93" transform="translate(185.53)"/><path class="cls-14" d="M-177.66,98.14c26.52-6.37,80.63,18.75,129.78,29C-22.7,132.35,1,134,17.83,128a81.88,81.88,0,0,1,30.23-5.1c56.68,1.77,120.05,46.11,183.68,36.9,2.08-.3,4.26-.47,6.52-.73,25.12-2.93,52.38-8.21,85.78-6,39.95,2.68,87.13,16.74,128.11,34.71,27.87,12.12,47.53,29.71,65.64,47.81,21.62,21.59,39,38.32,46.53,45.78" transform="translate(185.53)"/><path class="cls-15" d="M-178.53,106.26c25.22-9.24,80.37,16.42,129.88,27.48,25.51,5.7,49.32,7.87,65.69,1.52a77.59,77.59,0,0,1,30.17-5.64c56.16,1.25,120.26,46.75,183.63,38.64,2.07-.27,4.26-.39,6.53-.6,24.63-2.26,52.45-5.51,86.32-1.67,39.79,4.52,86.68,19.56,127.58,38.06,27.74,12.45,48,29.81,66.41,47.18,23,21.68,41.16,38,47.84,44.65" transform="translate(185.53)"/><path class="cls-16" d="M-179.39,114.38c23.91-12.11,80.1,14.08,130,26,25.83,6.16,49.8,8.84,65.67,2.13a74,74,0,0,1,30.1-6.18c55.65.73,120.48,47.39,183.58,40.37,2.07-.23,4.27-.31,6.56-.46,24.13-1.6,52.51-2.83,86.86,2.65,39.63,6.32,86.22,22.37,127,41.41,27.59,12.77,48.39,29.87,67.16,46.55,24.44,21.72,43.31,37.69,49.15,43.5" transform="translate(185.53)"/><path class="cls-17" d="M-180.25,122.5c22.6-15,79.84,11.75,130.06,24.5,26.15,6.63,50.27,9.8,65.65,2.75a69.27,69.27,0,0,1,30-6.73c55.14.65,120.7,48,183.53,42.11,2.07-.2,4.27-.24,6.58-.33a354.22,354.22,0,0,1,87.4,7c39.49,8.1,85.77,25.19,126.52,44.76,27.46,13.1,48.85,29.91,67.93,45.93,25.89,21.72,45.45,37.37,50.46,42.35" transform="translate(185.53)"/><path class="cls-18" d="M-181.11,130.62c21.29-17.84,79.56,9.43,130.15,23,26.47,7.1,50.74,10.76,65.63,3.37a67.23,67.23,0,0,1,30-7.26c54.64-.31,120.92,48.67,183.48,43.83,2.07-.16,4.28-.05,6.61-.19,23.1-1.45,52.7,2.45,87.94,11.27,39.37,9.86,85.31,28,126,48.11,27.32,13.43,49.31,29.94,68.7,45.3,27.35,21.69,47.59,37.06,51.76,41.21" transform="translate(185.53)"/><path class="cls-19" d="M-182,138.74c20-20.71,79.29,7.11,130.25,21.51,26.77,7.57,51.18,11.7,65.6,4a64.39,64.39,0,0,1,29.89-7.8C97.9,155.62,164.91,205.75,227.2,202c2.07-.12,4.29,0,6.63-.06,22.65-.67,52.82,5.06,88.48,15.59,39.27,11.59,84.86,30.83,125.45,51.47,27.19,13.75,49.78,29.93,69.47,44.67,28.84,21.6,49.73,36.74,53.07,40.06" transform="translate(185.53)"/><path class="cls-20" d="M-182.83,146.86c18.66-23.58,79,4.87,130.34,20,27.08,8.09,51.63,12.64,65.58,4.59a61.73,61.73,0,0,1,29.82-8.34c53.62-1.31,121.36,50.08,183.38,47.3,2.08-.09,4.3,0,6.66.07,22.17.88,52.94,7.65,89,19.9,39.18,13.32,84.4,33.65,124.91,54.82,27.05,14.08,50.26,29.91,70.24,44,30.34,21.48,51.87,36.42,54.38,38.91" transform="translate(185.53)"/><path class="cls-21" d="M-183.7,155c17.36-26.45,78.73,2.53,130.44,18.53,27.4,8.54,52.07,13.56,65.56,5.21a59.3,59.3,0,0,1,29.75-8.88c53.12-1.72,121.58,50.7,183.33,49,2.08-.05,4.3,0,6.68.21,21.7,1.46,53.1,10.21,89.56,24.22,39.12,15,83.95,36.46,124.38,58.16,26.92,14.41,50.73,29.87,71,43.42,31.87,21.31,54,36.11,55.69,37.77" transform="translate(185.53)"/><path class="cls-22" d="M-184.56,163.1c16.05-29.32,78.47.18,130.53,17,27.72,9,52.5,14.49,65.54,5.83a56.94,56.94,0,0,1,29.68-9.42C93.8,174.29,163,227.87,224.47,227.3a64.08,64.08,0,0,1,6.7.34c21.23,2,53.28,12.77,90.11,28.53,39.07,16.72,83.49,39.28,123.84,61.52,26.78,14.73,51.2,29.8,71.77,42.79,33.41,21.09,56.16,35.79,57,36.62" transform="translate(185.53)"/><path class="cls-23" d="M-185.42,171.22c22.62-49.39,160,47.73,196.14,22,52.65-37.5,139.05,41.89,212.84,42.53,72.06.63,351.52,175.83,351.52,175.83" transform="translate(185.53)"/></g></g></g></svg>