<svg xmlns="http://www.w3.org/2000/svg" xmlns:xlink="http://www.w3.org/1999/xlink" viewBox="0 0 488.06 378.08"><defs><style>.cls-1{fill:none;}.cls-2{fill:#fff;}.cls-3{fill:url(#radial-gradient);}.cls-4{clip-path:url(#clip-path);}.cls-5{opacity:0.1;}</style><radialGradient id="radial-gradient" cx="-1884.65" cy="-1901.96" fx="-1937.155447520224" fy="-1831.2296748873405" r="437.03" gradientTransform="matrix(2, -0.44, -0.08, -2.39, 3222.15, -5135.54)" gradientUnits="userSpaceOnUse"><stop offset="0" stop-color="#fff" stop-opacity="0"/><stop offset="0.36" stop-color="#fdfeff" stop-opacity="0.01"/><stop offset="0.5" stop-color="#f6f9ff" stop-opacity="0.03"/><stop offset="0.6" stop-color="#eaf2ff" stop-opacity="0.08"/><stop offset="0.67" stop-color="#d9e7ff" stop-opacity="0.15"/><stop offset="0.74" stop-color="#c3d9ff" stop-opacity="0.23"/><stop offset="0.8" stop-color="#a8c8ff" stop-opacity="0.34"/><stop offset="0.86" stop-color="#88b3ff" stop-opacity="0.47"/><stop offset="0.91" stop-color="#629bff" stop-opacity="0.62"/><stop offset="0.95" stop-color="#3680ff" stop-opacity="0.79"/><stop offset="0.99" stop-color="#0963ff" stop-opacity="0.97"/><stop offset="1" stop-color="#015eff"/></radialGradient><clipPath id="clip-path" transform="translate(16.57)"><rect class="cls-1" y="0.1" width="470.84" height="378.08" transform="translate(470.84 378.28) rotate(180)"/></clipPath></defs><g id="Layer_2" data-name="Layer 2"><g id="Layer_1-2" data-name="Layer 1"><rect class="cls-2" x="0.65" y="0.03" width="470.84" height="376.07" transform="translate(488.71 376.13) rotate(180)"/><rect class="cls-3" x="0.65" width="470.84" height="378.08" transform="translate(488.71 378.08) rotate(180)"/><g class="cls-4"><g class="cls-5"><path class="cls-2" d="M78.29,156.17a5.19,5.19,0,0,1,2.22,0l0-5.8a5.15,5.15,0,0,1-2.21.14Z" transform="translate(16.57)"/><path class="cls-2" d="M78.65,252.79l.07,16.51h2.21l-.06-16.46A5,5,0,0,1,78.65,252.79Z" transform="translate(16.57)"/><path class="cls-2" d="M78.61,241.27a5.15,5.15,0,0,1,2.21,0l0-6.24a5.32,5.32,0,0,1-2.21.19Z" transform="translate(16.57)"/><path class="cls-2" d="M78.55,224.71a5,5,0,0,1,2.21-.17l0-6.46a5.2,5.2,0,0,1-2.21.33Z" transform="translate(16.57)"/><path class="cls-2" d="M78.48,207.29a5.37,5.37,0,0,1,2.22.14l0-6.27a5,5,0,0,1-2.21.13Z" transform="translate(16.57)"/><path class="cls-2" d="M78.42,190.43a5.15,5.15,0,0,1,2.21.11l0-6.47a5.17,5.17,0,0,1-2.21-.24Z" transform="translate(16.57)"/><path class="cls-2" d="M78.36,173.57a5.32,5.32,0,0,1,2.21-.25l0-5.86a5.35,5.35,0,0,1-2.22.07Z" transform="translate(16.57)"/><path class="cls-2" d="M80.44,139.3l0-5.6H78.21l0,5.57A5.15,5.15,0,0,1,80.44,139.3Z" transform="translate(16.57)"/><path class="cls-2" d="M38.22,150.29l.44,117h-1.8l-.44-117a.9.9,0,0,1,.9-.9h0A.9.9,0,0,1,38.22,150.29Z" transform="translate(16.57)"/><path class="cls-2" d="M41.57,150.28l.44,117h-1.8l-.44-117a.9.9,0,0,1,.9-.9h0A.9.9,0,0,1,41.57,150.28Z" transform="translate(16.57)"/><path class="cls-2" d="M34.79,150.29l.44,116.81-1.8-.22L33,150.3a.91.91,0,0,1,.9-.9h0A.89.89,0,0,1,34.79,150.29Z" transform="translate(16.57)"/><polygon class="cls-2" points="79.09 99.07 85.02 99.04 78.53 89.91 72.6 89.93 79.09 99.07"/><polygon class="cls-2" points="87.28 89.88 81.35 89.9 87.84 99.03 93.77 99.01 87.28 89.88"/><polygon class="cls-2" points="70.47 99.1 76.39 99.08 69.9 89.94 63.98 89.96 70.47 99.1"/><polygon class="cls-2" points="61.55 99.13 67.48 99.11 60.99 89.97 55.06 90 61.55 99.13"/><polygon class="cls-2" points="52.32 99.17 58.24 99.14 51.76 90.01 45.83 90.03 52.32 99.17"/><polygon class="cls-2" points="42.88 99.2 48.8 99.18 42.31 90.04 36.39 90.07 42.88 99.2"/><path class="cls-2" d="M32.57,116l0,10.56,19.39,0v-1.86h5.08v-2H52v-.46h5.08v-2H52v-.58H57v-2H52V116Zm17.27,8.88-15.56,0,0-7.25,15.57,0Z" transform="translate(16.57)"/><rect class="cls-2" x="76.31" y="77.54" width="10.61" height="10.46" transform="translate(15.22 164.17) rotate(-89.86)"/><rect class="cls-2" x="76.14" y="62.35" width="8.5" height="8.15" transform="translate(30.34 146.65) rotate(-89.86)"/><rect class="cls-2" x="76.14" y="49.38" width="5.77" height="5.53" transform="translate(43.25 131.04) rotate(-89.86)"/><rect class="cls-2" x="76.11" y="37.62" width="4.33" height="4.16" transform="translate(54.96 117.88) rotate(-89.86)"/><path class="cls-2" d="M52.75,142.56l12.65.06-.05-12.4-12.64-.07Zm10.87-1.49-9.3-.06-.06-9.31,9.3.06Z" transform="translate(16.57)"/><polygon class="cls-2" points="95.66 279.41 88.7 288.8 90.22 288.8 97.17 279.4 95.66 279.41"/><polygon class="cls-2" points="93.05 279.42 86.09 288.81 87.61 288.81 94.56 279.41 93.05 279.42"/><polygon class="cls-2" points="98.27 279.4 91.31 288.79 92.82 288.79 99.78 279.39 98.27 279.4"/><polygon class="cls-2" points="103.55 279.38 96.58 288.77 98.1 288.77 105.06 279.37 103.55 279.38"/><polygon class="cls-2" points="100.94 279.39 93.98 288.78 95.49 288.78 102.45 279.38 100.94 279.39"/><polygon class="cls-2" points="106.15 279.37 99.19 288.76 100.7 288.76 107.66 279.36 106.15 279.37"/><polygon class="cls-2" points="70.21 284.66 63.25 294.06 64.76 294.05 71.72 284.65 70.21 284.66"/><polygon class="cls-2" points="67.6 284.67 60.64 294.06 62.15 294.06 69.11 284.66 67.6 284.67"/><polygon class="cls-2" points="72.81 284.65 65.85 294.05 67.37 294.04 74.33 284.64 72.81 284.65"/><polygon class="cls-2" points="78.09 284.63 71.13 294.03 72.64 294.02 79.61 284.62 78.09 284.63"/><polygon class="cls-2" points="75.48 284.64 68.52 294.04 70.04 294.03 77 284.63 75.48 284.64"/><polygon class="cls-2" points="80.7 284.62 73.74 294.02 75.25 294.01 82.21 284.61 80.7 284.62"/><path class="cls-2" d="M61.06,266.79l-11.73.37.22,11.72,11.73-.36,0-1.18h0l48.28-.38c.26-1,.81-1.85.29-2.44L60,274.91h1.24l0-1.05,48-.22v-2.43l-48,.22,0-1.93,19.81-.12,0-1.54L61.08,268Zm-1,10.6-9.39.29-.17-9.39,9.39-.29Z" transform="translate(16.57)"/><polygon class="cls-2" points="73.85 270.78 69.97 270.9 70.04 274.78 73.92 274.65 73.85 270.78"/><polygon class="cls-2" points="59.56 281.56 59.57 278.56 53.59 278.58 53.58 281.58 59.56 281.56"/><polygon class="cls-2" points="51.86 281.58 51.87 278.58 45.89 278.6 45.88 281.6 51.86 281.58"/><polygon class="cls-2" points="53.55 285.64 59.53 285.62 59.55 282.62 53.57 282.64 53.55 285.64"/><polygon class="cls-2" points="45.87 282.67 45.85 285.67 51.83 285.65 51.85 282.65 45.87 282.67"/><polygon class="cls-2" points="38.17 282.69 38.15 285.69 44.13 285.67 44.15 282.67 38.17 282.69"/><polygon class="cls-2" points="35.98 281.1 36 278.56 31.03 278.58 31.02 281.11 35.98 281.1"/><polygon class="cls-2" points="24.75 281.13 29.72 281.11 29.73 278.58 24.76 278.6 24.75 281.13"/><polygon class="cls-2" points="31.01 281.89 30.99 285.79 35.95 285.77 35.98 281.87 31.01 281.89"/><polygon class="cls-2" points="24.74 281.91 24.72 285.81 29.69 285.79 29.71 281.89 24.74 281.91"/><polygon class="cls-2" points="62.17 188.94 62.18 186.54 68.93 193.56 68.93 195.96 62.17 188.94"/><polygon class="cls-2" points="62.27 183.55 62.28 181.15 69.04 188.17 69.03 190.56 62.27 183.55"/><polygon class="cls-2" points="62.07 194.41 62.08 192.02 68.83 199.04 68.82 201.43 62.07 194.41"/><polygon class="cls-2" points="67.32 153.81 67.33 151.41 74.09 158.43 74.08 160.82 67.32 153.81"/><polygon class="cls-2" points="67.43 148.41 67.44 146.02 74.19 153.04 74.18 155.43 67.43 148.41"/><polygon class="cls-2" points="67.22 159.28 67.23 156.89 73.98 163.91 73.97 166.3 67.22 159.28"/><path class="cls-2" d="M45.56,178.94v-.13l-.05-11.76a.34.34,0,0,1,.67,0l0,11.63,7.45,7.87h0a.34.34,0,0,1,0,.47.33.33,0,0,1-.47,0Z" transform="translate(16.57)"/><path class="cls-2" d="M57.05,180a.32.32,0,0,1-.09-.22l0-10.47-7.45-7.87h0A.33.33,0,1,1,50,161l7.64,8.06,0,10.73a.33.33,0,0,1-.33.33A.33.33,0,0,1,57.05,180Z" transform="translate(16.57)"/><polyline class="cls-2" points="76.8 296.95 92.2 276.99 103.18 276.95 103.18 276.07 91.84 276.11 76.43 296.06"/><polyline class="cls-2" points="76.11 295.4 91.51 275.45 103.84 275.4 103.85 277.61 92.53 277.65 77.13 297.61"/><polygon class="cls-2" points="86.47 296.22 86.48 297.19 29.46 297.32 29.46 296.35 86.47 296.22"/><rect class="cls-2" x="12.16" y="295.56" width="58.47" height="2.43" transform="translate(15.8 0.11) rotate(-0.15)"/><circle class="cls-2" cx="86.13" cy="296.67" r="3.49"/><circle class="cls-2" cx="26.43" cy="296.67" r="3.49"/><path class="cls-2" d="M45.1,287.93l-39.05.12.07-11.6,39-.15Zm-37.84-1,36.64-.12.05-9.41-36.63.15Z" transform="translate(16.57)"/><polygon class="cls-2" points="44.16 281.61 44.17 278.61 38.19 278.63 38.17 281.62 44.16 281.61"/><polygon class="cls-2" points="48.73 78.08 46.1 79.01 46.06 81.79 44.37 79.58 41.7 80.4 43.29 78.1 41.69 75.82 44.35 76.62 46.03 74.39 46.1 77.18 48.73 78.08"/><polygon class="cls-2" points="48.7 69.59 46.07 70.52 46.03 73.3 44.34 71.09 41.67 71.91 43.25 69.61 41.65 67.33 44.32 68.13 46 65.9 46.06 68.69 48.7 69.59"/><polygon class="cls-2" points="48.67 61.1 46.04 62.03 45.99 64.81 44.3 62.6 41.64 63.41 43.22 61.12 41.62 58.84 44.29 59.64 45.97 57.41 46.03 60.2 48.67 61.1"/><polygon class="cls-2" points="48.64 52.61 46.01 53.53 45.96 56.32 44.27 54.11 41.61 54.92 43.19 52.63 41.59 50.35 44.26 51.15 45.93 48.92 46 51.71 48.64 52.61"/><polygon class="cls-2" points="48.6 44.12 45.98 45.04 45.93 47.83 44.24 45.62 41.58 46.43 43.16 44.14 41.56 41.86 44.23 42.66 45.9 40.43 45.97 43.22 48.6 44.12"/><polygon class="cls-2" points="56.99 78.05 54.37 78.98 54.32 81.76 52.63 79.55 49.97 80.37 51.55 78.07 49.95 75.79 52.62 76.59 54.29 74.36 54.36 77.15 56.99 78.05"/><polygon class="cls-2" points="56.96 69.56 54.33 70.49 54.29 73.27 52.6 71.06 49.93 71.88 51.52 69.58 49.92 67.3 52.59 68.1 54.26 65.87 54.33 68.66 56.96 69.56"/><polygon class="cls-2" points="56.93 61.07 54.3 61.99 54.26 64.78 52.56 62.57 49.9 63.38 51.48 61.09 49.88 58.81 52.55 59.61 54.23 57.38 54.3 60.17 56.93 61.07"/><polygon class="cls-2" points="56.9 52.58 54.27 53.5 54.22 56.29 52.53 54.08 49.87 54.89 51.45 52.6 49.85 50.32 52.52 51.12 54.2 48.89 54.26 51.67 56.9 52.58"/><polygon class="cls-2" points="56.87 44.09 54.24 45.01 54.19 47.8 52.5 45.59 49.84 46.4 51.42 44.11 49.82 41.83 52.49 42.63 54.16 40.4 54.23 43.18 56.87 44.09"/><polygon class="cls-2" points="65.25 78.02 62.63 78.95 62.58 81.73 60.89 79.52 58.23 80.33 59.81 78.04 58.21 75.76 60.88 76.56 62.55 74.33 62.62 77.12 65.25 78.02"/><polygon class="cls-2" points="65.22 69.53 62.59 70.45 62.55 73.24 60.86 71.03 58.2 71.84 59.78 69.55 58.18 67.27 60.85 68.07 62.52 65.84 62.59 68.63 65.22 69.53"/><polygon class="cls-2" points="65.19 61.04 62.56 61.96 62.52 64.75 60.83 62.54 58.16 63.35 59.74 61.06 58.15 58.78 60.81 59.58 62.49 57.35 62.56 60.13 65.19 61.04"/><polygon class="cls-2" points="65.16 52.55 62.53 53.47 62.48 56.26 60.79 54.05 58.13 54.86 59.71 52.57 58.11 50.29 60.78 51.09 62.46 48.86 62.52 51.64 65.16 52.55"/><polygon class="cls-2" points="65.13 44.06 62.5 44.98 62.45 47.77 60.76 45.55 58.1 46.37 59.68 44.08 58.08 41.8 60.75 42.59 62.43 40.37 62.49 43.15 65.13 44.06"/><polygon class="cls-2" points="73.52 77.99 70.89 78.92 70.84 81.7 69.15 79.49 66.49 80.3 68.07 78.01 66.47 75.73 69.14 76.53 70.81 74.3 70.88 77.09 73.52 77.99"/><polygon class="cls-2" points="73.48 69.5 70.86 70.42 70.81 73.21 69.12 71 66.46 71.81 68.04 69.52 66.44 67.24 69.11 68.04 70.78 65.81 70.85 68.59 73.48 69.5"/><polygon class="cls-2" points="73.45 61.01 70.83 61.93 70.78 64.72 69.09 62.51 66.42 63.32 68.01 61.03 66.41 58.75 69.08 59.55 70.75 57.32 70.82 60.1 73.45 61.01"/><polygon class="cls-2" points="73.42 52.52 70.79 53.44 70.75 56.23 69.06 54.01 66.39 54.83 67.97 52.54 66.38 50.26 69.04 51.05 70.72 48.83 70.79 51.61 73.42 52.52"/><polygon class="cls-2" points="73.39 44.03 70.76 44.95 70.72 47.74 69.02 45.52 66.36 46.34 67.94 44.05 66.34 41.77 69.01 42.56 70.69 40.34 70.75 43.12 73.39 44.03"/><polygon class="cls-2" points="81.78 77.96 79.15 78.88 79.1 81.67 77.41 79.46 74.75 80.27 76.33 77.98 74.73 75.7 77.4 76.5 79.08 74.27 79.14 77.06 81.78 77.96"/><polygon class="cls-2" points="63.54 305.42 62.38 305.83 62.36 307.06 61.61 306.08 60.43 306.44 61.13 305.43 60.42 304.42 61.6 304.77 62.34 303.78 62.37 305.02 63.54 305.42"/><polygon class="cls-2" points="67.2 305.4 66.04 305.81 66.02 307.05 65.27 306.07 64.09 306.43 64.79 305.41 64.08 304.4 65.26 304.76 66 303.77 66.03 305 67.2 305.4"/><polygon class="cls-2" points="70.86 305.39 69.7 305.8 69.67 307.03 68.93 306.05 67.75 306.41 68.45 305.4 67.74 304.39 68.92 304.74 69.66 303.76 69.69 304.99 70.86 305.39"/><polygon class="cls-2" points="74.52 305.38 73.36 305.79 73.33 307.02 72.58 306.04 71.41 306.4 72.11 305.38 71.4 304.38 72.58 304.73 73.32 303.74 73.35 304.98 74.52 305.38"/><polygon class="cls-2" points="78.18 305.36 77.01 305.77 76.99 307.01 76.24 306.02 75.06 306.39 75.77 305.37 75.06 304.36 76.24 304.71 76.98 303.73 77.01 304.96 78.18 305.36"/><polygon class="cls-2" points="81.75 69.47 79.12 70.39 79.07 73.18 77.38 70.97 74.72 71.78 76.3 69.49 74.7 67.21 77.37 68 79.04 65.78 79.11 68.56 81.75 69.47"/><polygon class="cls-2" points="81.71 60.98 79.09 61.9 79.04 64.69 77.35 62.47 74.69 63.29 76.27 61 74.67 58.72 77.34 59.51 79.01 57.29 79.08 60.07 81.71 60.98"/><polygon class="cls-2" points="81.68 52.49 79.05 53.41 79.01 56.2 77.32 53.98 74.65 54.8 76.24 52.51 74.64 50.23 77.31 51.02 78.98 48.8 79.05 51.58 81.68 52.49"/><polygon class="cls-2" points="81.65 44 79.02 44.92 78.98 47.7 77.28 45.49 74.62 46.31 76.2 44.02 74.61 41.74 77.27 42.53 78.95 40.31 79.02 43.09 81.65 44"/><polygon class="cls-2" points="102.85 247.8 102.84 246.47 106.21 246.46 115.38 237.61 114.95 124.56 102.21 106.38 88.57 106.43 81.32 99.24 82.25 98.3 89.11 105.11 102.9 105.06 116.28 124.14 116.28 124.35 116.71 238.17 106.75 247.78 102.85 247.8"/><polygon class="cls-2" points="102.88 230.72 102.88 229.4 106.14 229.38 115.47 219.8 116.42 220.72 106.7 230.71 102.88 230.72"/><polygon class="cls-2" points="102.23 213.65 102.23 212.32 106.08 212.31 112.12 206.18 111.81 123.86 100.93 109.45 74.27 109.55 64.07 99.22 65.01 98.29 74.82 108.22 101.58 108.13 113.14 123.41 113.45 206.72 106.63 213.63 102.23 213.65"/><polygon class="cls-2" points="102.9 196.28 102.89 194.96 106.02 194.94 112.18 188.83 113.12 189.78 106.56 196.27 102.9 196.28"/><polygon class="cls-2" points="102.83 179.35 102.83 178.03 105.95 178.01 112.17 172 113.1 172.95 106.49 179.34 102.83 179.35"/><polygon class="cls-2" points="102.72 162.57 102.72 161.24 105.89 161.23 109.02 158.17 108.9 124.59 100.2 112.67 58.77 112.82 44.2 98.36 45.13 97.42 59.31 111.5 100.87 111.34 110.22 124.16 110.22 124.37 110.35 158.73 106.43 162.55 102.72 162.57"/><path class="cls-2" d="M48.12,123.59v-4.88l-12,0v4.88ZM45,119.8l.91.65.91-.66-.35,1.07.91.66H46.25l-.34,1.07-.35-1.07H44.44l.9-.67Zm-3.81,0,.91.66.91-.66-.35,1.06.92.66H42.44l-.34,1.06-.35-1.06H40.63l.9-.66Zm-3.81,0,.91.65.91-.66-.34,1.07.91.66H38.63l-.34,1.07-.35-1.07H36.82l.9-.67Z" transform="translate(16.57)"/><path class="cls-2" d="M43.5,149.73v-3a1,1,0,0,0-1-1l-10.31,0a1,1,0,0,0-1,1v3a1,1,0,0,0,1,1l10.32,0A1,1,0,0,0,43.5,149.73ZM39.87,147l.81.59.81-.59-.3,1,.81.59H41l-.31,1-.31-1h-1l.81-.6Zm-3.41,0,.82.59.81-.59-.31.95.81.59h-1l-.31,1-.31-1H36l.81-.59Zm-3.4,0,.81.58.81-.59-.3,1,.81.58h-1l-.31.95-.31-.95h-1l.81-.59Z" transform="translate(16.57)"/><polygon class="cls-2" points="70.58 170.8 69.69 171.09 69.69 172.04 69.13 171.28 68.23 171.57 68.78 170.81 68.22 170.04 69.13 170.33 69.68 169.56 69.68 170.51 70.58 170.8"/><polygon class="cls-2" points="68.22 173.19 67.32 173.49 67.33 174.44 66.77 173.67 65.87 173.97 66.42 173.2 65.86 172.44 66.76 172.73 67.32 171.96 67.32 172.91 68.22 173.19"/><polygon class="cls-2" points="68.2 168.26 67.3 168.56 67.31 169.51 66.75 168.74 65.85 169.04 66.4 168.27 65.84 167.51 66.74 167.8 67.3 167.03 67.3 167.98 68.2 168.26"/><polygon class="cls-2" points="70.6 175.56 69.7 175.85 69.71 176.8 69.15 176.04 68.25 176.33 68.8 175.56 68.24 174.8 69.14 175.09 69.7 174.32 69.7 175.27 70.6 175.56"/><polygon class="cls-2" points="70.62 180.16 69.72 180.46 69.72 181.4 69.17 180.64 68.27 180.94 68.82 180.17 68.26 179.4 69.16 179.69 69.72 178.92 69.72 179.87 70.62 180.16"/><polygon class="cls-2" points="68.24 177.93 67.34 178.22 67.34 179.17 66.78 178.41 65.88 178.7 66.44 177.93 65.88 177.17 66.78 177.46 67.33 176.69 67.34 177.64 68.24 177.93"/><path class="cls-2" d="M62.74,132.7l-7.42,0,0,7.42,7.42.05ZM57,137.78l1-1.45-1.06-1.44,1.71.54,1-1.45v1.79l1.71.55-1.7.56v1.79l-1.06-1.45Z" transform="translate(16.57)"/><path class="cls-2" d="M37.75,142.61l12.64.07,0-12.41L37.7,130.2Zm10.87-1.49-9.31-.05-.06-9.31,9.31.06Z" transform="translate(16.57)"/><path class="cls-2" d="M47.74,132.75l-7.42,0,0,7.42,7.42,0ZM42,137.84l1-1.45-1.06-1.45,1.7.55,1-1.45v1.79l1.7.54-1.7.56v1.8l-1.06-1.45Z" transform="translate(16.57)"/><polygon class="cls-2" points="102.56 145.78 102.56 144.46 105.81 144.45 109.36 140.7 110.32 141.61 106.39 145.77 102.56 145.78"/><polygon class="cls-2" points="102.21 128.52 102.2 127.19 105.73 127.18 108.66 123.78 109.66 124.65 106.34 128.5 102.21 128.52"/><path class="cls-2" d="M21.88,192.72,20,195.29l1.88,2.57-3-1L17,199.46v-3.17l-3-1,3-1v-3.18l1.87,2.56,3-1m3.46-2.53-3.88,1.27-2.1.69-1.3-1.78-2.41-3.29v6.29l-2.1.69L9.7,195.33l3.88,1.25,2.11.67v2.22l0,4.07,2.38-3.3,1.3-1.8,2.1.68,3.89,1.24L23,197.07l-1.31-1.78L23,193.5l2.39-3.31Z" transform="translate(16.57)"/><path class="cls-2" d="M21.8,171.55l-1.86,2.57,1.88,2.56-3-1-1.86,2.58v-3.18l-3-1,3-1V170l1.87,2.56,3-1M25.26,169l-3.88,1.28-2.1.69L18,169.19l-2.41-3.29v6.29l-2.1.69-3.87,1.28,3.88,1.24,2.11.68v2.21l0,4.08L18,179.06l1.3-1.79,2.1.67,3.89,1.25-2.41-3.29-1.31-1.79,1.29-1.79L25.26,169Z" transform="translate(16.57)"/><path class="cls-2" d="M21.72,150l-1.86,2.58,1.88,2.56-3-1-1.85,2.57v-3.17l-3-1,3-1v-3.18L18.7,151l3-1m3.46-2.53-3.88,1.27-2.1.7-1.3-1.79-2.41-3.29v6.29l-2.1.69-3.87,1.28,3.88,1.24,2.11.68v2.21l0,4.08,2.38-3.31,1.3-1.8,2.1.68,3.89,1.25-2.41-3.3-1.31-1.78,1.29-1.79,2.39-3.31Z" transform="translate(16.57)"/><path class="cls-2" d="M21.64,128.52l-1.86,2.58,1.88,2.56-3-1-1.85,2.57v-3.17l-3-1,3-1V127l1.87,2.56,3-1M25.1,126l-3.88,1.28-2.1.69-1.3-1.79-2.41-3.29v6.29l-2.1.69-3.87,1.28,3.88,1.24,2.1.68v2.21l0,4.08L17.85,136l1.3-1.79,2.1.67,3.89,1.25-2.41-3.29-1.31-1.79,1.29-1.79L25.1,126Z" transform="translate(16.57)"/><path class="cls-2" d="M21.56,107.29l-1.86,2.57,1.88,2.56-3-1L16.7,114v-3.18l-3-1,3-1v-3.17l1.87,2.56,3-1M25,104.75,21.14,106l-2.1.69-1.3-1.79-2.41-3.29v6.29l-2.1.69L9.38,109.9l3.88,1.24,2.1.68V114l0,4.08,2.38-3.31,1.3-1.79,2.1.67,3.89,1.25-2.41-3.29-1.31-1.79,1.29-1.79L25,104.75Z" transform="translate(16.57)"/><polygon class="cls-2" points="72.29 98.47 73.22 97.53 80.89 105.14 88.84 105.11 88.84 106.43 80.35 106.47 72.29 98.47"/><rect class="cls-2" x="76.83" y="97.18" width="1.32" height="10" transform="translate(-33.05 85.19) rotate(-45.21)"/><polygon class="cls-2" points="53.59 98.56 54.52 97.62 65.24 108.26 74.55 108.23 74.55 109.55 64.69 109.59 53.59 98.56"/><polygon class="cls-2" points="43.36 250.5 43.36 249.62 82.67 249.47 86.44 245.66 86.19 179.65 87.08 179.64 87.33 246.03 83.04 250.35 43.36 250.5"/><path class="cls-2" d="M70.5,179.64,70.75,246l-4.29,4.32-39.67.15v-.88l39.31-.15,3.78-3.81-.25-66h.88" transform="translate(16.57)"/><polygon class="cls-2" points="42.8 236.6 42.8 235.71 80.58 235.57 84.22 231.91 84.02 179.69 84.9 179.69 85.1 232.27 80.95 236.45 42.8 236.6"/><polygon class="cls-2" points="42.53 223.63 42.52 222.74 78.46 222.61 81.99 219.05 81.84 179.5 82.73 179.49 82.88 219.41 78.83 223.49 42.53 223.63"/><polygon class="cls-2" points="43.15 210.32 43.16 209.43 76.08 209.62 79.77 205.91 79.67 179.7 80.55 179.7 80.65 206.27 76.45 210.5 43.15 210.32"/><polygon class="cls-2" points="71.98 124.28 71.98 122.95 76.59 122.94 79.29 125.2 81.33 125.19 81.34 126.52 78.81 126.53 76.11 124.27 71.98 124.28"/><polygon class="cls-2" points="71.97 119.26 71.96 117.94 76.08 117.92 78.77 115.64 89.56 115.6 89.57 116.92 79.26 116.96 76.58 119.24 71.97 119.26"/><rect class="cls-2" x="56.07" y="120.58" width="8.43" height="1.32" transform="matrix(1, 0, 0, 1, 16.05, 0.26)"/><path class="cls-2" d="M17.19,91.77,17,31.85l55.93-.21.22,59.92Zm3.77-56,.19,52,48-.18-.19-52Z" transform="translate(16.57)"/><polygon class="cls-2" points="31.97 254.93 31.85 206.89 24.45 199.63 24.45 199.35 23.85 29.18 60.9 29.04 60.92 33.5 59.59 33.5 59.58 30.37 25.18 30.5 25.77 199.07 33.17 206.34 33.17 206.61 33.29 254.36 47.44 267.6 66.14 267.53 66.15 268.85 46.92 268.92 46.73 268.75 31.97 254.93"/><polygon class="cls-2" points="27.8 254.95 27.68 206.91 20.29 199.64 20.28 199.37 19.69 29.2 56.07 29.06 56.08 30.38 21.02 30.51 21.61 199.08 29.01 206.35 29.01 206.63 29.13 254.37 43.28 267.61 61.98 267.54 61.98 268.87 42.76 268.94 42.56 268.76 27.8 254.95"/><line class="cls-2" x1="25.32" y1="195.32" x2="30.39" y2="195.3"/><rect class="cls-2" x="8.74" y="194.81" width="5.07" height="0.99" transform="translate(16 0.03) rotate(-0.17)"/><line class="cls-2" x1="25.24" y1="174.16" x2="30.31" y2="174.14"/><rect class="cls-2" x="8.67" y="173.65" width="5.08" height="0.99" transform="translate(16.06 0.03) rotate(-0.17)"/><line class="cls-2" x1="25.16" y1="152.61" x2="30.23" y2="152.59"/><rect class="cls-2" x="8.58" y="152.11" width="5.07" height="0.99" transform="translate(16.12 0.03) rotate(-0.17)"/><line class="cls-2" x1="25.08" y1="131.13" x2="30.15" y2="131.11"/><rect class="cls-2" x="8.5" y="130.62" width="5.07" height="0.99" transform="translate(16.19 0.03) rotate(-0.17)"/><line class="cls-2" x1="25" y1="109.87" x2="30.07" y2="109.85"/><rect class="cls-2" x="8.42" y="109.36" width="5.07" height="0.99" transform="translate(16.25 0.03) rotate(-0.17)"/><rect class="cls-2" x="29.42" y="160.33" width="9.15" height="3.16" transform="translate(212.35 127.32) rotate(89.79)"/><path class="cls-2" d="M31.77,167.16l0-10.47,4.48,0,0,10.47ZM33.06,158l0,7.82h1.84l0-7.82Z" transform="translate(16.57)"/><rect class="cls-2" x="32.89" y="178.72" width="9.15" height="3.16" transform="translate(234.19 142.16) rotate(89.79)"/><path class="cls-2" d="M35.24,185.54l0-10.47,4.49,0,0,10.47Zm1.29-9.15,0,7.82H38.4l0-7.82Z" transform="translate(16.57)"/><rect class="cls-2" x="36.32" y="197.1" width="9.15" height="3.16" transform="translate(255.99 157.05) rotate(89.79)"/><path class="cls-2" d="M38.66,203.93l0-10.47,4.49,0,0,10.47Zm1.3-9.16,0,7.83h1.84l0-7.82Z" transform="translate(16.57)"/><polygon class="cls-2" points="72.81 249.94 68.88 251.23 68.9 255.37 66.46 252.03 62.53 253.32 64.95 249.97 62.5 246.63 66.44 247.9 68.86 244.54 68.88 248.68 72.81 249.94"/><polygon class="cls-2" points="72.76 236.07 68.83 237.36 68.85 241.5 66.41 238.16 62.48 239.45 64.89 236.1 62.45 232.76 66.39 234.03 68.81 230.67 68.82 234.81 72.76 236.07"/><polygon class="cls-2" points="72.71 223.07 68.78 224.37 68.8 228.5 66.36 225.17 62.43 226.46 64.85 223.1 62.4 219.77 66.34 221.03 68.76 217.68 68.77 221.81 72.71 223.07"/><polygon class="cls-2" points="72.66 209.94 68.73 211.24 68.75 215.37 66.31 212.03 62.38 213.33 64.8 209.97 62.35 206.64 66.29 207.9 68.71 204.55 68.72 208.68 72.66 209.94"/><path class="cls-2" d="M27.18,206.57l-6.56,0,0,6.55,6.55,0ZM22,211.15l.92-1.28-.93-1.28,1.5.49.93-1.29v1.58l1.51.49-1.5.49v1.58l-.93-1.28Z" transform="translate(16.57)"/><path class="cls-2" d="M27.23,220l-6.56,0,0,6.56,6.55,0ZM22,224.52l.92-1.28L22,222l1.51.48.92-1.28v1.58l1.51.48-1.5.49v1.58L23.5,224Z" transform="translate(16.57)"/><path class="cls-2" d="M27.28,232.92l-6.56,0,0,6.56,6.56,0Zm-5.23,4.58.92-1.28L22,235l1.5.48.93-1.28v1.58l1.51.48-1.5.49v1.58L23.55,237Z" transform="translate(16.57)"/><path class="cls-2" d="M27.33,246.74l-6.56,0,0,6.56,6.55,0Zm-5.23,4.58L23,250l-.93-1.28,1.51.49.92-1.28v1.58L26,250l-1.5.49v1.58l-.94-1.27Z" transform="translate(16.57)"/><polygon class="cls-2" points="82.81 167.46 81.06 167.45 81.08 172.26 82.83 172.27 82.81 167.46"/><polygon class="cls-2" points="83.9 172.3 85.65 172.31 85.63 167.5 83.88 167.49 83.9 172.3"/><path class="cls-2" d="M62.72,179.82v.55H71l-.13-34.76h-8.3Zm7.28-.55H63.54l-.09-32.55h6.46Z" transform="translate(16.57)"/><rect class="cls-2" x="64.97" y="148.11" width="3.07" height="5.18" transform="translate(16.27 0.14) rotate(-0.12)"/><polygon class="cls-2" points="81.82 159.76 83.54 159.77 83.52 153.97 81.8 153.97 81.82 159.76"/><rect class="cls-2" x="64.91" y="160.65" width="3.44" height="5.79" transform="matrix(1, 0, 0, 1, 16.24, 0.14)"/><polygon class="cls-2" points="81.08 173.52 81.1 178.33 82.86 178.34 82.83 173.53 81.08 173.52"/><polygon class="cls-2" points="83.92 178.37 85.68 178.38 85.66 173.57 83.9 173.56 83.92 178.37"/><rect class="cls-2" x="67.22" y="122.01" width="2.13" height="7.66" transform="translate(210.44 57.09) rotate(89.79)"/><rect class="cls-2" x="67.2" y="117.39" width="2.13" height="7.66" transform="translate(205.8 52.5) rotate(89.79)"/><rect class="cls-2" x="75.46" y="112.44" width="2.13" height="7.66" transform="translate(209.08 39.31) rotate(89.79)"/><path class="cls-2" d="M74.09,253.36l0-12.71,12.71-.05,0,12.71ZM75.37,242l0,10.06,10.06,0,0-10.06Z" transform="translate(16.57)"/><path class="cls-2" d="M74,236.26l0-12.7,12.71-.05,0,12.71Zm1.28-11.38,0,10.05,10.06,0,0-10.06Z" transform="translate(16.57)"/><path class="cls-2" d="M74,219.17l0-12.71,12.71,0,0,12.7Zm1.28-11.39,0,10.06,10,0,0-10.05Z" transform="translate(16.57)"/><path class="cls-2" d="M73.89,202.08l0-12.71,12.7-.05,0,12.71Zm1.29-11.39,0,10.06,10.06,0,0-10.06Z" transform="translate(16.57)"/><path class="cls-2" d="M73.83,185.28l0-12.71,12.71,0,.05,12.71Zm1.28-11.39,0,10.06,10.06,0,0-10.06Z" transform="translate(16.57)"/><path class="cls-2" d="M73.77,168.18l0-12.7,12.71,0,0,12.7Zm1.28-11.39,0,10.06,10,0,0-10.06Z" transform="translate(16.57)"/><path class="cls-2" d="M73.7,151.14l0-12.71,12.71-.05,0,12.71ZM75,139.75l0,10.06,10.06,0,0-10.06Z" transform="translate(16.57)"/><path class="cls-2" d="M73.64,134.29l0-12.71,12.71,0,0,12.71Zm1.28-11.39L75,133l10.06,0,0-10.06Z" transform="translate(16.57)"/><polygon class="cls-2" points="100.12 246.97 97.73 247.76 97.74 250.27 96.25 248.24 93.86 249.03 95.33 246.99 93.85 244.96 96.24 245.72 97.72 243.68 97.73 246.2 100.12 246.97"/><polygon class="cls-2" points="100.06 229.88 97.67 230.66 97.68 233.18 96.19 231.15 93.8 231.94 95.27 229.89 93.78 227.86 96.18 228.63 97.65 226.59 97.66 229.11 100.06 229.88"/><polygon class="cls-2" points="100 212.78 97.6 213.57 97.61 216.09 96.13 214.06 93.73 214.84 95.21 212.8 93.72 210.77 96.12 211.54 97.59 209.49 97.6 212.01 100 212.78"/><polygon class="cls-2" points="99.93 195.69 97.54 196.47 97.55 198.99 96.06 196.96 93.67 197.75 95.14 195.71 93.65 193.67 96.05 194.44 97.53 192.4 97.53 194.92 99.93 195.69"/><polygon class="cls-2" points="99.87 178.89 97.48 179.67 97.49 182.19 96 180.16 93.61 180.95 95.08 178.9 93.59 176.87 95.99 177.64 97.46 175.6 97.47 178.12 99.87 178.89"/><polygon class="cls-2" points="99.81 161.79 97.41 162.58 97.42 165.1 95.93 163.07 93.54 163.85 95.02 161.81 93.53 159.78 95.92 160.55 97.4 158.5 97.41 161.02 99.81 161.79"/><polygon class="cls-2" points="99.74 144.75 97.35 145.54 97.36 148.06 95.87 146.02 93.48 146.81 94.95 144.77 93.46 142.74 95.86 143.51 97.33 141.46 97.34 143.98 99.74 144.75"/><polygon class="cls-2" points="99.68 127.9 97.29 128.69 97.3 131.2 95.81 129.17 93.42 129.96 94.89 127.92 93.4 125.88 95.8 126.65 97.27 124.61 97.28 127.13 99.68 127.9"/><polygon class="cls-2" points="38.69 324.84 36.23 324.85 33.4 328.66 35.86 328.65 38.69 324.84"/><polygon class="cls-2" points="29.77 328.67 32.23 328.66 35.06 324.85 32.6 324.86 29.77 328.67"/><polygon class="cls-2" points="42.27 324.82 39.81 324.83 36.98 328.65 39.44 328.64 42.27 324.82"/><polygon class="cls-2" points="45.98 324.81 43.52 324.82 40.69 328.63 43.15 328.62 45.98 324.81"/><polygon class="cls-2" points="49.81 324.8 47.35 324.81 44.52 328.62 46.98 328.61 49.81 324.8"/><polygon class="cls-2" points="53.73 324.78 51.27 324.79 48.44 328.6 50.9 328.59 53.73 324.78"/><polygon class="cls-2" points="47.02 331.94 48.36 331.46 48.38 330.04 49.25 331.17 50.61 330.75 49.8 331.93 50.62 333.09 49.25 332.68 48.4 333.82 48.36 332.4 47.02 331.94"/><polygon class="cls-2" points="47.03 336.27 48.37 335.8 48.4 334.38 49.26 335.51 50.62 335.09 49.81 336.26 50.63 337.43 49.27 337.02 48.41 338.16 48.38 336.74 47.03 336.27"/><polygon class="cls-2" points="47.05 340.61 48.39 340.14 48.41 338.72 49.28 339.85 50.64 339.43 49.83 340.6 50.65 341.77 49.28 341.36 48.43 342.5 48.39 341.08 47.05 340.61"/><polygon class="cls-2" points="47.06 344.95 48.41 344.48 48.43 343.06 49.3 344.19 50.66 343.77 49.85 344.94 50.66 346.11 49.3 345.7 48.45 346.84 48.41 345.42 47.06 344.95"/><polygon class="cls-2" points="47.08 349.29 48.42 348.82 48.45 347.4 49.31 348.53 50.67 348.11 49.86 349.28 50.68 350.45 49.32 350.04 48.46 351.18 48.43 349.75 47.08 349.29"/><polygon class="cls-2" points="42.79 331.95 44.14 331.48 44.16 330.06 45.02 331.19 46.38 330.77 45.58 331.94 46.39 333.11 45.03 332.7 44.17 333.84 44.14 332.41 42.79 331.95"/><polygon class="cls-2" points="42.81 336.29 44.15 335.82 44.18 334.39 45.04 335.53 46.4 335.11 45.59 336.28 46.41 337.45 45.05 337.04 44.19 338.18 44.16 336.75 42.81 336.29"/><polygon class="cls-2" points="42.83 340.63 44.17 340.16 44.19 338.73 45.06 339.87 46.42 339.45 45.61 340.62 46.43 341.79 45.06 341.38 44.21 342.52 44.17 341.09 42.83 340.63"/><polygon class="cls-2" points="42.84 344.97 44.19 344.5 44.21 343.07 45.07 344.2 46.43 343.79 45.63 344.96 46.44 346.12 45.08 345.72 44.22 346.86 44.19 345.43 42.84 344.97"/><polygon class="cls-2" points="42.86 349.31 44.2 348.84 44.23 347.41 45.09 348.54 46.45 348.13 45.64 349.3 46.46 350.46 45.09 350.06 44.24 351.19 44.2 349.77 42.86 349.31"/><polygon class="cls-2" points="38.57 331.97 39.91 331.5 39.94 330.07 40.8 331.2 42.16 330.79 41.35 331.96 42.17 333.12 40.81 332.71 39.95 333.85 39.92 332.43 38.57 331.97"/><polygon class="cls-2" points="38.59 336.31 39.93 335.83 39.95 334.41 40.82 335.54 42.18 335.13 41.37 336.3 42.19 337.46 40.82 337.05 39.97 338.19 39.93 336.77 38.59 336.31"/><polygon class="cls-2" points="38.6 340.65 39.95 340.17 39.97 338.75 40.83 339.88 42.2 339.46 41.39 340.63 42.2 341.8 40.84 341.39 39.98 342.53 39.95 341.11 38.6 340.65"/><polygon class="cls-2" points="38.62 344.99 39.96 344.51 39.99 343.09 40.85 344.22 42.21 343.8 41.4 344.98 42.22 346.14 40.86 345.73 40 346.87 39.97 345.45 38.62 344.99"/><polygon class="cls-2" points="38.64 349.32 39.98 348.85 40 347.43 40.87 348.56 42.23 348.14 41.42 349.31 42.24 350.48 40.87 350.07 40.02 351.21 39.98 349.79 38.64 349.32"/><polygon class="cls-2" points="34.35 331.98 35.69 331.51 35.72 330.09 36.58 331.22 37.94 330.8 37.13 331.97 37.95 333.14 36.59 332.73 35.73 333.87 35.7 332.44 34.35 331.98"/><polygon class="cls-2" points="34.37 336.32 35.71 335.85 35.73 334.43 36.6 335.56 37.96 335.14 37.15 336.31 37.97 337.48 36.6 337.07 35.75 338.21 35.71 336.79 34.37 336.32"/><polygon class="cls-2" points="34.38 340.66 35.72 340.19 35.75 338.77 36.61 339.9 37.97 339.48 37.16 340.65 37.98 341.82 36.62 341.41 35.76 342.55 35.73 341.12 34.38 340.66"/><polygon class="cls-2" points="34.4 345 35.74 344.53 35.76 343.11 36.63 344.24 37.99 343.82 37.18 344.99 38 346.16 36.63 345.75 35.78 346.89 35.74 345.46 34.4 345"/><polygon class="cls-2" points="34.41 349.34 35.76 348.87 35.78 347.44 36.65 348.58 38.01 348.16 37.2 349.33 38.01 350.5 36.65 350.09 35.8 351.23 35.76 349.8 34.41 349.34"/><polygon class="cls-2" points="30.13 332 31.47 331.53 31.49 330.1 32.36 331.23 33.72 330.82 32.91 331.99 33.73 333.15 32.36 332.75 31.51 333.88 31.47 332.46 30.13 332"/><polygon class="cls-2" points="30.14 336.34 31.49 335.87 31.51 334.44 32.37 335.57 33.73 335.16 32.93 336.33 33.74 337.49 32.38 337.09 31.52 338.22 31.49 336.8 30.14 336.34"/><polygon class="cls-2" points="30.16 340.68 31.5 340.2 31.53 338.78 32.39 339.91 33.75 339.5 32.94 340.67 33.76 341.83 32.4 341.43 31.54 342.56 31.51 341.14 30.16 340.68"/><polygon class="cls-2" points="30.18 345.02 31.52 344.55 31.54 343.12 32.41 344.25 33.77 343.83 32.96 345.01 33.78 346.17 32.41 345.76 31.56 346.9 31.52 345.48 30.18 345.02"/><polygon class="cls-2" points="30.19 349.36 31.54 348.88 31.56 347.46 32.42 348.59 33.78 348.17 32.98 349.35 33.79 350.51 32.43 350.1 31.57 351.24 31.54 349.82 30.19 349.36"/><path class="cls-2" d="M12.39,353.12l-.1-25.05,23-.09.09,25Zm1.36-23.6.08,22.14L34,351.58l-.08-22.13Z" transform="translate(16.57)"/><polygon class="cls-2" points="73.03 324.71 75.45 324.7 78.27 328.49 75.85 328.5 73.03 324.71"/><polygon class="cls-2" points="81.85 328.48 79.42 328.49 76.61 324.69 79.03 324.69 81.85 328.48"/><polygon class="cls-2" points="69.5 324.72 71.93 324.71 74.74 328.5 72.32 328.51 69.5 324.72"/><polygon class="cls-2" points="65.86 324.74 68.28 324.73 71.1 328.52 68.67 328.53 65.86 324.74"/><polygon class="cls-2" points="62.08 324.75 64.5 324.74 67.32 328.53 64.9 328.54 62.08 324.75"/><polygon class="cls-2" points="58.22 324.76 60.64 324.75 63.46 328.55 61.04 328.56 58.22 324.76"/><polygon class="cls-2" points="64.89 331.87 63.56 331.41 63.53 329.98 62.68 331.12 61.34 330.71 62.15 331.88 61.35 333.05 62.69 332.63 63.54 333.76 63.56 332.34 64.89 331.87"/><polygon class="cls-2" points="64.9 336.21 63.58 335.75 63.54 334.32 62.7 335.46 61.36 335.05 62.16 336.22 61.36 337.39 62.7 336.97 63.56 338.1 63.58 336.68 64.9 336.21"/><polygon class="cls-2" points="64.92 340.55 63.59 340.08 63.56 338.66 62.72 339.8 61.37 339.39 62.18 340.56 61.38 341.73 62.72 341.31 63.57 342.44 63.6 341.02 64.92 340.55"/><polygon class="cls-2" points="64.94 344.89 63.61 344.42 63.58 343 62.73 344.14 61.39 343.73 62.19 344.9 61.4 346.07 62.74 345.65 63.59 346.78 63.61 345.36 64.94 344.89"/><polygon class="cls-2" points="64.95 349.23 63.63 348.76 63.59 347.34 62.75 348.48 61.4 348.07 62.21 349.24 61.41 350.41 62.75 349.99 63.6 351.12 63.63 349.7 64.95 349.23"/><polygon class="cls-2" points="69.05 331.85 67.72 331.39 67.69 329.97 66.84 331.11 65.5 330.7 66.3 331.86 65.51 333.04 66.85 332.62 67.7 333.75 67.72 332.32 69.05 331.85"/><polygon class="cls-2" points="69.06 336.19 67.73 335.73 67.7 334.31 66.86 335.44 65.52 335.04 66.32 336.2 65.52 337.37 66.86 336.96 67.72 338.09 67.74 336.67 69.06 336.19"/><polygon class="cls-2" points="69.08 340.53 67.75 340.07 67.72 338.65 66.88 339.78 65.53 339.38 66.34 340.54 65.54 341.71 66.88 341.3 67.73 342.43 67.75 341 69.08 340.53"/><polygon class="cls-2" points="69.09 344.87 67.77 344.41 67.73 342.99 66.89 344.12 65.55 343.72 66.35 344.88 65.56 346.05 66.9 345.63 67.75 346.77 67.77 345.34 69.09 344.87"/><polygon class="cls-2" points="69.11 349.21 67.78 348.75 67.75 347.32 66.91 348.46 65.56 348.06 66.37 349.22 65.57 350.39 66.91 349.98 67.77 351.11 67.79 349.68 69.11 349.21"/><polygon class="cls-2" points="73.2 331.84 71.88 331.38 71.84 329.95 71 331.09 69.66 330.68 70.46 331.85 69.67 333.02 71.01 332.6 71.86 333.73 71.88 332.31 73.2 331.84"/><polygon class="cls-2" points="73.22 336.18 71.89 335.71 71.86 334.29 71.02 335.43 69.67 335.02 70.48 336.19 69.68 337.36 71.02 336.94 71.88 338.07 71.9 336.65 73.22 336.18"/><polygon class="cls-2" points="73.24 340.52 71.91 340.05 71.88 338.63 71.03 339.77 69.69 339.36 70.5 340.53 69.7 341.7 71.04 341.28 71.89 342.41 71.92 340.99 73.24 340.52"/><polygon class="cls-2" points="73.25 344.86 71.93 344.39 71.89 342.97 71.05 344.11 69.71 343.7 70.51 344.87 69.72 346.04 71.06 345.62 71.91 346.75 71.93 345.33 73.25 344.86"/><polygon class="cls-2" points="73.27 349.19 71.94 348.73 71.91 347.31 71.07 348.45 69.72 348.04 70.53 349.2 69.73 350.38 71.07 349.96 71.92 351.09 71.95 349.67 73.27 349.19"/><polygon class="cls-2" points="77.36 331.82 76.04 331.36 76 329.94 75.16 331.07 73.82 330.67 74.62 331.83 73.83 333 75.17 332.59 76.02 333.72 76.04 332.29 77.36 331.82"/><polygon class="cls-2" points="77.38 336.16 76.05 335.7 76.02 334.27 75.18 335.41 73.83 335.01 74.64 336.17 73.84 337.34 75.18 336.93 76.03 338.06 76.06 336.63 77.38 336.16"/><polygon class="cls-2" points="77.4 340.5 76.07 340.04 76.04 338.62 75.19 339.75 73.85 339.35 74.66 340.51 73.86 341.68 75.2 341.26 76.05 342.4 76.07 340.97 77.4 340.5"/><polygon class="cls-2" points="77.41 344.84 76.09 344.38 76.05 342.95 75.21 344.09 73.87 343.69 74.67 344.85 73.88 346.02 75.22 345.6 76.07 346.74 76.09 345.31 77.41 344.84"/><polygon class="cls-2" points="77.43 349.18 76.1 348.72 76.07 347.29 75.23 348.43 73.88 348.02 74.69 349.19 73.89 350.36 75.23 349.94 76.08 351.07 76.11 349.65 77.43 349.18"/><polygon class="cls-2" points="81.52 331.81 80.2 331.34 80.16 329.92 79.32 331.06 77.98 330.65 78.78 331.82 77.98 332.99 79.33 332.57 80.18 333.7 80.2 332.28 81.52 331.81"/><polygon class="cls-2" points="81.54 336.14 80.21 335.68 80.18 334.26 79.34 335.4 77.99 334.99 78.8 336.16 78 337.33 79.34 336.91 80.19 338.04 80.22 336.62 81.54 336.14"/><polygon class="cls-2" points="81.56 340.49 80.23 340.02 80.2 338.6 79.35 339.74 78.01 339.33 78.81 340.5 78.02 341.67 79.36 341.25 80.21 342.38 80.23 340.96 81.56 340.49"/><polygon class="cls-2" points="81.57 344.82 80.25 344.36 80.21 342.94 79.37 344.08 78.03 343.67 78.83 344.83 78.03 346.01 79.38 345.59 80.23 346.72 80.25 345.3 81.57 344.82"/><polygon class="cls-2" points="81.59 349.16 80.26 348.7 80.23 347.28 79.39 348.42 78.04 348.01 78.85 349.17 78.05 350.35 79.39 349.93 80.24 351.06 80.27 349.64 81.59 349.16"/><path class="cls-2" d="M43.57,353l-.1-25,22.7-.09.1,25.05Zm1.36-23.6L45,351.54l19.8-.07-.09-22.14Z" transform="translate(16.57)"/><circle class="cls-2" cx="127" cy="274.12" r="1.71"/><circle class="cls-2" cx="44.06" cy="195.59" r="1.97"/><circle class="cls-2" cx="43.9" cy="152.76" r="1.97"/><circle class="cls-2" cx="43.98" cy="174.26" r="1.97"/><path class="cls-2" d="M26.83,196.12c-.32-19.86-.39-39.14-.47-59.55v-.66l.66-.13c2.4,0,8.77,0,11.56-.12l0,1.33c-2.58.08-8.17.1-10.93.11.07,20.28.15,39.36.47,59Z" transform="translate(16.57)"/><polygon class="cls-2" points="39.77 207.5 43.31 203.93 43.28 196.81 44.61 196.81 44.64 204.48 40.71 208.43 39.77 207.5"/><rect class="cls-2" x="23.14" y="212.5" width="1.32" height="8.07" transform="translate(15.77 0.09) rotate(-0.21)"/><rect class="cls-2" x="23.19" y="226.7" width="1.32" height="6.72" transform="translate(15.7 0.09) rotate(-0.22)"/><rect class="cls-2" x="23.24" y="238.77" width="1.32" height="8.17" transform="translate(15.66 0.09) rotate(-0.22)"/><rect class="cls-2" x="36.89" y="260.75" width="3.56" height="14.89" transform="translate(323.3 228.52) rotate(89.79)"/><path class="cls-2" d="M29.91,271.34l0-6.22,17.54-.06,0,6.21Zm2.64-3.58v.92l12.25-.05v-.91Z" transform="translate(16.57)"/><path class="cls-2" d="M41.67,309l0-7.09,21.57-.08,0,7.09Zm1.44-5.64v4.18l18.66-.07,0-4.18Z" transform="translate(16.57)"/><polygon class="cls-2" points="37.52 305.51 36.36 305.93 36.34 307.16 35.59 306.18 34.41 306.54 35.11 305.52 34.4 304.51 35.59 304.87 36.33 303.88 36.36 305.11 37.52 305.51"/><polygon class="cls-2" points="41.18 305.5 40.02 305.91 40 307.14 39.25 306.16 38.07 306.53 38.77 305.51 38.06 304.5 39.24 304.85 39.99 303.87 40.02 305.1 41.18 305.5"/><polygon class="cls-2" points="44.84 305.49 43.68 305.9 43.66 307.13 42.91 306.15 41.73 306.51 42.43 305.5 41.72 304.49 42.91 304.84 43.65 303.85 43.68 305.09 44.84 305.49"/><polygon class="cls-2" points="48.5 305.47 47.34 305.88 47.32 307.12 46.57 306.14 45.39 306.5 46.09 305.48 45.38 304.47 46.56 304.83 47.3 303.84 47.34 305.07 48.5 305.47"/><polygon class="cls-2" points="52.16 305.46 51 305.87 50.98 307.1 50.23 306.12 49.05 306.49 49.75 305.47 49.04 304.46 50.22 304.81 50.97 303.83 50.99 305.06 52.16 305.46"/><path class="cls-2" d="M15.66,309.08l0-7.09,21.56-.08,0,7.09Zm1.43-5.64v4.18l18.66-.07,0-4.18Z" transform="translate(16.57)"/><line class="cls-2" x1="28.91" y1="212.17" x2="15.87" y2="223.71"/><path class="cls-2" d="M-1.75,224.61a1.28,1.28,0,0,1,.07-1.87l13.05-11.53a1.46,1.46,0,0,1,2,.06,1.26,1.26,0,0,1-.06,1.87l-13,11.53a1.46,1.46,0,0,1-2,0Z" transform="translate(16.57)"/><line class="cls-2" x1="28.95" y1="220.74" x2="15.9" y2="232.27"/><path class="cls-2" d="M-1.71,233.17a1.27,1.27,0,0,1,.07-1.86l13-11.54a1.49,1.49,0,0,1,2,.06h0a1.27,1.27,0,0,1-.07,1.86L.3,233.23a1.48,1.48,0,0,1-2,0Z" transform="translate(16.57)"/><line class="cls-2" x1="28.98" y1="229.3" x2="15.94" y2="240.83"/><path class="cls-2" d="M-1.68,241.73a1.27,1.27,0,0,1,.07-1.86l13.05-11.54a1.48,1.48,0,0,1,2,.06h0a1.26,1.26,0,0,1-.07,1.86L.33,241.8a1.49,1.49,0,0,1-2-.06Z" transform="translate(16.57)"/><line class="cls-2" x1="29.01" y1="237.86" x2="15.97" y2="249.39"/><path class="cls-2" d="M-1.64,250.29a1.26,1.26,0,0,1,.07-1.86l13-11.54a1.49,1.49,0,0,1,2,.06,1.27,1.27,0,0,1-.06,1.87l-13,11.54a1.48,1.48,0,0,1-2-.06Z" transform="translate(16.57)"/><line class="cls-2" x1="29.05" y1="246.42" x2="16" y2="257.96"/><path class="cls-2" d="M-1.61,258.85A1.27,1.27,0,0,1-1.54,257l13.05-11.53a1.46,1.46,0,0,1,2,0h0a1.27,1.27,0,0,1-.07,1.87L.4,258.92a1.49,1.49,0,0,1-2-.05Z" transform="translate(16.57)"/><line class="cls-2" x1="78.05" y1="324.72" x2="77.99" y2="308.1"/><rect class="cls-2" x="61.08" y="308.1" width="0.73" height="16.62" transform="translate(15.38 0.23) rotate(-0.22)"/><line class="cls-2" x1="74.39" y1="324.73" x2="74.33" y2="308.11"/><rect class="cls-2" x="57.42" y="308.11" width="0.73" height="16.62" transform="translate(15.4 0.22) rotate(-0.21)"/><line class="cls-2" x1="70.73" y1="324.75" x2="70.67" y2="308.13"/><rect class="cls-2" x="53.76" y="308.13" width="0.73" height="16.62" transform="translate(15.39 0.2) rotate(-0.21)"/><line class="cls-2" x1="67.07" y1="324.76" x2="67.01" y2="308.14"/><rect class="cls-2" x="50.1" y="308.14" width="0.73" height="16.62" transform="translate(15.38 0.19) rotate(-0.22)"/><line class="cls-2" x1="63.41" y1="324.77" x2="63.35" y2="308.16"/><rect class="cls-2" x="46.44" y="308.16" width="0.73" height="16.62" transform="translate(15.38 0.18) rotate(-0.22)"/><line class="cls-2" x1="59.7" y1="324.79" x2="59.64" y2="308.17"/><rect class="cls-2" x="42.73" y="308.17" width="0.73" height="16.62" transform="translate(15.38 0.17) rotate(-0.22)"/><line class="cls-2" x1="52" y1="324.82" x2="51.94" y2="308.2"/><rect class="cls-2" x="35.03" y="308.2" width="0.73" height="16.62" transform="translate(15.38 0.14) rotate(-0.22)"/><line class="cls-2" x1="48.34" y1="324.83" x2="48.28" y2="308.21"/><rect class="cls-2" x="31.37" y="308.21" width="0.73" height="16.62" transform="translate(15.38 0.12) rotate(-0.22)"/><line class="cls-2" x1="44.68" y1="324.84" x2="44.62" y2="308.23"/><rect class="cls-2" x="27.71" y="308.23" width="0.73" height="16.62" transform="translate(15.4 0.11) rotate(-0.21)"/><line class="cls-2" x1="41.02" y1="324.86" x2="40.96" y2="308.24"/><rect class="cls-2" x="24.05" y="308.24" width="0.73" height="16.62" transform="translate(15.39 0.09) rotate(-0.21)"/><line class="cls-2" x1="37.36" y1="324.87" x2="37.3" y2="308.25"/><rect class="cls-2" x="20.39" y="308.25" width="0.73" height="16.62" transform="translate(15.39 0.08) rotate(-0.21)"/><line class="cls-2" x1="33.66" y1="324.88" x2="33.59" y2="308.27"/><rect class="cls-2" x="16.69" y="308.27" width="0.73" height="16.62" transform="translate(15.38 0.07) rotate(-0.22)"/><line class="cls-2" x1="42.95" y1="302.44" x2="42.93" y2="296.99"/><rect class="cls-2" x="24.19" y="296.99" width="4.37" height="5.45" transform="translate(15.51 0.1) rotate(-0.2)"/><line class="cls-2" x1="68.79" y1="302.34" x2="68.77" y2="296.89"/><rect class="cls-2" x="50.02" y="296.89" width="4.37" height="5.45" transform="translate(15.46 0.2) rotate(-0.21)"/><polygon class="cls-2" points="122.05 272.29 121.42 104.15 101.49 84.38 103.36 82.5 124.06 103.05 124.7 272.28 122.05 272.29"/><polygon class="cls-2" points="117.94 99.73 117.88 85.35 97.86 65.48 99.26 64.07 119.87 84.52 119.92 99.72 117.94 99.73"/><polygon class="cls-2" points="113.82 80.77 113.77 68.4 97.07 51.82 98 50.88 115.09 67.84 115.14 80.77 113.82 80.77"/><polygon class="cls-2" points="110.81 64.92 110.77 54.72 95.15 39.21 95.85 38.5 111.77 54.3 111.8 64.92 110.81 64.92"/><polygon class="cls-2" points="119.01 274.15 124.31 272.29 124.41 266.67 127.81 271.13 133.19 269.49 129.99 274.11 133.22 278.71 127.84 277.1 124.46 281.59 124.33 275.97 119.01 274.15"/><path class="cls-2" d="M102.44,274.15l5.3-1.87.09-5.61,3.41,4.46,5.37-1.64-3.19,4.62,3.23,4.6-5.39-1.61-3.37,4.49-.14-5.62-5.31-1.82m-3.9,0,3.48,1.2,4.47,1.54.12,4.72.08,3.68,2.22-2.94,2.84-3.78,4.53,1.35,3.53,1.06-2.12-3L115,274.1l2.69-3.89,2.09-3-3.52,1.08-4.52,1.39-2.87-3.76L106.61,263l-.06,3.69-.08,4.72L102,272.94l-3.47,1.22Z" transform="translate(16.57)"/><path class="cls-2" d="M17.82,11.79H17.1L17,25.3l52.87.51h.73l.13-13.51ZM69.13,24.35l-50.7-.49.1-10.61,50.71.49Z" transform="translate(16.57)"/><rect class="cls-2" x="22.76" y="16.27" width="3.77" height="10" transform="translate(19.71 45.69) rotate(-89.43)"/><rect class="cls-2" x="35.94" y="16.39" width="3.77" height="10" transform="translate(32.63 59) rotate(-89.43)"/><rect class="cls-2" x="49.12" y="16.52" width="3.77" height="10" transform="translate(45.55 72.31) rotate(-89.43)"/><rect class="cls-2" x="22.81" y="11.24" width="3.77" height="10" transform="translate(24.79 40.76) rotate(-89.43)"/><rect class="cls-2" x="35.99" y="11.36" width="3.77" height="10" transform="translate(37.71 54.07) rotate(-89.43)"/><rect class="cls-2" x="49.17" y="11.49" width="3.77" height="10" transform="matrix(0.01, -1, 1, 0.01, 50.63, 67.38)"/><rect class="cls-2" x="61.17" y="16.43" width="3.77" height="10" transform="translate(57.56 84.27) rotate(-89.42)"/><rect class="cls-2" x="61.22" y="11.4" width="3.77" height="10" transform="translate(62.65 79.34) rotate(-89.43)"/><polygon class="cls-2" points="94.22 39.16 94.15 19.4 86.05 19.43 86.04 18.1 95.47 18.07 95.55 39.16 94.22 39.16"/><path class="cls-2" d="M-8.38,25.62l0-5.78,26-.1V17.09l-28.65.1,0,8.48A5.18,5.18,0,0,1-8.38,25.62Z" transform="translate(16.57)"/><path class="cls-2" d="M6.72,283.43v-2.65l-4.42,0-.5-134.66v-.63L-8,137.67l0-8.46a5.12,5.12,0,0,1-2.65.41l0,8.69v.63l9.75,7.85.5,136.67Z" transform="translate(16.57)"/><path class="cls-2" d="M-16.56,129.46v-3.21l1.94-3.46L-15,25.11l10.75,0,0,7.74.34,89.83,1.82,3.88v2.89Zm.65-3v2.38l13.18-.05v-2.16l-1.81-3.87-.37-97-9.42,0L-14,123Z" transform="translate(16.57)"/><polygon class="cls-2" points="10.21 33.22 9.1 33.59 9.11 34.75 8.42 33.81 7.31 34.18 7.99 33.23 7.3 32.29 8.41 32.65 9.09 31.7 9.1 32.87 10.21 33.22"/><polygon class="cls-2" points="7.3 36.05 6.19 36.42 6.19 37.58 5.5 36.64 4.4 37.01 5.08 36.06 4.39 35.12 5.5 35.48 6.18 34.53 6.19 35.7 7.3 36.05"/><polygon class="cls-2" points="7.28 30.1 6.17 30.47 6.17 31.63 5.48 30.69 4.37 31.06 5.06 30.11 4.37 29.17 5.48 29.53 6.16 28.58 6.16 29.75 7.28 30.1"/><polygon class="cls-2" points="10.23 38.99 9.12 39.35 9.13 40.52 8.44 39.58 7.33 39.94 8.01 38.99 7.32 38.05 8.43 38.41 9.12 37.46 9.12 38.63 10.23 38.99"/><polygon class="cls-2" points="10.25 44.75 9.14 45.12 9.15 46.28 8.46 45.34 7.35 45.71 8.03 44.76 7.34 43.82 8.46 44.17 9.14 43.23 9.14 44.4 10.25 44.75"/><polygon class="cls-2" points="7.25 47.78 6.14 48.15 6.14 49.31 5.45 48.37 4.34 48.74 5.03 47.79 4.34 46.85 5.45 47.2 6.13 46.26 6.13 47.42 7.25 47.78"/><polygon class="cls-2" points="7.32 42 6.21 42.37 6.22 43.53 5.53 42.59 4.42 42.96 5.1 42.01 4.41 41.07 5.52 41.42 6.21 40.48 6.21 41.65 7.32 42"/><polygon class="cls-2" points="10.31 59.12 9.2 59.48 9.2 60.65 8.51 59.71 7.41 60.07 8.09 59.13 7.4 58.19 8.51 58.54 9.19 57.59 9.2 58.76 10.31 59.12"/><polygon class="cls-2" points="7.39 61.95 6.29 62.31 6.29 63.48 5.6 62.54 4.49 62.9 5.18 61.96 4.49 61.02 5.6 61.37 6.28 60.42 6.28 61.59 7.39 61.95"/><polygon class="cls-2" points="7.37 56 6.26 56.36 6.27 57.53 5.58 56.59 4.47 56.95 5.15 56.01 4.46 55.06 5.58 55.42 6.26 54.48 6.26 55.64 7.37 56"/><polygon class="cls-2" points="10.33 64.88 9.22 65.25 9.22 66.41 8.54 65.47 7.43 65.84 8.11 64.89 7.42 63.95 8.53 64.31 9.21 63.36 9.22 64.53 10.33 64.88"/><polygon class="cls-2" points="10.35 70.65 9.24 71.01 9.25 72.18 8.56 71.24 7.45 71.6 8.13 70.66 7.44 69.71 8.55 70.07 9.23 69.12 9.24 70.29 10.35 70.65"/><polygon class="cls-2" points="7.34 73.68 6.23 74.04 6.24 75.21 5.55 74.27 4.44 74.63 5.12 73.69 4.43 72.74 5.54 73.1 6.23 72.15 6.23 73.32 7.34 73.68"/><polygon class="cls-2" points="7.42 67.9 6.31 68.26 6.31 69.43 5.62 68.49 4.52 68.85 5.2 67.91 4.51 66.96 5.62 67.32 6.3 66.37 6.31 67.54 7.42 67.9"/><polygon class="cls-2" points="10.4 85.01 9.3 85.38 9.3 86.54 8.61 85.6 7.5 85.97 8.19 85.02 7.5 84.08 8.61 84.44 9.29 83.49 9.29 84.66 10.4 85.01"/><polygon class="cls-2" points="7.49 87.84 6.38 88.21 6.39 89.37 5.7 88.43 4.59 88.8 5.27 87.85 4.58 86.91 5.69 87.27 6.38 86.32 6.38 87.49 7.49 87.84"/><polygon class="cls-2" points="7.47 81.89 6.36 82.26 6.37 83.42 5.68 82.48 4.57 82.85 5.25 81.9 4.56 80.96 5.67 81.32 6.35 80.37 6.36 81.54 7.47 81.89"/><polygon class="cls-2" points="10.43 90.78 9.32 91.14 9.32 92.31 8.63 91.37 7.52 91.73 8.21 90.79 7.52 89.84 8.63 90.2 9.31 89.25 9.31 90.42 10.43 90.78"/><polygon class="cls-2" points="10.45 96.54 9.34 96.91 9.34 98.07 8.65 97.13 7.55 97.5 8.23 96.55 7.54 95.61 8.65 95.97 9.33 95.02 9.34 96.19 10.45 96.54"/><polygon class="cls-2" points="7.44 99.57 6.33 99.94 6.34 101.1 5.65 100.16 4.54 100.53 5.22 99.58 4.53 98.64 5.64 99 6.32 98.05 6.33 99.22 7.44 99.57"/><polygon class="cls-2" points="7.51 93.79 6.41 94.16 6.41 95.32 5.72 94.38 4.61 94.75 5.29 93.8 4.61 92.86 5.72 93.22 6.4 92.27 6.4 93.44 7.51 93.79"/><polygon class="cls-2" points="10.5 110.91 9.39 111.27 9.4 112.44 8.71 111.5 7.6 111.86 8.28 110.92 7.59 109.97 8.7 110.33 9.39 109.39 9.39 110.55 10.5 110.91"/><polygon class="cls-2" points="7.59 113.74 6.48 114.1 6.49 115.27 5.8 114.33 4.69 114.69 5.37 113.75 4.68 112.81 5.79 113.16 6.47 112.22 6.48 113.38 7.59 113.74"/><polygon class="cls-2" points="7.57 107.79 6.46 108.15 6.46 109.32 5.77 108.38 4.67 108.74 5.35 107.8 4.66 106.86 5.77 107.21 6.45 106.27 6.46 107.43 7.57 107.79"/><polygon class="cls-2" points="10.52 116.67 9.41 117.04 9.42 118.2 8.73 117.26 7.62 117.63 8.3 116.68 7.62 115.74 8.72 116.1 9.41 115.15 9.41 116.32 10.52 116.67"/><polygon class="cls-2" points="10.54 122.44 9.44 122.8 9.44 123.97 8.75 123.03 7.64 123.39 8.32 122.44 7.64 121.5 8.75 121.86 9.43 120.91 9.43 122.08 10.54 122.44"/><polygon class="cls-2" points="7.54 125.47 6.43 125.83 6.43 127 5.74 126.06 4.64 126.42 5.32 125.47 4.63 124.53 5.74 124.89 6.42 123.94 6.43 125.11 7.54 125.47"/><polygon class="cls-2" points="7.61 119.69 6.5 120.05 6.51 121.22 5.82 120.28 4.71 120.64 5.39 119.7 4.7 118.75 5.81 119.11 6.5 118.17 6.5 119.33 7.61 119.69"/><rect class="cls-2" x="-10.51" y="124.76" width="2.83" height="11.68" transform="translate(138.11 139.2) rotate(89.79)"/></g></g></g></g></svg>