<svg xmlns="http://www.w3.org/2000/svg" xmlns:xlink="http://www.w3.org/1999/xlink" viewBox="0 0 139.6 115.09"><defs><style>.cls-1{fill:url(#linear-gradient);}.cls-2{fill:url(#linear-gradient-2);}.cls-3{fill:url(#linear-gradient-3);}.cls-4{fill:url(#linear-gradient-4);}.cls-5{fill:url(#linear-gradient-5);}.cls-6{fill:url(#radial-gradient);}.cls-7{fill:url(#linear-gradient-6);}.cls-8{fill:url(#linear-gradient-7);}.cls-9{fill:url(#linear-gradient-8);}.cls-10{fill:url(#linear-gradient-9);}.cls-11{fill:url(#linear-gradient-10);}.cls-12{fill:url(#linear-gradient-11);}.cls-13{fill:url(#linear-gradient-12);}.cls-14{fill:url(#linear-gradient-13);}.cls-15{fill:url(#linear-gradient-14);}.cls-16{fill:url(#linear-gradient-15);}.cls-17{fill:url(#radial-gradient-2);}.cls-18{fill:url(#radial-gradient-4);}.cls-19{fill:#ed1c24;}</style><linearGradient id="linear-gradient" x1="92.32" y1="87.26" x2="35.19" y2="28.49" gradientUnits="userSpaceOnUse"><stop offset="0" stop-color="#2e3192"/><stop offset="0.38" stop-color="#2d3294"/><stop offset="0.55" stop-color="#2a359b"/><stop offset="0.68" stop-color="#253aa8"/><stop offset="0.78" stop-color="#1d41ba"/><stop offset="0.88" stop-color="#134bd1"/><stop offset="0.96" stop-color="#0757ed"/><stop offset="1" stop-color="#005eff"/></linearGradient><linearGradient id="linear-gradient-2" x1="67.17" y1="87.95" x2="18.57" y2="86.64" gradientUnits="userSpaceOnUse"><stop offset="0" stop-color="#2e3192"/><stop offset="0.17" stop-color="#29369e"/><stop offset="0.48" stop-color="#1c43be"/><stop offset="0.89" stop-color="#0658f1"/><stop offset="1" stop-color="#005eff"/></linearGradient><linearGradient id="linear-gradient-3" x1="107.53" y1="91.4" x2="97.68" y2="-9.42" xlink:href="#linear-gradient-2"/><linearGradient id="linear-gradient-4" x1="94.79" y1="84.86" x2="37.66" y2="26.09" xlink:href="#linear-gradient"/><linearGradient id="linear-gradient-5" x1="112.37" y1="90.92" x2="102.52" y2="-9.88" xlink:href="#linear-gradient-2"/><radialGradient id="radial-gradient" cx="-43.32" cy="93.71" r="48.72" gradientTransform="translate(107.99) scale(0.96 1)" xlink:href="#linear-gradient"/><linearGradient id="linear-gradient-6" x1="41.64" y1="97.84" x2="31.79" y2="-2.96" xlink:href="#linear-gradient-2"/><linearGradient id="linear-gradient-7" x1="122.03" y1="89.98" x2="112.18" y2="-10.82" xlink:href="#linear-gradient-2"/><linearGradient id="linear-gradient-8" x1="115.7" y1="90.6" x2="105.85" y2="-10.2" xlink:href="#linear-gradient-2"/><linearGradient id="linear-gradient-9" x1="121.29" y1="90.05" x2="111.44" y2="-10.75" xlink:href="#linear-gradient-2"/><linearGradient id="linear-gradient-10" x1="84.1" y1="95.42" x2="26.97" y2="36.65" xlink:href="#linear-gradient"/><linearGradient id="linear-gradient-11" x1="55.11" y1="96.52" x2="45.26" y2="-4.28" xlink:href="#linear-gradient-2"/><linearGradient id="linear-gradient-12" x1="118.62" y1="90.31" x2="108.77" y2="-10.49" xlink:href="#linear-gradient-2"/><linearGradient id="linear-gradient-13" x1="34.33" y1="98.55" x2="24.48" y2="-2.25" xlink:href="#linear-gradient-2"/><linearGradient id="linear-gradient-14" x1="81.28" y1="98" x2="24.15" y2="39.22" xlink:href="#linear-gradient"/><linearGradient id="linear-gradient-15" x1="48.3" y1="97.18" x2="38.45" y2="-3.62" xlink:href="#linear-gradient-2"/><radialGradient id="radial-gradient-2" cx="67.01" cy="93.71" r="48.61" xlink:href="#linear-gradient"/><radialGradient id="radial-gradient-4" cx="67.01" cy="93.7" r="48.62" xlink:href="#linear-gradient"/></defs><g id="Layer_2" data-name="Layer 2"><g id="Layer_1-2" data-name="Layer 1"><path class="cls-1" d="M16.74,0a14.36,14.36,0,0,0,1.39.62A1.33,1.33,0,0,1,19.07,2a50.65,50.65,0,0,0,2.25,13.2,32.29,32.29,0,0,0,5.47,10,35.41,35.41,0,0,0,6.33,6.61c1,.75,2,1.39,3.07,2.07l.43.29,0,.15c-.44-.08-.88-.12-1.31-.23a19.55,19.55,0,0,1-5.83-2.82,59.8,59.8,0,0,1-10.68-9.16A37.77,37.77,0,0,1,10.84,9.22a3.1,3.1,0,0,1,.08-2A11.34,11.34,0,0,1,16.29.08s0,0,.06-.08Z"/><path class="cls-2" d="M91.35,79.69c-4.81-1.19-8.15-4.28-10.71-8.36a5.71,5.71,0,0,1-1.12-4,.65.65,0,0,0-.15-.5c-.94-1.05-1.9-2.09-2.87-3.11a.59.59,0,0,0-.48-.14,46.38,46.38,0,0,0-11.53,3.25q-4.2,1.89-8.43,3.72c-2.84,1.23-5.77,2.28-8.55,3.66A40.86,40.86,0,0,1,39.82,77l-2.15.57a16.28,16.28,0,0,0,6.25,2.15L42.37,81.1a17,17,0,0,0,5,2.25,3.22,3.22,0,0,1-.27.3L45.21,85a2,2,0,0,0-.93,1.37c-.15,1.09-.37,2.17-.57,3.25a37.48,37.48,0,0,1-2.52,8.83,27.88,27.88,0,0,1-9.31,10.84c-.89.64-1.88,1.36-2.93,2a.15.15,0,0,0,.08.27,15,15,0,0,0,2.8-.14,11.76,11.76,0,0,0,5-2c1.51-1.07,2.82-2.45,4.25-3.63a19,19,0,0,1,5.78-3.46c1.75-.6,3.51-1.18,5.25-1.84,2.51-.95,5-2,7.52-2.94A38,38,0,0,1,67.23,96a59.89,59.89,0,0,0,12.13-3.19,28.11,28.11,0,0,0,9-5.22,13,13,0,0,0,4.31-7,4.4,4.4,0,0,0,.06-.79A9.47,9.47,0,0,1,91.35,79.69Z"/><path class="cls-3" d="M127.69,57.39c-.06,0-.12,0-.19,0a70.2,70.2,0,0,1-12.89,1.88c-2.94.15-5.89.14-8.83.12-2.09,0-4.17-.18-6.26-.24a20.74,20.74,0,0,0-3.25,0c-2.3.28-4.58.69-6.86,1a6.07,6.07,0,0,0-3.48,1.46c-1.42,1.36-2.88,2.69-4.31,4a4.78,4.78,0,0,0-.54.83c.21-.06.29-.07.36-.1a35.54,35.54,0,0,1,15.11-2.12,11.1,11.1,0,0,1,4.35,1.32,1.35,1.35,0,0,1,.78,1.06c.08.52.2,1,.3,1.55a.59.59,0,0,0,.48.53,4.61,4.61,0,0,1,2.69,1.86,2.68,2.68,0,0,1-.08,3.21h0l-.63-.47a4.36,4.36,0,0,0-4.21-.9,11.32,11.32,0,0,0-5.84,4.33c-.26.38-.44.82-.67,1.24.15-.27,3.42-.27,3.88-.33,1.31-.16,2.62-.38,3.91-.65a40.45,40.45,0,0,0,7.3-2.3c8.3-3.54,13.53-10.25,19.26-16.87a2.43,2.43,0,0,0,.22-.46C128.06,57.45,127.88,57.41,127.69,57.39Z"/><path class="cls-4" d="M33.54,26.79c-2-4.47-3.79-9.08-3.89-14A5.52,5.52,0,0,0,28.56,9.3c-.29-.38-.55-.78-.84-1.16L23.15,2A2.39,2.39,0,0,1,23,1.8l-.19,0a4.62,4.62,0,0,0-.23.62A19,19,0,0,0,22.44,10a42,42,0,0,0,3,10.22,28.2,28.2,0,0,0,9.91,12c.22.15.46.27.69.41l.11-.1c0-.15-.1-.32-.16-.47C35.19,30.32,34.35,28.57,33.54,26.79Z"/><path class="cls-5" d="M112.05,8.87a13.89,13.89,0,0,0-1.15-4.61c-.05-.13-.2-.22-.31-.33a2,2,0,0,0-.29.3c-.85,1.49-1.68,3-2.53,4.47-1,1.73-2,3.44-3,5.18a3.83,3.83,0,0,0-.46,2.09,44.85,44.85,0,0,1,0,7.33,41.67,41.67,0,0,1-1.87,7.63c-.87,2.78-1.78,5.55-2.66,8.32-.07.22-.12.45-.17.67l.13.08a2.51,2.51,0,0,0,.47-.3c.57-.52,1.15-1,1.67-1.61a39.25,39.25,0,0,0,4.79-5.81,36.78,36.78,0,0,0,4.14-10.34,38.19,38.19,0,0,0,1.29-9.08C112.18,11.53,112.17,10.19,112.05,8.87Z"/><path class="cls-6" d="M40,87.9a7.58,7.58,0,0,1-3.74,1,29,29,0,0,1-4.28-.32,7.59,7.59,0,0,0-5.78.63,14.13,14.13,0,0,0-2.57,2.13c-.55.56-1.91,1.6-2,2.43a.09.09,0,0,0,0,.07.19.19,0,0,0,.24,0l1.06-.29A90.34,90.34,0,0,1,36,91.48c2-.23,4-.46,6-.71a.67.67,0,0,0,.42-.42c.2-.86.35-1.74.51-2.61.06-.3.17-.83.23-1.16s-.19-.11-.36,0C41.79,87,40.87,87.48,40,87.9Z"/><path class="cls-7" d="M60.84,52.79c-1.18-.49-2.35-1-3.56-1.43a30.19,30.19,0,0,0-9.45-1.21,87.32,87.32,0,0,0-9.83.6l-7.54.82c-2.21.23-4.41.51-6.61.65-2,.13-3.91.17-5.86.12-1.42,0-2.83-.29-4.25-.43-.19,0-.39,0-.71,0,.19.26.28.41.4.54.35.39.73.75,1.05,1.17a.57.57,0,0,1,.08.13.89.89,0,0,1,.2.19,5.29,5.29,0,0,1,.32.5c.63.63,1.13,1.34,1.73,2,.33.36.7.65,1,1,0,0,0-.08,0-.12a2.92,2.92,0,0,1,.33.25,4.12,4.12,0,0,0,2.29,1.06c1.13.08,2.26.15,3.39.18a40.53,40.53,0,0,0,8-.48L38,57.23c3.13-.58,6.26-1.12,9.38-1.74A93.26,93.26,0,0,1,59,53.67c.78-.06,1.55-.21,2.32-.31l0-.17A4.12,4.12,0,0,0,60.84,52.79Z"/><path class="cls-8" d="M96.73,47.88c.32-.49.54-.86.8-1.21.64-.9,1.26-1.82,2-2.65a4.22,4.22,0,0,1,1.5-1.16,41.14,41.14,0,0,0,15.39-11.14,70,70,0,0,0,8.34-11A37.11,37.11,0,0,0,129.34,9a5.06,5.06,0,0,1,.4-1.21c.36-.76.87-.82,1.3-.1a27.39,27.39,0,0,1,1.69,3.16c1.18,2.73,2.37,5.46,3.38,8.26a4.9,4.9,0,0,1-1,5.12A78.53,78.53,0,0,1,120.62,36.7a82.92,82.92,0,0,1-19.17,10c-1.2.43-2.45.75-3.68,1.09A5.65,5.65,0,0,1,96.73,47.88Z"/><path class="cls-9" d="M109.24,57.73c-3.28,0-6.57,0-9.86,0a43.79,43.79,0,0,0-10.87,1.4,1.27,1.27,0,0,1-.38.07.52.52,0,0,1-.33-.13s0-.22.06-.31c.58-.95,1.2-1.88,1.75-2.86a5.31,5.31,0,0,1,4.26-2.78q5.26-.63,10.5-1.38a113.14,113.14,0,0,0,22.33-5,47.62,47.62,0,0,0,8.44-3.78,2.12,2.12,0,0,1,.67-.16,1.93,1.93,0,0,1,.09.74,6.36,6.36,0,0,1-.49,1.43c-1,2-2.12,3.94-3.16,5.92a9.84,9.84,0,0,1-6.5,5.09,41.55,41.55,0,0,1-7.89,1.39c-2.87.2-5.74.33-8.61.49Z"/><path class="cls-10" d="M139.24,24.51c.06.43.11.71.13,1a24.14,24.14,0,0,1-.53,9.61A7.43,7.43,0,0,1,136.12,39a48.11,48.11,0,0,1-8.37,4.7A91.18,91.18,0,0,1,108.66,50c-2.76.62-5.61.87-8.42,1.25-2.19.3-4.4.53-6.6.79l-.46,0a6.52,6.52,0,0,1,4.38-2.93A41.39,41.39,0,0,0,109,45.29,131.8,131.8,0,0,0,125.25,36a99.69,99.69,0,0,0,13-10.63C138.55,25.1,138.85,24.86,139.24,24.51Z"/><path class="cls-11" d="M39.56,39.35c-.74-.05-1.35-.05-2-.14a53.89,53.89,0,0,1-9-2.22A78.2,78.2,0,0,1,7.28,26.17a43,43,0,0,1-3.43-2.75,4.66,4.66,0,0,1-1.52-5.15c.79-2.77,1.53-5.56,2.31-8.34A13.72,13.72,0,0,1,5.36,8,1.08,1.08,0,0,1,6,7.41c.19,0,.48.29.64.52a4.59,4.59,0,0,1,.47,1,33.48,33.48,0,0,0,7.25,12.25,59.07,59.07,0,0,0,11.24,9.94A30.84,30.84,0,0,0,35,35.26a4.44,4.44,0,0,1,2.26,1.34L39.35,39A2.35,2.35,0,0,1,39.56,39.35Z"/><path class="cls-12" d="M75,62.29c-1,.19-1.82.36-2.67.51a65.79,65.79,0,0,0-14.47,4.76C53,69.68,48.19,71.85,43.34,74a23.67,23.67,0,0,1-5.54,1.69,3.74,3.74,0,0,1-2.62-.44,24.39,24.39,0,0,1-5.32-4.28c-.83-.91-.77-1,.39-1.32,2.46-.64,5-1.18,7.36-2,3.08-1,6.06-2.37,9.16-3.32,4-1.23,8.13-2.2,12.2-3.29a50.31,50.31,0,0,1,8.44-1.44,8,8,0,0,1,4,.79c1.13.5,2.2,1.11,3.3,1.67C74.75,62.08,74.8,62.14,75,62.29Z"/><path class="cls-13" d="M99.38,41.83c.21-.18.41-.36.63-.53a37,37,0,0,0,9-10.5A40.48,40.48,0,0,0,113.2,22a39.17,39.17,0,0,0,1.54-7.5,61.77,61.77,0,0,0,.36-8.7c0-.84-.09-1.67-.17-2.51a1.16,1.16,0,0,1,.54-1.26c.15-.09.28-.22.44-.32,1.85-1.14,1.58-1.22,3.47-.09A12.58,12.58,0,0,1,125,8.34a3.25,3.25,0,0,1,.08,2A43.5,43.5,0,0,1,118,25.61a64.57,64.57,0,0,1-9.2,10.4,61.83,61.83,0,0,1-5.25,4.16,23.86,23.86,0,0,1-3.67,1.76,1.51,1.51,0,0,1-.38.07Z"/><path class="cls-14" d="M53.17,48.56a59.27,59.27,0,0,0-11.06-.18c-3.09.22-6.17.6-9.26.93-2.57.28-5.14.6-7.72.91a43.77,43.77,0,0,1-7.33.26A28.26,28.26,0,0,1,13.71,50a7.91,7.91,0,0,1-5-3.66c-1-1.46-2.07-2.92-3.07-4.41a9,9,0,0,1-.71-1.5.6.6,0,0,1,0-.53c.1-.09.36,0,.53,0,1.64.54,3.25,1.16,4.91,1.62a48.84,48.84,0,0,0,8.75,1.6c2.43.23,4.86.5,7.3.57,4.5.14,9,.17,13.51.19a44.61,44.61,0,0,1,6.93.4,3.36,3.36,0,0,1,1.53.74c1.37,1.1,2.78,2.14,4.18,3.2C52.79,48.32,53,48.43,53.17,48.56Z"/><path class="cls-15" d="M.15,24.05c.37.26.75.5,1.11.77A81.26,81.26,0,0,0,14.62,33a104.42,104.42,0,0,0,15.45,6,28.26,28.26,0,0,0,7.59,1.28,9.17,9.17,0,0,1,3.26.67c1.16.45,2.35.85,3.52,1.27a3.89,3.89,0,0,1,.42.19v.14l-.54,0c-2.21,0-4.43,0-6.65,0-2,0-4,.16-6.06.13A61.87,61.87,0,0,1,23.68,42a76.92,76.92,0,0,1-9.31-1.81,49.83,49.83,0,0,1-9.71-3.51,6.76,6.76,0,0,1-3.37-3.83,18,18,0,0,1-1.1-5.37c0-.89-.13-1.77-.18-2.65,0-.25,0-.49,0-.73Z"/><path class="cls-16" d="M68,58c-.93.12-1.85.28-2.78.35a49.34,49.34,0,0,0-7.53,1.46,174.84,174.84,0,0,0-20,6.2,39.29,39.29,0,0,1-7.21,2,4.54,4.54,0,0,1-4-1,35.45,35.45,0,0,1-4.7-4.71,4.55,4.55,0,0,1-.51-.78c-.19-.35-.09-.53.32-.52.64,0,1.28,0,1.92.11a24.41,24.41,0,0,0,4.91-.08c6.27-.59,12.3-2.35,18.39-3.84a83.55,83.55,0,0,1,10-2,19.61,19.61,0,0,1,6.53.16,6.07,6.07,0,0,1,1.63.66c.89.49,1.74,1,2.61,1.59.14.08.26.17.4.26Z"/><path class="cls-17" d="M41.14,95.53c-.4.87-.75,1.65-1.12,2.42a.92.92,0,0,1-.44.43c-4.26,2.08-8.51,4.2-12.92,6a90.71,90.71,0,0,1-11.93,3.87.58.58,0,0,1-.19,0,.15.15,0,0,1-.17-.17,12.23,12.23,0,0,1,1.38-3.82,5.79,5.79,0,0,1,3.17-2.73,68.19,68.19,0,0,1,9-2.68q6.47-1.61,12.92-3.25Z"/><path class="cls-17" d="M17.32,100.25a.13.13,0,0,1-.11-.2l.31-.49,1.72-2.81a4.23,4.23,0,0,1,1.92-1.87,11,11,0,0,1,2.59-.66c3-.44,6-.82,9-1.24l9.16-1.34a.33.33,0,0,1,.14,0,.13.13,0,0,1,.11.16c-.22.86-.42,1.7-.66,2.52,0,.12-.28.21-.45.24q-3.26.8-6.51,1.55c-5.67,1.31-11.4,2.38-17,4.1Z"/><path class="cls-18" d="M15.42,110.2a.15.15,0,0,1,.07-.24,85.85,85.85,0,0,0,23.44-10.3c0,.17,0,.22,0,.24a28.93,28.93,0,0,1-8.26,8.45,22.07,22.07,0,0,1-6.35,3.16,3.63,3.63,0,0,1-.73.08c-1.27,0-3.4-.18-4.68-.32C17.77,111.14,16.23,111.1,15.42,110.2Z"/><path class="cls-19" d="M22.35,90.09a16.15,16.15,0,0,1,2-1.71,50.16,50.16,0,0,1-7.93-27.1c0-.92,0-1.84.08-2.75l0,0a3.48,3.48,0,0,0-.42-.44c-.16-.15-.32-.3-.47-.47s-.55-.63-.82-1-.55-.68-.86-1l-.17-.17-.12-.2-.12-.21,0,0a53.54,53.54,0,0,0,8.37,35.6l.21-.2Z"/><path class="cls-19" d="M33.85,23.15a50.33,50.33,0,0,1,68.42,2.24c.16-.75.3-1.51.39-2.28s.1-1.23.12-1.84a53.71,53.71,0,0,0-70.15-1.5C33,20.92,33.4,22,33.85,23.15Z"/><path class="cls-19" d="M116,72.59A50.42,50.42,0,0,1,43.58,106c-.45.33-.92.69-1.41,1.09s-.93.8-1.38,1.21a53.77,53.77,0,0,0,79.27-39.12A45.49,45.49,0,0,1,116,72.59Z"/></g></g></svg>